<svg id="Capa_1" data-name="Capa 1" xmlns="http://www.w3.org/2000/svg" xmlns:xlink="http://www.w3.org/1999/xlink" viewBox="0 0 144.26 204.72"><defs><style>.cls-1{filter:url(#h);}.cls-2,.cls-3,.cls-4{fill-rule:evenodd;}.cls-3{stroke:#000;fill:url(#Degradado_sin_nombre_519);}.cls-3,.cls-7{stroke-miterlimit:1.85;stroke-width:0.46px;}.cls-4{fill:url(#Degradado_sin_nombre_520);}.cls-11,.cls-13,.cls-15,.cls-5,.cls-6{isolation:isolate;}.cls-5{opacity:0.47;fill:url(#Degradado_sin_nombre_521);}.cls-6{opacity:0.4;fill:url(#Degradado_sin_nombre_522);}.cls-7{fill:none;}.cls-7,.cls-9{stroke:#fff;}.cls-12,.cls-14,.cls-16,.cls-8{stroke:#c8c8c8;stroke-linejoin:round;}.cls-8{stroke-width:0.35px;fill:url(#Degradado_sin_nombre_523);}.cls-9{stroke-miterlimit:8.2;fill:url(#Degradado_sin_nombre_524);}.cls-10{fill:url(#Degradado_sin_nombre_525);}.cls-11,.cls-13,.cls-15{opacity:0.4;}.cls-11{fill:url(#Degradado_sin_nombre_526);}.cls-12,.cls-14,.cls-16{stroke-width:0.72px;}.cls-12{fill:url(#Degradado_sin_nombre_527);}.cls-13{fill:url(#Degradado_sin_nombre_528);}.cls-14{fill:url(#Degradado_sin_nombre_529);}.cls-15{fill:url(#Degradado_sin_nombre_530);}.cls-16{fill:url(#Degradado_sin_nombre_531);}</style><filter id="h" name="h"><feGaussianBlur stdDeviation="3.76"/></filter><linearGradient id="Degradado_sin_nombre_519" x1="114.59" y1="781.52" x2="124.07" y2="1295.93" gradientTransform="matrix(0.46, 0, 0, -0.46, 339.38, 855.86)" gradientUnits="userSpaceOnUse"><stop offset="0" stop-color="#f3f3f3"/><stop offset="1" stop-color="#8f8f8f"/></linearGradient><linearGradient id="Degradado_sin_nombre_520" x1="-261.92" y1="1152.18" x2="-129.66" y2="714.54" gradientTransform="matrix(0.49, 0, 0, -0.48, 493.58, 1013.97)" gradientUnits="userSpaceOnUse"><stop offset="0" stop-color="#590000"/><stop offset="1" stop-color="#bf0303"/></linearGradient><radialGradient id="Degradado_sin_nombre_521" cx="124.5" cy="1837.59" r="58.67" gradientTransform="matrix(-0.46, 0, 0, 0.42, 395.6, -153.68)" gradientUnits="userSpaceOnUse"><stop offset="0" stop-color="#fff"/><stop offset="1" stop-color="#fff" stop-opacity="0"/></radialGradient><radialGradient id="Degradado_sin_nombre_522" cx="222.6" cy="733.49" r="63.15" gradientTransform="matrix(0.48, 0, 0, -0.73, 338.52, 1002.34)" xlink:href="#Degradado_sin_nombre_521"/><linearGradient id="Degradado_sin_nombre_523" x1="207.67" y1="955.53" x2="207.67" y2="958.87" gradientTransform="matrix(2.05, 0, 0, -2.05, -85.01, 2581.77)" xlink:href="#Degradado_sin_nombre_519"/><linearGradient id="Degradado_sin_nombre_524" x1="258.76" y1="1032.48" x2="258.76" y2="1035.76" gradientTransform="matrix(2.05, 0, 0, -2.05, -85.01, 2581.77)" xlink:href="#Degradado_sin_nombre_519"/><radialGradient id="Degradado_sin_nombre_525" cx="192.28" cy="1160.5" r="25.37" gradientTransform="matrix(1.7, 1.15, 4.4, -6.48, -5082.18, 7891.96)" xlink:href="#Degradado_sin_nombre_521"/><radialGradient id="Degradado_sin_nombre_526" cx="413.11" cy="1066.97" r="26.74" gradientTransform="matrix(0.75, 0, 0, -0.75, 80.15, 1399.42)" xlink:href="#Degradado_sin_nombre_521"/><linearGradient id="Degradado_sin_nombre_527" x1="458.75" y1="1383.82" x2="458.75" y2="1390.75" gradientTransform="matrix(2.05, 0, 0, -2.05, -549.28, 3439.89)" xlink:href="#Degradado_sin_nombre_519"/><radialGradient id="Degradado_sin_nombre_528" cx="413.11" cy="1066.97" r="26.74" gradientTransform="matrix(0.75, 0, 0, -0.75, 80.15, 1344.64)" xlink:href="#Degradado_sin_nombre_521"/><linearGradient id="Degradado_sin_nombre_529" x1="458.75" y1="1383.82" x2="458.75" y2="1390.75" gradientTransform="matrix(2.05, 0, 0, -2.05, -549.28, 3385.11)" xlink:href="#Degradado_sin_nombre_519"/><radialGradient id="Degradado_sin_nombre_530" cx="413.11" cy="1066.97" r="26.74" gradientTransform="matrix(0.75, 0, 0, -0.75, 80.15, 1289.86)" xlink:href="#Degradado_sin_nombre_521"/><linearGradient id="Degradado_sin_nombre_531" x1="458.75" y1="1383.82" x2="458.75" y2="1390.75" gradientTransform="matrix(2.05, 0, 0, -2.05, -549.28, 3330.33)" xlink:href="#Degradado_sin_nombre_519"/></defs><g class="cls-1"><path class="cls-2" d="M326.7,442.83H456a7.25,7.25,0,0,1,7.25,7.25h0V638.86A7.24,7.24,0,0,1,456,646.1H326.7a7.25,7.25,0,0,1-7.25-7.24h0V450.08a7.26,7.26,0,0,1,7.25-7.25" transform="translate(-319.45 -441.39)"/></g><path class="cls-3" d="M327.84,441.62h127.5a8.13,8.13,0,0,1,8.13,8.13h0v187a8.13,8.13,0,0,1-8.13,8.13H327.84a8.13,8.13,0,0,1-8.13-8.13h0v-187a8.13,8.13,0,0,1,8.13-8.13" transform="translate(-319.45 -441.39)"/><path class="cls-4" d="M329.74,447.1H454a2.64,2.64,0,0,1,2.65,2.65V633.52a2.65,2.65,0,0,1-2.65,2.66H329.74a2.66,2.66,0,0,1-2.66-2.66V449.75a2.65,2.65,0,0,1,2.66-2.65" transform="translate(-319.45 -441.39)"/><path class="cls-5" d="M379.57,635.91H329.42a2.13,2.13,0,0,1-2.13-2.13h0v-45.5a2.13,2.13,0,0,1,2.13-2.13h50.15a2.13,2.13,0,0,1,2.13,2.13h0v45.5a2.13,2.13,0,0,1-2.13,2.13h0" transform="translate(-319.45 -441.39)"/><path class="cls-6" d="M396.89,446.83h60v92.79h-60Z" transform="translate(-319.45 -441.39)"/><path class="cls-7" d="M357.76,627.92h91.65V477.08m-23.72-21.74H334.37v150" transform="translate(-319.45 -441.39)"/><path class="cls-8" d="M340.58,612.94a42,42,0,0,0,2.95,3.85,40.48,40.48,0,0,0,3.42,3.36,39.07,39.07,0,0,0-3.39,3.34,41.48,41.48,0,0,0-2.93,3.83,41.53,41.53,0,0,0-3-3.86,38.37,38.37,0,0,0-3.44-3.37,39.3,39.3,0,0,0,3.41-3.34,39.91,39.91,0,0,0,2.95-3.81Z" transform="translate(-319.45 -441.39)"/><path class="cls-9" d="M443.36,463a6.61,6.61,0,0,1,2.41.25,3.47,3.47,0,0,1,2.3,3.36,3.16,3.16,0,0,1-3,3.39,3.24,3.24,0,0,1-1.91-.7,2.91,2.91,0,0,0-1.45-.57.78.78,0,0,0-.87.79c0,.8,1,1.3,2.57,1.3A7.33,7.33,0,0,0,448,469.3a4.9,4.9,0,0,0,1.66-3.78,4.29,4.29,0,0,0-1-2.93,4.69,4.69,0,0,0-1.89-1.2c1.57-1.07,2.14-1.91,2.14-3.14,0-1.84-1.45-3.11-3.55-3.11a4.33,4.33,0,0,0-2.95,1.11,5.53,5.53,0,0,0-1.52,2.57l.34.09c.93-1.66,1.95-2.41,3.38-2.41a2.36,2.36,0,0,1,2.5,2.43,3.21,3.21,0,0,1-.9,2.21,6.71,6.71,0,0,1-2.87,1.57V463" transform="translate(-319.45 -441.39)"/><path class="cls-10" d="M353.21,621.28c1.08-1.85-3.22-8.39-3.77-10.86a4.38,4.38,0,0,1-.12-.63,9.45,9.45,0,0,1-.09-1.07,10.43,10.43,0,0,1,.26-1.85.69.69,0,0,0,.63-.69.67.67,0,0,0-.29-.56c.14-.47.29-.94.43-1.41a20,20,0,0,1,1.23-3,40.69,40.69,0,0,1,2.24-3.6c.24-.37.5-.74.76-1.1a.86.86,0,0,0,.22,0,1.21,1.21,0,0,0,1.13-1.74l.93-1.1a59.59,59.59,0,0,1,4.37-4.19c1.66-1.52,3.42-2.92,5.19-4.3,2.11-1.64,4.35-3.09,6.58-4.55s4.26-2.69,6.42-4a1,1,0,0,0,.3,0,1.22,1.22,0,0,0,1.23-1.23,1.24,1.24,0,0,0-1.23-1.25,1.25,1.25,0,0,0-1.24,1.25,1.24,1.24,0,0,0,.89,1.19l-.6.35q-3.94,2.34-7.81,4.82c-2.24,1.46-4.5,2.92-6.61,4.57-1.78,1.38-3.53,2.79-5.19,4.31-1.27,1.15-2.55,2.29-3.74,3.52a1.28,1.28,0,0,0-.62-.17,1.26,1.26,0,0,0-1.25,1.25,1.29,1.29,0,0,0,.25.74,30.11,30.11,0,0,0-2.09,2.78,40.2,40.2,0,0,0-2.23,3.61l-.29.62c.06-1.25.22-2.5.38-3.74a32.5,32.5,0,0,1,1.07-5.17,31.4,31.4,0,0,1,1.7-4.51,26.38,26.38,0,0,0,1.78-3.33c.11-.25.2-.52.29-.77l.07-.19c.89-1.61,1.81-3.18,2.74-4.76l.17-.29,1.06-1.44c1-1.3,2.09-2.57,3.16-3.82,1.38-1.61,2.87-3.11,4.35-4.63,1.66-1.71,3.43-3.32,5.2-4.92,1.92-1.7,3.83-3.39,5.74-5.1s4.07-3.61,6.11-5.41c2.3-2,4.53-4.07,6.74-6.17q1.75-1.67,3.48-3.38c-.24.3,1.11-.73,3.45-2.72s4.56-3.82,6.94-5.62a32.65,32.65,0,0,1,4.65-3.19l1-.45a1.11,1.11,0,0,0-.08.36,1.24,1.24,0,1,0,2.48,0,1.23,1.23,0,0,0-.3-.79c4.58-.34,5.52-1,.56-.68a3.63,3.63,0,0,0-1.17.27,1.12,1.12,0,0,0-.32,0,1.23,1.23,0,0,0-1.1.68,45.11,45.11,0,0,0-7,4.52c-2.36,1.8-4.65,3.7-6.91,5.63-.93.79-1.56,1.36-1.91,1.69,1.18-1.17,2.36-2.35,3.52-3.53,2.56-2.58,5-5.29,7.33-8.06,1.46-1.74,2.86-3.54,4.23-5.35a1.24,1.24,0,0,0,2.19-.79,1.22,1.22,0,0,0-.74-1.13c.62-.84,1.22-1.67,1.83-2.51a111.88,111.88,0,0,0,7.08-11.17,74.53,74.53,0,0,0,5.71-12.78,114.27,114.27,0,0,0,2.31-11.88c.76-4.78-.43-4.09-1.19.69a111,111,0,0,1-2.31,11.87,74.57,74.57,0,0,1-5.72,12.78c-.17.31-.36.61-.54.91a.68.68,0,0,0-.66-.55.69.69,0,0,0-.68.7.68.68,0,0,0,.68.68.59.59,0,0,0,.23,0,109.47,109.47,0,0,1-6.11,9.49l-1.25,1.73a1.22,1.22,0,0,0-1.12,1.22,2,2,0,0,0,0,.24c-1.67,2.24-3.38,4.45-5.17,6.59-2.35,2.77-4.77,5.48-7.33,8.06s-4.85,4.89-7.35,7.26c-2.21,2.1-4.44,4.17-6.75,6.17-2,1.8-4.09,3.59-6.11,5.41l-5.76,5.1c-1.64,1.49-3.29,3-4.85,4.58a.68.68,0,0,0-.32-.42c.61-.63,1.23-1.24,1.86-1.86,2.05-1.93,4.17-3.81,6.23-5.74,2.42-2.27,4.79-4.61,7.12-7a80.81,80.81,0,0,0,7.41-8.59A97.56,97.56,0,0,0,394,536.16a73.31,73.31,0,0,0,5.43-12.54,84.79,84.79,0,0,0,2.8-14.31A117.93,117.93,0,0,0,402.4,497a1.27,1.27,0,0,0,.42-.93,1.22,1.22,0,0,0-.5-1c0-.51,0-1,0-1.53l-.09-2.56c-.17-4.8-1.35-4.12-1.17.68,0,.86.05,1.71.09,2.57,0,.22,0,.44,0,.66a1.25,1.25,0,0,0-.79,1.16,1.2,1.2,0,0,0,.87,1.16c.06,2.13.11,4.25.1,6.38a1.13,1.13,0,0,0-.48-.11,1.24,1.24,0,1,0,0,2.48,1.08,1.08,0,0,0,.44-.09c0,1.38-.1,2.75-.21,4.12-.38,3.1-.86,6.19-1.52,9.24,0-1.45,0-2.92,0-4.37-.11-3.46-.32-6.9-.77-10.33a55.09,55.09,0,0,0-1.39-7,24,24,0,0,0-1.16-3.41,3.51,3.51,0,0,0-.55-.91c-3.91-3.5-5.22-2.71-1.28.75a3.4,3.4,0,0,1,.55.89,23.56,23.56,0,0,1,1.18,3.4,56.85,56.85,0,0,1,1.42,7,101.92,101.92,0,0,1,.79,10.33c.06,1.92,0,3.84,0,5.76a15.56,15.56,0,0,0,.09,2.5l-.15.47c-.79,2.37-1.68,4.68-2.68,7a1.23,1.23,0,1,0-1.07,1.85l.25,0c-.61,1.27-1.24,2.52-1.93,3.75a97.77,97.77,0,0,1-6.75,11.08,80.91,80.91,0,0,1-7.42,8.59c-2.34,2.37-4.7,4.72-7.13,7-2.06,1.93-4.19,3.81-6.25,5.74l-1,1.06a.68.68,0,0,0-.57.58A37.33,37.33,0,0,0,360,575a68.63,68.63,0,0,0-3.91,5.91c-.45.61-.87,1.23-1.26,1.88s-.85,1.35-1.19,2.06a12.57,12.57,0,0,0-.65,1.45.06.06,0,0,0,0,0c-.34.63-.68,1.25-1,1.89-.41.86-.81,1.72-1.19,2.59,0-.14.05-.29.09-.43a36.39,36.39,0,0,1,1-3.57c.49-1.4,1.07-2.76,1.66-4.13.71-1.66,1.46-3.32,2.18-5,1-2.25,2.12-4.43,3.22-6.62,1.41-2.69,2.65-5.44,3.84-8.22,1.42-3.39,2.82-6.79,4.23-10.19s2.9-7,4.23-10.56a.69.69,0,0,0,.52-.67.62.62,0,0,0-.13-.4c1.35-3.72,2.54-7.5,3.7-11.29,1.33-4.4,2.48-8.85,3.37-13.36a86.78,86.78,0,0,0,1.06-15.86c-.16-5.4-.79-10.77-1.45-16.13-.4-3.22-.89-6.44-1.39-9.65a10.85,10.85,0,0,0-.72-2.85,1.23,1.23,0,0,0,.39.07,1.24,1.24,0,1,0,0-2.48,1.22,1.22,0,0,0-1.23,1.23,1.24,1.24,0,0,0,.33.86c-.24.34-.3,1.66,0,3.85.23,1.42.44,2.85.66,4.28a.7.7,0,0,0-.48-.18.68.68,0,0,0,0,1.36.69.69,0,0,0,.61-.36c.22,1.52.43,3,.62,4.55l.14,1.16a1.19,1.19,0,0,0-.56-.14,1.25,1.25,0,0,0-1.25,1.24,1.23,1.23,0,0,0,1.25,1.23,1.2,1.2,0,0,0,.8-.3c.51,4.3.95,8.61,1.08,12.94a86.8,86.8,0,0,1-1.08,15.86c-.9,4.52-2,9-3.38,13.38-1.07,3.49-2.18,7-3.4,10.4a.68.68,0,0,0-.34.6.64.64,0,0,0,.05.24l-.27.71c-1.38,3.68-2.83,7.35-4.37,11q-2.12,5.1-4.25,10.19c-1.19,2.78-2.44,5.54-3.85,8.23-1.11,2.19-2.23,4.37-3.23,6.62-.73,1.66-1.47,3.33-2.19,5-.58,1.36-1.18,2.72-1.67,4.13-.37,1.17-.77,2.35-1,3.56-.21,1-.44,2-.62,3.06-.09.44-.17.89-.27,1.33-.53,2.18-.58,3.28-.38,3.45-.06.37-.11.74-.14,1.11a35.86,35.86,0,0,0-.42,4.38c0,.67,0,1.35,0,2-.16.5-.31,1-.43,1.52,0,.21-.07.4-.11.61h-6.09c4.09,1.18,7.29.84,12,12.66Zm1.2-9.57a.69.69,0,0,0,0-1.37.69.69,0,0,0,0,1.37Zm-9.49-3.47a1.25,1.25,0,1,0-1.24-1.24A1.25,1.25,0,0,0,344.92,608.24Zm6.69-1.49a1.24,1.24,0,1,0,0-2.48,1.24,1.24,0,0,0,0,2.48Zm-8.74-3.48a.68.68,0,1,0-.68-.68A.67.67,0,0,0,342.87,603.27Zm3.1-1.11a.69.69,0,0,0,0-1.37.69.69,0,0,0,0,1.37Zm11.71-1.48a1.24,1.24,0,1,0,0-2.48,1.24,1.24,0,0,0,0,2.48Zm2.91-2.12a.68.68,0,0,0,0-1.36.68.68,0,0,0,0,1.36Zm-17-1.36A1.24,1.24,0,0,0,344.8,596a1.25,1.25,0,1,0-2.49,0A1.24,1.24,0,0,0,343.55,597.2Zm2.86-3.59a1.24,1.24,0,1,0-1.25-1.25A1.24,1.24,0,0,0,346.41,593.61Zm16-.49a.69.69,0,1,0-.68-.69A.68.68,0,0,0,362.46,593.12Zm9-1.12a1.24,1.24,0,1,0-1.25-1.25A1.25,1.25,0,0,0,371.45,592Zm-13.26-1.49a1.24,1.24,0,0,0,0-2.48,1.24,1.24,0,1,0,0,2.48Zm4.85-.31c.06,0,1.46-.94,3.74-2.62,1-.72,1.92-1.47,3-2.1a43.79,43.79,0,0,1,4.52-2.41l.95-.42a1.22,1.22,0,0,0-.29.79,1.24,1.24,0,1,0,1.31-1.22c1.08-.48,2.17-1,3.27-1.38s2.48-1,3.73-1.47l1.59-.6c4.89-1.87,6.16-2.61,1.27-.74l-1.6.61c-1.26.48-2.48,1-3.73,1.48-1.78.68-3.52,1.46-5.26,2.24a70,70,0,0,0-7,3.83c-1,.63-2,1.39-3,2.1-1.77,1.31-2.53,1.9-2.49,1.91Zm-17.25-1.3a1.24,1.24,0,1,0-1.25-1.25A1.25,1.25,0,0,0,345.79,588.9Zm27.08-1.36a.69.69,0,1,0-.69-.68A.69.69,0,0,0,372.87,587.54Zm-22.49-1.74a1.24,1.24,0,1,0-1.25-1.25A1.24,1.24,0,0,0,350.38,585.8Zm6.69-.38a1.22,1.22,0,0,0,1.23-1.23,1.24,1.24,0,0,0-1.23-1.25,1.25,1.25,0,0,0-1.24,1.25A1.24,1.24,0,0,0,357.07,585.42Zm-16.81-1a.69.69,0,1,0-.68-.68A.69.69,0,0,0,340.26,584.44Zm43.27-2.37a.68.68,0,1,0-.68-.68A.67.67,0,0,0,383.53,582.07ZM368.72,582a1.24,1.24,0,1,0-1.24-1.25A1.25,1.25,0,0,0,368.72,582Zm21.88-1.12a.68.68,0,1,0,0-1.36h-.06a1.2,1.2,0,0,0,.37-.87,1.24,1.24,0,1,0-1.24,1.23,1.29,1.29,0,0,0,.35,0,.72.72,0,0,0-.1.36.67.67,0,0,0,.68.68Zm4.28-2.85a1.24,1.24,0,1,0-1.25-1.25A1.25,1.25,0,0,0,394.88,578Zm-42.27,0a1.24,1.24,0,1,0-1.25-1.25A1.26,1.26,0,0,0,352.61,578Zm9.78-.13a1.24,1.24,0,1,0-1.23-1.23A1.23,1.23,0,0,0,362.39,577.86Zm35.64-.12a.68.68,0,1,0-.68-.68A.68.68,0,0,0,398,577.74Zm-26.64-.87a.68.68,0,1,0-.68-.68A.68.68,0,0,0,371.39,576.87ZM360,576.06l1.23-1.75a30.62,30.62,0,0,1,2.47-3,.65.65,0,0,0,.42.3c-1.33,1.36-2.66,2.72-3.9,4.16l-.22.26Zm23.58-1.87,4-2.26q1.53-.82,3.06-1.68a1.29,1.29,0,0,0,.35,0,1.21,1.21,0,0,0,1.18-.91q2.14-1.2,4.26-2.43l-4.24,2.39a1.27,1.27,0,0,0,0-.28,1.24,1.24,0,1,0-2.48,0,1.27,1.27,0,0,0,.84,1.18l-1,.53q-3,1.69-6,3.42Zm15.91-.17a.68.68,0,1,0,0-1.36.68.68,0,0,0,0,1.36Zm-47.43-1.86a1.25,1.25,0,0,0,1.25-1.24,1.17,1.17,0,0,0-.07-.38l.13,0a.69.69,0,0,0,0-1.38.68.68,0,0,0-.68.67,1.24,1.24,0,1,0-.63,2.31Zm-4-.13a.68.68,0,1,0-.68-.68A.68.68,0,0,0,348.07,572Zm8.63-4.71a1.22,1.22,0,0,0,1.23-1.23,1.24,1.24,0,1,0-1.23,1.23Zm52.37-.24a.68.68,0,1,0,0-1.36.68.68,0,0,0,0,1.36ZM397,566.66l1.85-1.07a88,88,0,0,0,8.91-6q2.17-1.67,4.2-3.47a1.25,1.25,0,0,0,1.16.81,1.23,1.23,0,0,0,1.23-1.24,1.24,1.24,0,0,0-.71-1.13c1-.92,1.94-1.85,2.89-2.81.69-.69,1.35-1.42,2-2.16l.1-.08c2-1.8,4-3.59,5.94-5.44l.09-.1a1.24,1.24,0,1,0,1.37-1.4,26.18,26.18,0,0,0,3.09-3.8c1.17-1.72,2.33-3.45,3.45-5.2s2.21-3.5,3.29-5.27c.62-1,1.24-2.06,1.84-3.11a1.13,1.13,0,0,0,0,.25,1.24,1.24,0,0,0,1.23,1.25,1.24,1.24,0,1,0,0-2.48,1.22,1.22,0,0,0-.86.35l.5-.92a25.55,25.55,0,0,0,1.27-2.94,12.17,12.17,0,0,1,.44-1.14c.28-.56.52-1,.71-1.45a1.23,1.23,0,0,0,1-1.22,1.24,1.24,0,0,0-.75-1.14.68.68,0,0,0,.5-.65.68.68,0,1,0-1.05.56,1.24,1.24,0,0,0-.48,2.35c-.37.61-.78,1.35-1.25,2.29a11.13,11.13,0,0,0-.43,1.14,23.72,23.72,0,0,1-1.26,2.93c-.82,1.59-1.75,3.12-2.67,4.65-1.07,1.77-2.18,3.53-3.29,5.27s-2.28,3.49-3.45,5.21a24.37,24.37,0,0,1-2.53,3.2,1.23,1.23,0,0,0-.61.66l-1.39,1.42q-1.68,1.59-3.39,3.13c1.59-1.95,3.06-4,4.49-6.07a51.1,51.1,0,0,0,6-11.79c.08-.21.14-.43.21-.64a1.24,1.24,0,1,0,1.21-1.49,1.26,1.26,0,0,0-.84.33,62,62,0,0,0,1.54-25c-1-7.9-3-6.78-2,1.12a56.5,56.5,0,0,1,.48,12.73,52.78,52.78,0,0,1-2.62,14,51.07,51.07,0,0,1-6,11.81,75.16,75.16,0,0,1-7,9c-1.47,1.3-3,2.6-4.44,3.88-1.07.95-2.21,1.82-3.33,2.71-3.91,3.13-2.68,2.42,1.23-.71,1-.81,2.05-1.6,3-2.44a.15.15,0,0,0,0,.07c-2,1.85-4,3.64-6.16,5.29a90.61,90.61,0,0,1-8.75,5.91Zm-6.87-.32a.68.68,0,0,0,0-1.36.68.68,0,0,0,0,1.36Zm12.4-.51a.7.7,0,0,0,.55-.68.68.68,0,1,0-.68.68ZM375,565.47a1.24,1.24,0,1,0,0-2.48,1.24,1.24,0,0,0,0,2.48Zm3.78-.38a.68.68,0,1,0-.68-.68A.67.67,0,0,0,378.82,565.09Zm18-3.1a.68.68,0,1,0-.68-.68A.67.67,0,0,0,396.8,562Zm6.13-.36a1.25,1.25,0,1,0,0-2.49,1.25,1.25,0,0,0,0,2.49Zm-43.76-.51a1.23,1.23,0,0,0,1.25-1.23,1.25,1.25,0,0,0-2.49,0A1.23,1.23,0,0,0,359.17,561.12Zm58.7-1.23a.68.68,0,1,0-.68-.68A.67.67,0,0,0,417.87,559.89Zm-43.7-.25a1.25,1.25,0,0,0,1.25-1.24,1.24,1.24,0,0,0-1.25-1.23,1.22,1.22,0,0,0-1.23,1.23A1.24,1.24,0,0,0,374.17,559.64Zm-18.53-2.11a.68.68,0,1,0,0-1.36.68.68,0,1,0,0,1.36Zm50-.12a1.25,1.25,0,0,0,1.24-1.24,1.24,1.24,0,1,0-1.24,1.24Zm-44.5-1.24a1.24,1.24,0,0,0,.69-2.26.66.66,0,0,0,0-.28.68.68,0,0,0-1.36,0,.54.54,0,0,0,0,.22,1.23,1.23,0,0,0,.58,2.32Zm26.78-1.12a1.23,1.23,0,0,0,1.23-1.23,1.24,1.24,0,1,0-1.23,1.23Zm-22.84-.45c.29,0,.85-1.42,1.33-4s1-5.2,1.25-7.83a72.17,72.17,0,0,0,.43-9.75,61,61,0,0,0-.69-7.27c-.26-1.62-.5-3.25-.91-4.84a16.39,16.39,0,0,0-.58-1.84c-2.15-4.78-3.51-4-1.28.74a12.84,12.84,0,0,1,.58,1.82c.42,1.59.68,3.22.94,4.84a61.1,61.1,0,0,1,.71,7.26,73.67,73.67,0,0,1-.4,9.74c-.29,2.63-.76,5.23-1.25,7.82-.42,2.26-.38,3.31-.13,3.29Zm26.49,0a.68.68,0,0,0,0-1.36.68.68,0,0,0,0,1.36Zm-20.33-.49a.69.69,0,1,0-.68-.68A.69.69,0,0,0,371.26,554.07Zm8.13-2.24a1.24,1.24,0,0,0,1.23-1.24,1.24,1.24,0,0,0-2.48,0A1.25,1.25,0,0,0,379.39,551.83Zm34.58-1a1.24,1.24,0,0,0,0-2.48,1.24,1.24,0,0,0,0,2.48ZM427.91,548a.68.68,0,1,0-.68-.68A.67.67,0,0,0,427.91,548Zm-23.62-5.82a1.24,1.24,0,1,0-1.23-1.24A1.24,1.24,0,0,0,404.29,542.16Zm13.2-2a.68.68,0,1,0,0-1.36.68.68,0,1,0,0,1.36Zm-60.3-.85a1.25,1.25,0,0,0,0-2.5,1.25,1.25,0,0,0,0,2.5Zm31.37-.51a1.24,1.24,0,0,0,0-2.48,1.24,1.24,0,1,0,0,2.48Zm47.78-1.48a.68.68,0,1,0-.68-.68A.68.68,0,0,0,436.34,537.33Zm-1.55-1A1.24,1.24,0,0,0,436,535.1a1.25,1.25,0,1,0-2.49,0A1.24,1.24,0,0,0,434.79,536.33ZM396.24,536a1.25,1.25,0,0,0,0-2.49,1.25,1.25,0,0,0,0,2.49Zm-20.46-1.38a1.23,1.23,0,0,0,1.24-1.23,1.25,1.25,0,0,0-1.24-1.24,1.23,1.23,0,0,0-1.23,1.24A1.22,1.22,0,0,0,375.78,534.59Zm-13-5.31a.7.7,0,0,0,.69-.7.69.69,0,0,0-1.37,0A.7.7,0,0,0,362.82,529.28ZM370,529a1.23,1.23,0,0,0,1.25-1.23,1.24,1.24,0,1,0-2.48,0A1.22,1.22,0,0,0,370,529Zm54.67-.36a1.24,1.24,0,1,0,0-2.48,1.24,1.24,0,0,0,0,2.48Zm-47-1.24a.69.69,0,0,0,0-1.37.69.69,0,1,0,0,1.37Zm17.17-5.21A1.24,1.24,0,0,0,396,521a1.22,1.22,0,0,0-1.23-1.23,1.24,1.24,0,0,0-1.25,1.23A1.25,1.25,0,0,0,394.76,522.2Zm14.62-.13a1.24,1.24,0,0,0,1.25-1.23,1.25,1.25,0,0,0-1.25-1.24,1.24,1.24,0,0,0-1.23,1.24A1.22,1.22,0,0,0,409.38,522.07Zm25.79-1.36a1.23,1.23,0,0,0,1.23-1.23,1.25,1.25,0,0,0-1.23-1.25,1.26,1.26,0,0,0-1.25,1.25A1.25,1.25,0,0,0,435.17,520.71Zm-62-1a1.25,1.25,0,0,0,1.23-1.25,1.24,1.24,0,0,0-2.48,0A1.26,1.26,0,0,0,373.19,519.73Zm31.48-.13a1.24,1.24,0,1,0-1.25-1.24A1.25,1.25,0,0,0,404.67,519.6Zm-24.85-2.73a.68.68,0,1,0,0-1.36.68.68,0,1,0,0,1.36Zm-17.86-2a.68.68,0,1,0,0-1.36.68.68,0,1,0,0,1.36Zm45-.25a.68.68,0,1,0-.68-.68A.67.67,0,0,0,407,514.64Zm19.89-1.11a1.26,1.26,0,0,0,1.25-1.25,1.24,1.24,0,0,0-2.48,0A1.25,1.25,0,0,0,426.85,513.53ZM394,513a.68.68,0,1,0-.68-.68A.68.68,0,0,0,394,513Zm48.71-1.11a.69.69,0,0,0,0-1.37.69.69,0,0,0,0,1.37Zm-47.16-.25a1.25,1.25,0,1,0-1.25-1.25A1.24,1.24,0,0,0,395.5,511.67Zm19.83-.38a1.24,1.24,0,0,0,1.24-1.24,1.24,1.24,0,0,0-2.48,0A1.25,1.25,0,0,0,415.33,511.29Zm8.5-1.74a.68.68,0,0,0,0-1.36.68.68,0,1,0,0,1.36Zm18.53-.37a1.24,1.24,0,0,0,0-2.48,1.24,1.24,0,1,0,0,2.48Zm-65.62,0a.69.69,0,0,0,.53-.68.68.68,0,1,0-.68.68h.15Zm57-2a.69.69,0,0,0,.68-.68.68.68,0,1,0-1.36,0A.68.68,0,0,0,433.74,507.21ZM384.1,506a1.24,1.24,0,1,0-1.25-1.24A1.24,1.24,0,0,0,384.1,506Zm42-1a.69.69,0,0,0,.68-.68.68.68,0,1,0-1.36,0A.68.68,0,0,0,426.06,505Zm-20.4-1.74A1.25,1.25,0,0,0,406.9,502s0-.05,0-.07a.66.66,0,0,0,.32.07.68.68,0,1,0-.66-.85,1.2,1.2,0,0,0-.89-.38,1.24,1.24,0,1,0,0,2.48ZM419,501.75a.69.69,0,0,0,0-1.37.69.69,0,0,0,0,1.37Zm21.08-.25a.68.68,0,0,0,0-1.36.68.68,0,0,0,0,1.36Zm-5.28-.13a1.24,1.24,0,1,0-1.24-1.23A1.24,1.24,0,0,0,434.79,501.37ZM383,501a1.25,1.25,0,0,0,1.23-1.25,1.23,1.23,0,0,0-1.23-1.23,1.25,1.25,0,0,0-1.25,1.23A1.26,1.26,0,0,0,383,501Zm10.53-1.37a1.25,1.25,0,0,0,1.25-1.24,1.24,1.24,0,0,0-2.41-.42.68.68,0,0,0-.2.48.66.66,0,0,0,.31.56,1.21,1.21,0,0,0,1.05.62Zm27.77-1.11a1.24,1.24,0,1,0,0-2.48,1.24,1.24,0,1,0,0,2.48Zm-45.75-1.25a1.23,1.23,0,0,0,1.25-1.23,1.24,1.24,0,1,0-2.48,0A1.22,1.22,0,0,0,375.53,497.28Zm20.9-3.84a.68.68,0,1,0-.68-.68A.68.68,0,0,0,396.43,493.44Zm41.77-.24a.69.69,0,1,0-.68-.68A.68.68,0,0,0,438.2,493.2Zm-56.65-.13a.69.69,0,1,0-.69-.68A.69.69,0,0,0,381.55,493.07Zm48-2.86a.68.68,0,1,0-.68-.68A.67.67,0,0,0,429.52,490.21Zm2.67-1a1.25,1.25,0,0,0,1.24-1.25,1.24,1.24,0,1,0-1.24,1.25Zm-44.56-1.5a.68.68,0,1,0,0-1.36.68.68,0,1,0,0,1.36Zm5.64-.49A1.23,1.23,0,0,0,394.5,486a1.24,1.24,0,1,0-1.23,1.23Zm-10.67-2a1.24,1.24,0,1,0-1.24-1.24A1.24,1.24,0,0,0,382.6,485.26Zm35.76-.37a.69.69,0,0,0,.68-.69.68.68,0,0,0-1.36,0A.7.7,0,0,0,418.36,484.89Zm-16.05-.13a1.25,1.25,0,0,0,1.25-1.24,1.24,1.24,0,0,0-1.25-1.23,1.22,1.22,0,0,0-1.23,1.23A1.23,1.23,0,0,0,402.31,484.76Zm21.39-1.24a.68.68,0,1,0-.69-.68A.69.69,0,0,0,423.7,483.52Zm-23.93-2.84a.68.68,0,1,0-.68-.68A.68.68,0,0,0,399.77,480.68Zm-26.58-.38a1.24,1.24,0,1,0-1.25-1.24A1.24,1.24,0,0,0,373.19,480.3Zm46.67-3a.68.68,0,1,0-.69-.68A.68.68,0,0,0,419.86,477.33Zm4.4-.87a1.24,1.24,0,1,0-1.25-1.24A1.25,1.25,0,0,0,424.26,476.46Zm-52.76-1.87a.68.68,0,1,0-.68-.68A.68.68,0,0,0,371.5,474.59ZM424.32,472a.68.68,0,0,0,0-1.36.68.68,0,0,0,0,1.36Zm-34.09-1.87a.68.68,0,1,0-.69-.68A.69.69,0,0,0,390.23,470.13Zm-17.48-3.35a.68.68,0,1,0-.68-.68A.67.67,0,0,0,372.75,466.78Zm3.46-2.48a.68.68,0,0,0,0-1.36.68.68,0,0,0,0,1.36Z" transform="translate(-319.45 -441.39)"/><path class="cls-11" d="M411,596.9a20.11,20.11,0,1,1-20.11-20.11A20.11,20.11,0,0,1,411,596.9Z" transform="translate(-319.45 -441.39)"/><path class="cls-12" d="M390.86,582a86,86,0,0,0,6.13,8,83.71,83.71,0,0,0,7.09,7,79.94,79.94,0,0,0-7,6.94A84.59,84.59,0,0,0,391,611.8a86.7,86.7,0,0,0-6.17-8,83.71,83.71,0,0,0-7.14-7,81.09,81.09,0,0,0,7.08-6.92,83.22,83.22,0,0,0,6.12-7.91Z" transform="translate(-319.45 -441.39)"/><path class="cls-13" d="M411,542.12A20.11,20.11,0,1,1,390.87,522,20.11,20.11,0,0,1,411,542.12Z" transform="translate(-319.45 -441.39)"/><path class="cls-14" d="M390.86,527.18a86,86,0,0,0,6.13,8,82.71,82.71,0,0,0,7.09,7,80.89,80.89,0,0,0-7,7A84.59,84.59,0,0,0,391,557a86.7,86.7,0,0,0-6.17-8,83.71,83.71,0,0,0-7.14-7,81.09,81.09,0,0,0,7.08-6.92,83.22,83.22,0,0,0,6.12-7.91Z" transform="translate(-319.45 -441.39)"/><path class="cls-15" d="M411,487.34a20.11,20.11,0,1,1-20.11-20.11A20.11,20.11,0,0,1,411,487.34Z" transform="translate(-319.45 -441.39)"/><path class="cls-16" d="M390.86,472.4a86,86,0,0,0,6.13,8,82.71,82.71,0,0,0,7.09,7,80.89,80.89,0,0,0-7,6.95,84.59,84.59,0,0,0-6.08,7.93,86.7,86.7,0,0,0-6.17-8,83.71,83.71,0,0,0-7.14-7,81.09,81.09,0,0,0,7.08-6.92,83.22,83.22,0,0,0,6.12-7.91Z" transform="translate(-319.45 -441.39)"/></svg>