<svg id="Capa_1" data-name="Capa 1" xmlns="http://www.w3.org/2000/svg" xmlns:xlink="http://www.w3.org/1999/xlink" viewBox="0 0 144.56 204.29"><defs><style>.cls-1{filter:url(#h);}.cls-2,.cls-3,.cls-4{fill-rule:evenodd;}.cls-3{stroke:#000;fill:url(#Degradado_sin_nombre_216);}.cls-3,.cls-7{stroke-miterlimit:1.85;stroke-width:0.46px;}.cls-4{fill:url(#Degradado_sin_nombre_217);}.cls-12,.cls-14,.cls-16,.cls-18,.cls-20,.cls-5,.cls-6,.cls-9{isolation:isolate;}.cls-5{opacity:0.31;fill:url(#Degradado_sin_nombre_218);}.cls-6{opacity:0.32;fill:url(#Degradado_sin_nombre_219);}.cls-7{fill:none;}.cls-22,.cls-7{stroke:#fff;}.cls-10,.cls-13,.cls-15,.cls-17,.cls-19,.cls-21,.cls-8{stroke:#c8c8c8;stroke-linejoin:round;}.cls-8{fill:url(#Degradado_sin_nombre_220);}.cls-12,.cls-14,.cls-16,.cls-18,.cls-20,.cls-9{opacity:0.4;}.cls-9{fill:url(#Degradado_sin_nombre_221);}.cls-10{fill:url(#Degradado_sin_nombre_222);}.cls-11{fill:url(#Degradado_sin_nombre_223);}.cls-12{fill:url(#Degradado_sin_nombre_224);}.cls-13{fill:url(#Degradado_sin_nombre_225);}.cls-14{fill:url(#Degradado_sin_nombre_226);}.cls-15{fill:url(#Degradado_sin_nombre_227);}.cls-16{fill:url(#Degradado_sin_nombre_228);}.cls-17{fill:url(#Degradado_sin_nombre_229);}.cls-18{fill:url(#Degradado_sin_nombre_230);}.cls-19{fill:url(#Degradado_sin_nombre_231);}.cls-20{fill:url(#Degradado_sin_nombre_232);}.cls-21{fill:url(#Degradado_sin_nombre_233);}.cls-22{stroke-miterlimit:8.2;fill:url(#Degradado_sin_nombre_234);}</style><filter id="h" name="h"><feGaussianBlur stdDeviation="3.76"/></filter><linearGradient id="Degradado_sin_nombre_216" x1="115.23" y1="785" x2="124.71" y2="1299.42" gradientTransform="matrix(0.46, 0, 0, -0.46, 804.38, 1070.86)" gradientUnits="userSpaceOnUse"><stop offset="0" stop-color="#f3f3f3"/><stop offset="1" stop-color="#8f8f8f"/></linearGradient><linearGradient id="Degradado_sin_nombre_217" x1="-261.92" y1="1152.18" x2="-129.66" y2="714.54" gradientTransform="matrix(0.49, 0, 0, -0.48, 958.58, 1228.96)" gradientUnits="userSpaceOnUse"><stop offset="0"/><stop offset="1" stop-color="#555753"/></linearGradient><radialGradient id="Degradado_sin_nombre_218" cx="124.5" cy="1837.59" r="58.67" gradientTransform="matrix(-0.46, 0, 0, 0.42, 860.9, 61.66)" gradientUnits="userSpaceOnUse"><stop offset="0" stop-color="#fff"/><stop offset="1" stop-color="#fff" stop-opacity="0"/></radialGradient><radialGradient id="Degradado_sin_nombre_219" cx="219.28" cy="733.49" r="63.15" gradientTransform="matrix(0.46, 0, 0, -0.73, 807.21, 1217.51)" xlink:href="#Degradado_sin_nombre_218"/><linearGradient id="Degradado_sin_nombre_220" x1="310.97" y1="1223.37" x2="310.97" y2="1243.82" gradientTransform="matrix(0.33, 0, 0, -0.35, 701.63, 1265.31)" xlink:href="#Degradado_sin_nombre_216"/><radialGradient id="Degradado_sin_nombre_221" cx="413.11" cy="1066.97" r="26.74" gradientTransform="matrix(0.75, 0, 0, -0.75, 512.06, 1496.47)" xlink:href="#Degradado_sin_nombre_218"/><linearGradient id="Degradado_sin_nombre_222" x1="410.34" y1="1074.56" x2="410.34" y2="1095.01" gradientTransform="matrix(0.69, 0, 0, -0.72, 538.38, 1477.41)" xlink:href="#Degradado_sin_nombre_216"/><radialGradient id="Degradado_sin_nombre_223" cx="192.28" cy="1160.5" r="25.37" gradientTransform="matrix(1.7, 1.15, 4.4, -6.48, -4617.18, 8106.96)" xlink:href="#Degradado_sin_nombre_218"/><radialGradient id="Degradado_sin_nombre_224" cx="413.11" cy="1066.97" r="26.74" gradientTransform="matrix(0.75, 0, 0, -0.75, 512.06, 1559.63)" xlink:href="#Degradado_sin_nombre_218"/><linearGradient id="Degradado_sin_nombre_225" x1="410.34" y1="1074.56" x2="410.34" y2="1095.01" gradientTransform="matrix(0.69, 0, 0, -0.72, 538.38, 1540.58)" xlink:href="#Degradado_sin_nombre_216"/><radialGradient id="Degradado_sin_nombre_226" cx="413.11" cy="1066.97" r="26.74" gradientTransform="matrix(0.75, 0, 0, -0.75, 512.06, 1620.88)" xlink:href="#Degradado_sin_nombre_218"/><linearGradient id="Degradado_sin_nombre_227" x1="410.34" y1="1074.56" x2="410.34" y2="1095.01" gradientTransform="matrix(0.69, 0, 0, -0.72, 538.38, 1601.82)" xlink:href="#Degradado_sin_nombre_216"/><radialGradient id="Degradado_sin_nombre_228" cx="413.11" cy="1066.97" r="26.74" gradientTransform="matrix(0.75, 0, 0, -0.75, 579.67, 1496.47)" xlink:href="#Degradado_sin_nombre_218"/><linearGradient id="Degradado_sin_nombre_229" x1="410.34" y1="1074.56" x2="410.34" y2="1095.01" gradientTransform="matrix(0.69, 0, 0, -0.72, 605.99, 1477.41)" xlink:href="#Degradado_sin_nombre_216"/><radialGradient id="Degradado_sin_nombre_230" cx="413.11" cy="1066.97" r="26.74" gradientTransform="matrix(0.75, 0, 0, -0.75, 579.67, 1559.63)" xlink:href="#Degradado_sin_nombre_218"/><linearGradient id="Degradado_sin_nombre_231" x1="410.34" y1="1074.56" x2="410.34" y2="1095.01" gradientTransform="matrix(0.69, 0, 0, -0.72, 605.99, 1540.58)" xlink:href="#Degradado_sin_nombre_216"/><radialGradient id="Degradado_sin_nombre_232" cx="413.11" cy="1066.97" r="26.74" gradientTransform="matrix(0.75, 0, 0, -0.75, 579.67, 1620.88)" xlink:href="#Degradado_sin_nombre_218"/><linearGradient id="Degradado_sin_nombre_233" x1="410.34" y1="1074.56" x2="410.34" y2="1095.01" gradientTransform="matrix(0.69, 0, 0, -0.72, 605.99, 1601.82)" xlink:href="#Degradado_sin_nombre_216"/><linearGradient id="Degradado_sin_nombre_234" x1="492.36" y1="1254.49" x2="492.36" y2="1257.43" gradientTransform="matrix(2.05, 0, 0, -2.05, -99.07, 3251.95)" xlink:href="#Degradado_sin_nombre_216"/></defs><g class="cls-1"><path class="cls-2" d="M791.69,655.78H921a7.24,7.24,0,0,1,7.25,7.25h0V851.8a7.25,7.25,0,0,1-7.25,7.25H791.69a7.26,7.26,0,0,1-7.25-7.25h0V663a7.25,7.25,0,0,1,7.25-7.25" transform="translate(-784.44 -654.76)"/></g><path class="cls-3" d="M793.31,655H920.47a8.31,8.31,0,0,1,8.3,8.31h0V850a8.31,8.31,0,0,1-8.3,8.31H793.31A8.3,8.3,0,0,1,785,850h0V663.3a8.3,8.3,0,0,1,8.3-8.31h0" transform="translate(-784.44 -654.76)"/><path class="cls-4" d="M794.74,662.09H919a2.65,2.65,0,0,1,2.65,2.65V848.51a2.66,2.66,0,0,1-2.65,2.66H794.74a2.65,2.65,0,0,1-2.65-2.66V664.74a2.65,2.65,0,0,1,2.65-2.65" transform="translate(-784.44 -654.76)"/><path class="cls-5" d="M847,851.25h-54.4V801.5H847Z" transform="translate(-784.44 -654.76)"/><path class="cls-6" d="M864.75,662h54.32a2.12,2.12,0,0,1,2.12,2.12v88.54a2.12,2.12,0,0,1-2.12,2.12H864.75a2.12,2.12,0,0,1-2.12-2.12V664.12a2.12,2.12,0,0,1,2.12-2.12" transform="translate(-784.44 -654.76)"/><path class="cls-7" d="M822.76,842.91h91.65V692.07m-23.72-21.73H799.38v150" transform="translate(-784.44 -654.76)"/><path class="cls-8" d="M805.42,829.12a2.78,2.78,0,0,0-2.49,3,4,4,0,0,0,.53,1.94,3.35,3.35,0,0,0-1.94-.63,2.69,2.69,0,1,0,0,5.38,3.18,3.18,0,0,0,3-2.36,7.71,7.71,0,0,1,.3,2.18,7.3,7.3,0,0,1-1.48,4.53h4.23A7.25,7.25,0,0,1,806,838.5a7.87,7.87,0,0,1,.28-2.09,3,3,0,0,0,3.06,2.38,2.69,2.69,0,1,0,0-5.38,3.3,3.3,0,0,0-2,.73,4.14,4.14,0,0,0,.54-2,2.77,2.77,0,0,0-2.48-3Z" transform="translate(-784.44 -654.76)"/><path class="cls-9" d="M842.89,694a20.11,20.11,0,1,1-20.11-20.11A20.11,20.11,0,0,1,842.89,694Z" transform="translate(-784.44 -654.76)"/><path class="cls-10" d="M822.74,679.39c-2.85,0-5.17,2.77-5.17,6.2a8.07,8.07,0,0,0,1.11,4,7.17,7.17,0,0,0-4-1.3,5.59,5.59,0,1,0,0,11.17,6.61,6.61,0,0,0,6.3-4.89,16.54,16.54,0,0,1,.62,4.51,15.27,15.27,0,0,1-3.07,9.42h8.77a15.16,15.16,0,0,1-3.25-9.63,16.62,16.62,0,0,1,.57-4.35c.32,2.84,3.36,4.94,6.36,4.94a5.59,5.59,0,1,0,0-11.17,6.77,6.77,0,0,0-4.16,1.52,8.67,8.67,0,0,0,1.12-4.23c0-3.42-2.31-6.19-5.16-6.19Z" transform="translate(-784.44 -654.76)"/><path class="cls-11" d="M818.21,836.28c1.08-1.85-3.22-8.39-3.77-10.87a4.25,4.25,0,0,1-.12-.62,9.65,9.65,0,0,1-.09-1.07,10.68,10.68,0,0,1,.26-1.86.69.69,0,0,0,.63-.68.67.67,0,0,0-.29-.56c.14-.47.29-.94.43-1.41a19.53,19.53,0,0,1,1.23-3,39.29,39.29,0,0,1,2.24-3.6c.24-.37.5-.74.76-1.1l.22,0a1.25,1.25,0,0,0,1.25-1.24,1.23,1.23,0,0,0-.12-.5l.93-1.1a59.59,59.59,0,0,1,4.37-4.19c1.66-1.52,3.42-2.92,5.19-4.3,2.11-1.64,4.34-3.1,6.58-4.55s4.26-2.69,6.42-4a1.45,1.45,0,0,0,.3,0,1.24,1.24,0,0,0,0-2.48,1.25,1.25,0,0,0-.35,2.44l-.6.34c-2.63,1.57-5.24,3.17-7.81,4.83-2.24,1.46-4.5,2.92-6.61,4.56-1.78,1.39-3.53,2.8-5.19,4.32-1.27,1.15-2.55,2.29-3.74,3.52a1.28,1.28,0,0,0-.62-.17,1.24,1.24,0,0,0-1,2,31.67,31.67,0,0,0-2.09,2.79,41.5,41.5,0,0,0-2.23,3.6l-.29.63c.06-1.26.22-2.5.38-3.74a32.5,32.5,0,0,1,1.07-5.17,31,31,0,0,1,1.7-4.51,26.38,26.38,0,0,0,1.78-3.33c.11-.25.2-.52.29-.77l.07-.19c.89-1.61,1.81-3.18,2.74-4.77a2.75,2.75,0,0,0,.17-.29l1.06-1.43c1-1.31,2.09-2.57,3.16-3.83,1.38-1.6,2.87-3.11,4.35-4.62,1.66-1.72,3.43-3.32,5.2-4.92l5.74-5.1c2-1.83,4.07-3.61,6.11-5.41,2.3-2,4.53-4.07,6.74-6.17,1.17-1.12,2.33-2.24,3.48-3.38-.24.3,1.11-.73,3.44-2.72s4.57-3.82,6.95-5.62a32.65,32.65,0,0,1,4.65-3.19l1-.45a1.11,1.11,0,0,0-.08.36,1.24,1.24,0,1,0,2.18-.8c4.58-.33,5.52-1,.56-.68a3.92,3.92,0,0,0-1.17.28,1.16,1.16,0,0,0-.32,0,1.23,1.23,0,0,0-1.1.68,45.11,45.11,0,0,0-7,4.52c-2.36,1.8-4.65,3.7-6.91,5.62-.93.8-1.56,1.37-1.91,1.7q1.77-1.75,3.52-3.54c2.56-2.57,5-5.29,7.33-8.05,1.46-1.75,2.86-3.54,4.23-5.35a1.27,1.27,0,0,0,1,.45,1.24,1.24,0,0,0,.49-2.38c.62-.83,1.22-1.66,1.83-2.5a113,113,0,0,0,7.08-11.17,74.53,74.53,0,0,0,5.71-12.78,114,114,0,0,0,2.31-11.89c.76-4.78-.43-4.08-1.19.7a111.53,111.53,0,0,1-2.31,11.87,74.57,74.57,0,0,1-5.72,12.78c-.17.3-.36.6-.54.91a.68.68,0,0,0-.66-.55.69.69,0,0,0,0,1.38.59.59,0,0,0,.23,0,109.47,109.47,0,0,1-6.11,9.49l-1.25,1.73a1.22,1.22,0,0,0-1.12,1.21,1.9,1.9,0,0,0,0,.25c-1.67,2.24-3.38,4.45-5.17,6.59-2.35,2.77-4.77,5.48-7.33,8.06-2.41,2.45-4.86,4.89-7.35,7.26-2.21,2.1-4.44,4.17-6.75,6.17-2,1.8-4.09,3.58-6.11,5.4l-5.76,5.11c-1.64,1.49-3.29,3-4.85,4.57a.68.68,0,0,0-.32-.42c.61-.62,1.23-1.24,1.86-1.85,2-1.93,4.17-3.81,6.23-5.74,2.42-2.28,4.79-4.62,7.12-7a80.92,80.92,0,0,0,7.41-8.6A97.43,97.43,0,0,0,859,751.16a73.66,73.66,0,0,0,5.43-12.54,85,85,0,0,0,2.8-14.31A118,118,0,0,0,867.4,712a1.27,1.27,0,0,0,.42-.93,1.25,1.25,0,0,0-.5-1c0-.5,0-1,0-1.52l-.09-2.56c-.17-4.8-1.35-4.12-1.17.68,0,.85.05,1.71.09,2.56,0,.22,0,.45,0,.67a1.25,1.25,0,0,0-.79,1.16,1.21,1.21,0,0,0,.87,1.16c.06,2.12.11,4.25.1,6.37a1.29,1.29,0,0,0-.48-.1,1.24,1.24,0,1,0,0,2.48,1.18,1.18,0,0,0,.43-.09c0,1.37-.09,2.75-.2,4.12-.38,3.09-.86,6.19-1.52,9.24,0-1.45.05-2.92,0-4.37-.11-3.46-.32-6.91-.77-10.34a57.29,57.29,0,0,0-1.39-7,23.9,23.9,0,0,0-1.16-3.4,3.81,3.81,0,0,0-.55-.91c-3.91-3.51-5.22-2.71-1.28.75a3.51,3.51,0,0,1,.55.88,24.11,24.11,0,0,1,1.18,3.41,56.69,56.69,0,0,1,1.42,7,102.11,102.11,0,0,1,.79,10.34c.06,1.92,0,3.84,0,5.76a15.36,15.36,0,0,0,.09,2.49l-.15.48q-1.18,3.54-2.68,7a1.23,1.23,0,0,0-2.3.61,1.23,1.23,0,0,0,1.23,1.24l.24,0c-.6,1.27-1.23,2.52-1.92,3.76a97.77,97.77,0,0,1-6.75,11.08,82.07,82.07,0,0,1-7.42,8.59c-2.35,2.37-4.7,4.72-7.13,7-2.06,1.93-4.19,3.8-6.25,5.74l-1,1.06a.67.67,0,0,0-.57.58A36.44,36.44,0,0,0,825,790a68.63,68.63,0,0,0-3.91,5.91c-.45.61-.87,1.23-1.26,1.88s-.85,1.34-1.19,2.06a12.57,12.57,0,0,0-.65,1.45.06.06,0,0,0,0,0c-.34.62-.68,1.25-1,1.88-.41.86-.81,1.73-1.19,2.6,0-.15,0-.29.08-.44.26-1.21.66-2.39,1-3.56.49-1.41,1.07-2.76,1.66-4.13.71-1.67,1.46-3.32,2.18-5,1-2.24,2.12-4.43,3.22-6.62,1.41-2.68,2.65-5.43,3.84-8.21,1.42-3.39,2.82-6.79,4.23-10.19s2.9-7,4.23-10.56a.7.7,0,0,0,.52-.67.62.62,0,0,0-.13-.4c1.35-3.73,2.54-7.5,3.7-11.29,1.33-4.4,2.48-8.85,3.37-13.36a87.79,87.79,0,0,0,1.06-15.87c-.16-5.4-.79-10.76-1.45-16.12-.4-3.23-.89-6.44-1.39-9.65a11,11,0,0,0-.72-2.86,1,1,0,0,0,.39.08,1.25,1.25,0,0,0,1.24-1.25,1.24,1.24,0,0,0-1.24-1.23,1.24,1.24,0,0,0-.9,2.08c-.24.34-.3,1.66,0,3.86.23,1.42.44,2.85.66,4.27a.74.74,0,0,0-.48-.17.68.68,0,1,0,0,1.36.71.71,0,0,0,.61-.36c.22,1.51.43,3,.62,4.55l.14,1.16a1.2,1.2,0,0,0-.56-.15,1.24,1.24,0,1,0,.8,2.18c.5,4.29.95,8.61,1.08,12.94a86.86,86.86,0,0,1-1.08,15.86c-.9,4.51-2,9-3.38,13.38-1.07,3.49-2.18,7-3.41,10.4a.68.68,0,0,0-.33.59,1,1,0,0,0,0,.25c-.08.24-.17.47-.26.71-1.38,3.68-2.83,7.35-4.37,11q-2.11,5.1-4.25,10.18c-1.19,2.79-2.44,5.55-3.85,8.23-1.11,2.2-2.23,4.38-3.23,6.62-.73,1.67-1.47,3.33-2.19,5-.58,1.37-1.18,2.73-1.67,4.13-.37,1.18-.77,2.36-1,3.57-.21,1-.44,2-.62,3-.09.45-.17.9-.27,1.34-.53,2.18-.58,3.28-.38,3.45-.06.36-.11.74-.15,1.11a40.31,40.31,0,0,0-.42,4.38c0,.67,0,1.35,0,2-.15.5-.3,1-.42,1.52,0,.2-.07.4-.11.61h-6.09c4.09,1.18,7.29.83,12,12.66Zm1.2-9.58a.68.68,0,0,0,0-1.36.68.68,0,1,0,0,1.36Zm-9.49-3.46a1.25,1.25,0,1,0-1.24-1.25A1.25,1.25,0,0,0,809.92,823.24Zm6.69-1.49a1.24,1.24,0,1,0,0-2.48,1.24,1.24,0,0,0,0,2.48Zm-8.74-3.48a.68.68,0,1,0-.68-.68A.67.67,0,0,0,807.87,818.27Zm3.1-1.12a.68.68,0,1,0,0-1.36.68.68,0,1,0,0,1.36Zm11.71-1.47a1.26,1.26,0,0,0,1.25-1.25,1.25,1.25,0,0,0-1.25-1.23,1.23,1.23,0,0,0-1.23,1.23A1.25,1.25,0,0,0,822.68,815.68Zm2.91-2.12a.68.68,0,1,0-.68-.68A.67.67,0,0,0,825.59,813.56Zm-17-1.36a1.24,1.24,0,1,0-1.24-1.23A1.24,1.24,0,0,0,808.55,812.2Zm2.86-3.59a1.25,1.25,0,0,0,1.23-1.25,1.24,1.24,0,0,0-2.48,0A1.26,1.26,0,0,0,811.41,808.61Zm16.05-.5a.68.68,0,0,0,0-1.36.68.68,0,0,0,0,1.36Zm9-1.11a1.24,1.24,0,1,0-1.25-1.25A1.25,1.25,0,0,0,836.45,807Zm-13.26-1.5a1.22,1.22,0,0,0,1.23-1.23,1.24,1.24,0,1,0-1.23,1.23Zm4.85-.3c.06,0,1.46-.94,3.74-2.62,1-.72,1.92-1.47,3-2.1a43.79,43.79,0,0,1,4.52-2.41l1-.42a1.21,1.21,0,0,0-.29.78,1.24,1.24,0,1,0,2.48,0,1.23,1.23,0,0,0-1.17-1.21c1.08-.48,2.17-1,3.27-1.38s2.48-1,3.73-1.48l1.59-.59c4.89-1.87,6.16-2.61,1.27-.74l-1.6.61c-1.26.48-2.48,1-3.73,1.48-1.78.68-3.52,1.46-5.26,2.24a68,68,0,0,0-7,3.83c-1,.63-2,1.38-3,2.1A30.22,30.22,0,0,0,828,805.2Zm-17.26-1.3a1.26,1.26,0,0,0,1.25-1.25,1.25,1.25,0,0,0-2.49,0A1.25,1.25,0,0,0,810.78,803.9Zm27.09-1.37a.68.68,0,1,0,0-1.36.68.68,0,1,0,0,1.36Zm-22.49-1.73a1.25,1.25,0,0,0,1.23-1.25,1.24,1.24,0,0,0-2.48,0A1.26,1.26,0,0,0,815.38,800.8Zm6.69-.38a1.24,1.24,0,0,0,0-2.48,1.24,1.24,0,1,0,0,2.48Zm-16.81-1a.68.68,0,1,0-.68-.68A.68.68,0,0,0,805.26,799.43Zm43.27-2.36a.68.68,0,1,0-.68-.68A.67.67,0,0,0,848.53,797.07ZM833.72,797a1.24,1.24,0,0,0,1.23-1.25,1.22,1.22,0,0,0-1.23-1.23,1.24,1.24,0,0,0-1.24,1.23A1.25,1.25,0,0,0,833.72,797Zm21.88-1.12a.68.68,0,1,0,0-1.36h-.06a1.21,1.21,0,0,0,.36-.87,1.23,1.23,0,0,0-1.23-1.25,1.24,1.24,0,1,0,0,2.48,1.29,1.29,0,0,0,.35,0,.72.72,0,0,0-.1.36.67.67,0,0,0,.68.68Zm4.27-2.85a1.26,1.26,0,0,0,1.25-1.25,1.25,1.25,0,0,0-2.49,0A1.25,1.25,0,0,0,859.87,793Zm-42.26,0a1.25,1.25,0,0,0,1.23-1.25,1.23,1.23,0,0,0-1.23-1.23,1.25,1.25,0,0,0-1.25,1.23A1.26,1.26,0,0,0,817.61,793Zm9.78-.13a1.24,1.24,0,1,0-1.23-1.24A1.23,1.23,0,0,0,827.39,792.86Zm35.64-.12a.68.68,0,1,0-.68-.68A.69.69,0,0,0,863,792.74Zm-26.64-.87a.68.68,0,1,0-.68-.68A.68.68,0,0,0,836.39,791.87ZM825,791.06c.41-.59.81-1.17,1.23-1.75a30.62,30.62,0,0,1,2.47-3,.65.65,0,0,0,.42.3c-1.33,1.36-2.66,2.72-3.9,4.16l-.22.26Zm23.58-1.87,4-2.26,3.06-1.68a1.29,1.29,0,0,0,.35,0,1.21,1.21,0,0,0,1.18-.91l4.26-2.43-4.24,2.39a1.27,1.27,0,0,0,0-.28,1.24,1.24,0,1,0-1.64,1.17l-1,.54q-3,1.69-6,3.42Zm15.91-.17a.69.69,0,1,0-.69-.68A.69.69,0,0,0,864.53,789Zm-47.43-1.86a1.25,1.25,0,0,0,1.25-1.24,1.17,1.17,0,0,0-.07-.38h.13a.68.68,0,0,0,.68-.68.7.7,0,0,0-.68-.69.68.68,0,0,0-.68.66,1.34,1.34,0,0,0-.63-.16,1.24,1.24,0,0,0,0,2.48Zm-4-.13a.68.68,0,1,0-.68-.68A.68.68,0,0,0,813.07,787Zm8.63-4.71a1.23,1.23,0,0,0,1.23-1.23,1.24,1.24,0,1,0-1.23,1.23Zm52.37-.24a.69.69,0,1,0-.68-.69A.69.69,0,0,0,874.07,782.08ZM862,781.66l1.85-1.08a87.94,87.94,0,0,0,8.91-6q2.18-1.67,4.2-3.48a1.23,1.23,0,0,0,1.16.81,1.22,1.22,0,0,0,1.23-1.23,1.23,1.23,0,0,0-.71-1.13c1-.92,1.94-1.85,2.89-2.81.69-.7,1.35-1.42,2-2.16l.1-.08c2-1.81,4-3.59,5.94-5.44l.09-.1a1.24,1.24,0,1,0,1.37-1.4,26.18,26.18,0,0,0,3.09-3.8c1.17-1.72,2.33-3.45,3.45-5.2s2.21-3.5,3.29-5.28c.62-1,1.24-2,1.84-3.1a1,1,0,0,0,0,.25,1.23,1.23,0,0,0,1.23,1.24,1.25,1.25,0,0,0,1.24-1.24,1.23,1.23,0,0,0-1.24-1.23,1.25,1.25,0,0,0-.86.34l.5-.91a25.55,25.55,0,0,0,1.27-2.94,10.35,10.35,0,0,1,.44-1.14c.28-.57.52-1,.71-1.45a1.24,1.24,0,0,0,.29-2.36.68.68,0,0,0-.18-1.34.69.69,0,0,0-.68.68.67.67,0,0,0,.31.57,1.24,1.24,0,0,0-1.18,1.23,1.27,1.27,0,0,0,.7,1.12c-.37.61-.78,1.34-1.25,2.28a12.27,12.27,0,0,0-.43,1.15,24.39,24.39,0,0,1-1.26,2.93c-.82,1.58-1.75,3.12-2.67,4.65-1.07,1.77-2.18,3.52-3.29,5.27s-2.28,3.48-3.45,5.2a23.82,23.82,0,0,1-2.53,3.21,1.23,1.23,0,0,0-.61.66l-1.39,1.42q-1.68,1.59-3.39,3.13c1.59-1.95,3.06-4,4.49-6.07a51.1,51.1,0,0,0,6-11.79c.08-.21.13-.43.21-.64a1.23,1.23,0,1,0,1.21-1.49,1.26,1.26,0,0,0-.84.33A56.83,56.83,0,0,0,898,731a55.84,55.84,0,0,0-.49-12.72c-1-7.9-3-6.79-2,1.11a56.61,56.61,0,0,1,.48,12.74,52.78,52.78,0,0,1-2.62,14,51.27,51.27,0,0,1-6,11.81,77,77,0,0,1-7,9c-1.47,1.3-3,2.6-4.44,3.88-1.07.95-2.21,1.82-3.33,2.71-3.91,3.13-2.68,2.42,1.23-.71,1-.81,2-1.6,3-2.45a.22.22,0,0,0,0,.08c-2,1.85-4,3.64-6.16,5.28a88.92,88.92,0,0,1-8.75,5.92Zm-6.87-.32a.69.69,0,1,0-.68-.68A.69.69,0,0,0,855.11,781.34Zm12.4-.51a.7.7,0,0,0,.55-.68.68.68,0,1,0-.68.68ZM840,780.47a1.24,1.24,0,1,0,0-2.48,1.24,1.24,0,0,0,0,2.48Zm3.78-.38a.68.68,0,1,0-.68-.68A.67.67,0,0,0,843.82,780.09Zm18-3.1a.68.68,0,1,0-.68-.68A.67.67,0,0,0,861.8,777Zm6.13-.36a1.25,1.25,0,1,0,0-2.49,1.25,1.25,0,0,0,0,2.49Zm-43.76-.51a1.24,1.24,0,1,0-1.24-1.23A1.24,1.24,0,0,0,824.17,776.12Zm58.7-1.23a.68.68,0,1,0-.68-.68A.68.68,0,0,0,882.87,774.89Zm-43.7-.25a1.24,1.24,0,1,0,0-2.48,1.24,1.24,0,0,0,0,2.48Zm-18.53-2.11a.68.68,0,0,0,0-1.36.68.68,0,0,0,0,1.36Zm50-.12a1.24,1.24,0,1,0,0-2.48,1.24,1.24,0,0,0,0,2.48Zm-44.49-1.24a1.23,1.23,0,0,0,1.23-1.24,1.26,1.26,0,0,0-.54-1,.59.59,0,0,0,0-.27.69.69,0,0,0-1.37,0,.54.54,0,0,0,.05.22,1.23,1.23,0,0,0,.58,2.32Zm26.77-1.12a1.24,1.24,0,1,0,0-2.48,1.24,1.24,0,1,0,0,2.48Zm-22.83-.45c.29,0,.85-1.43,1.33-4s1-5.2,1.25-7.83a72.17,72.17,0,0,0,.43-9.75,61,61,0,0,0-.69-7.27c-.26-1.63-.51-3.25-.92-4.84a13.1,13.1,0,0,0-.58-1.84c-2.14-4.78-3.5-4-1.27.74a14.27,14.27,0,0,1,.58,1.82c.42,1.59.68,3.22.94,4.84a60.89,60.89,0,0,1,.71,7.26,73.74,73.74,0,0,1-.4,9.74c-.29,2.62-.76,5.23-1.25,7.82-.42,2.26-.38,3.31-.13,3.29Zm26.49,0a.69.69,0,1,0-.69-.68A.69.69,0,0,0,856.59,769.56Zm-20.33-.5a.68.68,0,1,0-.68-.68A.68.68,0,0,0,836.26,769.06Zm8.13-2.23a1.24,1.24,0,0,0,1.23-1.24,1.22,1.22,0,0,0-1.23-1.23,1.23,1.23,0,0,0-1.25,1.23A1.25,1.25,0,0,0,844.39,766.83Zm34.58-1a1.22,1.22,0,0,0,1.23-1.23,1.23,1.23,0,0,0-1.23-1.24,1.25,1.25,0,0,0-1.24,1.24A1.23,1.23,0,0,0,879,765.83ZM892.91,763a.68.68,0,1,0-.68-.68A.68.68,0,0,0,892.91,763Zm-23.62-5.83a1.23,1.23,0,0,0,1.25-1.23,1.24,1.24,0,1,0-2.48,0A1.22,1.22,0,0,0,869.29,757.15Zm13.2-2a.68.68,0,1,0,0-1.36.68.68,0,1,0,0,1.36Zm-60.3-.86a1.25,1.25,0,0,0,0-2.49,1.25,1.25,0,0,0,0,2.49Zm31.37-.5a1.24,1.24,0,0,0,0-2.48,1.24,1.24,0,1,0,0,2.48Zm47.78-1.48a.68.68,0,1,0-.68-.68A.68.68,0,0,0,901.34,752.33Zm-1.55-1a1.24,1.24,0,1,0-1.24-1.23A1.24,1.24,0,0,0,899.79,751.33ZM861.24,751a1.25,1.25,0,1,0-1.23-1.25A1.23,1.23,0,0,0,861.24,751Zm-20.46-1.38a1.24,1.24,0,1,0-1.23-1.23A1.22,1.22,0,0,0,840.78,749.59Zm-13-5.32a.7.7,0,0,0,.69-.69.69.69,0,0,0-1.37,0A.7.7,0,0,0,827.82,744.27ZM835,744a1.24,1.24,0,0,0,1.25-1.23,1.24,1.24,0,1,0-2.48,0A1.23,1.23,0,0,0,835,744Zm54.67-.36a1.24,1.24,0,1,0,0-2.48,1.24,1.24,0,0,0,0,2.48Zm-47-1.25a.68.68,0,1,0,0-1.36.68.68,0,1,0,0,1.36Zm17.17-5.2a1.24,1.24,0,1,0-1.25-1.24A1.24,1.24,0,0,0,859.76,737.2Zm14.62-.13a1.24,1.24,0,0,0,1.24-1.23,1.25,1.25,0,0,0-1.24-1.25,1.24,1.24,0,0,0-1.23,1.25A1.22,1.22,0,0,0,874.38,737.07Zm25.79-1.36a1.24,1.24,0,0,0,0-2.48,1.24,1.24,0,1,0,0,2.48Zm-62-1a1.24,1.24,0,0,0,1.24-1.24,1.24,1.24,0,0,0-2.48,0A1.25,1.25,0,0,0,838.18,734.72Zm31.49-.13a1.24,1.24,0,0,0,1.25-1.23,1.25,1.25,0,0,0-2.5,0A1.24,1.24,0,0,0,869.67,734.59Zm-24.85-2.72a.68.68,0,1,0,0-1.36.68.68,0,1,0,0,1.36Zm-17.86-2a.68.68,0,1,0-.69-.68A.69.69,0,0,0,827,729.88Zm45-.24a.68.68,0,1,0-.68-.68A.68.68,0,0,0,872,729.64Zm19.89-1.12a1.25,1.25,0,0,0,1.25-1.24,1.24,1.24,0,1,0-1.25,1.24ZM859,728a.68.68,0,1,0-.68-.68A.68.68,0,0,0,859,728Zm48.71-1.12a.68.68,0,1,0-.68-.68A.67.67,0,0,0,907.66,726.91Zm-47.16-.24a1.25,1.25,0,1,0-1.25-1.25A1.24,1.24,0,0,0,860.5,726.67Zm19.83-.38a1.24,1.24,0,1,0-1.24-1.24A1.24,1.24,0,0,0,880.33,726.29Zm8.49-1.74a.68.68,0,1,0-.68-.68A.68.68,0,0,0,888.82,724.55Zm18.54-.37a1.24,1.24,0,0,0,0-2.48,1.24,1.24,0,1,0,0,2.48Zm-65.63,0a.71.71,0,0,0,.54-.69.68.68,0,1,0-.68.69Zm57-2a.69.69,0,0,0,0-1.38.69.69,0,1,0,0,1.38ZM849.09,721a1.24,1.24,0,1,0-1.24-1.25A1.24,1.24,0,0,0,849.09,721Zm42-1a.68.68,0,0,0,.68-.68.68.68,0,1,0-1.36,0A.67.67,0,0,0,891.06,720Zm-20.4-1.73A1.25,1.25,0,0,0,871.9,717s0,0,0-.07a.66.66,0,0,0,.32.07.68.68,0,1,0-.66-.86,1.24,1.24,0,0,0-2.13.86A1.25,1.25,0,0,0,870.66,718.24Zm13.33-1.5a.68.68,0,1,0,0-1.36.68.68,0,1,0,0,1.36Zm21.08-.24a.69.69,0,1,0-.68-.68A.69.69,0,0,0,905.07,716.5Zm-5.28-.13a1.24,1.24,0,1,0-1.24-1.24A1.24,1.24,0,0,0,899.79,716.37ZM848,716a1.24,1.24,0,0,0,1.23-1.24,1.22,1.22,0,0,0-1.23-1.23,1.24,1.24,0,0,0-1.25,1.23A1.25,1.25,0,0,0,848,716Zm10.53-1.36a1.24,1.24,0,1,0-1.16-1.66.67.67,0,0,0-.2.47.67.67,0,0,0,.31.57,1.23,1.23,0,0,0,1,.62Zm27.76-1.11a1.26,1.26,0,0,0,1.25-1.25,1.24,1.24,0,1,0-1.25,1.25Zm-45.74-1.25a1.24,1.24,0,1,0-1.23-1.23A1.24,1.24,0,0,0,840.53,712.28Zm20.9-3.84a.68.68,0,1,0-.69-.68A.68.68,0,0,0,861.43,708.44Zm41.77-.25a.68.68,0,1,0-.68-.68A.68.68,0,0,0,903.2,708.19Zm-56.66-.13a.68.68,0,1,0-.68-.68A.68.68,0,0,0,846.54,708.06Zm48-2.85a.68.68,0,1,0-.68-.68A.68.68,0,0,0,894.52,705.21Zm2.67-1a1.25,1.25,0,0,0,1.24-1.24,1.24,1.24,0,1,0-1.24,1.24Zm-44.56-1.49a.68.68,0,1,0,0-1.36.68.68,0,1,0,0,1.36Zm5.64-.49a1.24,1.24,0,0,0,0-2.48,1.24,1.24,0,1,0,0,2.48Zm-10.67-2a1.23,1.23,0,0,0,1.25-1.23,1.25,1.25,0,0,0-2.49,0A1.23,1.23,0,0,0,847.6,700.25Zm35.76-.36a.69.69,0,0,0,.68-.69.68.68,0,0,0-1.36,0A.7.7,0,0,0,883.36,699.89Zm-16.05-.13a1.24,1.24,0,0,0,0-2.48,1.24,1.24,0,0,0,0,2.48Zm21.38-1.24a.69.69,0,1,0-.68-.69A.69.69,0,0,0,888.69,698.52Zm-23.92-2.84a.69.69,0,1,0-.68-.69A.68.68,0,0,0,864.77,695.68Zm-26.59-.38a1.24,1.24,0,1,0-1.24-1.25A1.24,1.24,0,0,0,838.18,695.3Zm46.67-3a.68.68,0,1,0,0-1.36.68.68,0,1,0,0,1.36Zm4.41-.87a1.24,1.24,0,1,0-1.25-1.25A1.26,1.26,0,0,0,889.26,691.46Zm-52.76-1.87a.68.68,0,1,0-.68-.68A.67.67,0,0,0,836.5,689.59ZM889.32,687a.69.69,0,1,0-.68-.68A.69.69,0,0,0,889.32,687Zm-34.1-1.87a.68.68,0,1,0,0-1.36.68.68,0,1,0,0,1.36Zm-17.47-3.35a.68.68,0,1,0-.68-.68A.67.67,0,0,0,837.75,681.78Zm3.46-2.48a.68.68,0,0,0,0-1.36.68.68,0,1,0,0,1.36Z" transform="translate(-784.44 -654.76)"/><path class="cls-12" d="M842.89,757.11A20.11,20.11,0,1,1,822.78,737a20.11,20.11,0,0,1,20.11,20.11Z" transform="translate(-784.44 -654.76)"/><path class="cls-13" d="M822.74,742.56c-2.85,0-5.17,2.77-5.17,6.19a8.08,8.08,0,0,0,1.11,4,7.09,7.09,0,0,0-4-1.3,5.58,5.58,0,1,0,0,11.16,6.6,6.6,0,0,0,6.3-4.89,16.62,16.62,0,0,1,.62,4.52,15.32,15.32,0,0,1-3.07,9.42h8.77A15.17,15.17,0,0,1,824,762a16.54,16.54,0,0,1,.57-4.34c.32,2.83,3.36,4.93,6.36,4.93a5.58,5.58,0,1,0,0-11.16,6.77,6.77,0,0,0-4.16,1.52,8.67,8.67,0,0,0,1.12-4.23c0-3.42-2.31-6.19-5.16-6.19Z" transform="translate(-784.44 -654.76)"/><path class="cls-14" d="M842.89,818.36a20.11,20.11,0,1,1-20.11-20.11,20.11,20.11,0,0,1,20.11,20.11Z" transform="translate(-784.44 -654.76)"/><path class="cls-15" d="M822.74,803.8c-2.85,0-5.17,2.78-5.17,6.2a8.08,8.08,0,0,0,1.11,4,7.1,7.1,0,0,0-4-1.31,5.59,5.59,0,1,0,0,11.17,6.61,6.61,0,0,0,6.3-4.89,16.56,16.56,0,0,1,.62,4.52,15.27,15.27,0,0,1-3.07,9.41h8.77a15.14,15.14,0,0,1-3.25-9.63,16.67,16.67,0,0,1,.57-4.35c.32,2.84,3.36,4.94,6.36,4.94a5.59,5.59,0,1,0,0-11.17,6.77,6.77,0,0,0-4.16,1.52A8.66,8.66,0,0,0,827.9,810c0-3.42-2.31-6.2-5.16-6.2Z" transform="translate(-784.44 -654.76)"/><path class="cls-16" d="M910.5,694a20.11,20.11,0,1,1-20.11-20.11A20.11,20.11,0,0,1,910.5,694Z" transform="translate(-784.44 -654.76)"/><path class="cls-17" d="M890.35,679.39c-2.85,0-5.17,2.77-5.17,6.2a8.07,8.07,0,0,0,1.11,4,7.17,7.17,0,0,0-4-1.3,5.59,5.59,0,1,0,0,11.17,6.61,6.61,0,0,0,6.3-4.89,16.54,16.54,0,0,1,.62,4.51,15.27,15.27,0,0,1-3.07,9.42h8.77a15.16,15.16,0,0,1-3.25-9.63,16.62,16.62,0,0,1,.57-4.35c.32,2.84,3.36,4.94,6.36,4.94a5.59,5.59,0,1,0,0-11.17,6.82,6.82,0,0,0-4.17,1.52,8.57,8.57,0,0,0,1.13-4.23c0-3.42-2.31-6.19-5.16-6.19Z" transform="translate(-784.44 -654.76)"/><path class="cls-18" d="M910.5,757.11A20.11,20.11,0,1,1,890.39,737a20.11,20.11,0,0,1,20.11,20.11Z" transform="translate(-784.44 -654.76)"/><path class="cls-19" d="M890.35,742.56c-2.85,0-5.17,2.77-5.17,6.19a8.08,8.08,0,0,0,1.11,4,7.09,7.09,0,0,0-4-1.3,5.58,5.58,0,1,0,0,11.16,6.6,6.6,0,0,0,6.3-4.89,16.62,16.62,0,0,1,.62,4.52,15.32,15.32,0,0,1-3.07,9.42h8.77a15.17,15.17,0,0,1-3.25-9.64,16.54,16.54,0,0,1,.57-4.34c.32,2.83,3.36,4.93,6.36,4.93a5.58,5.58,0,1,0,0-11.16,6.82,6.82,0,0,0-4.17,1.52,8.57,8.57,0,0,0,1.13-4.23c0-3.42-2.31-6.19-5.16-6.19Z" transform="translate(-784.44 -654.76)"/><path class="cls-20" d="M910.5,818.36a20.11,20.11,0,1,1-20.11-20.11,20.11,20.11,0,0,1,20.11,20.11Z" transform="translate(-784.44 -654.76)"/><path class="cls-21" d="M890.35,803.8c-2.85,0-5.17,2.78-5.17,6.2a8.08,8.08,0,0,0,1.11,4,7.1,7.1,0,0,0-4-1.31,5.59,5.59,0,1,0,0,11.17,6.61,6.61,0,0,0,6.3-4.89,16.56,16.56,0,0,1,.62,4.52,15.27,15.27,0,0,1-3.07,9.41h8.77a15.14,15.14,0,0,1-3.25-9.63,16.67,16.67,0,0,1,.57-4.35c.32,2.84,3.36,4.94,6.36,4.94a5.59,5.59,0,1,0,0-11.17,6.82,6.82,0,0,0-4.17,1.52,8.56,8.56,0,0,0,1.13-4.22c0-3.42-2.31-6.2-5.16-6.2Z" transform="translate(-784.44 -654.76)"/><path class="cls-22" d="M914.39,670.24a9.89,9.89,0,0,0-5.56,1.82,8.79,8.79,0,0,0-3.8,7.39,8.3,8.3,0,0,0,1.59,5.11,4.52,4.52,0,0,0,3.5,1.55c2.82,0,4.77-2.16,4.77-5.3,0-2.91-1.65-4.75-4.27-4.75a4.75,4.75,0,0,0-2.91,1,7.87,7.87,0,0,1,6.73-6.47l-.05-.37m-4.63,6.87c2,0,3.09,1.63,3.09,4.47,0,2.5-.89,3.89-2.48,3.89-2,0-3.22-2.14-3.22-5.66,0-1.16.18-1.79.63-2.13a3.25,3.25,0,0,1,2-.57" transform="translate(-784.44 -654.76)"/></svg>