<svg id="Capa_1" data-name="Capa 1" xmlns="http://www.w3.org/2000/svg" xmlns:xlink="http://www.w3.org/1999/xlink" viewBox="0 0 144.56 204.29"><defs><style>.cls-1{filter:url(#h);}.cls-2,.cls-3,.cls-4{fill-rule:evenodd;}.cls-3{stroke:#000;fill:url(#Degradado_sin_nombre_170);}.cls-3,.cls-7{stroke-miterlimit:1.85;stroke-width:0.46px;}.cls-4{fill:url(#Degradado_sin_nombre_171);}.cls-10,.cls-12,.cls-14,.cls-16,.cls-18,.cls-20,.cls-22,.cls-24,.cls-26,.cls-5,.cls-6{isolation:isolate;}.cls-5{opacity:0.31;fill:url(#Degradado_sin_nombre_172);}.cls-6{opacity:0.32;fill:url(#Degradado_sin_nombre_173);}.cls-7{fill:none;}.cls-28,.cls-7{stroke:#fff;}.cls-11,.cls-13,.cls-15,.cls-17,.cls-19,.cls-21,.cls-23,.cls-25,.cls-27,.cls-8{stroke:#c8c8c8;stroke-linejoin:round;}.cls-8{fill:url(#Degradado_sin_nombre_174);}.cls-9{fill:url(#Degradado_sin_nombre_175);}.cls-10,.cls-12,.cls-14,.cls-16,.cls-18,.cls-20,.cls-22,.cls-24,.cls-26{opacity:0.4;}.cls-10{fill:url(#Degradado_sin_nombre_176);}.cls-11{fill:url(#Degradado_sin_nombre_177);}.cls-12{fill:url(#Degradado_sin_nombre_178);}.cls-13{fill:url(#Degradado_sin_nombre_179);}.cls-14{fill:url(#Degradado_sin_nombre_180);}.cls-15{fill:url(#Degradado_sin_nombre_181);}.cls-16{fill:url(#Degradado_sin_nombre_182);}.cls-17{fill:url(#Degradado_sin_nombre_183);}.cls-18{fill:url(#Degradado_sin_nombre_184);}.cls-19{fill:url(#Degradado_sin_nombre_185);}.cls-20{fill:url(#Degradado_sin_nombre_186);}.cls-21{fill:url(#Degradado_sin_nombre_187);}.cls-22{fill:url(#Degradado_sin_nombre_188);}.cls-23{fill:url(#Degradado_sin_nombre_189);}.cls-24{fill:url(#Degradado_sin_nombre_190);}.cls-25{fill:url(#Degradado_sin_nombre_191);}.cls-26{fill:url(#Degradado_sin_nombre_192);}.cls-27{fill:url(#Degradado_sin_nombre_193);}.cls-28{stroke-miterlimit:8.2;fill:url(#Degradado_sin_nombre_194);}</style><filter id="h" name="h"><feGaussianBlur stdDeviation="3.76"/></filter><linearGradient id="Degradado_sin_nombre_170" x1="115.23" y1="785" x2="124.71" y2="1299.42" gradientTransform="matrix(0.46, 0, 0, -0.46, 1269.37, 1070.86)" gradientUnits="userSpaceOnUse"><stop offset="0" stop-color="#f3f3f3"/><stop offset="1" stop-color="#8f8f8f"/></linearGradient><linearGradient id="Degradado_sin_nombre_171" x1="-261.92" y1="1152.18" x2="-129.66" y2="714.54" gradientTransform="matrix(0.49, 0, 0, -0.48, 1423.57, 1228.96)" gradientUnits="userSpaceOnUse"><stop offset="0"/><stop offset="1" stop-color="#555753"/></linearGradient><radialGradient id="Degradado_sin_nombre_172" cx="124.5" cy="1837.59" r="58.67" gradientTransform="matrix(-0.46, 0, 0, 0.42, 1325.89, 61.66)" gradientUnits="userSpaceOnUse"><stop offset="0" stop-color="#fff"/><stop offset="1" stop-color="#fff" stop-opacity="0"/></radialGradient><radialGradient id="Degradado_sin_nombre_173" cx="219.28" cy="733.49" r="63.15" gradientTransform="matrix(0.46, 0, 0, -0.73, 1272.2, 1217.51)" xlink:href="#Degradado_sin_nombre_172"/><linearGradient id="Degradado_sin_nombre_174" x1="310.97" y1="1223.37" x2="310.97" y2="1243.82" gradientTransform="matrix(0.33, 0, 0, -0.35, 1166.17, 1265.31)" xlink:href="#Degradado_sin_nombre_170"/><radialGradient id="Degradado_sin_nombre_175" cx="192.28" cy="1160.5" r="25.37" gradientTransform="matrix(1.7, 1.15, 4.4, -6.48, -4152.18, 8106.96)" xlink:href="#Degradado_sin_nombre_172"/><radialGradient id="Degradado_sin_nombre_176" cx="413.11" cy="1066.97" r="26.74" gradientTransform="matrix(0.75, 0, 0, -0.75, 1044.31, 1497.37)" xlink:href="#Degradado_sin_nombre_172"/><linearGradient id="Degradado_sin_nombre_177" x1="410.34" y1="1074.56" x2="410.34" y2="1095.01" gradientTransform="matrix(0.69, 0, 0, -0.72, 1070.63, 1478.31)" xlink:href="#Degradado_sin_nombre_170"/><radialGradient id="Degradado_sin_nombre_178" cx="413.11" cy="1066.97" r="26.74" gradientTransform="matrix(0.75, 0, 0, -0.75, 1045.42, 1621.89)" xlink:href="#Degradado_sin_nombre_172"/><linearGradient id="Degradado_sin_nombre_179" x1="410.34" y1="1074.56" x2="410.34" y2="1095.01" gradientTransform="matrix(0.69, 0, 0, -0.72, 1071.74, 1602.84)" xlink:href="#Degradado_sin_nombre_170"/><radialGradient id="Degradado_sin_nombre_180" cx="413.11" cy="1066.97" r="26.74" gradientTransform="matrix(0.75, 0, 0, -0.75, 977.05, 1538.94)" xlink:href="#Degradado_sin_nombre_172"/><linearGradient id="Degradado_sin_nombre_181" x1="410.34" y1="1074.56" x2="410.34" y2="1095.01" gradientTransform="matrix(0.69, 0, 0, -0.72, 1003.37, 1519.89)" xlink:href="#Degradado_sin_nombre_170"/><radialGradient id="Degradado_sin_nombre_182" cx="413.11" cy="1066.97" r="26.74" gradientTransform="matrix(0.75, 0, 0, -0.75, 1010.8, 1560.54)" xlink:href="#Degradado_sin_nombre_172"/><linearGradient id="Degradado_sin_nombre_183" x1="410.34" y1="1074.56" x2="410.34" y2="1095.01" gradientTransform="matrix(0.69, 0, 0, -0.72, 1037.13, 1541.48)" xlink:href="#Degradado_sin_nombre_170"/><radialGradient id="Degradado_sin_nombre_184" cx="413.11" cy="1066.97" r="26.74" gradientTransform="matrix(0.75, 0, 0, -0.75, 977.05, 1581.01)" xlink:href="#Degradado_sin_nombre_172"/><linearGradient id="Degradado_sin_nombre_185" x1="410.34" y1="1074.56" x2="410.34" y2="1095.01" gradientTransform="matrix(0.69, 0, 0, -0.72, 1003.37, 1561.96)" xlink:href="#Degradado_sin_nombre_170"/><radialGradient id="Degradado_sin_nombre_186" cx="413.11" cy="1066.97" r="26.74" gradientTransform="matrix(0.75, 0, 0, -0.75, 977.05, 1497.37)" xlink:href="#Degradado_sin_nombre_172"/><linearGradient id="Degradado_sin_nombre_187" x1="410.34" y1="1074.56" x2="410.34" y2="1095.01" gradientTransform="matrix(0.69, 0, 0, -0.72, 1003.37, 1478.31)" xlink:href="#Degradado_sin_nombre_170"/><radialGradient id="Degradado_sin_nombre_188" cx="413.11" cy="1066.97" r="26.74" gradientTransform="matrix(0.75, 0, 0, -0.75, 977.05, 1621.89)" xlink:href="#Degradado_sin_nombre_172"/><linearGradient id="Degradado_sin_nombre_189" x1="410.34" y1="1074.56" x2="410.34" y2="1095.01" gradientTransform="matrix(0.69, 0, 0, -0.72, 1003.37, 1602.84)" xlink:href="#Degradado_sin_nombre_170"/><radialGradient id="Degradado_sin_nombre_190" cx="413.11" cy="1066.97" r="26.74" gradientTransform="matrix(0.75, 0, 0, -0.75, 1043.74, 1538.94)" xlink:href="#Degradado_sin_nombre_172"/><linearGradient id="Degradado_sin_nombre_191" x1="410.34" y1="1074.56" x2="410.34" y2="1095.01" gradientTransform="matrix(0.69, 0, 0, -0.72, 1070.06, 1519.89)" xlink:href="#Degradado_sin_nombre_170"/><radialGradient id="Degradado_sin_nombre_192" cx="413.11" cy="1066.97" r="26.74" gradientTransform="matrix(0.75, 0, 0, -0.75, 1042.63, 1581.01)" xlink:href="#Degradado_sin_nombre_172"/><linearGradient id="Degradado_sin_nombre_193" x1="410.34" y1="1074.56" x2="410.34" y2="1095.01" gradientTransform="matrix(0.69, 0, 0, -0.72, 1068.95, 1561.96)" xlink:href="#Degradado_sin_nombre_170"/><linearGradient id="Degradado_sin_nombre_194" x1="726.2" y1="1253.56" x2="726.2" y2="1257.25" gradientTransform="matrix(2.05, 0, 0, -2.05, -113.84, 3251.95)" xlink:href="#Degradado_sin_nombre_170"/></defs><g class="cls-1"><path class="cls-2" d="M1256.68,655.78H1386a7.24,7.24,0,0,1,7.24,7.25h0V851.8a7.25,7.25,0,0,1-7.24,7.25H1256.68a7.26,7.26,0,0,1-7.25-7.25h0V663a7.25,7.25,0,0,1,7.25-7.25" transform="translate(-1249.43 -654.76)"/></g><path class="cls-3" d="M1258.31,655h127.15a8.31,8.31,0,0,1,8.31,8.31h0V850a8.31,8.31,0,0,1-8.31,8.31H1258.31A8.31,8.31,0,0,1,1250,850h0V663.3a8.31,8.31,0,0,1,8.31-8.31h0" transform="translate(-1249.43 -654.76)"/><path class="cls-4" d="M1259.73,662.09H1384a2.65,2.65,0,0,1,2.65,2.65V848.51a2.66,2.66,0,0,1-2.65,2.66h-124.3a2.66,2.66,0,0,1-2.65-2.66V664.74a2.65,2.65,0,0,1,2.65-2.65" transform="translate(-1249.43 -654.76)"/><path class="cls-5" d="M1312,851.25h-54.41V801.5H1312Z" transform="translate(-1249.43 -654.76)"/><path class="cls-6" d="M1329.74,662h54.32a2.12,2.12,0,0,1,2.12,2.12v88.54a2.12,2.12,0,0,1-2.12,2.12h-54.32a2.12,2.12,0,0,1-2.12-2.12V664.12a2.12,2.12,0,0,1,2.12-2.12" transform="translate(-1249.43 -654.76)"/><path class="cls-7" d="M1287.76,842.91h91.64V692.07m-23.72-21.73h-91.31v150" transform="translate(-1249.43 -654.76)"/><path class="cls-8" d="M1270,829.12a2.78,2.78,0,0,0-2.49,3A3.85,3.85,0,0,0,1268,834a3.41,3.41,0,0,0-2-.63,2.69,2.69,0,1,0,0,5.38,3.19,3.19,0,0,0,3-2.36,8.09,8.09,0,0,1,.29,2.18,7.36,7.36,0,0,1-1.47,4.53h4.22a7.31,7.31,0,0,1-1.57-4.64,7.87,7.87,0,0,1,.28-2.09,3,3,0,0,0,3.06,2.38,2.69,2.69,0,1,0,0-5.38,3.28,3.28,0,0,0-2,.73,4.14,4.14,0,0,0,.54-2,2.78,2.78,0,0,0-2.49-3Z" transform="translate(-1249.43 -654.76)"/><path class="cls-9" d="M1283.21,836.28c1.08-1.85-3.22-8.39-3.77-10.87a4.25,4.25,0,0,1-.12-.62,9.65,9.65,0,0,1-.09-1.07,10.68,10.68,0,0,1,.26-1.86.68.68,0,0,0,.63-.68.67.67,0,0,0-.29-.56c.14-.47.29-.94.43-1.41a19.53,19.53,0,0,1,1.23-3,39.29,39.29,0,0,1,2.24-3.6c.24-.37.5-.74.76-1.1l.22,0a1.24,1.24,0,0,0,1.25-1.24,1.23,1.23,0,0,0-.12-.5l.93-1.1a59.59,59.59,0,0,1,4.37-4.19c1.66-1.52,3.42-2.92,5.19-4.3,2.11-1.64,4.35-3.1,6.58-4.55s4.26-2.69,6.42-4a1.45,1.45,0,0,0,.3,0,1.24,1.24,0,0,0,0-2.48,1.25,1.25,0,0,0-.35,2.44l-.6.34c-2.63,1.57-5.24,3.17-7.81,4.83-2.24,1.46-4.5,2.92-6.61,4.56-1.78,1.39-3.53,2.8-5.19,4.32-1.27,1.15-2.55,2.29-3.74,3.52a1.28,1.28,0,0,0-.62-.17,1.24,1.24,0,0,0-1,2,31.67,31.67,0,0,0-2.09,2.79,41.5,41.5,0,0,0-2.23,3.6l-.29.63c.06-1.26.22-2.5.38-3.74a32.5,32.5,0,0,1,1.07-5.17,31,31,0,0,1,1.7-4.51,26.38,26.38,0,0,0,1.78-3.33c.11-.25.2-.52.29-.77l.07-.19c.89-1.61,1.81-3.18,2.74-4.77a2.75,2.75,0,0,0,.17-.29l1.06-1.43c1-1.31,2.09-2.57,3.16-3.83,1.38-1.6,2.87-3.11,4.35-4.62,1.66-1.72,3.43-3.32,5.2-4.92l5.74-5.1c2-1.83,4.07-3.61,6.11-5.41,2.3-2,4.53-4.07,6.74-6.17,1.17-1.12,2.33-2.24,3.48-3.38-.24.3,1.11-.73,3.44-2.72s4.57-3.82,7-5.62a32.65,32.65,0,0,1,4.65-3.19l1-.45a1.11,1.11,0,0,0-.08.36,1.24,1.24,0,1,0,2.18-.8c4.58-.33,5.52-1,.56-.68a3.92,3.92,0,0,0-1.17.28,1.16,1.16,0,0,0-.32,0,1.23,1.23,0,0,0-1.1.68,45.11,45.11,0,0,0-7,4.52c-2.36,1.8-4.65,3.7-6.91,5.62-.93.8-1.56,1.37-1.91,1.7q1.77-1.75,3.52-3.54c2.56-2.57,5-5.29,7.33-8.05,1.46-1.75,2.86-3.54,4.23-5.35a1.27,1.27,0,0,0,1,.45,1.24,1.24,0,0,0,.49-2.38c.62-.83,1.22-1.66,1.83-2.5a113,113,0,0,0,7.08-11.17,74.53,74.53,0,0,0,5.71-12.78,114,114,0,0,0,2.31-11.89c.76-4.78-.43-4.08-1.19.7a111.53,111.53,0,0,1-2.31,11.87,74.57,74.57,0,0,1-5.72,12.78c-.17.3-.36.6-.54.91a.68.68,0,0,0-.66-.55.69.69,0,0,0,0,1.38.59.59,0,0,0,.23,0,109.47,109.47,0,0,1-6.11,9.49l-1.25,1.73a1.22,1.22,0,0,0-1.12,1.21,1.9,1.9,0,0,0,0,.25c-1.67,2.24-3.38,4.45-5.17,6.59-2.35,2.77-4.77,5.48-7.33,8.06-2.41,2.45-4.85,4.89-7.35,7.26-2.21,2.1-4.44,4.17-6.75,6.17-2,1.8-4.09,3.58-6.11,5.4l-5.76,5.11c-1.64,1.49-3.29,3-4.85,4.57a.68.68,0,0,0-.32-.42c.61-.62,1.23-1.24,1.86-1.85,2-1.93,4.17-3.81,6.23-5.74,2.42-2.28,4.79-4.62,7.12-7a80.92,80.92,0,0,0,7.41-8.6,97.43,97.43,0,0,0,6.74-11.06,73.66,73.66,0,0,0,5.43-12.54,85,85,0,0,0,2.8-14.31,118,118,0,0,0,.16-12.33,1.27,1.27,0,0,0,.42-.93,1.25,1.25,0,0,0-.5-1c0-.5,0-1,0-1.52l-.09-2.56c-.17-4.8-1.35-4.12-1.17.68,0,.85,0,1.71.09,2.56,0,.22,0,.45,0,.67a1.25,1.25,0,0,0-.79,1.16,1.21,1.21,0,0,0,.87,1.16c.06,2.12.11,4.25.1,6.37a1.29,1.29,0,0,0-.48-.1,1.24,1.24,0,1,0,0,2.48,1.28,1.28,0,0,0,.44-.09c0,1.37-.1,2.75-.21,4.12-.38,3.09-.86,6.19-1.52,9.24,0-1.45,0-2.92,0-4.37-.11-3.46-.32-6.91-.77-10.34a55.45,55.45,0,0,0-1.39-7,23.9,23.9,0,0,0-1.16-3.4,3.51,3.51,0,0,0-.55-.91c-3.91-3.51-5.22-2.71-1.28.75a3.51,3.51,0,0,1,.55.88,24.11,24.11,0,0,1,1.18,3.41,56.69,56.69,0,0,1,1.42,7,102.11,102.11,0,0,1,.79,10.34c.06,1.92,0,3.84,0,5.76a15.36,15.36,0,0,0,.09,2.49l-.15.48q-1.18,3.54-2.68,7a1.23,1.23,0,0,0-2.3.61,1.23,1.23,0,0,0,1.23,1.24l.25,0c-.61,1.27-1.24,2.52-1.93,3.76a97.77,97.77,0,0,1-6.75,11.08,80.91,80.91,0,0,1-7.42,8.59c-2.34,2.37-4.7,4.72-7.13,7-2.06,1.93-4.19,3.8-6.25,5.74l-1,1.06a.67.67,0,0,0-.57.58A36.44,36.44,0,0,0,1290,790a68.63,68.63,0,0,0-3.91,5.91c-.45.61-.87,1.23-1.26,1.88s-.85,1.34-1.19,2.06a14.55,14.55,0,0,0-.65,1.45.06.06,0,0,0,0,0c-.34.62-.68,1.25-1,1.88-.41.86-.81,1.73-1.19,2.6,0-.15.05-.29.09-.44a36.2,36.2,0,0,1,1-3.56c.49-1.41,1.07-2.76,1.66-4.13.71-1.67,1.46-3.32,2.18-5,1-2.24,2.12-4.43,3.22-6.62,1.41-2.68,2.65-5.43,3.84-8.21,1.42-3.39,2.82-6.79,4.23-10.19s2.9-7,4.23-10.56a.7.7,0,0,0,.52-.67.62.62,0,0,0-.13-.4c1.35-3.73,2.54-7.5,3.7-11.29,1.33-4.4,2.48-8.85,3.37-13.36a86.89,86.89,0,0,0,1.06-15.87c-.16-5.4-.79-10.76-1.45-16.12-.4-3.23-.89-6.44-1.39-9.65a11,11,0,0,0-.72-2.86,1,1,0,0,0,.39.08,1.26,1.26,0,0,0,1.25-1.25,1.25,1.25,0,0,0-1.25-1.23,1.24,1.24,0,0,0-.9,2.08c-.24.34-.3,1.66,0,3.86.23,1.42.44,2.85.66,4.27a.74.74,0,0,0-.48-.17.68.68,0,1,0,0,1.36.71.71,0,0,0,.61-.36c.22,1.51.43,3,.62,4.55l.14,1.16a1.2,1.2,0,0,0-.56-.15,1.24,1.24,0,1,0,.8,2.18c.51,4.29,1,8.61,1.08,12.94a86.86,86.86,0,0,1-1.08,15.86c-.9,4.51-2,9-3.38,13.38-1.07,3.49-2.18,7-3.4,10.4a.67.67,0,0,0-.34.59.7.7,0,0,0,0,.25l-.27.71c-1.38,3.68-2.83,7.35-4.37,11q-2.11,5.1-4.25,10.18c-1.19,2.79-2.44,5.55-3.85,8.23-1.11,2.2-2.23,4.38-3.23,6.62-.73,1.67-1.47,3.33-2.19,5-.58,1.37-1.18,2.73-1.67,4.13-.37,1.18-.77,2.36-1,3.57-.22,1-.45,2-.63,3-.09.45-.17.9-.27,1.34-.53,2.18-.58,3.28-.38,3.45-.06.36-.11.74-.14,1.11a35.86,35.86,0,0,0-.42,4.38c0,.67,0,1.35,0,2-.16.5-.31,1-.43,1.52,0,.2-.07.4-.11.61h-6.09c4.09,1.18,7.29.83,12,12.66Zm1.2-9.58a.68.68,0,1,0-.68-.68A.68.68,0,0,0,1284.41,826.7Zm-9.49-3.46a1.25,1.25,0,1,0-1.24-1.25A1.25,1.25,0,0,0,1274.92,823.24Zm6.69-1.49a1.24,1.24,0,1,0,0-2.48,1.24,1.24,0,0,0,0,2.48Zm-8.74-3.48a.68.68,0,1,0-.68-.68A.67.67,0,0,0,1272.87,818.27Zm3.1-1.12a.68.68,0,0,0,0-1.36.68.68,0,0,0,0,1.36Zm11.71-1.47a1.26,1.26,0,0,0,1.25-1.25,1.24,1.24,0,1,0-1.25,1.25Zm2.91-2.12a.68.68,0,1,0-.68-.68A.67.67,0,0,0,1290.59,813.56Zm-17-1.36a1.24,1.24,0,1,0-1.24-1.23A1.24,1.24,0,0,0,1273.55,812.2Zm2.86-3.59a1.25,1.25,0,0,0,1.23-1.25,1.24,1.24,0,0,0-2.48,0A1.26,1.26,0,0,0,1276.41,808.61Zm16-.5a.68.68,0,1,0,0-1.36.68.68,0,1,0,0,1.36Zm9-1.11a1.24,1.24,0,1,0-1.25-1.25A1.25,1.25,0,0,0,1301.45,807Zm-13.26-1.5a1.22,1.22,0,0,0,1.23-1.23,1.24,1.24,0,1,0-1.23,1.23Zm4.85-.3c.06,0,1.46-.94,3.74-2.62,1-.72,1.92-1.47,3-2.1a43.79,43.79,0,0,1,4.52-2.41l1-.42a1.21,1.21,0,0,0-.29.78,1.24,1.24,0,1,0,2.48,0,1.23,1.23,0,0,0-1.17-1.21c1.08-.48,2.17-1,3.27-1.38s2.48-1,3.73-1.48l1.59-.59c4.89-1.87,6.16-2.61,1.27-.74l-1.6.61c-1.26.48-2.48,1-3.73,1.48-1.78.68-3.52,1.46-5.26,2.24a68,68,0,0,0-7,3.83c-1,.63-2,1.38-3,2.1a30.22,30.22,0,0,0-2.49,1.91Zm-17.25-1.3a1.25,1.25,0,0,0,1.24-1.25,1.25,1.25,0,0,0-2.49,0A1.26,1.26,0,0,0,1275.79,803.9Zm27.08-1.37a.68.68,0,0,0,0-1.36.68.68,0,1,0,0,1.36Zm-22.49-1.73a1.25,1.25,0,0,0,1.23-1.25,1.24,1.24,0,0,0-2.48,0A1.26,1.26,0,0,0,1280.38,800.8Zm6.69-.38a1.24,1.24,0,0,0,0-2.48,1.24,1.24,0,1,0,0,2.48Zm-16.81-1a.68.68,0,1,0-.68-.68A.68.68,0,0,0,1270.26,799.43Zm43.27-2.36a.68.68,0,1,0-.68-.68A.67.67,0,0,0,1313.53,797.07Zm-14.81-.11a1.24,1.24,0,0,0,1.23-1.25,1.22,1.22,0,0,0-1.23-1.23,1.24,1.24,0,0,0-1.24,1.23A1.25,1.25,0,0,0,1298.72,797Zm21.88-1.12a.68.68,0,1,0,0-1.36h-.06a1.22,1.22,0,0,0,.37-.87,1.24,1.24,0,1,0-1.24,1.23,1.29,1.29,0,0,0,.35,0,.72.72,0,0,0-.1.36.67.67,0,0,0,.68.68Zm4.28-2.85a1.25,1.25,0,0,0,1.24-1.25,1.25,1.25,0,0,0-2.49,0A1.26,1.26,0,0,0,1324.88,793Zm-42.27,0a1.25,1.25,0,0,0,1.23-1.25,1.23,1.23,0,0,0-1.23-1.23,1.25,1.25,0,0,0-1.25,1.23A1.26,1.26,0,0,0,1282.61,793Zm9.78-.13a1.24,1.24,0,1,0-1.23-1.24A1.23,1.23,0,0,0,1292.39,792.86Zm35.64-.12a.68.68,0,1,0-.68-.68A.68.68,0,0,0,1328,792.74Zm-26.64-.87a.68.68,0,1,0-.68-.68A.68.68,0,0,0,1301.39,791.87Zm-11.35-.81,1.23-1.75a30.62,30.62,0,0,1,2.47-3,.65.65,0,0,0,.42.3c-1.33,1.36-2.66,2.72-3.9,4.16l-.22.26Zm23.58-1.87,4-2.26c1-.56,2-1.11,3.06-1.68a1.29,1.29,0,0,0,.35,0,1.21,1.21,0,0,0,1.18-.91l4.26-2.43-4.24,2.39a1.27,1.27,0,0,0,0-.28,1.24,1.24,0,1,0-1.64,1.17l-1,.54q-3,1.69-6,3.42Zm15.91-.17a.69.69,0,1,0-.68-.68A.69.69,0,0,0,1329.53,789Zm-47.43-1.86a1.25,1.25,0,0,0,1.25-1.24,1.17,1.17,0,0,0-.07-.38h.13a.68.68,0,0,0,.68-.68.7.7,0,0,0-.68-.69.68.68,0,0,0-.68.66,1.34,1.34,0,0,0-.63-.16,1.24,1.24,0,0,0,0,2.48Zm-4-.13a.68.68,0,1,0-.68-.68A.68.68,0,0,0,1278.07,787Zm8.63-4.71a1.23,1.23,0,0,0,1.23-1.23,1.24,1.24,0,1,0-1.23,1.23Zm52.38-.24a.69.69,0,1,0-.69-.69A.69.69,0,0,0,1339.08,782.08Zm-12.1-.42,1.85-1.08a87.94,87.94,0,0,0,8.91-6q2.17-1.67,4.2-3.48a1.23,1.23,0,0,0,1.16.81,1.22,1.22,0,0,0,1.23-1.23,1.23,1.23,0,0,0-.71-1.13c1-.92,1.94-1.85,2.89-2.81.69-.7,1.35-1.42,2-2.16l.1-.08c2-1.81,4-3.59,5.94-5.44l.09-.1a1.24,1.24,0,1,0,1.37-1.4,26.18,26.18,0,0,0,3.09-3.8c1.17-1.72,2.33-3.45,3.45-5.2s2.22-3.5,3.29-5.28c.62-1,1.24-2,1.84-3.1a1,1,0,0,0,0,.25,1.24,1.24,0,0,0,1.23,1.24,1.25,1.25,0,0,0,1.25-1.24,1.24,1.24,0,0,0-1.25-1.23,1.25,1.25,0,0,0-.86.34l.5-.91a25.55,25.55,0,0,0,1.27-2.94,10.35,10.35,0,0,1,.44-1.14c.29-.57.52-1,.71-1.45a1.24,1.24,0,0,0,.29-2.36.68.68,0,0,0-.18-1.34.68.68,0,0,0-.37,1.25,1.25,1.25,0,0,0-1.18,1.23,1.27,1.27,0,0,0,.7,1.12c-.37.61-.78,1.34-1.25,2.28a12.27,12.27,0,0,0-.43,1.15,24.39,24.39,0,0,1-1.26,2.93c-.82,1.58-1.75,3.12-2.67,4.65-1.07,1.77-2.18,3.52-3.29,5.27s-2.28,3.48-3.45,5.2a23.82,23.82,0,0,1-2.53,3.21,1.23,1.23,0,0,0-.61.66l-1.39,1.42q-1.68,1.59-3.39,3.13c1.59-1.95,3.06-4,4.49-6.07a51.1,51.1,0,0,0,6-11.79c.08-.21.14-.43.21-.64a1.24,1.24,0,1,0,.37-1.16,62,62,0,0,0,1.54-25c-1-7.9-3-6.79-2,1.11a56.61,56.61,0,0,1,.48,12.74,52.78,52.78,0,0,1-2.62,14,51.27,51.27,0,0,1-6,11.81,76,76,0,0,1-7,9c-1.47,1.3-3,2.6-4.44,3.88-1.07.95-2.21,1.82-3.33,2.71-3.91,3.13-2.68,2.42,1.23-.71,1-.81,2.05-1.6,3-2.45a.22.22,0,0,0,0,.08c-2,1.85-4,3.64-6.16,5.28a88.92,88.92,0,0,1-8.75,5.92Zm-6.87-.32a.68.68,0,0,0,.68-.68.68.68,0,1,0-1.36,0A.68.68,0,0,0,1320.11,781.34Zm12.4-.51a.7.7,0,0,0,.55-.68.68.68,0,1,0-.68.68Zm-27.47-.36a1.24,1.24,0,1,0,0-2.48,1.24,1.24,0,0,0,0,2.48Zm3.78-.38a.68.68,0,1,0-.68-.68A.67.67,0,0,0,1308.82,780.09Zm18-3.1a.68.68,0,1,0-.68-.68A.67.67,0,0,0,1326.8,777Zm6.13-.36a1.25,1.25,0,1,0,0-2.49,1.25,1.25,0,0,0,0,2.49Zm-43.76-.51a1.24,1.24,0,1,0-1.24-1.23A1.24,1.24,0,0,0,1289.17,776.12Zm58.7-1.23a.68.68,0,1,0-.68-.68A.68.68,0,0,0,1347.87,774.89Zm-43.7-.25a1.24,1.24,0,1,0,0-2.48,1.24,1.24,0,0,0,0,2.48Zm-18.53-2.11a.68.68,0,1,0,0-1.36.68.68,0,0,0,0,1.36Zm50-.12a1.24,1.24,0,0,0,0-2.48,1.24,1.24,0,1,0,0,2.48Zm-44.5-1.24a1.23,1.23,0,0,0,1.23-1.24,1.26,1.26,0,0,0-.54-1,.59.59,0,0,0,.05-.27.68.68,0,0,0-1.36,0,.54.54,0,0,0,0,.22,1.23,1.23,0,0,0,.58,2.32Zm26.78-1.12a1.24,1.24,0,0,0,0-2.48,1.24,1.24,0,1,0,0,2.48Zm-22.84-.45c.29,0,.85-1.43,1.33-4s1-5.2,1.25-7.83a72.17,72.17,0,0,0,.43-9.75,61,61,0,0,0-.69-7.27,49.17,49.17,0,0,0-.92-4.84,14.52,14.52,0,0,0-.57-1.84c-2.15-4.78-3.51-4-1.28.74a12.84,12.84,0,0,1,.58,1.82c.42,1.59.68,3.22.94,4.84a60.89,60.89,0,0,1,.71,7.26,73.74,73.74,0,0,1-.4,9.74c-.29,2.62-.76,5.23-1.25,7.82-.42,2.26-.38,3.31-.13,3.29Zm26.49,0a.69.69,0,1,0-.68-.68A.69.69,0,0,0,1321.59,769.56Zm-20.33-.5a.68.68,0,1,0-.68-.68A.68.68,0,0,0,1301.26,769.06Zm8.13-2.23a1.24,1.24,0,0,0,1.23-1.24,1.22,1.22,0,0,0-1.23-1.23,1.23,1.23,0,0,0-1.25,1.23A1.25,1.25,0,0,0,1309.39,766.83Zm34.58-1a1.22,1.22,0,0,0,1.23-1.23,1.23,1.23,0,0,0-1.23-1.24,1.25,1.25,0,0,0-1.24,1.24A1.23,1.23,0,0,0,1344,765.83Zm13.94-2.85a.68.68,0,1,0-.68-.68A.68.68,0,0,0,1357.91,763Zm-23.62-5.83a1.23,1.23,0,0,0,1.25-1.23,1.24,1.24,0,1,0-2.48,0A1.22,1.22,0,0,0,1334.29,757.15Zm13.2-2a.68.68,0,1,0,0-1.36.68.68,0,0,0,0,1.36Zm-60.3-.86a1.25,1.25,0,0,0,0-2.49,1.25,1.25,0,0,0,0,2.49Zm31.37-.5a1.24,1.24,0,0,0,0-2.48,1.24,1.24,0,1,0,0,2.48Zm47.78-1.48a.68.68,0,1,0-.68-.68A.68.68,0,0,0,1366.34,752.33Zm-1.55-1a1.24,1.24,0,1,0-1.24-1.23A1.24,1.24,0,0,0,1364.79,751.33Zm-38.55-.36a1.25,1.25,0,1,0-1.23-1.25A1.23,1.23,0,0,0,1326.24,751Zm-20.46-1.38a1.24,1.24,0,1,0-1.23-1.23A1.22,1.22,0,0,0,1305.78,749.59Zm-13-5.32a.7.7,0,0,0,.69-.69.69.69,0,0,0-1.37,0A.7.7,0,0,0,1292.82,744.27ZM1300,744a1.24,1.24,0,0,0,1.25-1.23,1.24,1.24,0,1,0-2.48,0A1.23,1.23,0,0,0,1300,744Zm54.67-.36a1.24,1.24,0,1,0,0-2.48,1.24,1.24,0,0,0,0,2.48Zm-47-1.25a.68.68,0,1,0,0-1.36.68.68,0,1,0,0,1.36Zm17.17-5.2a1.24,1.24,0,1,0-1.25-1.24A1.25,1.25,0,0,0,1324.76,737.2Zm14.62-.13a1.25,1.25,0,0,0,1.25-1.23,1.26,1.26,0,0,0-1.25-1.25,1.25,1.25,0,0,0-1.23,1.25A1.23,1.23,0,0,0,1339.38,737.07Zm25.79-1.36a1.24,1.24,0,0,0,0-2.48,1.24,1.24,0,1,0,0,2.48Zm-62-1a1.24,1.24,0,0,0,1.23-1.24,1.24,1.24,0,0,0-2.48,0A1.25,1.25,0,0,0,1303.19,734.72Zm31.48-.13a1.24,1.24,0,0,0,1.25-1.23,1.25,1.25,0,0,0-2.5,0A1.24,1.24,0,0,0,1334.67,734.59Zm-24.85-2.72a.68.68,0,1,0,0-1.36.68.68,0,1,0,0,1.36Zm-17.86-2a.68.68,0,1,0-.69-.68A.69.69,0,0,0,1292,729.88Zm45-.24a.68.68,0,1,0-.68-.68A.68.68,0,0,0,1337,729.64Zm19.89-1.12a1.25,1.25,0,0,0,1.25-1.24,1.24,1.24,0,1,0-1.25,1.24ZM1324,728a.68.68,0,1,0-.68-.68A.68.68,0,0,0,1324,728Zm48.71-1.12a.68.68,0,1,0,0-1.36.68.68,0,0,0,0,1.36Zm-47.16-.24a1.25,1.25,0,1,0-1.25-1.25A1.24,1.24,0,0,0,1325.5,726.67Zm19.83-.38a1.24,1.24,0,1,0-1.24-1.24A1.24,1.24,0,0,0,1345.33,726.29Zm8.5-1.74a.68.68,0,1,0,0-1.36.68.68,0,1,0,0,1.36Zm18.53-.37a1.24,1.24,0,0,0,0-2.48,1.24,1.24,0,1,0,0,2.48Zm-65.62,0a.7.7,0,0,0,.53-.69.68.68,0,1,0-.68.69Zm57-2a.69.69,0,1,0-.68-.69A.69.69,0,0,0,1363.74,722.21ZM1314.1,721a1.24,1.24,0,1,0-1.25-1.25A1.24,1.24,0,0,0,1314.1,721Zm42-1a.68.68,0,0,0,.68-.68.68.68,0,1,0-1.36,0A.67.67,0,0,0,1356.06,720Zm-20.4-1.73a1.25,1.25,0,0,0,1.24-1.25s0,0,0-.07a.66.66,0,0,0,.32.07.68.68,0,1,0-.66-.86,1.24,1.24,0,0,0-2.13.86,1.25,1.25,0,0,0,1.24,1.25Zm13.33-1.5a.68.68,0,1,0-.68-.68A.68.68,0,0,0,1349,716.74Zm21.08-.24a.69.69,0,1,0-.68-.68A.69.69,0,0,0,1370.07,716.5Zm-5.28-.13a1.24,1.24,0,1,0-1.24-1.24A1.24,1.24,0,0,0,1364.79,716.37ZM1313,716a1.24,1.24,0,0,0,1.23-1.24,1.22,1.22,0,0,0-1.23-1.23,1.24,1.24,0,0,0-1.25,1.23A1.25,1.25,0,0,0,1313,716Zm10.53-1.36a1.24,1.24,0,1,0-1.16-1.66.67.67,0,0,0-.2.47.67.67,0,0,0,.31.57,1.23,1.23,0,0,0,1,.62Zm27.77-1.11a1.25,1.25,0,0,0,1.24-1.25,1.24,1.24,0,1,0-1.24,1.25Zm-45.75-1.25a1.24,1.24,0,1,0-1.23-1.23A1.24,1.24,0,0,0,1305.53,712.28Zm20.9-3.84a.68.68,0,1,0-.68-.68A.68.68,0,0,0,1326.43,708.44Zm41.77-.25a.68.68,0,1,0-.68-.68A.67.67,0,0,0,1368.2,708.19Zm-56.65-.13a.68.68,0,1,0-.68-.68A.68.68,0,0,0,1311.55,708.06Zm48-2.85a.68.68,0,1,0-.68-.68A.68.68,0,0,0,1359.52,705.21Zm2.67-1a1.25,1.25,0,0,0,1.24-1.24,1.24,1.24,0,1,0-1.24,1.24Zm-44.56-1.49a.68.68,0,1,0,0-1.36.68.68,0,1,0,0,1.36Zm5.64-.49a1.24,1.24,0,0,0,0-2.48,1.24,1.24,0,1,0,0,2.48Zm-10.67-2a1.23,1.23,0,0,0,1.25-1.23,1.25,1.25,0,0,0-2.49,0A1.23,1.23,0,0,0,1312.6,700.25Zm35.76-.36a.69.69,0,0,0,.68-.69.68.68,0,1,0-1.36,0A.7.7,0,0,0,1348.36,699.89Zm-16-.13a1.24,1.24,0,1,0,0-2.48,1.24,1.24,0,0,0,0,2.48Zm21.39-1.24a.69.69,0,1,0-.69-.69A.69.69,0,0,0,1353.7,698.52Zm-23.93-2.84a.69.69,0,1,0-.68-.69A.68.68,0,0,0,1329.77,695.68Zm-26.58-.38a1.24,1.24,0,1,0-1.25-1.25A1.24,1.24,0,0,0,1303.19,695.3Zm46.67-3a.68.68,0,0,0,0-1.36.68.68,0,1,0,0,1.36Zm4.4-.87a1.24,1.24,0,0,0,0-2.48,1.24,1.24,0,1,0,0,2.48Zm-52.76-1.87a.68.68,0,1,0-.68-.68A.68.68,0,0,0,1301.5,689.59Zm52.82-2.59a.69.69,0,1,0-.68-.68A.68.68,0,0,0,1354.32,687Zm-34.09-1.87a.68.68,0,1,0-.69-.68A.69.69,0,0,0,1320.23,685.13Zm-17.48-3.35a.68.68,0,1,0-.68-.68A.67.67,0,0,0,1302.75,681.78Zm3.46-2.48a.68.68,0,1,0-.68-.68A.68.68,0,0,0,1306.21,679.3Z" transform="translate(-1249.43 -654.76)"/><path class="cls-10" d="M1375.14,694.85A20.11,20.11,0,1,1,1355,674.74a20.11,20.11,0,0,1,20.11,20.11Z" transform="translate(-1249.43 -654.76)"/><path class="cls-11" d="M1355,680.29c-2.85,0-5.17,2.78-5.17,6.2a8.11,8.11,0,0,0,1.11,4,7.08,7.08,0,0,0-4-1.31,5.59,5.59,0,1,0,0,11.17,6.6,6.6,0,0,0,6.3-4.89,16.56,16.56,0,0,1,.62,4.52,15.2,15.2,0,0,1-3.07,9.41h8.77a15.16,15.16,0,0,1-3.25-9.63,16.62,16.62,0,0,1,.58-4.35c.32,2.84,3.36,4.94,6.35,4.94a5.59,5.59,0,1,0,0-11.17,6.77,6.77,0,0,0-4.16,1.52,8.66,8.66,0,0,0,1.12-4.22c0-3.42-2.31-6.2-5.16-6.2Z" transform="translate(-1249.43 -654.76)"/><path class="cls-12" d="M1376.25,819.37a20.11,20.11,0,1,1-20.11-20.11,20.11,20.11,0,0,1,20.11,20.11Z" transform="translate(-1249.43 -654.76)"/><path class="cls-13" d="M1356.1,804.82c-2.85,0-5.17,2.77-5.17,6.19a8.08,8.08,0,0,0,1.11,4,7.17,7.17,0,0,0-4-1.3,5.59,5.59,0,1,0,0,11.17,6.6,6.6,0,0,0,6.3-4.89,16.54,16.54,0,0,1,.62,4.51,15.3,15.3,0,0,1-3.07,9.42h8.77a15.17,15.17,0,0,1-3.25-9.64,16.54,16.54,0,0,1,.57-4.34c.32,2.84,3.36,4.94,6.36,4.94a5.59,5.59,0,1,0,0-11.17,6.77,6.77,0,0,0-4.16,1.52,8.67,8.67,0,0,0,1.12-4.23c0-3.42-2.31-6.19-5.16-6.19Z" transform="translate(-1249.43 -654.76)"/><path class="cls-14" d="M1307.88,736.42a20.11,20.11,0,1,1-20.11-20.11,20.11,20.11,0,0,1,20.11,20.11Z" transform="translate(-1249.43 -654.76)"/><path class="cls-15" d="M1287.73,721.87c-2.85,0-5.17,2.77-5.17,6.19a8.08,8.08,0,0,0,1.11,4,7.07,7.07,0,0,0-4-1.3,5.58,5.58,0,1,0,0,11.16,6.59,6.59,0,0,0,6.3-4.89,16.56,16.56,0,0,1,.62,4.52,15.25,15.25,0,0,1-3.07,9.42h8.77a15.17,15.17,0,0,1-3.25-9.64,16.54,16.54,0,0,1,.58-4.34c.31,2.83,3.35,4.93,6.35,4.93a5.58,5.58,0,1,0,0-11.16,6.77,6.77,0,0,0-4.16,1.52,8.67,8.67,0,0,0,1.12-4.23c0-3.42-2.31-6.19-5.16-6.19Z" transform="translate(-1249.43 -654.76)"/><path class="cls-16" d="M1341.63,758a20.11,20.11,0,1,1-20.11-20.11A20.11,20.11,0,0,1,1341.63,758Z" transform="translate(-1249.43 -654.76)"/><path class="cls-17" d="M1321.48,743.46c-2.85,0-5.16,2.77-5.16,6.2a8.13,8.13,0,0,0,1.1,4,7.08,7.08,0,0,0-4-1.31,5.59,5.59,0,1,0,0,11.17,6.62,6.62,0,0,0,6.31-4.89,16.54,16.54,0,0,1,.61,4.51,15.27,15.27,0,0,1-3.06,9.42H1326a15.16,15.16,0,0,1-3.25-9.63,16.62,16.62,0,0,1,.58-4.35c.32,2.84,3.36,4.94,6.35,4.94a5.59,5.59,0,1,0,0-11.17,6.79,6.79,0,0,0-4.16,1.52,8.55,8.55,0,0,0,1.12-4.22c0-3.43-2.31-6.2-5.16-6.2Z" transform="translate(-1249.43 -654.76)"/><path class="cls-18" d="M1307.88,778.49a20.11,20.11,0,1,1-20.11-20.11,20.11,20.11,0,0,1,20.11,20.11Z" transform="translate(-1249.43 -654.76)"/><path class="cls-19" d="M1287.73,763.94c-2.85,0-5.17,2.77-5.17,6.19a8.08,8.08,0,0,0,1.11,4,7.14,7.14,0,0,0-4-1.3,5.59,5.59,0,1,0,0,11.17,6.6,6.6,0,0,0,6.3-4.89,16.54,16.54,0,0,1,.62,4.51,15.23,15.23,0,0,1-3.07,9.42h8.77a15.16,15.16,0,0,1-3.25-9.63,16.62,16.62,0,0,1,.58-4.35c.31,2.84,3.35,4.94,6.35,4.94a5.59,5.59,0,1,0,0-11.17,6.77,6.77,0,0,0-4.16,1.52,8.67,8.67,0,0,0,1.12-4.23c0-3.42-2.31-6.19-5.16-6.19Z" transform="translate(-1249.43 -654.76)"/><path class="cls-20" d="M1307.88,694.85a20.11,20.11,0,1,1-20.11-20.11,20.11,20.11,0,0,1,20.11,20.11Z" transform="translate(-1249.43 -654.76)"/><path class="cls-21" d="M1287.73,680.29c-2.85,0-5.17,2.78-5.17,6.2a8.11,8.11,0,0,0,1.11,4,7.08,7.08,0,0,0-4-1.31,5.59,5.59,0,1,0,0,11.17,6.6,6.6,0,0,0,6.3-4.89,16.56,16.56,0,0,1,.62,4.52,15.2,15.2,0,0,1-3.07,9.41h8.77a15.16,15.16,0,0,1-3.25-9.63,16.62,16.62,0,0,1,.58-4.35c.31,2.84,3.35,4.94,6.35,4.94a5.59,5.59,0,1,0,0-11.17,6.77,6.77,0,0,0-4.16,1.52,8.66,8.66,0,0,0,1.12-4.22c0-3.42-2.31-6.2-5.16-6.2Z" transform="translate(-1249.43 -654.76)"/><path class="cls-22" d="M1307.88,819.37a20.11,20.11,0,1,1-20.11-20.11,20.11,20.11,0,0,1,20.11,20.11Z" transform="translate(-1249.43 -654.76)"/><path class="cls-23" d="M1287.73,804.82c-2.85,0-5.17,2.77-5.17,6.19a8.08,8.08,0,0,0,1.11,4,7.14,7.14,0,0,0-4-1.3,5.59,5.59,0,1,0,0,11.17,6.6,6.6,0,0,0,6.3-4.89,16.54,16.54,0,0,1,.62,4.51,15.23,15.23,0,0,1-3.07,9.42h8.77a15.17,15.17,0,0,1-3.25-9.64,16.54,16.54,0,0,1,.58-4.34c.31,2.84,3.35,4.94,6.35,4.94a5.59,5.59,0,1,0,0-11.17,6.77,6.77,0,0,0-4.16,1.52,8.67,8.67,0,0,0,1.12-4.23c0-3.42-2.31-6.19-5.16-6.19Z" transform="translate(-1249.43 -654.76)"/><path class="cls-24" d="M1374.57,736.42a20.11,20.11,0,1,1-20.11-20.11,20.11,20.11,0,0,1,20.11,20.11Z" transform="translate(-1249.43 -654.76)"/><path class="cls-25" d="M1354.42,721.87c-2.85,0-5.17,2.77-5.17,6.19a8.08,8.08,0,0,0,1.11,4,7.09,7.09,0,0,0-4-1.3,5.58,5.58,0,1,0,0,11.16,6.6,6.6,0,0,0,6.3-4.89,16.56,16.56,0,0,1,.62,4.52,15.32,15.32,0,0,1-3.07,9.42h8.77a15.17,15.17,0,0,1-3.25-9.64,16.54,16.54,0,0,1,.57-4.34c.32,2.83,3.36,4.93,6.36,4.93a5.58,5.58,0,1,0,0-11.16,6.82,6.82,0,0,0-4.17,1.52,8.57,8.57,0,0,0,1.13-4.23c0-3.42-2.31-6.19-5.16-6.19Z" transform="translate(-1249.43 -654.76)"/><path class="cls-26" d="M1373.46,778.49a20.11,20.11,0,1,1-20.11-20.11,20.11,20.11,0,0,1,20.11,20.11Z" transform="translate(-1249.43 -654.76)"/><path class="cls-27" d="M1353.31,763.94c-2.85,0-5.17,2.77-5.17,6.19a8.08,8.08,0,0,0,1.11,4,7.14,7.14,0,0,0-4-1.3,5.59,5.59,0,1,0,0,11.17,6.6,6.6,0,0,0,6.3-4.89,16.54,16.54,0,0,1,.62,4.51,15.23,15.23,0,0,1-3.07,9.42h8.77a15.16,15.16,0,0,1-3.25-9.63,16.62,16.62,0,0,1,.58-4.35c.32,2.84,3.36,4.94,6.35,4.94a5.59,5.59,0,1,0,0-11.17,6.77,6.77,0,0,0-4.16,1.52,8.67,8.67,0,0,0,1.12-4.23c0-3.42-2.31-6.19-5.16-6.19Z" transform="translate(-1249.43 -654.76)"/><path class="cls-28" d="M1370.21,686.11a9.84,9.84,0,0,0,5.34-1.84,9.35,9.35,0,0,0,3.75-7.62c0-3.75-2.09-6.41-5-6.41-2.7,0-4.73,2.3-4.73,5.37,0,2.77,1.64,4.61,4.1,4.61a5.12,5.12,0,0,0,3.4-1.29,8.5,8.5,0,0,1-6.9,6.72l.06.46m6.89-8.57a.93.93,0,0,1-.34.86,3.56,3.56,0,0,1-2.3.84c-1.72,0-2.81-1.7-2.81-4.41a5.93,5.93,0,0,1,.84-3.25,2.06,2.06,0,0,1,1.61-.7c2,0,3,2,3,5.77v.89" transform="translate(-1249.43 -654.76)"/></svg>