<svg id="Capa_1" data-name="Capa 1" xmlns="http://www.w3.org/2000/svg" xmlns:xlink="http://www.w3.org/1999/xlink" viewBox="0 0 144.26 204.72"><defs><style>.cls-1{filter:url(#h);}.cls-2,.cls-3,.cls-4{fill-rule:evenodd;}.cls-3{stroke:#000;fill:url(#Degradado_sin_nombre_467);}.cls-3,.cls-7{stroke-miterlimit:1.85;stroke-width:0.46px;}.cls-4{fill:url(#Degradado_sin_nombre_468);}.cls-11,.cls-5,.cls-6{isolation:isolate;}.cls-5{opacity:0.47;fill:url(#Degradado_sin_nombre_469);}.cls-6{opacity:0.4;fill:url(#Degradado_sin_nombre_470);}.cls-7{fill:none;}.cls-7,.cls-9{stroke:#fff;}.cls-12,.cls-8{stroke:#c8c8c8;stroke-linejoin:round;}.cls-8{stroke-width:0.35px;fill:url(#Degradado_sin_nombre_471);}.cls-9{stroke-miterlimit:8.2;fill:url(#Degradado_sin_nombre_472);}.cls-10{fill:url(#Degradado_sin_nombre_473);}.cls-11{opacity:0.4;fill:url(#Degradado_sin_nombre_474);}.cls-12{stroke-width:1.2px;fill:url(#Degradado_sin_nombre_475);}</style><filter id="h" name="h"><feGaussianBlur stdDeviation="3.76"/></filter><linearGradient id="Degradado_sin_nombre_467" x1="114.59" y1="781.52" x2="124.07" y2="1295.93" gradientTransform="matrix(0.46, 0, 0, -0.46, 29.38, 855.86)" gradientUnits="userSpaceOnUse"><stop offset="0" stop-color="#f3f3f3"/><stop offset="1" stop-color="#8f8f8f"/></linearGradient><linearGradient id="Degradado_sin_nombre_468" x1="-261.92" y1="1152.18" x2="-129.66" y2="714.54" gradientTransform="matrix(0.49, 0, 0, -0.48, 183.57, 1013.97)" gradientUnits="userSpaceOnUse"><stop offset="0" stop-color="#590000"/><stop offset="1" stop-color="#bf0303"/></linearGradient><radialGradient id="Degradado_sin_nombre_469" cx="124.5" cy="1837.59" r="58.67" gradientTransform="matrix(-0.46, 0, 0, 0.42, 85.6, -153.68)" gradientUnits="userSpaceOnUse"><stop offset="0" stop-color="#fff"/><stop offset="1" stop-color="#fff" stop-opacity="0"/></radialGradient><radialGradient id="Degradado_sin_nombre_470" cx="222.6" cy="733.49" r="63.15" gradientTransform="matrix(0.48, 0, 0, -0.73, 28.51, 1002.34)" xlink:href="#Degradado_sin_nombre_469"/><linearGradient id="Degradado_sin_nombre_471" x1="51.81" y1="955.04" x2="51.81" y2="958.38" gradientTransform="matrix(2.05, 0, 0, -2.05, -74.46, 2581.77)" xlink:href="#Degradado_sin_nombre_467"/><linearGradient id="Degradado_sin_nombre_472" x1="100.68" y1="1031.92" x2="100.68" y2="1037.72" gradientTransform="matrix(2.05, 0, 0, -2.05, -74.46, 2581.77)" xlink:href="#Degradado_sin_nombre_467"/><radialGradient id="Degradado_sin_nombre_473" cx="192.28" cy="1160.5" r="25.37" gradientTransform="matrix(1.7, 1.15, 4.4, -6.48, -5392.18, 7891.96)" xlink:href="#Degradado_sin_nombre_469"/><radialGradient id="Degradado_sin_nombre_474" cx="446.92" cy="1014.15" r="26.74" gradientTransform="matrix(1.25, 0, 0, -1.25, -476.18, 1807.81)" xlink:href="#Degradado_sin_nombre_469"/><linearGradient id="Degradado_sin_nombre_475" x1="471.16" y1="1364.44" x2="471.16" y2="1371.37" gradientTransform="matrix(3.4, 0, 0, -3.4, -1520.6, 5193.56)" xlink:href="#Degradado_sin_nombre_467"/></defs><g class="cls-1"><path class="cls-2" d="M16.7,442.83H146a7.26,7.26,0,0,1,7.25,7.25h0V638.86A7.25,7.25,0,0,1,146,646.1H16.7a7.24,7.24,0,0,1-7.25-7.24h0V450.08a7.25,7.25,0,0,1,7.25-7.25" transform="translate(-9.45 -441.39)"/></g><path class="cls-3" d="M17.84,441.62h127.5a8.13,8.13,0,0,1,8.13,8.13h0v187a8.13,8.13,0,0,1-8.13,8.13H17.84a8.14,8.14,0,0,1-8.14-8.13h0v-187a8.14,8.14,0,0,1,8.14-8.13" transform="translate(-9.45 -441.39)"/><path class="cls-4" d="M19.73,447.1H144a2.64,2.64,0,0,1,2.65,2.65V633.52a2.65,2.65,0,0,1-2.65,2.66H19.73a2.66,2.66,0,0,1-2.65-2.66V449.75a2.65,2.65,0,0,1,2.65-2.65" transform="translate(-9.45 -441.39)"/><path class="cls-5" d="M69.57,635.91H19.41a2.12,2.12,0,0,1-2.12-2.13h0v-45.5a2.12,2.12,0,0,1,2.12-2.13H69.57a2.12,2.12,0,0,1,2.12,2.13h0v45.5a2.12,2.12,0,0,1-2.12,2.13h0" transform="translate(-9.45 -441.39)"/><path class="cls-6" d="M86.89,446.83h60v92.79h-60Z" transform="translate(-9.45 -441.39)"/><path class="cls-7" d="M47.76,627.92H139.4V477.08m-23.72-21.74H24.37v150" transform="translate(-9.45 -441.39)"/><path class="cls-8" d="M31.72,613.94a42,42,0,0,0,3,3.85,40.48,40.48,0,0,0,3.42,3.36,39.07,39.07,0,0,0-3.39,3.34,41.48,41.48,0,0,0-2.93,3.83,41.53,41.53,0,0,0-3-3.86,38.37,38.37,0,0,0-3.44-3.37,39.3,39.3,0,0,0,3.41-3.34,39.91,39.91,0,0,0,2.95-3.81Z" transform="translate(-9.45 -441.39)"/><path class="cls-9" d="M139.74,469.94c-1-.06-1.25-.29-2.05-2L132,455.06h-.45l-4.73,11.16c-1.45,3.31-1.73,3.68-2.82,3.72v.44h4.5v-.44c-1.09,0-1.54-.29-1.54-.93a2.61,2.61,0,0,1,.18-.88l1-2.66h5.95l.93,2.18a4.51,4.51,0,0,1,.43,1.52c0,.57-.38.75-1.59.77v.44h5.8v-.44m-11.14-5.41,2.62-6.25,2.63,6.25H128.6" transform="translate(-9.45 -441.39)"/><path class="cls-10" d="M43.21,621.28c1.08-1.85-3.22-8.39-3.77-10.86a4.38,4.38,0,0,1-.12-.63,9.45,9.45,0,0,1-.09-1.07,10.43,10.43,0,0,1,.26-1.85.69.69,0,0,0,.63-.69.67.67,0,0,0-.29-.56c.14-.47.29-.94.43-1.41a20,20,0,0,1,1.23-3,40.69,40.69,0,0,1,2.24-3.6c.24-.37.5-.74.76-1.1a.86.86,0,0,0,.22,0,1.21,1.21,0,0,0,1.13-1.74l.93-1.1a59.59,59.59,0,0,1,4.37-4.19c1.66-1.52,3.42-2.92,5.19-4.3,2.11-1.64,4.35-3.09,6.58-4.55s4.26-2.69,6.42-4a1,1,0,0,0,.3,0,1.22,1.22,0,0,0,1.23-1.23,1.24,1.24,0,0,0-1.23-1.25,1.25,1.25,0,0,0-1.24,1.25,1.24,1.24,0,0,0,.89,1.19l-.6.35q-3.95,2.34-7.81,4.82c-2.24,1.46-4.5,2.92-6.61,4.57-1.78,1.38-3.53,2.79-5.19,4.31-1.27,1.15-2.55,2.29-3.74,3.52a1.28,1.28,0,0,0-.62-.17,1.26,1.26,0,0,0-1.25,1.25,1.29,1.29,0,0,0,.25.74,30.11,30.11,0,0,0-2.09,2.78,40.2,40.2,0,0,0-2.23,3.61l-.29.62c.06-1.25.22-2.5.38-3.74a32.5,32.5,0,0,1,1.07-5.17,31.4,31.4,0,0,1,1.7-4.51A26.38,26.38,0,0,0,44,586.35c.11-.25.2-.52.29-.77l.07-.19c.89-1.61,1.81-3.18,2.74-4.76l.17-.29,1.06-1.44c1-1.3,2.09-2.57,3.16-3.82,1.38-1.61,2.87-3.11,4.35-4.63,1.66-1.71,3.43-3.32,5.2-4.92s3.83-3.39,5.74-5.1,4.07-3.61,6.11-5.41c2.3-2,4.53-4.07,6.74-6.17q1.75-1.67,3.48-3.38c-.24.3,1.11-.73,3.45-2.72s4.56-3.82,6.94-5.62a32.65,32.65,0,0,1,4.65-3.19l1-.45a1.11,1.11,0,0,0-.08.36,1.24,1.24,0,1,0,2.48,0,1.23,1.23,0,0,0-.3-.79c4.58-.34,5.52-1,.56-.68a3.63,3.63,0,0,0-1.17.27,1.12,1.12,0,0,0-.32,0,1.23,1.23,0,0,0-1.1.68,45.11,45.11,0,0,0-7,4.52c-2.36,1.8-4.65,3.7-6.91,5.63-.93.79-1.56,1.36-1.91,1.69,1.18-1.17,2.36-2.35,3.52-3.53,2.56-2.58,5-5.29,7.33-8.06,1.46-1.74,2.86-3.54,4.23-5.35a1.24,1.24,0,0,0,2.19-.79,1.22,1.22,0,0,0-.74-1.13c.62-.84,1.22-1.67,1.83-2.51a111.88,111.88,0,0,0,7.08-11.17,74.53,74.53,0,0,0,5.71-12.78,114.27,114.27,0,0,0,2.31-11.88c.76-4.78-.43-4.09-1.19.69a111,111,0,0,1-2.31,11.87,74.57,74.57,0,0,1-5.72,12.78c-.17.31-.36.61-.54.91a.68.68,0,0,0-.66-.55.69.69,0,0,0-.68.7.68.68,0,0,0,.68.68.59.59,0,0,0,.23,0,109.47,109.47,0,0,1-6.11,9.49l-1.25,1.73a1.22,1.22,0,0,0-1.12,1.22,2,2,0,0,0,0,.24c-1.67,2.24-3.38,4.45-5.17,6.59-2.35,2.77-4.77,5.48-7.33,8.06s-4.85,4.89-7.35,7.26c-2.21,2.1-4.44,4.17-6.75,6.17-2,1.8-4.09,3.59-6.11,5.41l-5.76,5.1c-1.64,1.49-3.29,3-4.85,4.58a.68.68,0,0,0-.32-.42c.61-.63,1.23-1.24,1.86-1.86,2.05-1.93,4.17-3.81,6.23-5.74,2.42-2.27,4.79-4.61,7.12-7a80.81,80.81,0,0,0,7.41-8.59A97.56,97.56,0,0,0,84,536.16a73.31,73.31,0,0,0,5.43-12.54,84.79,84.79,0,0,0,2.8-14.31A117.93,117.93,0,0,0,92.4,497a1.27,1.27,0,0,0,.42-.93,1.22,1.22,0,0,0-.5-1c0-.51,0-1,0-1.53L92.19,491c-.17-4.8-1.35-4.12-1.17.68,0,.86,0,1.71.09,2.57,0,.22,0,.44,0,.66a1.25,1.25,0,0,0-.79,1.16,1.2,1.2,0,0,0,.87,1.16c.06,2.13.11,4.25.1,6.38a1.13,1.13,0,0,0-.48-.11,1.24,1.24,0,1,0,0,2.48,1.08,1.08,0,0,0,.44-.09c0,1.38-.1,2.75-.21,4.12-.38,3.1-.86,6.19-1.52,9.24,0-1.45,0-2.92,0-4.37-.11-3.46-.32-6.9-.77-10.33a55.09,55.09,0,0,0-1.39-7,24,24,0,0,0-1.16-3.41,3.51,3.51,0,0,0-.55-.91c-3.91-3.5-5.22-2.71-1.28.75a3.4,3.4,0,0,1,.55.89,23.56,23.56,0,0,1,1.18,3.4,56.85,56.85,0,0,1,1.42,7,101.92,101.92,0,0,1,.79,10.33c.06,1.92,0,3.84,0,5.76a15.56,15.56,0,0,0,.09,2.5l-.15.47c-.79,2.37-1.68,4.68-2.68,7a1.23,1.23,0,1,0-1.07,1.85l.25,0c-.61,1.27-1.24,2.52-1.93,3.75a97.77,97.77,0,0,1-6.75,11.08,80.91,80.91,0,0,1-7.42,8.59c-2.34,2.37-4.7,4.72-7.13,7-2.06,1.93-4.19,3.81-6.25,5.74l-1.05,1.06a.68.68,0,0,0-.57.58A37.33,37.33,0,0,0,50,575a68.63,68.63,0,0,0-3.91,5.91c-.45.61-.87,1.23-1.26,1.88s-.85,1.35-1.19,2.06a12.57,12.57,0,0,0-.65,1.45v0c-.34.63-.68,1.25-1,1.89-.41.86-.81,1.72-1.19,2.59,0-.14.05-.29.09-.43a36.39,36.39,0,0,1,1-3.57c.49-1.4,1.07-2.76,1.66-4.13.71-1.66,1.46-3.32,2.18-5,1-2.25,2.12-4.43,3.22-6.62,1.41-2.69,2.65-5.44,3.84-8.22,1.42-3.39,2.82-6.79,4.23-10.19s2.9-7,4.23-10.56a.69.69,0,0,0,.52-.67.62.62,0,0,0-.13-.4c1.35-3.72,2.54-7.5,3.7-11.29,1.33-4.4,2.48-8.85,3.37-13.36a86.78,86.78,0,0,0,1.06-15.86c-.16-5.4-.79-10.77-1.45-16.13-.4-3.22-.89-6.44-1.39-9.65a10.85,10.85,0,0,0-.72-2.85,1.23,1.23,0,0,0,.39.07,1.24,1.24,0,1,0,0-2.48,1.22,1.22,0,0,0-1.23,1.23,1.24,1.24,0,0,0,.33.86c-.24.34-.3,1.66,0,3.85.23,1.42.44,2.85.66,4.28a.7.7,0,0,0-.48-.18.68.68,0,1,0,0,1.36.69.69,0,0,0,.61-.36c.22,1.52.43,3,.62,4.55l.14,1.16a1.19,1.19,0,0,0-.56-.14,1.25,1.25,0,0,0-1.25,1.24,1.23,1.23,0,0,0,1.25,1.23,1.2,1.2,0,0,0,.8-.3c.51,4.3,1,8.61,1.08,12.94a86.8,86.8,0,0,1-1.08,15.86c-.9,4.52-2,9-3.38,13.38-1.07,3.49-2.18,7-3.41,10.4a.69.69,0,0,0-.33.6.93.93,0,0,0,0,.24c-.08.24-.17.47-.26.71-1.38,3.68-2.83,7.35-4.37,11q-2.11,5.1-4.25,10.19c-1.19,2.78-2.44,5.54-3.85,8.23-1.11,2.19-2.23,4.37-3.23,6.62-.73,1.66-1.47,3.33-2.19,5-.58,1.36-1.18,2.72-1.67,4.13-.37,1.17-.77,2.35-1,3.56-.21,1-.44,2-.62,3.06-.09.44-.17.89-.27,1.33-.53,2.18-.58,3.28-.38,3.45q-.09.56-.15,1.11a40.31,40.31,0,0,0-.42,4.38c0,.67,0,1.35,0,2-.15.5-.3,1-.42,1.52,0,.21-.07.4-.11.61H31.19c4.09,1.18,7.29.84,12,12.66Zm1.2-9.57a.69.69,0,0,0,0-1.37.69.69,0,0,0,0,1.37Zm-9.49-3.47A1.25,1.25,0,1,0,33.68,607,1.25,1.25,0,0,0,34.92,608.24Zm6.69-1.49a1.24,1.24,0,1,0,0-2.48,1.24,1.24,0,0,0,0,2.48Zm-8.74-3.48a.68.68,0,1,0-.68-.68A.67.67,0,0,0,32.87,603.27Zm3.1-1.11a.69.69,0,0,0,0-1.37.69.69,0,0,0,0,1.37Zm11.71-1.48a1.24,1.24,0,1,0,0-2.48,1.24,1.24,0,0,0,0,2.48Zm2.91-2.12a.68.68,0,0,0,0-1.36.68.68,0,1,0,0,1.36Zm-17-1.36A1.24,1.24,0,0,0,34.8,596a1.25,1.25,0,1,0-2.49,0A1.24,1.24,0,0,0,33.55,597.2Zm2.86-3.59a1.24,1.24,0,1,0-1.25-1.25A1.24,1.24,0,0,0,36.41,593.61Zm16.05-.49a.69.69,0,1,0-.68-.69A.68.68,0,0,0,52.46,593.12Zm9-1.12a1.24,1.24,0,1,0-1.25-1.25A1.25,1.25,0,0,0,61.45,592Zm-13.26-1.49a1.24,1.24,0,0,0,0-2.48,1.24,1.24,0,1,0,0,2.48ZM53,590.2c.06,0,1.46-.94,3.74-2.62,1-.72,1.92-1.47,3-2.1a43.79,43.79,0,0,1,4.52-2.41l.95-.42a1.22,1.22,0,0,0-.29.79,1.24,1.24,0,1,0,1.31-1.22c1.08-.48,2.17-1,3.27-1.38s2.48-1,3.73-1.47l1.59-.6c4.89-1.87,6.16-2.61,1.27-.74l-1.6.61c-1.26.48-2.48,1-3.73,1.48-1.78.68-3.52,1.46-5.26,2.24a70,70,0,0,0-7,3.83c-1,.63-2,1.39-3,2.1-1.77,1.31-2.53,1.9-2.49,1.91Zm-17.25-1.3a1.24,1.24,0,1,0-1.25-1.25A1.25,1.25,0,0,0,35.79,588.9Zm27.08-1.36a.69.69,0,1,0-.69-.68A.69.69,0,0,0,62.87,587.54ZM40.38,585.8a1.24,1.24,0,1,0-1.25-1.25A1.24,1.24,0,0,0,40.38,585.8Zm6.69-.38a1.22,1.22,0,0,0,1.23-1.23,1.24,1.24,0,0,0-1.23-1.25,1.25,1.25,0,0,0-1.24,1.25A1.24,1.24,0,0,0,47.07,585.42Zm-16.81-1a.69.69,0,1,0-.68-.68A.69.69,0,0,0,30.26,584.44Zm43.27-2.37a.68.68,0,1,0-.68-.68A.67.67,0,0,0,73.53,582.07ZM58.72,582a1.24,1.24,0,1,0-1.24-1.25A1.25,1.25,0,0,0,58.72,582Zm21.88-1.12a.68.68,0,0,0,0-1.36h-.06a1.2,1.2,0,0,0,.37-.87,1.24,1.24,0,1,0-1.24,1.23,1.29,1.29,0,0,0,.35,0,.72.72,0,0,0-.1.36.67.67,0,0,0,.68.68ZM84.88,578a1.24,1.24,0,1,0-1.25-1.25A1.25,1.25,0,0,0,84.88,578Zm-42.27,0a1.24,1.24,0,1,0-1.25-1.25A1.26,1.26,0,0,0,42.61,578Zm9.78-.13a1.24,1.24,0,1,0-1.23-1.23A1.23,1.23,0,0,0,52.39,577.86ZM88,577.74a.68.68,0,1,0-.68-.68A.68.68,0,0,0,88,577.74Zm-26.64-.87a.68.68,0,1,0-.68-.68A.68.68,0,0,0,61.39,576.87ZM50,576.06l1.23-1.75a30.62,30.62,0,0,1,2.47-3,.65.65,0,0,0,.42.3c-1.33,1.36-2.66,2.72-3.9,4.16l-.22.26Zm23.58-1.87,4-2.26q1.53-.82,3.06-1.68a1.29,1.29,0,0,0,.35,0,1.21,1.21,0,0,0,1.18-.91q2.15-1.2,4.26-2.43l-4.24,2.39a1.27,1.27,0,0,0,0-.28,1.24,1.24,0,1,0-2.48,0,1.27,1.27,0,0,0,.84,1.18l-1,.53q-3,1.69-6,3.42ZM89.53,574a.68.68,0,1,0,0-1.36.68.68,0,1,0,0,1.36ZM42.1,572.16a1.25,1.25,0,0,0,1.25-1.24,1.17,1.17,0,0,0-.07-.38l.13,0a.69.69,0,0,0,0-1.38.68.68,0,0,0-.68.67,1.24,1.24,0,1,0-.63,2.31Zm-4-.13a.68.68,0,1,0-.68-.68A.68.68,0,0,0,38.07,572Zm8.63-4.71a1.22,1.22,0,0,0,1.23-1.23,1.24,1.24,0,1,0-1.23,1.23Zm52.37-.24a.68.68,0,1,0,0-1.36.68.68,0,0,0,0,1.36ZM87,566.66l1.85-1.07a88,88,0,0,0,8.91-6q2.17-1.67,4.2-3.47a1.25,1.25,0,0,0,1.16.81,1.23,1.23,0,0,0,1.23-1.24,1.24,1.24,0,0,0-.71-1.13c1-.92,1.94-1.85,2.89-2.81.69-.69,1.35-1.42,2-2.16l.1-.08c2-1.8,4-3.59,5.94-5.44l.09-.1a1.24,1.24,0,1,0,1.37-1.4,26.18,26.18,0,0,0,3.09-3.8c1.17-1.72,2.33-3.45,3.45-5.2s2.21-3.5,3.29-5.27c.62-1,1.24-2.06,1.84-3.11a1.13,1.13,0,0,0,0,.25,1.24,1.24,0,0,0,1.23,1.25,1.24,1.24,0,1,0,0-2.48,1.22,1.22,0,0,0-.86.35l.5-.92a25.55,25.55,0,0,0,1.27-2.94,12.17,12.17,0,0,1,.44-1.14c.28-.56.52-1,.71-1.45a1.23,1.23,0,0,0,1-1.22,1.24,1.24,0,0,0-.75-1.14.68.68,0,0,0,.5-.65.68.68,0,1,0-1,.56,1.24,1.24,0,0,0-.48,2.35c-.37.61-.78,1.35-1.25,2.29a11.13,11.13,0,0,0-.43,1.14,23.72,23.72,0,0,1-1.26,2.93c-.82,1.59-1.75,3.12-2.67,4.65-1.07,1.77-2.18,3.53-3.29,5.27s-2.28,3.49-3.45,5.21a24.37,24.37,0,0,1-2.53,3.2,1.23,1.23,0,0,0-.61.66l-1.39,1.42q-1.68,1.59-3.39,3.13c1.59-1.95,3.06-4,4.49-6.07a51.1,51.1,0,0,0,6-11.79c.08-.21.14-.43.21-.64a1.24,1.24,0,1,0,1.21-1.49,1.26,1.26,0,0,0-.84.33,62,62,0,0,0,1.54-25c-1-7.9-3-6.78-2,1.12a56.5,56.5,0,0,1,.48,12.73,52.78,52.78,0,0,1-2.62,14,51.07,51.07,0,0,1-6,11.81,75.16,75.16,0,0,1-7,9c-1.47,1.3-3,2.6-4.44,3.88-1.07.95-2.21,1.82-3.33,2.71-3.91,3.13-2.68,2.42,1.23-.71,1-.81,2-1.6,3-2.44v.07c-2,1.85-4,3.64-6.16,5.29A90.61,90.61,0,0,1,87,566.66Zm-6.87-.32a.68.68,0,0,0,0-1.36.68.68,0,0,0,0,1.36Zm12.4-.51a.7.7,0,0,0,.55-.68.68.68,0,1,0-.68.68ZM65,565.47A1.24,1.24,0,1,0,65,563a1.24,1.24,0,0,0,0,2.48Zm3.78-.38a.68.68,0,1,0-.68-.68A.67.67,0,0,0,68.82,565.09Zm18-3.1a.68.68,0,1,0-.68-.68A.67.67,0,0,0,86.8,562Zm6.13-.36a1.25,1.25,0,1,0,0-2.49,1.25,1.25,0,0,0,0,2.49Zm-43.76-.51a1.23,1.23,0,0,0,1.25-1.23,1.25,1.25,0,0,0-2.49,0A1.23,1.23,0,0,0,49.17,561.12Zm58.7-1.23a.68.68,0,1,0-.68-.68A.67.67,0,0,0,107.87,559.89Zm-43.7-.25a1.25,1.25,0,0,0,1.25-1.24,1.24,1.24,0,0,0-1.25-1.23,1.22,1.22,0,0,0-1.23,1.23A1.24,1.24,0,0,0,64.17,559.64Zm-18.53-2.11a.68.68,0,1,0,0-1.36.68.68,0,1,0,0,1.36Zm50-.12a1.25,1.25,0,0,0,1.24-1.24,1.24,1.24,0,1,0-1.24,1.24Zm-44.5-1.24a1.24,1.24,0,0,0,.69-2.26.66.66,0,0,0,0-.28.68.68,0,1,0-1.36,0,.54.54,0,0,0,0,.22,1.23,1.23,0,0,0,.58,2.32Zm26.78-1.12a1.23,1.23,0,0,0,1.23-1.23,1.24,1.24,0,1,0-1.23,1.23ZM55.1,554.6c.29,0,.85-1.42,1.33-4s1-5.2,1.25-7.83a72.17,72.17,0,0,0,.43-9.75,61,61,0,0,0-.69-7.27c-.26-1.62-.5-3.25-.92-4.84a14.52,14.52,0,0,0-.57-1.84c-2.15-4.78-3.51-4-1.28.74a12.84,12.84,0,0,1,.58,1.82c.42,1.59.68,3.22.94,4.84a61.1,61.1,0,0,1,.71,7.26,73.67,73.67,0,0,1-.4,9.74c-.29,2.63-.76,5.23-1.25,7.82-.42,2.26-.38,3.31-.13,3.29Zm26.49,0a.68.68,0,0,0,0-1.36.68.68,0,1,0,0,1.36Zm-20.33-.49a.69.69,0,1,0-.68-.68A.69.69,0,0,0,61.26,554.07Zm8.13-2.24a1.24,1.24,0,0,0,1.23-1.24,1.24,1.24,0,0,0-2.48,0A1.25,1.25,0,0,0,69.39,551.83Zm34.58-1a1.24,1.24,0,0,0,0-2.48,1.24,1.24,0,1,0,0,2.48ZM117.91,548a.68.68,0,1,0-.68-.68A.67.67,0,0,0,117.91,548Zm-23.62-5.82a1.24,1.24,0,1,0-1.23-1.24A1.24,1.24,0,0,0,94.29,542.16Zm13.2-2a.68.68,0,1,0,0-1.36.68.68,0,1,0,0,1.36Zm-60.3-.85a1.25,1.25,0,0,0,0-2.5,1.25,1.25,0,0,0,0,2.5Zm31.37-.51a1.24,1.24,0,0,0,0-2.48,1.24,1.24,0,1,0,0,2.48Zm47.78-1.48a.68.68,0,1,0-.68-.68A.67.67,0,0,0,126.34,537.33Zm-1.55-1A1.24,1.24,0,0,0,126,535.1a1.25,1.25,0,1,0-2.49,0A1.24,1.24,0,0,0,124.79,536.33ZM86.24,536a1.25,1.25,0,0,0,0-2.49,1.25,1.25,0,0,0,0,2.49Zm-20.46-1.38A1.23,1.23,0,0,0,67,533.36a1.25,1.25,0,0,0-1.24-1.24,1.23,1.23,0,0,0-1.23,1.24A1.22,1.22,0,0,0,65.78,534.59Zm-13-5.31a.7.7,0,0,0,.69-.7.69.69,0,0,0-1.37,0A.7.7,0,0,0,52.82,529.28ZM60,529a1.23,1.23,0,0,0,1.25-1.23,1.24,1.24,0,1,0-2.48,0A1.22,1.22,0,0,0,60,529Zm54.67-.36a1.24,1.24,0,1,0,0-2.48,1.24,1.24,0,0,0,0,2.48Zm-47-1.24a.69.69,0,0,0,0-1.37.69.69,0,1,0,0,1.37Zm17.17-5.21A1.24,1.24,0,0,0,86,521a1.22,1.22,0,0,0-1.23-1.23A1.24,1.24,0,0,0,83.51,521,1.25,1.25,0,0,0,84.76,522.2Zm14.62-.13a1.24,1.24,0,0,0,1.25-1.23,1.25,1.25,0,0,0-1.25-1.24,1.24,1.24,0,0,0,0,2.47Zm25.79-1.36a1.23,1.23,0,0,0,1.23-1.23,1.25,1.25,0,0,0-1.23-1.25,1.26,1.26,0,0,0-1.25,1.25A1.25,1.25,0,0,0,125.17,520.71Zm-62-1a1.25,1.25,0,0,0,1.24-1.25,1.24,1.24,0,0,0-2.48,0A1.25,1.25,0,0,0,63.18,519.73Zm31.49-.13a1.24,1.24,0,1,0-1.25-1.24A1.25,1.25,0,0,0,94.67,519.6Zm-24.85-2.73a.68.68,0,1,0,0-1.36.68.68,0,1,0,0,1.36Zm-17.86-2a.68.68,0,1,0,0-1.36.68.68,0,1,0,0,1.36Zm45-.25a.68.68,0,1,0-.68-.68A.67.67,0,0,0,97,514.64Zm19.89-1.11a1.26,1.26,0,0,0,1.25-1.25,1.24,1.24,0,0,0-2.48,0A1.25,1.25,0,0,0,116.85,513.53ZM84,513a.68.68,0,1,0-.68-.68A.68.68,0,0,0,84,513Zm48.71-1.11a.69.69,0,0,0,0-1.37.69.69,0,0,0,0,1.37Zm-47.16-.25a1.25,1.25,0,1,0-1.25-1.25A1.24,1.24,0,0,0,85.5,511.67Zm19.83-.38a1.24,1.24,0,0,0,1.24-1.24,1.24,1.24,0,0,0-2.48,0A1.25,1.25,0,0,0,105.33,511.29Zm8.5-1.74a.68.68,0,0,0,0-1.36.68.68,0,1,0,0,1.36Zm18.53-.37a1.24,1.24,0,0,0,0-2.48,1.24,1.24,0,1,0,0,2.48Zm-65.63,0a.69.69,0,0,0,.54-.68.68.68,0,1,0-.68.68Zm57-2a.69.69,0,0,0,.68-.68.68.68,0,1,0-1.36,0A.68.68,0,0,0,123.74,507.21ZM74.1,506a1.24,1.24,0,1,0-1.25-1.24A1.24,1.24,0,0,0,74.1,506Zm42-1a.69.69,0,0,0,.68-.68.68.68,0,1,0-1.36,0A.68.68,0,0,0,116.06,505Zm-20.4-1.74A1.25,1.25,0,0,0,96.9,502s0-.05,0-.07a.66.66,0,0,0,.32.07.68.68,0,1,0-.66-.85,1.2,1.2,0,0,0-.89-.38,1.24,1.24,0,1,0,0,2.48ZM109,501.75a.69.69,0,1,0-.69-.69A.69.69,0,0,0,109,501.75Zm21.08-.25a.68.68,0,0,0,0-1.36.68.68,0,0,0,0,1.36Zm-5.28-.13a1.24,1.24,0,1,0-1.24-1.23A1.24,1.24,0,0,0,124.79,501.37ZM73,501a1.25,1.25,0,0,0,1.23-1.25A1.23,1.23,0,0,0,73,498.53a1.25,1.25,0,0,0-1.25,1.23A1.26,1.26,0,0,0,73,501Zm10.53-1.37a1.25,1.25,0,0,0,1.25-1.24,1.24,1.24,0,0,0-2.41-.42.68.68,0,0,0-.2.48.66.66,0,0,0,.31.56,1.21,1.21,0,0,0,1.05.62Zm27.77-1.11a1.24,1.24,0,1,0,0-2.48,1.24,1.24,0,1,0,0,2.48Zm-45.75-1.25a1.23,1.23,0,0,0,1.25-1.23,1.24,1.24,0,1,0-2.48,0A1.22,1.22,0,0,0,65.53,497.28Zm20.9-3.84a.68.68,0,1,0-.68-.68A.68.68,0,0,0,86.43,493.44Zm41.77-.24a.69.69,0,1,0-.68-.68A.68.68,0,0,0,128.2,493.2Zm-56.65-.13a.69.69,0,1,0-.69-.68A.69.69,0,0,0,71.55,493.07Zm48-2.86a.68.68,0,1,0-.68-.68A.67.67,0,0,0,119.52,490.21Zm2.67-1a1.25,1.25,0,0,0,1.24-1.25,1.24,1.24,0,1,0-1.24,1.25Zm-44.56-1.5a.68.68,0,1,0,0-1.36.7.7,0,0,0-.69.68A.68.68,0,0,0,77.63,487.73Zm5.64-.49A1.23,1.23,0,0,0,84.5,486a1.24,1.24,0,1,0-1.23,1.23Zm-10.67-2A1.24,1.24,0,1,0,71.36,484,1.24,1.24,0,0,0,72.6,485.26Zm35.76-.37a.69.69,0,0,0,.68-.69.68.68,0,0,0-1.36,0A.7.7,0,0,0,108.36,484.89Zm-16-.13a1.25,1.25,0,0,0,1.25-1.24,1.24,1.24,0,0,0-1.25-1.23,1.22,1.22,0,0,0-1.23,1.23A1.23,1.23,0,0,0,92.31,484.76Zm21.39-1.24a.68.68,0,1,0-.69-.68A.69.69,0,0,0,113.7,483.52Zm-23.93-2.84a.68.68,0,1,0-.68-.68A.68.68,0,0,0,89.77,480.68Zm-26.58-.38a1.24,1.24,0,1,0-1.25-1.24A1.24,1.24,0,0,0,63.19,480.3Zm46.67-3a.68.68,0,1,0-.69-.68A.68.68,0,0,0,109.86,477.33Zm4.4-.87a1.24,1.24,0,1,0-1.25-1.24A1.25,1.25,0,0,0,114.26,476.46ZM61.5,474.59a.68.68,0,1,0-.68-.68A.68.68,0,0,0,61.5,474.59ZM114.32,472a.68.68,0,0,0,0-1.36.68.68,0,1,0,0,1.36Zm-34.1-1.87a.68.68,0,1,0,0-1.36.68.68,0,1,0,0,1.36Zm-17.47-3.35a.68.68,0,1,0-.68-.68A.67.67,0,0,0,62.75,466.78Zm3.46-2.48a.68.68,0,0,0,0-1.36.68.68,0,1,0,0,1.36Z" transform="translate(-9.45 -441.39)"/><path class="cls-11" d="M115,542.11a33.37,33.37,0,1,1-33.37-33.37A33.37,33.37,0,0,1,115,542.11Z" transform="translate(-9.45 -441.39)"/><path class="cls-12" d="M81.57,517.33a140.94,140.94,0,0,0,10.17,13.24,136.54,136.54,0,0,0,11.77,11.59,135.41,135.41,0,0,0-11.67,11.52,138.87,138.87,0,0,0-10.08,13.17,143.74,143.74,0,0,0-10.25-13.28,137,137,0,0,0-11.84-11.63,135.9,135.9,0,0,0,11.75-11.48,139.93,139.93,0,0,0,10.15-13.13Z" transform="translate(-9.45 -441.39)"/></svg>