<svg id="Capa_1" data-name="Capa 1" xmlns="http://www.w3.org/2000/svg" xmlns:xlink="http://www.w3.org/1999/xlink" viewBox="0 0 144.26 204.72"><defs><style>.cls-1{filter:url(#h);}.cls-2,.cls-3,.cls-4{fill-rule:evenodd;}.cls-3{stroke:#000;fill:url(#Degradado_sin_nombre_278);}.cls-3,.cls-7{stroke-miterlimit:1.85;stroke-width:0.46px;}.cls-4{fill:url(#Degradado_sin_nombre_279);}.cls-11,.cls-5,.cls-6{isolation:isolate;}.cls-5{opacity:0.47;fill:url(#Degradado_sin_nombre_280);}.cls-6{opacity:0.4;fill:url(#Degradado_sin_nombre_281);}.cls-7{fill:none;}.cls-7,.cls-9{stroke:#fff;}.cls-12,.cls-8{stroke:#c8c8c8;stroke-linejoin:round;}.cls-8{fill:url(#Degradado_sin_nombre_282);}.cls-9{stroke-miterlimit:8.2;fill:url(#Degradado_sin_nombre_283);}.cls-10{fill:url(#Degradado_sin_nombre_284);}.cls-11{opacity:0.4;fill:url(#Degradado_sin_nombre_285);}.cls-12{fill:url(#Degradado_sin_nombre_286);}</style><filter id="h" name="h"><feGaussianBlur stdDeviation="3.76"/></filter><linearGradient id="Degradado_sin_nombre_278" x1="114.59" y1="781.52" x2="124.07" y2="1295.93" gradientTransform="matrix(0.46, 0, 0, -0.46, 29.38, 425.87)" gradientUnits="userSpaceOnUse"><stop offset="0" stop-color="#f3f3f3"/><stop offset="1" stop-color="#8f8f8f"/></linearGradient><linearGradient id="Degradado_sin_nombre_279" x1="-261.92" y1="1152.18" x2="-129.66" y2="714.54" gradientTransform="matrix(0.49, 0, 0, -0.48, 183.57, 583.97)" gradientUnits="userSpaceOnUse"><stop offset="0" stop-color="#590000"/><stop offset="1" stop-color="#bf0303"/></linearGradient><radialGradient id="Degradado_sin_nombre_280" cx="124.5" cy="1837.59" r="58.67" gradientTransform="matrix(-0.46, 0, 0, 0.42, 85.6, -583.68)" gradientUnits="userSpaceOnUse"><stop offset="0" stop-color="#fff"/><stop offset="1" stop-color="#fff" stop-opacity="0"/></radialGradient><radialGradient id="Degradado_sin_nombre_281" cx="222.6" cy="733.49" r="63.15" gradientTransform="matrix(0.48, 0, 0, -0.73, 28.51, 572.34)" xlink:href="#Degradado_sin_nombre_280"/><linearGradient id="Degradado_sin_nombre_282" x1="308.36" y1="1226.17" x2="308.36" y2="1247.86" gradientTransform="matrix(0.33, 0, 0, -0.35, -71.11, 618.09)" xlink:href="#Degradado_sin_nombre_278"/><linearGradient id="Degradado_sin_nombre_283" x1="100.79" y1="1143.9" x2="100.79" y2="1149.71" gradientTransform="matrix(2.05, 0, 0, -2.05, -74.46, 2380.96)" xlink:href="#Degradado_sin_nombre_278"/><radialGradient id="Degradado_sin_nombre_284" cx="192.28" cy="1160.5" r="25.37" gradientTransform="matrix(1.7, 1.15, 4.4, -6.48, -5392.18, 7461.97)" xlink:href="#Degradado_sin_nombre_280"/><radialGradient id="Degradado_sin_nombre_285" cx="449.12" cy="1010.72" r="26.74" gradientTransform="matrix(1.3, 0, 0, -1.3, -503.98, 1429.92)" xlink:href="#Degradado_sin_nombre_280"/><linearGradient id="Degradado_sin_nombre_286" x1="449.22" y1="1018.86" x2="449.22" y2="1040.55" gradientTransform="matrix(1.18, 0, 0, -1.25, -448.9, 1397.88)" xlink:href="#Degradado_sin_nombre_278"/></defs><g class="cls-1"><path class="cls-2" d="M16.7,12.84H146a7.25,7.25,0,0,1,7.25,7.24h0V208.86a7.26,7.26,0,0,1-7.25,7.25H16.7a7.25,7.25,0,0,1-7.25-7.25h0V20.08a7.24,7.24,0,0,1,7.25-7.24" transform="translate(-9.45 -11.39)"/></g><path class="cls-3" d="M17.84,11.62h127.5a8.13,8.13,0,0,1,8.13,8.13h0v187a8.13,8.13,0,0,1-8.13,8.14H17.84a8.14,8.14,0,0,1-8.14-8.14h0v-187a8.14,8.14,0,0,1,8.14-8.13" transform="translate(-9.45 -11.39)"/><path class="cls-4" d="M19.73,17.1H144a2.65,2.65,0,0,1,2.65,2.65V203.53a2.65,2.65,0,0,1-2.65,2.65H19.73a2.65,2.65,0,0,1-2.65-2.65V19.75a2.65,2.65,0,0,1,2.65-2.65" transform="translate(-9.45 -11.39)"/><path class="cls-5" d="M69.57,205.91H19.41a2.12,2.12,0,0,1-2.12-2.12h0V158.28a2.12,2.12,0,0,1,2.12-2.12H69.57a2.12,2.12,0,0,1,2.12,2.12h0v45.51a2.12,2.12,0,0,1-2.12,2.12h0" transform="translate(-9.45 -11.39)"/><path class="cls-6" d="M86.89,16.84h60v92.78h-60Z" transform="translate(-9.45 -11.39)"/><path class="cls-7" d="M47.76,197.93H139.4V47.08M115.68,25.35H24.37v150" transform="translate(-9.45 -11.39)"/><path class="cls-8" d="M24.22,186.79c-.74-1.86-.22-4.22,1.29-5s3.38.07,4.18,1.91a5.65,5.65,0,0,1,.4,1.68,5.1,5.1,0,0,1,.4-1.68c.8-1.84,2.67-2.7,4.18-1.91s1.93,3.12,1.29,5c-1.1,3.28-4.41,5.18-5.87,9-1.21-3.77-4.59-5.73-5.87-9Z" transform="translate(-9.45 -11.39)"/><path class="cls-9" d="M140,39.64c-1-.07-1.25-.3-2-2l-5.66-12.91h-.45l-4.73,11.16c-1.45,3.32-1.72,3.68-2.82,3.73v.43h4.5v-.43c-1.09,0-1.54-.3-1.54-.93a2.66,2.66,0,0,1,.18-.89l1.05-2.66h5.95l.93,2.18a4.37,4.37,0,0,1,.43,1.53c0,.56-.38.75-1.59.77v.43H140v-.43m-11.14-5.41L131.43,28l2.63,6.25h-5.25" transform="translate(-9.45 -11.39)"/><path class="cls-10" d="M43.21,191.29c1.08-1.85-3.22-8.39-3.77-10.87a4.25,4.25,0,0,1-.12-.62,9.86,9.86,0,0,1-.09-1.07,10.68,10.68,0,0,1,.26-1.86.68.68,0,0,0,.63-.68.67.67,0,0,0-.29-.56c.14-.47.29-.94.43-1.41a19.65,19.65,0,0,1,1.23-3,39.13,39.13,0,0,1,2.24-3.59c.24-.37.5-.74.76-1.1h.22A1.23,1.23,0,0,0,46,165.35a1.19,1.19,0,0,0-.12-.5l.93-1.11a59.45,59.45,0,0,1,4.37-4.18c1.66-1.53,3.42-2.92,5.19-4.31,2.11-1.64,4.35-3.09,6.58-4.55s4.26-2.68,6.42-4a1.45,1.45,0,0,0,.3,0,1.24,1.24,0,0,0,0-2.48,1.25,1.25,0,0,0-1.24,1.25,1.23,1.23,0,0,0,.89,1.18l-.6.35c-2.63,1.57-5.24,3.16-7.81,4.83-2.24,1.46-4.5,2.92-6.61,4.56-1.78,1.38-3.53,2.8-5.19,4.32-1.27,1.14-2.55,2.29-3.74,3.52a1.18,1.18,0,0,0-.62-.17,1.24,1.24,0,0,0-1,2,31.52,31.52,0,0,0-2.09,2.78c-.78,1.18-1.57,2.36-2.23,3.61l-.29.63c.06-1.26.22-2.5.38-3.74a32.85,32.85,0,0,1,1.07-5.18,31.28,31.28,0,0,1,1.7-4.5A26.38,26.38,0,0,0,44,156.36c.11-.25.2-.52.29-.77l.07-.19c.89-1.61,1.81-3.18,2.74-4.77.06-.1.12-.19.17-.29l1.06-1.43c1-1.31,2.09-2.57,3.16-3.83,1.38-1.6,2.87-3.11,4.35-4.62,1.66-1.72,3.43-3.32,5.2-4.93s3.83-3.39,5.74-5.1,4.07-3.6,6.11-5.4c2.3-2,4.53-4.07,6.74-6.17,1.17-1.12,2.33-2.24,3.48-3.38-.24.29,1.11-.73,3.45-2.72s4.56-3.82,6.94-5.63A33.27,33.27,0,0,1,98.18,104l1-.45a1.05,1.05,0,0,0-.08.36,1.24,1.24,0,1,0,2.18-.8c4.58-.33,5.52-1,.56-.68a3.92,3.92,0,0,0-1.17.28,1.12,1.12,0,0,0-.32,0,1.22,1.22,0,0,0-1.1.68,45.11,45.11,0,0,0-7,4.52c-2.36,1.8-4.65,3.7-6.91,5.62-.93.8-1.56,1.36-1.91,1.7,1.18-1.17,2.36-2.35,3.52-3.54,2.56-2.57,5-5.29,7.33-8,1.46-1.75,2.86-3.54,4.23-5.35a1.27,1.27,0,0,0,1,.45,1.24,1.24,0,0,0,.49-2.38c.62-.83,1.22-1.67,1.83-2.5a112,112,0,0,0,7.08-11.18,73.85,73.85,0,0,0,5.71-12.78,113.26,113.26,0,0,0,2.31-11.88c.76-4.78-.43-4.08-1.19.7a111.53,111.53,0,0,1-2.31,11.87,74.57,74.57,0,0,1-5.72,12.78c-.17.3-.36.6-.54.91a.68.68,0,0,0-.66-.55.69.69,0,0,0-.68.69.67.67,0,0,0,.68.68.59.59,0,0,0,.23,0,109.47,109.47,0,0,1-6.11,9.49L99.38,96.2a1.22,1.22,0,0,0-1.12,1.21,1.9,1.9,0,0,0,0,.25c-1.67,2.24-3.38,4.45-5.17,6.59-2.35,2.77-4.77,5.48-7.33,8.06s-4.85,4.89-7.35,7.26c-2.21,2.1-4.44,4.17-6.75,6.17-2,1.8-4.09,3.58-6.11,5.4l-5.76,5.1c-1.64,1.5-3.29,3-4.85,4.58a.68.68,0,0,0-.32-.42c.61-.63,1.23-1.24,1.86-1.85,2.05-1.93,4.17-3.81,6.23-5.74,2.42-2.28,4.79-4.62,7.12-7a81.92,81.92,0,0,0,7.41-8.6A96.69,96.69,0,0,0,84,106.16a73.22,73.22,0,0,0,5.43-12.53,85,85,0,0,0,2.8-14.31A118.15,118.15,0,0,0,92.4,67a1.23,1.23,0,0,0,.42-.92,1.25,1.25,0,0,0-.5-1c0-.5,0-1,0-1.52L92.19,61c-.17-4.81-1.35-4.12-1.17.68,0,.85,0,1.71.09,2.56,0,.22,0,.45,0,.67a1.25,1.25,0,0,0-.79,1.16,1.21,1.21,0,0,0,.87,1.16c.06,2.12.11,4.25.1,6.37a1.29,1.29,0,0,0-.48-.1,1.24,1.24,0,1,0,0,2.48,1.28,1.28,0,0,0,.44-.09c0,1.37-.1,2.75-.21,4.12-.38,3.09-.86,6.19-1.52,9.24,0-1.45,0-2.92,0-4.38-.11-3.45-.32-6.9-.77-10.33a55.09,55.09,0,0,0-1.39-7,23.9,23.9,0,0,0-1.16-3.4,3.51,3.51,0,0,0-.55-.91c-3.91-3.51-5.22-2.71-1.28.75a3.51,3.51,0,0,1,.55.88,24.11,24.11,0,0,1,1.18,3.41,56.69,56.69,0,0,1,1.42,6.95,102.14,102.14,0,0,1,.79,10.33c.06,1.93,0,3.85,0,5.77a15.36,15.36,0,0,0,.09,2.49l-.15.48q-1.19,3.54-2.68,7a1.23,1.23,0,0,0-2.3.6,1.23,1.23,0,0,0,1.23,1.25l.25,0c-.61,1.27-1.24,2.52-1.93,3.75a97,97,0,0,1-6.75,11.09,80.91,80.91,0,0,1-7.42,8.59c-2.34,2.37-4.7,4.72-7.13,7-2.06,1.93-4.19,3.8-6.25,5.74l-1.05,1.05a.69.69,0,0,0-.57.58A38.26,38.26,0,0,0,50,145a70.38,70.38,0,0,0-3.91,5.92c-.45.61-.87,1.23-1.26,1.88s-.85,1.34-1.19,2.06a12.57,12.57,0,0,0-.65,1.45v0c-.34.62-.68,1.25-1,1.88-.41.86-.81,1.73-1.19,2.6,0-.15.05-.29.09-.44a36.2,36.2,0,0,1,1-3.56c.49-1.41,1.07-2.77,1.66-4.13.71-1.67,1.46-3.32,2.18-5,1-2.24,2.12-4.43,3.22-6.62,1.41-2.68,2.65-5.43,3.84-8.21,1.42-3.39,2.82-6.79,4.23-10.19s2.9-7,4.23-10.56a.7.7,0,0,0,.52-.67.62.62,0,0,0-.13-.4c1.35-3.73,2.54-7.51,3.7-11.29,1.33-4.4,2.48-8.85,3.37-13.36a86.89,86.89,0,0,0,1.06-15.87c-.16-5.4-.79-10.77-1.45-16.12C68,51.21,67.48,48,67,44.79a11,11,0,0,0-.72-2.86,1.23,1.23,0,0,0,.39.07,1.25,1.25,0,0,0,1.24-1.24,1.23,1.23,0,0,0-1.24-1.23,1.24,1.24,0,0,0-.9,2.08c-.24.34-.3,1.66,0,3.86.23,1.42.44,2.85.66,4.27a.74.74,0,0,0-.48-.17.68.68,0,0,0,0,1.36.71.71,0,0,0,.61-.36c.22,1.51.43,3,.62,4.55l.14,1.16a1.2,1.2,0,0,0-.56-.15,1.24,1.24,0,1,0,0,2.48,1.21,1.21,0,0,0,.8-.31c.51,4.3,1,8.62,1.08,12.94a86.91,86.91,0,0,1-1.08,15.87c-.9,4.51-2,9-3.38,13.37-1.07,3.5-2.18,7-3.41,10.41a.67.67,0,0,0-.33.59,1,1,0,0,0,0,.25c-.08.24-.17.47-.26.71-1.38,3.68-2.83,7.35-4.37,11q-2.11,5.09-4.25,10.18c-1.19,2.79-2.44,5.55-3.85,8.23-1.11,2.2-2.23,4.38-3.23,6.62-.73,1.67-1.47,3.33-2.19,5-.58,1.37-1.18,2.73-1.67,4.13-.37,1.18-.77,2.35-1,3.57-.21,1-.44,2-.62,3.05-.09.45-.17.89-.27,1.34-.53,2.17-.58,3.28-.38,3.44-.06.37-.11.75-.15,1.12a40.07,40.07,0,0,0-.42,4.38c0,.67,0,1.35,0,2-.15.51-.3,1-.42,1.53,0,.2-.07.4-.11.6H31.19c4.09,1.19,7.29.84,12,12.67Zm1.2-9.58a.68.68,0,1,0-.68-.68A.68.68,0,0,0,44.41,181.71Zm-9.49-3.46A1.25,1.25,0,1,0,33.68,177,1.25,1.25,0,0,0,34.92,178.25Zm6.69-1.49a1.26,1.26,0,0,0,1.25-1.25,1.25,1.25,0,0,0-1.25-1.23,1.23,1.23,0,0,0-1.23,1.23A1.25,1.25,0,0,0,41.61,176.76Zm-8.74-3.48a.68.68,0,1,0-.68-.68A.68.68,0,0,0,32.87,173.28Zm3.1-1.12a.68.68,0,0,0,0-1.36.68.68,0,1,0,0,1.36Zm11.71-1.47a1.26,1.26,0,0,0,1.25-1.25,1.24,1.24,0,0,0-2.48,0A1.25,1.25,0,0,0,47.68,170.69Zm2.91-2.12a.68.68,0,1,0-.68-.68A.67.67,0,0,0,50.59,168.57Zm-17-1.36A1.24,1.24,0,1,0,32.31,166,1.24,1.24,0,0,0,33.55,167.21Zm2.86-3.6a1.24,1.24,0,0,0,1.23-1.24,1.24,1.24,0,0,0-2.48,0A1.25,1.25,0,0,0,36.41,163.61Zm16.05-.49a.68.68,0,1,0-.68-.68A.67.67,0,0,0,52.46,163.12Zm9-1.11a1.25,1.25,0,0,0,1.24-1.25,1.25,1.25,0,0,0-2.49,0A1.26,1.26,0,0,0,61.45,162Zm-13.26-1.5a1.22,1.22,0,0,0,1.23-1.23,1.24,1.24,0,1,0-1.23,1.23Zm4.85-.3c.06,0,1.46-1,3.74-2.62,1-.72,1.92-1.47,3-2.1a43.79,43.79,0,0,1,4.52-2.41l.95-.42a1.21,1.21,0,0,0-.29.78,1.24,1.24,0,1,0,2.48,0,1.22,1.22,0,0,0-1.17-1.21c1.08-.48,2.17-1,3.27-1.38s2.48-1,3.73-1.48l1.59-.59c4.89-1.87,6.16-2.62,1.27-.74l-1.6.61c-1.26.48-2.48,1-3.73,1.47-1.78.69-3.52,1.47-5.26,2.25a68,68,0,0,0-7,3.83c-1,.63-2,1.38-3,2.1A30.22,30.22,0,0,0,53,160.21Zm-17.25-1.3A1.25,1.25,0,0,0,37,157.66a1.25,1.25,0,0,0-2.49,0A1.26,1.26,0,0,0,35.79,158.91Zm27.08-1.37a.68.68,0,0,0,0-1.36.68.68,0,1,0,0,1.36ZM40.38,155.8a1.24,1.24,0,0,0,1.23-1.24,1.24,1.24,0,0,0-2.48,0A1.25,1.25,0,0,0,40.38,155.8Zm6.69-.37a1.24,1.24,0,0,0,0-2.48,1.24,1.24,0,1,0,0,2.48Zm-16.81-1a.68.68,0,1,0-.68-.68A.68.68,0,0,0,30.26,154.44Zm43.27-2.36a.68.68,0,1,0-.68-.68A.67.67,0,0,0,73.53,152.08ZM58.72,152A1.23,1.23,0,0,0,60,150.72a1.22,1.22,0,0,0-1.23-1.23,1.23,1.23,0,0,0-1.24,1.23A1.25,1.25,0,0,0,58.72,152Zm21.88-1.11a.68.68,0,1,0,0-1.36h-.06a1.22,1.22,0,0,0,.37-.87,1.24,1.24,0,1,0-1.24,1.23,1.29,1.29,0,0,0,.35,0,.72.72,0,0,0-.1.36.68.68,0,0,0,.68.68ZM84.88,148a1.25,1.25,0,0,0,1.24-1.24,1.25,1.25,0,0,0-2.49,0A1.25,1.25,0,0,0,84.88,148Zm-42.27,0a1.24,1.24,0,0,0,1.23-1.24,1.22,1.22,0,0,0-1.23-1.23,1.24,1.24,0,0,0-1.25,1.23A1.25,1.25,0,0,0,42.61,148Zm9.78-.13a1.24,1.24,0,0,0,1.25-1.23,1.25,1.25,0,0,0-1.25-1.24,1.24,1.24,0,0,0-1.23,1.24A1.22,1.22,0,0,0,52.39,147.86ZM88,147.75a.68.68,0,1,0,0-1.36.68.68,0,0,0,0,1.36Zm-26.64-.87a.68.68,0,1,0,0-1.36.68.68,0,1,0,0,1.36ZM50,146.07l1.23-1.76a33.23,33.23,0,0,1,2.47-3,.7.7,0,0,0,.42.31c-1.33,1.35-2.66,2.72-3.9,4.16l-.22.26Zm23.58-1.87,4-2.26,3.06-1.68a1.29,1.29,0,0,0,.35,0,1.22,1.22,0,0,0,1.18-.91q2.15-1.21,4.26-2.44l-4.24,2.39a1.18,1.18,0,0,0,0-.27,1.24,1.24,0,1,0-1.64,1.17l-1,.54q-3,1.69-6,3.42ZM89.53,144a.68.68,0,1,0-.68-.68A.68.68,0,0,0,89.53,144ZM42.1,142.17a1.25,1.25,0,0,0,1.25-1.25,1.16,1.16,0,0,0-.07-.37h.13a.68.68,0,0,0,.68-.68.69.69,0,0,0-.68-.69.68.68,0,0,0-.68.66,1.34,1.34,0,0,0-.63-.16,1.24,1.24,0,0,0,0,2.48Zm-4-.13a.68.68,0,1,0-.68-.68A.68.68,0,0,0,38.07,142Zm8.63-4.71a1.24,1.24,0,0,0,0-2.48,1.24,1.24,0,1,0,0,2.48Zm52.37-.25a.68.68,0,1,0-.68-.68A.68.68,0,0,0,99.07,137.08ZM87,136.66l1.85-1.07a87.94,87.94,0,0,0,8.91-6q2.17-1.67,4.2-3.48a1.23,1.23,0,0,0,1.16.81,1.22,1.22,0,0,0,1.23-1.23,1.23,1.23,0,0,0-.71-1.13c1-.92,1.94-1.85,2.89-2.81.69-.7,1.35-1.42,2-2.16l.1-.09c2-1.8,4-3.58,5.94-5.43l.09-.1a1.24,1.24,0,0,0,2.47-.17,1.25,1.25,0,0,0-1.1-1.24,25.57,25.57,0,0,0,3.09-3.79c1.17-1.72,2.33-3.45,3.45-5.2s2.21-3.51,3.29-5.28c.62-1,1.24-2,1.84-3.1a1,1,0,0,0,0,.25,1.24,1.24,0,0,0,1.23,1.24,1.25,1.25,0,0,0,1.25-1.24,1.24,1.24,0,0,0-1.25-1.23,1.25,1.25,0,0,0-.86.34l.5-.91a26.33,26.33,0,0,0,1.27-2.94,11.36,11.36,0,0,1,.44-1.15c.28-.56.52-1,.71-1.44a1.24,1.24,0,0,0,1-1.22,1.26,1.26,0,0,0-.75-1.15.66.66,0,0,0,.5-.65.68.68,0,0,0-1.36,0,.71.71,0,0,0,.31.57A1.23,1.23,0,0,0,130.2,88c-.37.61-.78,1.35-1.25,2.29a12.27,12.27,0,0,0-.43,1.15,24.39,24.39,0,0,1-1.26,2.93c-.82,1.58-1.75,3.12-2.67,4.65-1.07,1.77-2.18,3.52-3.29,5.27s-2.28,3.48-3.45,5.2a23.12,23.12,0,0,1-2.53,3.2,1.29,1.29,0,0,0-.61.67l-1.39,1.42q-1.68,1.59-3.39,3.13c1.59-2,3.06-4,4.49-6.07a51.1,51.1,0,0,0,6-11.79c.08-.21.14-.43.21-.64a1.24,1.24,0,1,0,1.21-1.49,1.26,1.26,0,0,0-.84.33A56.22,56.22,0,0,0,123,86a55.84,55.84,0,0,0-.49-12.72c-1-7.9-3-6.79-2,1.11A56.61,56.61,0,0,1,121,87.14a52.85,52.85,0,0,1-2.62,14,51.27,51.27,0,0,1-6,11.81,76,76,0,0,1-7,9c-1.47,1.3-3,2.6-4.44,3.88-1.07,1-2.21,1.82-3.33,2.71-3.91,3.13-2.68,2.41,1.23-.71,1-.81,2-1.6,3-2.45v.07c-2,1.86-4,3.64-6.16,5.29A87.1,87.1,0,0,1,87,136.66Zm-6.87-.31a.69.69,0,0,0,0-1.37.69.69,0,0,0,0,1.37Zm12.4-.51a.71.71,0,0,0,.55-.68.68.68,0,1,0-.68.68ZM65,135.48a1.26,1.26,0,0,0,1.25-1.25A1.25,1.25,0,0,0,65,133a1.23,1.23,0,0,0-1.23,1.23A1.25,1.25,0,0,0,65,135.48Zm3.78-.38a.68.68,0,1,0-.68-.68A.68.68,0,0,0,68.82,135.1Zm18-3.1a.68.68,0,1,0-.68-.68A.68.68,0,0,0,86.8,132Zm6.13-.36a1.25,1.25,0,1,0-1.23-1.25A1.26,1.26,0,0,0,92.93,131.64Zm-43.76-.51a1.24,1.24,0,1,0-1.24-1.23A1.24,1.24,0,0,0,49.17,131.13Zm58.7-1.23a.68.68,0,1,0-.68-.68A.68.68,0,0,0,107.87,129.9Zm-43.7-.25a1.24,1.24,0,1,0,0-2.48,1.24,1.24,0,0,0,0,2.48Zm-18.53-2.11a.69.69,0,0,0,0-1.37.69.69,0,0,0,0,1.37Zm50-.12a1.24,1.24,0,1,0,0-2.48,1.24,1.24,0,1,0,0,2.48Zm-44.5-1.25a1.22,1.22,0,0,0,1.23-1.23,1.24,1.24,0,0,0-.54-1,.59.59,0,0,0,0-.27.68.68,0,1,0-1.36,0,.54.54,0,0,0,0,.22,1.22,1.22,0,0,0,.58,2.31Zm26.78-1.11a1.24,1.24,0,0,0,0-2.48,1.24,1.24,0,1,0,0,2.48Zm-22.84-.45c.29,0,.85-1.43,1.33-4s1-5.19,1.25-7.82a72.17,72.17,0,0,0,.43-9.75,61.2,61.2,0,0,0-.69-7.28c-.26-1.62-.5-3.24-.92-4.83a14.52,14.52,0,0,0-.57-1.84c-2.15-4.79-3.51-4-1.28.73a13,13,0,0,1,.58,1.83c.42,1.59.68,3.22.94,4.84a60.89,60.89,0,0,1,.71,7.26,73.74,73.74,0,0,1-.4,9.74c-.29,2.62-.76,5.22-1.25,7.82-.42,2.26-.38,3.31-.13,3.29Zm26.49,0a.69.69,0,0,0,0-1.37.69.69,0,0,0,0,1.37Zm-20.33-.5a.68.68,0,1,0-.68-.68A.68.68,0,0,0,61.26,124.07Zm8.13-2.23a1.24,1.24,0,1,0-1.25-1.24A1.24,1.24,0,0,0,69.39,121.84Zm34.58-1a1.22,1.22,0,0,0,1.23-1.23,1.24,1.24,0,0,0-1.23-1.25,1.25,1.25,0,0,0-1.24,1.25A1.24,1.24,0,0,0,104,120.84ZM117.91,118a.68.68,0,1,0-.68-.68A.68.68,0,0,0,117.91,118Zm-23.62-5.83a1.23,1.23,0,0,0,1.25-1.23,1.24,1.24,0,1,0-2.48,0A1.22,1.22,0,0,0,94.29,112.16Zm13.2-2a.68.68,0,1,0,0-1.36.68.68,0,0,0,0,1.36Zm-60.3-.86a1.25,1.25,0,0,0,0-2.49,1.25,1.25,0,0,0,0,2.49Zm31.37-.5a1.24,1.24,0,0,0,0-2.48,1.24,1.24,0,1,0,0,2.48Zm47.78-1.48a.68.68,0,1,0-.68-.68A.68.68,0,0,0,126.34,107.34Zm-1.55-1a1.24,1.24,0,1,0-1.24-1.23A1.24,1.24,0,0,0,124.79,106.34ZM86.24,106a1.25,1.25,0,0,0,0-2.5,1.25,1.25,0,0,0,0,2.5ZM65.78,104.6a1.24,1.24,0,1,0-1.23-1.23A1.22,1.22,0,0,0,65.78,104.6Zm-13-5.32a.7.7,0,0,0,.69-.69.69.69,0,0,0-1.37,0A.7.7,0,0,0,52.82,99.28ZM60,99a1.24,1.24,0,1,0-1.23-1.23A1.24,1.24,0,0,0,60,99Zm54.67-.36a1.24,1.24,0,1,0,0-2.48,1.24,1.24,0,0,0,0,2.48Zm-47-1.25a.68.68,0,1,0,0-1.36.68.68,0,1,0,0,1.36Zm17.17-5.2A1.24,1.24,0,1,0,83.51,91,1.26,1.26,0,0,0,84.76,92.21Zm14.62-.13a1.24,1.24,0,1,0,0-2.48,1.24,1.24,0,0,0,0,2.48Zm25.79-1.36a1.24,1.24,0,0,0,0-2.48,1.24,1.24,0,1,0,0,2.48Zm-62-1a1.24,1.24,0,0,0,1.24-1.24,1.24,1.24,0,0,0-2.48,0A1.25,1.25,0,0,0,63.18,89.73Zm31.49-.13a1.24,1.24,0,0,0,1.25-1.23,1.25,1.25,0,0,0-2.5,0A1.24,1.24,0,0,0,94.67,89.6ZM69.82,86.88a.68.68,0,1,0-.69-.68A.69.69,0,0,0,69.82,86.88ZM52,84.89a.68.68,0,1,0-.69-.68A.69.69,0,0,0,52,84.89Zm45-.24a.68.68,0,1,0-.68-.68A.68.68,0,0,0,97,84.65Zm19.89-1.12a1.24,1.24,0,1,0,0-2.48,1.24,1.24,0,0,0,0,2.48ZM84,83a.68.68,0,0,0,0-1.36A.68.68,0,1,0,84,83Zm48.71-1.12a.68.68,0,0,0,0-1.36.68.68,0,1,0,0,1.36ZM85.5,81.68a1.25,1.25,0,0,0,0-2.5,1.25,1.25,0,0,0,0,2.5Zm19.83-.38a1.24,1.24,0,1,0-1.24-1.25A1.24,1.24,0,0,0,105.33,81.3Zm8.5-1.74a.68.68,0,1,0-.69-.68A.68.68,0,0,0,113.83,79.56Zm18.53-.38A1.22,1.22,0,0,0,133.59,78a1.24,1.24,0,1,0-1.23,1.23Zm-65.63,0a.75.75,0,1,0-.14,0Zm57-2a.68.68,0,0,0,.68-.68.68.68,0,1,0-1.36,0A.67.67,0,0,0,123.74,77.21ZM74.1,76a1.24,1.24,0,1,0-1.25-1.25A1.24,1.24,0,0,0,74.1,76Zm42-1a.68.68,0,0,0,.68-.68.68.68,0,1,0-1.36,0A.67.67,0,0,0,116.06,75Zm-20.4-1.74A1.25,1.25,0,0,0,96.9,72s0,0,0-.07a.66.66,0,0,0,.32.07.68.68,0,1,0-.66-.86,1.24,1.24,0,1,0-.89,2.1ZM109,71.75a.68.68,0,1,0-.69-.68A.68.68,0,0,0,109,71.75Zm21.08-.24a.69.69,0,0,0,0-1.37.69.69,0,0,0,0,1.37Zm-5.28-.13a1.24,1.24,0,1,0-1.24-1.24A1.24,1.24,0,0,0,124.79,71.38ZM73,71a1.24,1.24,0,0,0,1.23-1.24A1.22,1.22,0,0,0,73,68.54a1.24,1.24,0,0,0-1.25,1.23A1.25,1.25,0,0,0,73,71Zm10.53-1.36A1.24,1.24,0,1,0,82.35,68a.7.7,0,0,0-.2.48.67.67,0,0,0,.31.57,1.23,1.23,0,0,0,1.05.62Zm27.77-1.11a1.25,1.25,0,0,0,1.24-1.25,1.24,1.24,0,0,0-2.48,0A1.25,1.25,0,0,0,111.28,68.54ZM65.53,67.29a1.24,1.24,0,1,0-1.23-1.23A1.24,1.24,0,0,0,65.53,67.29Zm20.9-3.84a.68.68,0,0,0,0-1.36.68.68,0,0,0,0,1.36Zm41.77-.25a.68.68,0,1,0-.68-.68A.67.67,0,0,0,128.2,63.2Zm-56.65-.13a.68.68,0,1,0,0-1.36.68.68,0,1,0,0,1.36Zm48-2.85a.68.68,0,1,0-.68-.68A.68.68,0,0,0,119.52,60.22Zm2.67-1A1.25,1.25,0,0,0,123.43,58a1.24,1.24,0,1,0-1.24,1.24ZM77.63,57.74a.68.68,0,1,0,0-1.36.68.68,0,1,0,0,1.36Zm5.64-.49a1.24,1.24,0,0,0,0-2.48,1.24,1.24,0,1,0,0,2.48Zm-10.67-2A1.23,1.23,0,0,0,73.85,54a1.25,1.25,0,0,0-2.49,0A1.23,1.23,0,0,0,72.6,55.26Zm35.76-.36a.69.69,0,1,0-.68-.69A.69.69,0,0,0,108.36,54.9Zm-16-.13a1.24,1.24,0,1,0,0-2.48,1.24,1.24,0,0,0,0,2.48Zm21.39-1.25a.68.68,0,1,0,0-1.36.68.68,0,1,0,0,1.36ZM89.77,50.68a.68.68,0,1,0,0-1.36.68.68,0,1,0,0,1.36Zm-26.58-.37a1.24,1.24,0,1,0-1.25-1.25A1.24,1.24,0,0,0,63.19,50.31Zm46.67-3a.68.68,0,1,0-.69-.68A.69.69,0,0,0,109.86,47.34Zm4.4-.87A1.24,1.24,0,1,0,113,45.22,1.26,1.26,0,0,0,114.26,46.47ZM61.5,44.6a.68.68,0,1,0,0-1.36.68.68,0,0,0,0,1.36ZM114.32,42a.69.69,0,0,0,0-1.37.69.69,0,0,0,0,1.37Zm-34.1-1.87a.69.69,0,1,0-.68-.68A.69.69,0,0,0,80.22,40.14ZM62.75,36.79a.68.68,0,1,0-.68-.68A.68.68,0,0,0,62.75,36.79Zm3.46-2.48a.68.68,0,1,0-.68-.68A.67.67,0,0,0,66.21,34.31Z" transform="translate(-9.45 -11.39)"/><path class="cls-11" d="M116.45,112.12A34.86,34.86,0,1,1,81.59,77.26a34.86,34.86,0,0,1,34.86,34.86Z" transform="translate(-9.45 -11.39)"/><path class="cls-12" d="M60.54,105.54c-2.67-6.7-.79-15.18,4.64-18s12.17.22,15,6.86a18.66,18.66,0,0,1,1.44,6,18.69,18.69,0,0,1,1.46-6c2.87-6.64,9.6-9.71,15-6.86s6.94,11.21,4.65,18c-4,11.78-15.86,18.63-21.14,32.24-4.36-13.55-16.49-20.63-21.12-32.24Z" transform="translate(-9.45 -11.39)"/></svg>