<svg id="Capa_1" data-name="Capa 1" xmlns="http://www.w3.org/2000/svg" xmlns:xlink="http://www.w3.org/1999/xlink" viewBox="0 0 144.23 203.73"><defs><style>.cls-1{stroke:#000;stroke-width:0.46px;fill:url(#Degradado_sin_nombre_841);}.cls-1,.cls-2{fill-rule:evenodd;}.cls-2{stroke:#fff;fill:url(#Degradado_sin_nombre_842);}.cls-3{fill:url(#Degradado_sin_nombre_843);}</style><linearGradient id="Degradado_sin_nombre_841" x1="22.47" y1="1156.69" x2="166.7" y2="1156.69" gradientTransform="matrix(1, 0, 0, -1, -12.7, 2128.32)" gradientUnits="userSpaceOnUse"><stop offset="0" stop-color="#f3f3f3"/><stop offset="1" stop-color="#8f8f8f"/></linearGradient><linearGradient id="Degradado_sin_nombre_842" x1="68.24" y1="1243.17" x2="132.89" y2="1030.93" gradientTransform="matrix(1, 0, 0, -1, -12.7, 2128.32)" gradientUnits="userSpaceOnUse"><stop offset="0" stop-color="#004d00"/><stop offset="1" stop-color="#00bf00"/></linearGradient><radialGradient id="Degradado_sin_nombre_843" cx="199.79" cy="1159.66" r="25.37" gradientTransform="matrix(1.97, 1.34, 5.13, -7.55, -6301.21, 9511.86)" gradientUnits="userSpaceOnUse"><stop offset="0" stop-color="#fff"/><stop offset="1" stop-color="#fff" stop-opacity="0"/></radialGradient></defs><path class="cls-1" d="M18.13,870H145.64a8.13,8.13,0,0,1,8.13,8.13h0v187a8.13,8.13,0,0,1-8.13,8.14H18.13a8.13,8.13,0,0,1-8.13-8.14h0v-187A8.13,8.13,0,0,1,18.13,870" transform="translate(-9.77 -869.76)"/><path class="cls-2" d="M19.73,877.09H144a2.66,2.66,0,0,1,2.66,2.65h0v183.77a2.66,2.66,0,0,1-2.66,2.66H19.73a2.66,2.66,0,0,1-2.65-2.66h0V879.74a2.65,2.65,0,0,1,2.65-2.65" transform="translate(-9.77 -869.76)"/><path class="cls-3" d="M37.2,1063.8c1.27-2.15-3.74-9.77-4.39-12.65a4.46,4.46,0,0,1-.13-.73,8.64,8.64,0,0,1-.1-1.24,12,12,0,0,1,.3-2.16.8.8,0,0,0,.73-.8.77.77,0,0,0-.34-.65c.16-.55.34-1.1.51-1.64a21.52,21.52,0,0,1,1.43-3.44,44.23,44.23,0,0,1,2.6-4.19c.28-.43.58-.86.89-1.28a1.06,1.06,0,0,0,.25,0,1.44,1.44,0,0,0,1.45-1.43,1.42,1.42,0,0,0-.13-.59c.35-.43.72-.87,1.08-1.29a68.87,68.87,0,0,1,5.09-4.87c1.93-1.77,4-3.4,6-5,2.46-1.91,5.06-3.6,7.66-5.3s5-3.13,7.47-4.64a1.45,1.45,0,0,0,1.79-1.4,1.44,1.44,0,1,0-1.84,1.39l-.71.4c-3.06,1.83-6.1,3.68-9.09,5.62-2.61,1.7-5.23,3.4-7.69,5.31-2.07,1.61-4.11,3.25-6,5-1.48,1.33-3,2.66-4.35,4.1a1.38,1.38,0,0,0-.73-.2,1.46,1.46,0,0,0-1.45,1.45,1.44,1.44,0,0,0,.29.86,36.33,36.33,0,0,0-2.43,3.23,49.08,49.08,0,0,0-2.6,4.21l-.33.72c.06-1.46.24-2.91.43-4.35a39.72,39.72,0,0,1,1.25-6,36.5,36.5,0,0,1,2-5.25,31.17,31.17,0,0,0,2.07-3.88c.13-.28.23-.6.34-.89,0-.08.06-.15.08-.22,1-1.88,2.11-3.71,3.19-5.55l.2-.34,1.23-1.67c1.18-1.52,2.43-3,3.68-4.45,1.61-1.87,3.34-3.63,5.06-5.38,1.94-2,4-3.87,6.06-5.74q3.34-3,6.68-5.94c2.35-2.12,4.74-4.2,7.12-6.29,2.68-2.32,5.27-4.74,7.84-7.19q2-1.94,4-3.93c-.27.35,1.29-.85,4-3.17s5.32-4.44,8.08-6.54a39,39,0,0,1,5.42-3.71l1.2-.53a1.27,1.27,0,0,0-.09.43,1.46,1.46,0,0,0,1.45,1.45A1.45,1.45,0,0,0,105.2,962a1.4,1.4,0,0,0-.36-.93c5.34-.39,6.44-1.17.66-.8a4.58,4.58,0,0,0-1.37.33,1.14,1.14,0,0,0-.37,0,1.43,1.43,0,0,0-1.28.79,51.62,51.62,0,0,0-8.13,5.27c-2.75,2.09-5.41,4.3-8,6.54-1.08.93-1.81,1.59-2.22,2q2.06-2.05,4.1-4.12c3-3,5.79-6.16,8.53-9.38,1.7-2,3.33-4.11,4.93-6.22a1.47,1.47,0,0,0,1.11.52,1.45,1.45,0,0,0,.57-2.77q1.08-1.46,2.13-2.91a131.5,131.5,0,0,0,8.25-13,85.73,85.73,0,0,0,6.64-14.88A129.86,129.86,0,0,0,123,908.56c.88-5.57-.5-4.76-1.39.81A126.56,126.56,0,0,1,119,923.18a86.58,86.58,0,0,1-6.66,14.88c-.2.36-.42.71-.63,1.06a.79.79,0,0,0-.77-.64.81.81,0,0,0-.79.81.79.79,0,0,0,.79.8.86.86,0,0,0,.27-.05,126.56,126.56,0,0,1-7.12,11c-.48.68-1,1.35-1.45,2a1.42,1.42,0,0,0-1.27,1.71c-1.94,2.61-3.93,5.18-6,7.67-2.74,3.22-5.55,6.38-8.53,9.38-2.81,2.86-5.65,5.69-8.56,8.45-2.57,2.45-5.17,4.86-7.86,7.19-2.37,2.09-4.76,4.17-7.12,6.29s-4.45,4-6.69,5.94c-1.92,1.73-3.84,3.48-5.65,5.33a.81.81,0,0,0-.37-.49c.71-.73,1.43-1.45,2.15-2.16,2.4-2.25,4.86-4.43,7.26-6.68,2.82-2.65,5.57-5.38,8.3-8.13a94.26,94.26,0,0,0,8.62-10A114.45,114.45,0,0,0,84.7,964.7,85.35,85.35,0,0,0,91,950.11a98.43,98.43,0,0,0,3.25-16.67,132.28,132.28,0,0,0,.19-14.36A1.41,1.41,0,0,0,95,918a1.43,1.43,0,0,0-.58-1.15c0-.59,0-1.18,0-1.77,0-1-.06-2-.1-3-.2-5.59-1.57-4.8-1.36.79,0,1,.06,2,.1,3,0,.26,0,.52,0,.78a1.44,1.44,0,0,0-.93,1.35,1.41,1.41,0,0,0,1,1.34c.08,2.48.13,4.95.12,7.43a1.26,1.26,0,0,0-.55-.12,1.44,1.44,0,1,0,0,2.88,1.39,1.39,0,0,0,.5-.1c0,1.6-.11,3.2-.23,4.79-.45,3.61-1,7.21-1.78,10.77,0-1.7.07-3.41,0-5.1-.12-4-.37-8-.89-12a65.74,65.74,0,0,0-1.62-8.11,27.58,27.58,0,0,0-1.35-4,4.28,4.28,0,0,0-.64-1.07c-4.55-4.08-6.08-3.15-1.49.88a3.94,3.94,0,0,1,.64,1,26.48,26.48,0,0,1,1.37,4,63.88,63.88,0,0,1,1.65,8.1,118.12,118.12,0,0,1,.93,12c.06,2.24,0,4.47-.05,6.71a17.83,17.83,0,0,0,.1,2.9c0,.19-.11.37-.17.56-.92,2.75-2,5.45-3.12,8.1a1.43,1.43,0,0,0-2.68.7,1.45,1.45,0,0,0,1.43,1.46,1.35,1.35,0,0,0,.29,0c-.7,1.48-1.44,2.94-2.24,4.37a113,113,0,0,1-7.86,12.9,95.73,95.73,0,0,1-8.64,10c-2.73,2.76-5.47,5.49-8.3,8.15-2.4,2.24-4.87,4.42-7.27,6.68L50,1004.46a.8.8,0,0,0-.66.67,43.71,43.71,0,0,0-4.2,4.81,78.68,78.68,0,0,0-4.55,6.88c-.52.71-1,1.43-1.47,2.19s-1,1.57-1.38,2.4a13.44,13.44,0,0,0-.76,1.69l0,0c-.4.72-.79,1.45-1.16,2.19-.48,1-.94,2-1.39,3,0-.17.07-.34.1-.51.3-1.41.77-2.78,1.2-4.15.57-1.63,1.25-3.21,1.92-4.8.84-1.94,1.7-3.87,2.55-5.81,1.16-2.61,2.46-5.16,3.75-7.71,1.63-3.12,3.08-6.32,4.47-9.56,1.65-4,3.28-7.91,4.92-11.86s3.37-8.16,4.93-12.3a.8.8,0,0,0,.61-.77.76.76,0,0,0-.16-.47c1.57-4.34,3-8.74,4.3-13.14,1.56-5.13,2.9-10.31,3.94-15.56a102.78,102.78,0,0,0,1.23-18.47c-.19-6.29-.93-12.54-1.69-18.77-.47-3.76-1-7.5-1.62-11.24a12.85,12.85,0,0,0-.84-3.32,1.33,1.33,0,0,0,.45.08,1.44,1.44,0,1,0,0-2.88,1.44,1.44,0,0,0-1,2.43c-.29.39-.35,1.93,0,4.48.26,1.66.51,3.32.76,5a.85.85,0,0,0-.56-.2.79.79,0,0,0,0,1.58.82.82,0,0,0,.71-.42c.26,1.77.5,3.53.72,5.3.06.45.12.9.17,1.35a1.43,1.43,0,0,0-2.11,1.28,1.44,1.44,0,0,0,1.45,1.43,1.39,1.39,0,0,0,.93-.35c.6,5,1.12,10,1.27,15.06a101.18,101.18,0,0,1-1.27,18.48,160.27,160.27,0,0,1-3.93,15.56c-1.24,4.07-2.54,8.11-4,12.12a.77.77,0,0,0-.39.69.82.82,0,0,0,.05.28L57,972c-1.61,4.29-3.31,8.56-5.1,12.77q-2.46,5.94-4.94,11.86c-1.39,3.24-2.85,6.46-4.49,9.58-1.29,2.55-2.6,5.1-3.76,7.71-.85,1.94-1.71,3.88-2.55,5.82-.67,1.59-1.37,3.17-1.94,4.81a42.7,42.7,0,0,0-1.19,4.15c-.26,1.18-.52,2.36-.73,3.56-.1.51-.2,1-.32,1.55-.61,2.53-.67,3.82-.44,4-.07.43-.12.87-.17,1.3a45.84,45.84,0,0,0-.49,5.1c0,.78,0,1.57,0,2.36-.18.58-.35,1.17-.49,1.77,0,.24-.08.47-.13.71H23.21c4.76,1.37,8.49,1,14,14.74Zm1.4-11.15a.79.79,0,0,0,.79-.79.79.79,0,1,0-1.58,0A.79.79,0,0,0,38.6,1052.65Zm-11-4a1.45,1.45,0,0,0,0-2.9,1.45,1.45,0,0,0,0,2.9Zm7.79-1.74a1.45,1.45,0,0,0,1.45-1.45,1.44,1.44,0,1,0-1.45,1.45Zm-10.17-4.05a.79.79,0,1,0,0-1.58.79.79,0,0,0,0,1.58Zm3.61-1.3a.79.79,0,1,0,0-1.58.79.79,0,0,0,0,1.58Zm13.63-1.72a1.44,1.44,0,1,0,0-2.88,1.44,1.44,0,0,0,0,2.88Zm3.39-2.46a.79.79,0,1,0,0-1.58.79.79,0,0,0,0,1.58ZM26,1035.77a1.45,1.45,0,1,0-1.46-1.44A1.45,1.45,0,0,0,26,1035.77Zm3.32-4.19a1.43,1.43,0,0,0,1.43-1.45,1.42,1.42,0,0,0-1.43-1.43,1.43,1.43,0,0,0-1.45,1.43A1.45,1.45,0,0,0,29.29,1031.58ZM48,1031a.8.8,0,1,0-.79-.79A.79.79,0,0,0,48,1031Zm10.46-1.3a1.45,1.45,0,1,0,0-2.89,1.45,1.45,0,1,0,0,2.89ZM43,1028a1.44,1.44,0,1,0,0-2.88,1.44,1.44,0,1,0,0,2.88Zm5.65-.35c.07,0,1.7-1.1,4.36-3.06,1.13-.83,2.23-1.71,3.44-2.44a53.54,53.54,0,0,1,5.26-2.8l1.11-.49a1.39,1.39,0,0,0-.33.91,1.43,1.43,0,0,0,1.43,1.45,1.45,1.45,0,0,0,1.45-1.45,1.44,1.44,0,0,0-1.37-1.42c1.27-.55,2.53-1.11,3.82-1.6,1.44-.58,2.88-1.17,4.33-1.72l1.86-.69c5.69-2.17,7.17-3,1.48-.86l-1.87.71c-1.46.56-2.89,1.13-4.34,1.72-2.07.79-4.1,1.7-6.12,2.61a81.51,81.51,0,0,0-8.16,4.45c-1.21.74-2.31,1.62-3.44,2.45a35.34,35.34,0,0,0-2.91,2.23Zm-20.09-1.52a1.45,1.45,0,1,0-1.45-1.45A1.45,1.45,0,0,0,28.56,1026.1Zm31.53-1.59a.79.79,0,1,0-.79-.79A.79.79,0,0,0,60.09,1024.51Zm-26.18-2a1.45,1.45,0,1,0-1.45-1.45A1.45,1.45,0,0,0,33.91,1022.49Zm7.79-.44a1.44,1.44,0,1,0,0-2.88,1.44,1.44,0,1,0,0,2.88Zm-19.56-1.15a.79.79,0,1,0-.8-.79A.79.79,0,0,0,22.14,1020.9Zm50.37-2.75a.79.79,0,1,0-.8-.79A.79.79,0,0,0,72.51,1018.15ZM55.27,1018a1.45,1.45,0,1,0-1.45-1.45A1.44,1.44,0,0,0,55.27,1018Zm25.47-1.3a.79.79,0,0,0,.79-.79.79.79,0,0,0-.79-.8h-.07a1.41,1.41,0,0,0,.42-1,1.44,1.44,0,1,0-1.43,1.44,1.75,1.75,0,0,0,.4,0,.86.86,0,0,0-.12.42.79.79,0,0,0,.8.79Zm5-3.32a1.46,1.46,0,0,0,1.45-1.45,1.45,1.45,0,0,0-2.9,0A1.46,1.46,0,0,0,85.71,1013.4Zm-49.2,0a1.45,1.45,0,0,0,1.43-1.45,1.44,1.44,0,1,0-2.88,0A1.46,1.46,0,0,0,36.51,1013.4Zm11.38-.15a1.45,1.45,0,1,0-1.43-1.44A1.43,1.43,0,0,0,47.89,1013.25Zm41.5-.14a.79.79,0,0,0,.79-.79.79.79,0,1,0-1.58,0A.79.79,0,0,0,89.39,1013.11Zm-31-1a.8.8,0,1,0-.79-.79A.79.79,0,0,0,58.37,1012.1Zm-13.21-1c.48-.68,1-1.36,1.44-2a39.48,39.48,0,0,1,2.86-3.46.81.81,0,0,0,.49.36c-1.55,1.58-3.09,3.16-4.54,4.84l-.25.3ZM72.61,1009c1.38-.79,3-1.69,4.67-2.63,1.19-.65,2.38-1.3,3.56-2a1.33,1.33,0,0,0,.4.05,1.44,1.44,0,0,0,1.39-1.06c1.65-.94,3.31-1.88,5-2.84l-5,2.79a1.17,1.17,0,0,0,0-.32,1.44,1.44,0,0,0-1.44-1.45,1.44,1.44,0,0,0-.47,2.81l-1.13.63q-3.52,2-7,4Zm18.52-.2a.79.79,0,0,0,.79-.8.79.79,0,0,0-1.58,0A.79.79,0,0,0,91.13,1008.78Zm-55.21-2.16a1.46,1.46,0,0,0,1.45-1.45,1.28,1.28,0,0,0-.09-.44h.16a.79.79,0,0,0,.79-.79.8.8,0,0,0-1.59,0,1.36,1.36,0,0,0-.72-.19,1.43,1.43,0,0,0-1.44,1.44A1.45,1.45,0,0,0,35.92,1006.62Zm-4.69-.16a.79.79,0,1,0-.79-.79A.79.79,0,0,0,31.23,1006.46Zm10-5.48a1.44,1.44,0,0,0,0-2.88,1.44,1.44,0,1,0,0,2.88Zm61-.28a.8.8,0,0,0,.79-.8.8.8,0,0,0-1.59,0A.8.8,0,0,0,102.25,1000.7Zm-14.09-.49L90.32,999a102.33,102.33,0,0,0,10.37-7q2.52-1.94,4.9-4.05a1.43,1.43,0,0,0,2.78-.49,1.46,1.46,0,0,0-.83-1.32c1.14-1.07,2.26-2.15,3.36-3.27.8-.81,1.58-1.66,2.33-2.51l.11-.1c2.33-2.1,4.65-4.18,6.92-6.33l.1-.12a1.45,1.45,0,1,0,1.6-1.63,30.61,30.61,0,0,0,3.6-4.42c1.36-2,2.71-4,4-6.06s2.58-4.07,3.83-6.14c.72-1.2,1.45-2.39,2.14-3.61a1.36,1.36,0,0,0,0,.29,1.44,1.44,0,1,0,1.43-1.44,1.42,1.42,0,0,0-1,.41c.19-.35.39-.71.57-1.06a30.63,30.63,0,0,0,1.49-3.43,12.51,12.51,0,0,1,.5-1.33c.34-.65.61-1.21.83-1.69a1.42,1.42,0,0,0,1.21-1.41,1.46,1.46,0,0,0-.87-1.34.78.78,0,0,0,.59-.76.8.8,0,0,0-1.59,0,.77.77,0,0,0,.36.66,1.45,1.45,0,0,0-1.37,1.44,1.43,1.43,0,0,0,.81,1.29c-.43.71-.9,1.57-1.45,2.67a13.46,13.46,0,0,0-.51,1.33,26.35,26.35,0,0,1-1.47,3.41c-1,1.85-2,3.63-3.1,5.41-1.25,2.07-2.54,4.11-3.83,6.14s-2.65,4.06-4,6.06a27.4,27.4,0,0,1-3,3.73,1.39,1.39,0,0,0-.7.77c-.53.56-1.08,1.11-1.62,1.66q-2,1.85-4,3.64c1.85-2.27,3.57-4.65,5.23-7.07a59.75,59.75,0,0,0,7-13.73c.08-.24.15-.49.23-.74a1.46,1.46,0,0,0,1.42,1.16,1.45,1.45,0,1,0-1-2.51,65.9,65.9,0,0,0,2.36-14.24,65,65,0,0,0-.57-14.81c-1.18-9.19-3.45-7.9-2.28,1.3a65.72,65.72,0,0,1,.56,14.83,61.37,61.37,0,0,1-3.06,16.34,59.45,59.45,0,0,1-7,13.75,88.9,88.9,0,0,1-8.18,10.44c-1.71,1.52-3.44,3-5.17,4.52-1.25,1.11-2.57,2.12-3.87,3.16-4.56,3.64-3.12,2.81,1.43-.83,1.18-.94,2.38-1.86,3.52-2.85v.09a93.33,93.33,0,0,1-7.17,6.15,101.68,101.68,0,0,1-10.19,6.89Zm-8-.38a.79.79,0,1,0-.79-.79A.79.79,0,0,0,80.16,999.83Zm14.44-.59a.8.8,0,0,0,.64-.79.79.79,0,1,0-.79.79C94.51,999.24,94.55,999.26,94.6,999.24Zm-32-.42a1.44,1.44,0,1,0,0-2.88,1.44,1.44,0,0,0,0,2.88Zm4.4-.44a.79.79,0,1,0-.79-.79A.79.79,0,0,0,67,998.38ZM88,994.77a.79.79,0,1,0,0-1.58.79.79,0,1,0,0,1.58Zm7.13-.42a1.45,1.45,0,1,0-1.43-1.45A1.45,1.45,0,0,0,95.09,994.35Zm-50.94-.59a1.43,1.43,0,0,0,1.45-1.43,1.45,1.45,0,0,0-2.9,0A1.43,1.43,0,0,0,44.15,993.76Zm68.33-1.43a.8.8,0,1,0-.79-.79A.8.8,0,0,0,112.48,992.33ZM61.61,992a1.45,1.45,0,0,0,1.45-1.45A1.45,1.45,0,1,0,61.61,992ZM40,989.58a.8.8,0,1,0-.79-.79A.8.8,0,0,0,40,989.58Zm58.23-.14a1.44,1.44,0,1,0,0-2.88,1.44,1.44,0,0,0,0,2.88ZM46.46,988a1.42,1.42,0,0,0,1.43-1.43,1.44,1.44,0,0,0-.62-1.2.83.83,0,0,0,0-.32.79.79,0,0,0-1.58,0,.7.7,0,0,0,0,.25,1.45,1.45,0,0,0-.78,1.27A1.43,1.43,0,0,0,46.46,988Zm31.17-1.3a1.43,1.43,0,0,0,1.44-1.43,1.44,1.44,0,0,0-1.44-1.45,1.46,1.46,0,0,0-1.45,1.45A1.44,1.44,0,0,0,77.63,986.69Zm-26.58-.52c.33,0,1-1.66,1.55-4.64s1.11-6,1.45-9.11a84.4,84.4,0,0,0,.51-11.35,72.89,72.89,0,0,0-.81-8.47c-.3-1.89-.59-3.78-1.06-5.63a17.74,17.74,0,0,0-.68-2.14c-2.5-5.57-4.08-4.67-1.48.86a15.8,15.8,0,0,1,.67,2.12c.49,1.85.79,3.75,1.1,5.64a70.26,70.26,0,0,1,.82,8.45,84,84,0,0,1-.47,11.33c-.33,3.06-.88,6.09-1.45,9.11-.49,2.63-.45,3.86-.15,3.83Zm30.83,0a.79.79,0,1,0-.79-.79A.79.79,0,0,0,81.88,986.12Zm-23.66-.57a.8.8,0,1,0-.79-.8A.79.79,0,0,0,58.22,985.55Zm9.46-2.6a1.44,1.44,0,0,0,1.44-1.45,1.42,1.42,0,0,0-1.44-1.43,1.43,1.43,0,0,0-1.45,1.43A1.45,1.45,0,0,0,67.68,983ZM108,981.79a1.43,1.43,0,0,0,1.43-1.44,1.44,1.44,0,1,0-1.43,1.44Zm16.22-3.33a.79.79,0,1,0-.79-.79A.79.79,0,0,0,124.17,978.46Zm-27.49-6.78a1.44,1.44,0,1,0-1.44-1.43A1.44,1.44,0,0,0,96.68,971.68Zm15.37-2.31a.81.81,0,0,0,.81-.79.82.82,0,0,0-.81-.8.8.8,0,0,0-.8.8A.79.79,0,0,0,112.05,969.37Zm-70.21-1a1.46,1.46,0,1,0-1.44-1.46A1.46,1.46,0,0,0,41.84,968.38Zm36.52-.6a1.42,1.42,0,0,0,1.43-1.43,1.43,1.43,0,0,0-1.43-1.45,1.45,1.45,0,0,0-1.45,1.45A1.43,1.43,0,0,0,78.36,967.78ZM134,966.06a.79.79,0,1,0-.79-.79A.79.79,0,0,0,134,966.06Zm-1.8-1.16a1.44,1.44,0,1,0-1.45-1.43A1.45,1.45,0,0,0,132.19,964.9Zm-44.89-.42a1.45,1.45,0,1,0,0-2.9,1.45,1.45,0,0,0,0,2.9Zm-23.82-1.6a1.44,1.44,0,0,0,1.45-1.44A1.46,1.46,0,0,0,63.48,960a1.44,1.44,0,0,0-1.43,1.45A1.43,1.43,0,0,0,63.48,962.88ZM48.4,956.69a.81.81,0,0,0,.79-.81.79.79,0,1,0-1.58,0A.81.81,0,0,0,48.4,956.69Zm8.3-.31A1.44,1.44,0,1,0,55.27,955,1.42,1.42,0,0,0,56.7,956.38Zm63.64-.42a1.46,1.46,0,0,0,1.46-1.45,1.44,1.44,0,0,0-1.46-1.43,1.42,1.42,0,0,0-1.43,1.43A1.44,1.44,0,0,0,120.34,956Zm-54.75-1.45a.8.8,0,0,0,0-1.59.8.8,0,1,0,0,1.59Zm20-6.06A1.44,1.44,0,1,0,84.13,947,1.45,1.45,0,0,0,85.58,948.45Zm17-.15a1.44,1.44,0,1,0-1.43-1.43A1.42,1.42,0,0,0,102.6,948.3Zm30-1.58a1.43,1.43,0,0,0,1.43-1.44,1.45,1.45,0,0,0-1.43-1.45,1.47,1.47,0,0,0-1.46,1.45A1.45,1.45,0,0,0,132.63,946.72Zm-72.17-1.15a1.45,1.45,0,0,0,1.44-1.45,1.45,1.45,0,0,0-2.89,0A1.46,1.46,0,0,0,60.46,945.57Zm36.66-.15A1.45,1.45,0,0,0,98.57,944a1.45,1.45,0,1,0-2.9,0A1.44,1.44,0,0,0,97.12,945.42Zm-28.93-3.17a.79.79,0,0,0,.79-.8.79.79,0,0,0-.79-.79.8.8,0,0,0-.81.79A.81.81,0,0,0,68.19,942.25Zm-20.8-2.32a.79.79,0,1,0,0-1.58.79.79,0,0,0,0,1.58Zm52.39-.28a.8.8,0,1,0-.79-.8A.79.79,0,0,0,99.78,939.65Zm23.16-1.3a1.46,1.46,0,0,0,1.45-1.45,1.44,1.44,0,1,0-1.45,1.45Zm-38.31-.57a.8.8,0,0,0,.8-.8.8.8,0,1,0-.8.8Zm56.72-1.3a.8.8,0,1,0-.8-.8A.8.8,0,0,0,141.35,936.48Zm-54.91-.29a1.45,1.45,0,0,0,0-2.9,1.45,1.45,0,1,0,0,2.9Zm23.09-.44A1.44,1.44,0,0,0,111,934.3a1.43,1.43,0,0,0-1.44-1.43,1.44,1.44,0,0,0-1.45,1.43A1.46,1.46,0,0,0,109.53,935.75Zm9.89-2a.8.8,0,1,0-.8-.8A.8.8,0,0,0,119.42,933.73Zm21.57-.44a1.43,1.43,0,0,0,1.44-1.44A1.45,1.45,0,0,0,141,930.4a1.46,1.46,0,0,0-1.45,1.45A1.45,1.45,0,0,0,141,933.29Zm-76.4,0a.88.88,0,1,0-.16,0ZM131,931a.79.79,0,0,0,.79-.79.8.8,0,1,0-1.59,0A.79.79,0,0,0,131,931Zm-57.8-1.45a1.44,1.44,0,1,0-1.45-1.45A1.46,1.46,0,0,0,73.16,929.54ZM122,928.4a.8.8,0,0,0,.79-.8.8.8,0,1,0-1.59,0A.8.8,0,0,0,122,928.4Zm-23.76-2a1.45,1.45,0,0,0,1.45-1.45s0,0,0-.08a.75.75,0,0,0,.37.08.79.79,0,1,0-.76-1,1.44,1.44,0,0,0-2.48,1,1.44,1.44,0,0,0,1.43,1.45Zm15.52-1.74a.79.79,0,1,0-.79-.79A.79.79,0,0,0,113.78,924.63Zm24.55-.28a.8.8,0,0,0,0-1.59.8.8,0,1,0,0,1.59Zm-6.14-.15a1.45,1.45,0,0,0,1.45-1.44,1.45,1.45,0,0,0-2.9,0A1.44,1.44,0,0,0,132.19,924.2Zm-60.33-.43a1.44,1.44,0,1,0-1.45-1.45A1.46,1.46,0,0,0,71.86,923.77Zm12.27-1.58a1.46,1.46,0,0,0,1.45-1.45,1.44,1.44,0,0,0-2.8-.49.8.8,0,0,0-.24.56.79.79,0,0,0,.36.65,1.43,1.43,0,0,0,1.23.73Zm32.32-1.3a1.45,1.45,0,0,0,1.45-1.45,1.45,1.45,0,1,0-1.45,1.45Zm-53.26-1.45A1.45,1.45,0,0,0,64.65,918a1.47,1.47,0,0,0-1.46-1.46A1.45,1.45,0,0,0,61.76,918,1.43,1.43,0,0,0,63.19,919.44ZM87.52,915a.8.8,0,1,0-.79-.79A.79.79,0,0,0,87.52,915Zm48.63-.29a.79.79,0,1,0-.79-.79A.79.79,0,0,0,136.15,914.68Zm-66-.15a.79.79,0,0,0,.8-.79.8.8,0,1,0-1.59,0A.79.79,0,0,0,70.19,914.53Zm55.86-3.32a.8.8,0,1,0-.8-.8A.8.8,0,0,0,126.05,911.21Zm3.1-1.15a1.45,1.45,0,0,0,1.45-1.45,1.43,1.43,0,0,0-1.45-1.43,1.42,1.42,0,0,0-1.43,1.43A1.43,1.43,0,0,0,129.15,910.06Zm-51.87-1.74a.79.79,0,1,0,0-1.58.79.79,0,1,0,0,1.58Zm6.56-.57a1.43,1.43,0,0,0,1.44-1.43,1.45,1.45,0,0,0-1.44-1.46,1.47,1.47,0,0,0-1.45,1.46A1.44,1.44,0,0,0,83.84,907.75Zm-12.41-2.31A1.45,1.45,0,0,0,72.88,904a1.45,1.45,0,1,0-2.9,0A1.44,1.44,0,0,0,71.43,905.44Zm41.63-.42a.8.8,0,0,0,.79-.81.79.79,0,1,0-1.58,0A.8.8,0,0,0,113.06,905Zm-18.69-.16a1.44,1.44,0,1,0,0-2.88,1.44,1.44,0,1,0,0,2.88Zm24.9-1.45a.79.79,0,1,0-.8-.79A.79.79,0,0,0,119.27,903.41Zm-27.85-3.3a.8.8,0,1,0-.8-.79A.8.8,0,0,0,91.42,900.11Zm-31-.44A1.45,1.45,0,1,0,59,898.22,1.44,1.44,0,0,0,60.46,899.67Zm54.34-3.46a.79.79,0,1,0-.8-.79A.79.79,0,0,0,114.8,896.21Zm5.12-1a1.45,1.45,0,1,0-1.45-1.45A1.46,1.46,0,0,0,119.92,895.2ZM58.5,893a.79.79,0,1,0-.79-.79A.79.79,0,0,0,58.5,893ZM120,890a.79.79,0,1,0-.79-.79A.79.79,0,0,0,120,890ZM80.3,887.83a.8.8,0,1,0-.79-.8A.79.79,0,0,0,80.3,887.83ZM60,883.93a.79.79,0,1,0-.8-.79A.79.79,0,0,0,60,883.93Zm4-2.88a.8.8,0,1,0-.8-.8A.8.8,0,0,0,64,881.05Z" transform="translate(-9.77 -869.76)"/></svg>