<svg id="Capa_1" data-name="Capa 1" xmlns="http://www.w3.org/2000/svg" xmlns:xlink="http://www.w3.org/1999/xlink" viewBox="0 0 144.28 204.53"><defs><style>.cls-1{filter:url(#h);}.cls-11,.cls-2,.cls-3,.cls-4{fill-rule:evenodd;}.cls-3{stroke:#000;fill:url(#Degradado_sin_nombre_54);}.cls-3,.cls-7{stroke-miterlimit:1.85;stroke-width:0.46px;}.cls-4{fill:url(#Degradado_sin_nombre_55);}.cls-5,.cls-6,.cls-8{isolation:isolate;}.cls-5{opacity:0.47;fill:url(#Degradado_sin_nombre_56);}.cls-6{opacity:0.4;fill:url(#Degradado_sin_nombre_57);}.cls-7{fill:none;}.cls-13,.cls-7{stroke:#fff;}.cls-8{opacity:0.45;fill:url(#Degradado_sin_nombre_58);}.cls-11,.cls-12,.cls-9{stroke:#c8c8c8;}.cls-12,.cls-9{stroke-linejoin:round;}.cls-9{fill:url(#Degradado_sin_nombre_59);}.cls-10{fill:url(#Degradado_sin_nombre_60);}.cls-11,.cls-13{stroke-miterlimit:8.2;}.cls-11{stroke-width:0.79px;fill:url(#Degradado_sin_nombre_61);}.cls-12{fill:url(#Degradado_sin_nombre_62);}.cls-13{fill:url(#Degradado_sin_nombre_63);}</style><filter id="h" name="h"><feGaussianBlur stdDeviation="3.76"/></filter><linearGradient id="Degradado_sin_nombre_54" x1="115.23" y1="785" x2="124.71" y2="1299.42" gradientTransform="matrix(0.46, 0, 0, -0.46, 1579.38, 425.85)" gradientUnits="userSpaceOnUse"><stop offset="0" stop-color="#f3f3f3"/><stop offset="1" stop-color="#8f8f8f"/></linearGradient><linearGradient id="Degradado_sin_nombre_55" x1="-261.92" y1="1152.18" x2="-129.66" y2="714.54" gradientTransform="matrix(0.49, 0, 0, -0.48, 1733.58, 583.96)" gradientUnits="userSpaceOnUse"><stop offset="0" stop-color="#590000"/><stop offset="1" stop-color="#bf0303"/></linearGradient><radialGradient id="Degradado_sin_nombre_56" cx="124.5" cy="1837.59" r="58.67" gradientTransform="matrix(-0.46, 0, 0, 0.42, 1635.4, -583.43)" gradientUnits="userSpaceOnUse"><stop offset="0" stop-color="#fff"/><stop offset="1" stop-color="#fff" stop-opacity="0"/></radialGradient><radialGradient id="Degradado_sin_nombre_57" cx="219.28" cy="733.49" r="63.15" gradientTransform="matrix(0.46, 0, 0, -0.73, 1582.71, 572.59)" xlink:href="#Degradado_sin_nombre_56"/><radialGradient id="Degradado_sin_nombre_58" cx="460.9" cy="966.94" r="26.74" gradientTransform="matrix(1.72, 0, 0, -3.04, 841.14, 3049.22)" xlink:href="#Degradado_sin_nombre_56"/><linearGradient id="Degradado_sin_nombre_59" x1="308.36" y1="1226.17" x2="308.36" y2="1247.86" gradientTransform="matrix(0.33, 0, 0, -0.35, 1480.85, 619.4)" xlink:href="#Degradado_sin_nombre_54"/><radialGradient id="Degradado_sin_nombre_60" cx="192.28" cy="1160.5" r="25.37" gradientTransform="matrix(1.7, 1.15, 4.4, -6.48, -3842.18, 7461.95)" xlink:href="#Degradado_sin_nombre_56"/><linearGradient id="Degradado_sin_nombre_61" x1="857.98" y1="1089.74" x2="857.98" y2="1127.5" gradientTransform="matrix(2.05, 0, 0, -2.05, -126.74, 2382.27)" xlink:href="#Degradado_sin_nombre_54"/><linearGradient id="Degradado_sin_nombre_62" x1="409.47" y1="1077.36" x2="409.47" y2="1099.05" gradientTransform="matrix(0.68, 0, 0, -0.72, 1312.66, 828.29)" xlink:href="#Degradado_sin_nombre_54"/><linearGradient id="Degradado_sin_nombre_63" x1="881.63" y1="1145.33" x2="881.56" y2="1149.21" gradientTransform="matrix(2.05, 0, 0, -2.05, -126.74, 2382.27)" xlink:href="#Degradado_sin_nombre_54"/></defs><g class="cls-1"><path class="cls-2" d="M1567,11h129.27a7.24,7.24,0,0,1,7.25,7.25V207a7.25,7.25,0,0,1-7.25,7.25H1567a7.26,7.26,0,0,1-7.25-7.25h0V18.27A7.25,7.25,0,0,1,1567,11" transform="translate(-1559.72 -9.76)"/></g><path class="cls-3" d="M1568,10h127.86a8,8,0,0,1,8,8V205.31a8,8,0,0,1-8,7.95H1568a8,8,0,0,1-8-7.95V17.94a8,8,0,0,1,8-8" transform="translate(-1559.72 -9.76)"/><path class="cls-4" d="M1569.74,17.09H1694a2.66,2.66,0,0,1,2.66,2.65V203.51a2.66,2.66,0,0,1-2.66,2.66H1569.74a2.65,2.65,0,0,1-2.65-2.66V19.74a2.65,2.65,0,0,1,2.65-2.65" transform="translate(-1559.72 -9.76)"/><path class="cls-5" d="M1619.49,206.16h-50.4a2,2,0,0,1-2-2V158.41a2,2,0,0,1,2-2h50.4a2,2,0,0,1,2,2v45.75a2,2,0,0,1-2,2" transform="translate(-1559.72 -9.76)"/><path class="cls-6" d="M1640.25,17.09h54.31a2.12,2.12,0,0,1,2.13,2.12h0v88.53a2.13,2.13,0,0,1-2.13,2.13h-54.31a2.12,2.12,0,0,1-2.12-2.13h0V19.21a2.12,2.12,0,0,1,2.12-2.12h0" transform="translate(-1559.72 -9.76)"/><path class="cls-7" d="M1597.76,197.91h91.65V47.07m-23.72-21.74h-91.31v150" transform="translate(-1559.72 -9.76)"/><path class="cls-8" d="M1677.74,111.63c0,44.86-20.54,81.23-45.87,81.23S1586,156.49,1586,111.63s20.53-81.23,45.87-81.23,45.87,36.36,45.87,81.23Z" transform="translate(-1559.72 -9.76)"/><path class="cls-9" d="M1576.18,188.1c-.74-1.86-.22-4.21,1.29-5s3.38.06,4.18,1.9a5.73,5.73,0,0,1,.4,1.68,5.16,5.16,0,0,1,.4-1.68c.8-1.84,2.67-2.69,4.18-1.9s1.93,3.11,1.29,5c-1.1,3.28-4.41,5.18-5.87,9-1.21-3.76-4.59-5.73-5.87-9Z" transform="translate(-1559.72 -9.76)"/><path class="cls-10" d="M1593.21,191.27c1.08-1.85-3.22-8.39-3.77-10.86a4.38,4.38,0,0,1-.12-.63,9.45,9.45,0,0,1-.09-1.07,10.43,10.43,0,0,1,.26-1.85.69.69,0,0,0,.63-.68.67.67,0,0,0-.29-.57c.14-.47.29-.94.43-1.4a19.65,19.65,0,0,1,1.23-3,39.13,39.13,0,0,1,2.24-3.59c.24-.38.5-.75.76-1.11a.82.82,0,0,0,.22,0,1.25,1.25,0,0,0,1.25-1.23,1.23,1.23,0,0,0-.12-.51l.93-1.1a59.59,59.59,0,0,1,4.37-4.19c1.66-1.52,3.42-2.92,5.19-4.3,2.11-1.64,4.34-3.09,6.58-4.55s4.26-2.69,6.42-4a1,1,0,0,0,.3,0,1.22,1.22,0,0,0,1.23-1.23,1.23,1.23,0,0,0-1.23-1.24,1.24,1.24,0,0,0-.35,2.43l-.6.35c-2.63,1.57-5.24,3.16-7.81,4.82-2.24,1.47-4.5,2.92-6.61,4.57-1.78,1.38-3.53,2.79-5.19,4.31-1.27,1.15-2.55,2.29-3.74,3.53a1.18,1.18,0,0,0-.62-.18,1.26,1.26,0,0,0-1.25,1.25,1.29,1.29,0,0,0,.25.74,31.52,31.52,0,0,0-2.09,2.78,40.2,40.2,0,0,0-2.23,3.61l-.29.62c.06-1.25.22-2.5.38-3.74a32.5,32.5,0,0,1,1.07-5.17,31.4,31.4,0,0,1,1.7-4.51,26.38,26.38,0,0,0,1.78-3.33c.11-.24.2-.51.29-.77l.07-.19c.89-1.6,1.81-3.18,2.74-4.76l.17-.29,1.06-1.44c1-1.3,2.09-2.57,3.16-3.82,1.38-1.61,2.87-3.11,4.35-4.62,1.66-1.72,3.43-3.33,5.2-4.93q2.88-2.53,5.74-5.1c2-1.82,4.07-3.61,6.11-5.41,2.3-2,4.53-4.07,6.74-6.17,1.17-1.11,2.33-2.24,3.48-3.37-.24.29,1.11-.74,3.44-2.73s4.57-3.82,7-5.62a34.46,34.46,0,0,1,4.65-3.19l1-.45a1.17,1.17,0,0,0-.08.37,1.24,1.24,0,1,0,2.48,0,1.23,1.23,0,0,0-.3-.8c4.58-.34,5.52-1,.56-.68a3.63,3.63,0,0,0-1.17.27,1.16,1.16,0,0,0-.32,0,1.22,1.22,0,0,0-1.1.68,44.44,44.44,0,0,0-7,4.53c-2.36,1.79-4.65,3.69-6.91,5.62-.93.79-1.56,1.36-1.91,1.69,1.18-1.17,2.35-2.34,3.52-3.53,2.56-2.58,5-5.29,7.33-8.06,1.46-1.74,2.86-3.53,4.23-5.35a1.24,1.24,0,0,0,2.19-.79,1.22,1.22,0,0,0-.74-1.13c.62-.83,1.22-1.67,1.83-2.51a111.88,111.88,0,0,0,7.08-11.17,74.53,74.53,0,0,0,5.71-12.78,114.27,114.27,0,0,0,2.31-11.88c.76-4.78-.43-4.09-1.19.69a111,111,0,0,1-2.31,11.87,74.57,74.57,0,0,1-5.72,12.78c-.17.31-.36.61-.54.91a.68.68,0,0,0-.66-.55.69.69,0,0,0-.68.7.68.68,0,0,0,.68.68.85.85,0,0,0,.23,0,110.27,110.27,0,0,1-6.12,9.49l-1.24,1.72a1.23,1.23,0,0,0-1.12,1.22,2,2,0,0,0,0,.24c-1.67,2.24-3.38,4.45-5.17,6.6-2.35,2.76-4.77,5.47-7.33,8.05-2.41,2.46-4.86,4.89-7.35,7.26-2.21,2.1-4.44,4.17-6.75,6.17-2,1.8-4.09,3.59-6.11,5.41l-5.76,5.1c-1.64,1.49-3.29,3-4.85,4.58a.68.68,0,0,0-.32-.42c.61-.63,1.23-1.24,1.86-1.86,2-1.93,4.17-3.81,6.23-5.74,2.42-2.27,4.79-4.61,7.12-7a80.81,80.81,0,0,0,7.41-8.59,97.56,97.56,0,0,0,6.74-11.07,73.22,73.22,0,0,0,5.43-12.53,85.1,85.1,0,0,0,2.8-14.32A117.93,117.93,0,0,0,1642.4,67a1.27,1.27,0,0,0,.42-.93,1.22,1.22,0,0,0-.5-1c0-.51,0-1,0-1.52l-.09-2.57c-.17-4.8-1.35-4.12-1.17.68,0,.86,0,1.71.09,2.57,0,.22,0,.44,0,.66a1.25,1.25,0,0,0-.79,1.16,1.2,1.2,0,0,0,.87,1.16c.06,2.13.11,4.25.1,6.38a1.13,1.13,0,0,0-.48-.11,1.24,1.24,0,1,0,0,2.48,1.27,1.27,0,0,0,.44-.08c0,1.37-.1,2.74-.21,4.11-.38,3.1-.86,6.19-1.52,9.24,0-1.45,0-2.92,0-4.37-.11-3.46-.32-6.9-.77-10.33a55.09,55.09,0,0,0-1.39-7,24,24,0,0,0-1.16-3.41,4,4,0,0,0-.55-.91c-3.91-3.5-5.22-2.71-1.28.75a3.4,3.4,0,0,1,.55.89,24,24,0,0,1,1.18,3.4,56.85,56.85,0,0,1,1.42,7,101.92,101.92,0,0,1,.79,10.33c.06,1.92,0,3.84,0,5.77a15.48,15.48,0,0,0,.09,2.49l-.15.48c-.79,2.36-1.68,4.67-2.68,7a1.23,1.23,0,1,0-1.07,1.86l.25,0c-.61,1.27-1.24,2.52-1.93,3.75a97.77,97.77,0,0,1-6.75,11.08,82,82,0,0,1-7.42,8.6c-2.34,2.36-4.7,4.71-7.13,7-2.06,1.93-4.19,3.81-6.25,5.74l-1,1.06a.68.68,0,0,0-.57.58A37.33,37.33,0,0,0,1600,145a70.22,70.22,0,0,0-3.91,5.91c-.45.61-.87,1.23-1.26,1.88s-.85,1.35-1.19,2.06a12.57,12.57,0,0,0-.65,1.45.06.06,0,0,0,0,0c-.34.63-.68,1.25-1,1.89-.41.86-.81,1.72-1.19,2.59,0-.14.05-.29.09-.43.25-1.21.65-2.39,1-3.57.49-1.4,1.07-2.76,1.66-4.13.71-1.66,1.46-3.32,2.18-5,1-2.24,2.12-4.43,3.22-6.62,1.41-2.68,2.65-5.44,3.84-8.22,1.42-3.39,2.82-6.79,4.23-10.18s2.9-7,4.23-10.57a.68.68,0,0,0,.52-.66.63.63,0,0,0-.13-.41c1.35-3.72,2.54-7.5,3.7-11.29,1.33-4.4,2.48-8.85,3.37-13.36a86.78,86.78,0,0,0,1.06-15.86c-.16-5.4-.79-10.77-1.45-16.13-.4-3.22-.89-6.44-1.39-9.65a11,11,0,0,0-.72-2.85,1.23,1.23,0,0,0,.39.07,1.24,1.24,0,1,0,0-2.48,1.22,1.22,0,0,0-1.23,1.23,1.24,1.24,0,0,0,.33.86c-.24.34-.3,1.66,0,3.85.23,1.42.44,2.85.66,4.28a.7.7,0,0,0-.48-.18.69.69,0,0,0,0,1.37.7.7,0,0,0,.61-.37c.22,1.52.43,3,.62,4.55l.14,1.16a1.19,1.19,0,0,0-.56-.14,1.24,1.24,0,1,0,0,2.47,1.2,1.2,0,0,0,.8-.3c.51,4.3,1,8.61,1.08,12.94a86.74,86.74,0,0,1-1.08,15.86c-.9,4.52-2,9-3.38,13.38-1.07,3.49-2.18,7-3.4,10.4a.68.68,0,0,0-.34.6.64.64,0,0,0,0,.24l-.27.71c-1.38,3.68-2.83,7.35-4.37,11q-2.11,5.1-4.25,10.19c-1.19,2.78-2.44,5.54-3.85,8.23-1.11,2.19-2.23,4.37-3.23,6.62-.73,1.66-1.47,3.33-2.19,5-.58,1.37-1.18,2.72-1.67,4.13-.37,1.17-.77,2.35-1,3.56-.21,1-.44,2-.62,3.06-.09.44-.17.89-.27,1.33-.53,2.18-.58,3.29-.38,3.45-.06.37-.11.74-.14,1.12a37.59,37.59,0,0,0-.43,4.37c0,.68,0,1.36,0,2-.15.5-.3,1-.42,1.52,0,.21-.07.41-.11.61h-6.09c4.09,1.18,7.29.84,12,12.66Zm1.2-9.57a.69.69,0,1,0-.68-.68A.69.69,0,0,0,1594.41,181.7Zm-9.49-3.47a1.25,1.25,0,1,0-1.24-1.24A1.25,1.25,0,0,0,1584.92,178.23Zm6.69-1.49a1.24,1.24,0,1,0,0-2.48,1.24,1.24,0,0,0,0,2.48Zm-8.74-3.48a.68.68,0,0,0,0-1.36.68.68,0,1,0,0,1.36Zm3.1-1.11a.68.68,0,1,0-.68-.68A.68.68,0,0,0,1586,172.15Zm11.71-1.48a1.24,1.24,0,1,0,0-2.48,1.24,1.24,0,0,0,0,2.48Zm2.91-2.12a.68.68,0,1,0,0-1.36.68.68,0,1,0,0,1.36Zm-17-1.36a1.23,1.23,0,0,0,1.25-1.23,1.25,1.25,0,0,0-2.49,0A1.23,1.23,0,0,0,1583.55,167.19Zm2.86-3.59a1.24,1.24,0,1,0-1.25-1.25A1.24,1.24,0,0,0,1586.41,163.6Zm16-.49a.69.69,0,0,0,0-1.37.69.69,0,0,0,0,1.37Zm9-1.12a1.24,1.24,0,1,0-1.25-1.25A1.25,1.25,0,0,0,1611.45,162Zm-13.26-1.49a1.24,1.24,0,0,0,0-2.48,1.24,1.24,0,1,0,0,2.48Zm4.85-.31c.06,0,1.46-.94,3.74-2.62,1-.71,1.92-1.47,3-2.1a42.18,42.18,0,0,1,4.52-2.4l1-.42a1.17,1.17,0,0,0-.29.78,1.24,1.24,0,1,0,1.31-1.22c1.08-.47,2.17-1,3.27-1.38s2.48-1,3.73-1.47l1.59-.6c4.89-1.86,6.16-2.61,1.27-.74l-1.6.61c-1.26.48-2.48,1-3.73,1.48-1.78.68-3.52,1.47-5.26,2.25a69.92,69.92,0,0,0-7,3.82c-1,.63-2,1.39-3,2.1-1.77,1.31-2.53,1.9-2.49,1.91Zm-17.25-1.3a1.24,1.24,0,1,0-1.25-1.25A1.25,1.25,0,0,0,1585.79,158.89Zm27.08-1.36a.68.68,0,1,0-.69-.68A.69.69,0,0,0,1612.87,157.53Zm-22.49-1.74a1.24,1.24,0,1,0-1.25-1.25A1.24,1.24,0,0,0,1590.38,155.79Zm6.69-.38a1.22,1.22,0,0,0,1.23-1.23,1.23,1.23,0,0,0-1.23-1.24,1.25,1.25,0,0,0-1.24,1.24A1.23,1.23,0,0,0,1597.07,155.41Zm-16.81-1a.68.68,0,1,0,0-1.36.68.68,0,0,0,0,1.36Zm43.27-2.36a.69.69,0,1,0-.68-.69A.68.68,0,0,0,1623.53,152.07Zm-14.81-.12a1.24,1.24,0,1,0-1.24-1.25A1.25,1.25,0,0,0,1608.72,152Zm21.88-1.12a.68.68,0,1,0,0-1.36h-.06a1.15,1.15,0,0,0,.36-.87,1.23,1.23,0,0,0-1.23-1.24,1.25,1.25,0,0,0-1.24,1.24,1.23,1.23,0,0,0,1.24,1.23,1.29,1.29,0,0,0,.35,0,.72.72,0,0,0-.1.36.67.67,0,0,0,.68.68Zm4.28-2.85a1.24,1.24,0,1,0-1.25-1.25A1.25,1.25,0,0,0,1634.88,148Zm-42.27,0a1.24,1.24,0,1,0-1.25-1.25A1.26,1.26,0,0,0,1592.61,148Zm9.78-.13a1.24,1.24,0,1,0-1.23-1.23A1.23,1.23,0,0,0,1602.39,147.85Zm35.64-.12a.68.68,0,0,0,0-1.36.68.68,0,1,0,0,1.36Zm-26.64-.87a.68.68,0,1,0-.68-.68A.68.68,0,0,0,1611.39,146.86Zm-11.35-.81c.41-.58.81-1.17,1.23-1.75a30.62,30.62,0,0,1,2.47-3,.65.65,0,0,0,.42.3c-1.33,1.36-2.66,2.72-3.9,4.16a2.75,2.75,0,0,1-.22.26Zm23.58-1.87,4-2.26q1.53-.82,3.06-1.68a1,1,0,0,0,.35,0,1.22,1.22,0,0,0,1.18-.92q2.15-1.2,4.26-2.43l-4.24,2.39a1.27,1.27,0,0,0,0-.28,1.24,1.24,0,1,0-2.48,0,1.27,1.27,0,0,0,.84,1.18l-1,.53q-3,1.69-6,3.42Zm15.91-.17a.68.68,0,0,0,0-1.36.68.68,0,1,0,0,1.36Zm-47.43-1.86a1.25,1.25,0,0,0,1.25-1.24,1.17,1.17,0,0,0-.07-.38l.13,0a.69.69,0,0,0,.68-.68.7.7,0,0,0-.68-.7.68.68,0,0,0-.68.67,1.24,1.24,0,1,0-.63,2.31Zm-4-.13a.68.68,0,1,0-.68-.68A.68.68,0,0,0,1588.07,142Zm8.63-4.7a1.24,1.24,0,0,0,0-2.48,1.24,1.24,0,1,0,0,2.48Zm52.37-.25a.68.68,0,1,0,0-1.36.68.68,0,1,0,0,1.36Zm-12.09-.42,1.85-1.07a86.4,86.4,0,0,0,8.91-6c1.45-1.11,2.85-2.26,4.2-3.47a1.25,1.25,0,0,0,1.16.81,1.24,1.24,0,0,0,.52-2.36c1-.92,1.94-1.86,2.89-2.82.69-.69,1.35-1.42,2-2.15l.1-.09c2-1.8,4-3.58,5.94-5.43l.09-.11a1.24,1.24,0,1,0,1.37-1.4,25.66,25.66,0,0,0,3.09-3.8c1.17-1.72,2.33-3.45,3.45-5.2s2.21-3.5,3.29-5.27c.62-1,1.24-2.06,1.84-3.1a1,1,0,0,0,0,.24,1.24,1.24,0,0,0,1.23,1.25,1.24,1.24,0,1,0,0-2.48,1.22,1.22,0,0,0-.86.35l.5-.91a26.48,26.48,0,0,0,1.27-3,12.17,12.17,0,0,1,.44-1.14c.28-.56.52-1,.71-1.45a1.23,1.23,0,0,0,1-1.22,1.24,1.24,0,0,0-.75-1.14.68.68,0,1,0-.86-.65.69.69,0,0,0,.31.56,1.24,1.24,0,0,0-.48,2.35c-.37.61-.78,1.35-1.25,2.29a12.09,12.09,0,0,0-.43,1.14,23.72,23.72,0,0,1-1.26,2.93c-.82,1.59-1.75,3.12-2.67,4.65-1.07,1.77-2.18,3.53-3.29,5.28s-2.28,3.48-3.45,5.2a24.37,24.37,0,0,1-2.53,3.2,1.22,1.22,0,0,0-.61.67l-1.39,1.42q-1.68,1.58-3.39,3.13c1.59-2,3.06-4,4.49-6.08a51.1,51.1,0,0,0,6-11.79c.08-.21.14-.43.21-.64a1.24,1.24,0,1,0,1.21-1.49,1.26,1.26,0,0,0-.84.33A56.12,56.12,0,0,0,1673,86a55.84,55.84,0,0,0-.49-12.72c-1-7.9-3-6.78-2,1.12a56.5,56.5,0,0,1,.48,12.73,52.78,52.78,0,0,1-2.62,14,51.07,51.07,0,0,1-6,11.81,75.16,75.16,0,0,1-7,9c-1.47,1.3-3,2.6-4.44,3.89-1.07.94-2.21,1.81-3.33,2.71-3.91,3.12-2.68,2.41,1.23-.71,1-.81,2.05-1.61,3-2.45a.15.15,0,0,0,0,.07c-2,1.86-4,3.64-6.16,5.29a90.61,90.61,0,0,1-8.75,5.91Zm-6.87-.32a.68.68,0,1,0-.68-.68A.68.68,0,0,0,1630.11,136.33Zm12.4-.51a.7.7,0,0,0,.55-.68.68.68,0,1,0-.68.68Zm-27.47-.36a1.24,1.24,0,1,0,0-2.48,1.24,1.24,0,0,0,0,2.48Zm3.78-.38a.68.68,0,1,0-.68-.68A.67.67,0,0,0,1618.82,135.08Zm18-3.1a.68.68,0,0,0,0-1.36.68.68,0,1,0,0,1.36Zm6.13-.36a1.25,1.25,0,1,0-1.23-1.24A1.25,1.25,0,0,0,1642.93,131.62Zm-43.76-.51a1.23,1.23,0,0,0,1.25-1.23,1.25,1.25,0,0,0-2.49,0A1.23,1.23,0,0,0,1599.17,131.11Zm58.7-1.23a.68.68,0,1,0-.68-.68A.67.67,0,0,0,1657.87,129.88Zm-43.7-.24a1.26,1.26,0,0,0,1.25-1.25,1.25,1.25,0,0,0-1.25-1.23,1.23,1.23,0,0,0-1.23,1.23A1.25,1.25,0,0,0,1614.17,129.64Zm-18.53-2.12a.68.68,0,1,0-.68-.68A.68.68,0,0,0,1595.64,127.52Zm50-.12a1.25,1.25,0,0,0,1.24-1.24,1.24,1.24,0,1,0-1.24,1.24Zm-44.5-1.24a1.24,1.24,0,0,0,.69-2.26.66.66,0,0,0,.05-.28.68.68,0,1,0-1.36,0,.54.54,0,0,0,0,.22,1.23,1.23,0,0,0,.58,2.32Zm26.77-1.12a1.23,1.23,0,0,0,1.24-1.23,1.24,1.24,0,1,0-1.24,1.23Zm-22.83-.45c.29,0,.85-1.42,1.33-4s1-5.2,1.25-7.83a72.09,72.09,0,0,0,.43-9.75,61.23,61.23,0,0,0-.69-7.27c-.26-1.62-.5-3.25-.92-4.84a14.52,14.52,0,0,0-.57-1.84c-2.15-4.78-3.51-4-1.28.74a13.26,13.26,0,0,1,.58,1.82c.42,1.59.68,3.23.94,4.84a61.1,61.1,0,0,1,.71,7.26,73.67,73.67,0,0,1-.4,9.74c-.29,2.63-.76,5.23-1.25,7.82-.42,2.26-.38,3.31-.13,3.29Zm26.49,0a.68.68,0,1,0-.68-.68A.68.68,0,0,0,1631.59,124.55Zm-20.33-.49a.68.68,0,1,0,0-1.36.68.68,0,0,0,0,1.36Zm8.13-2.23a1.25,1.25,0,0,0,1.23-1.25,1.24,1.24,0,0,0-2.48,0A1.26,1.26,0,0,0,1619.39,121.83Zm34.58-1a1.24,1.24,0,0,0,0-2.48,1.24,1.24,0,1,0,0,2.48Zm13.94-2.86a.68.68,0,1,0-.68-.68A.67.67,0,0,0,1667.91,118Zm-23.62-5.82a1.24,1.24,0,1,0-1.23-1.23A1.24,1.24,0,0,0,1644.29,112.15Zm13.2-2a.68.68,0,1,0-.68-.68A.68.68,0,0,0,1657.49,110.16Zm-60.3-.85a1.25,1.25,0,0,0,0-2.49,1.25,1.25,0,0,0,0,2.49Zm31.37-.51a1.24,1.24,0,0,0,0-2.48,1.24,1.24,0,1,0,0,2.48Zm47.78-1.48a.68.68,0,1,0,0-1.36.68.68,0,1,0,0,1.36Zm-1.55-1a1.23,1.23,0,0,0,1.25-1.23,1.25,1.25,0,0,0-2.49,0A1.23,1.23,0,0,0,1674.79,106.32Zm-38.55-.36a1.25,1.25,0,0,0,0-2.49,1.25,1.25,0,0,0,0,2.49Zm-20.46-1.38a1.23,1.23,0,0,0,1.24-1.23,1.25,1.25,0,0,0-1.24-1.24,1.23,1.23,0,0,0-1.23,1.24A1.22,1.22,0,0,0,1615.78,104.58Zm-13-5.31a.7.7,0,0,0,.69-.7.69.69,0,0,0-1.37,0A.7.7,0,0,0,1602.82,99.27ZM1610,99a1.24,1.24,0,1,0-1.23-1.24A1.24,1.24,0,0,0,1610,99Zm54.67-.37a1.25,1.25,0,0,0,1.25-1.24,1.24,1.24,0,1,0-1.25,1.24Zm-47-1.24a.68.68,0,1,0,0-1.36.68.68,0,1,0,0,1.36Zm17.17-5.2A1.25,1.25,0,0,0,1636,91a1.23,1.23,0,0,0-1.23-1.23,1.25,1.25,0,0,0-1.25,1.23A1.26,1.26,0,0,0,1634.76,92.2Zm14.62-.13a1.24,1.24,0,1,0,0-2.48,1.24,1.24,0,0,0,0,2.48Zm25.79-1.37a1.22,1.22,0,0,0,1.23-1.23,1.24,1.24,0,0,0-1.23-1.24,1.25,1.25,0,0,0-1.25,1.24A1.24,1.24,0,0,0,1675.17,90.7Zm-62-1a1.24,1.24,0,1,0-1.24-1.25A1.24,1.24,0,0,0,1613.18,89.72Zm31.49-.13a1.24,1.24,0,1,0-1.25-1.23A1.25,1.25,0,0,0,1644.67,89.59Zm-24.85-2.73a.68.68,0,1,0,0-1.36.68.68,0,1,0,0,1.36Zm-17.86-2a.68.68,0,1,0,0-1.36.68.68,0,1,0,0,1.36Zm45-.25a.68.68,0,1,0-.68-.68A.67.67,0,0,0,1647,84.63Zm19.89-1.11a1.26,1.26,0,0,0,1.25-1.25,1.24,1.24,0,1,0-1.25,1.25ZM1634,83a.68.68,0,1,0-.68-.68A.68.68,0,0,0,1634,83Zm48.71-1.11a.68.68,0,1,0-.68-.68A.68.68,0,0,0,1682.66,81.91Zm-47.16-.25a1.25,1.25,0,0,0,0-2.49,1.25,1.25,0,1,0,0,2.49Zm19.83-.37a1.25,1.25,0,0,0,1.24-1.25,1.24,1.24,0,0,0-2.48,0A1.25,1.25,0,0,0,1655.33,81.29Zm8.5-1.74a.69.69,0,1,0-.69-.68A.69.69,0,0,0,1663.83,79.55Zm18.53-.38a1.24,1.24,0,0,0,0-2.48,1.24,1.24,0,1,0,0,2.48Zm-65.63,0a.75.75,0,1,0-.14,0Zm57-2a.69.69,0,0,0,.68-.68.68.68,0,1,0-1.36,0A.68.68,0,0,0,1673.74,77.2ZM1624.1,76a1.24,1.24,0,0,0,1.23-1.24,1.24,1.24,0,0,0-2.48,0A1.25,1.25,0,0,0,1624.1,76Zm42-1a.69.69,0,0,0,.68-.68.68.68,0,1,0-1.36,0A.68.68,0,0,0,1666.06,75Zm-20.4-1.74A1.25,1.25,0,0,0,1646.9,72s0,0,0-.07a.66.66,0,0,0,.32.07.68.68,0,1,0-.66-.85,1.2,1.2,0,0,0-.89-.38,1.24,1.24,0,1,0,0,2.48ZM1659,71.74a.69.69,0,1,0-.69-.68A.69.69,0,0,0,1659,71.74Zm21.08-.25a.68.68,0,1,0-.68-.68A.68.68,0,0,0,1680.07,71.49Zm-5.28-.13a1.24,1.24,0,1,0-1.24-1.23A1.24,1.24,0,0,0,1674.79,71.36ZM1623,71a1.24,1.24,0,1,0-1.25-1.25A1.26,1.26,0,0,0,1623,71Zm10.53-1.36a1.26,1.26,0,0,0,1.25-1.25,1.24,1.24,0,0,0-2.41-.42.68.68,0,0,0-.2.48.66.66,0,0,0,.31.56,1.22,1.22,0,0,0,1,.63Zm27.77-1.12a1.24,1.24,0,1,0,0-2.48,1.24,1.24,0,1,0,0,2.48Zm-45.75-1.25a1.23,1.23,0,0,0,1.25-1.23,1.24,1.24,0,1,0-2.48,0A1.22,1.22,0,0,0,1615.53,67.27Zm20.9-3.84a.68.68,0,1,0-.68-.68A.68.68,0,0,0,1636.43,63.43Zm41.77-.24a.68.68,0,1,0-.68-.68A.68.68,0,0,0,1678.2,63.19Zm-56.65-.13a.68.68,0,1,0-.69-.68A.69.69,0,0,0,1621.55,63.06Zm48-2.86a.68.68,0,1,0-.68-.68A.67.67,0,0,0,1669.52,60.2Zm2.67-1a1.24,1.24,0,1,0,0-2.48,1.24,1.24,0,1,0,0,2.48Zm-44.56-1.49a.69.69,0,0,0,0-1.37.69.69,0,1,0,0,1.37Zm5.64-.5A1.22,1.22,0,0,0,1634.5,56a1.24,1.24,0,1,0-1.23,1.23Zm-10.67-2a1.24,1.24,0,1,0-1.24-1.23A1.24,1.24,0,0,0,1622.6,55.25Zm35.76-.36a.69.69,0,0,0,.68-.7.68.68,0,0,0-1.36,0A.7.7,0,0,0,1658.36,54.89Zm-16-.13a1.26,1.26,0,0,0,1.25-1.25,1.24,1.24,0,0,0-1.25-1.23,1.22,1.22,0,0,0-1.23,1.23A1.24,1.24,0,0,0,1642.31,54.76Zm21.39-1.25a.68.68,0,1,0-.69-.68A.69.69,0,0,0,1663.7,53.51Zm-23.93-2.84a.68.68,0,1,0-.68-.68A.68.68,0,0,0,1639.77,50.67Zm-26.58-.38a1.24,1.24,0,1,0-1.25-1.24A1.24,1.24,0,0,0,1613.19,50.29Zm46.67-3a.68.68,0,1,0-.69-.68A.68.68,0,0,0,1659.86,47.32Zm4.4-.87a1.24,1.24,0,0,0,1.23-1.24,1.22,1.22,0,0,0-1.23-1.23,1.24,1.24,0,0,0-1.25,1.23A1.25,1.25,0,0,0,1664.26,46.45Zm-52.76-1.87a.68.68,0,1,0-.68-.68A.68.68,0,0,0,1611.5,44.58ZM1664.32,42a.68.68,0,1,0-.68-.68A.68.68,0,0,0,1664.32,42Zm-34.1-1.87a.68.68,0,1,0-.68-.68A.68.68,0,0,0,1630.22,40.12Zm-17.47-3.35a.68.68,0,1,0-.68-.68A.67.67,0,0,0,1612.75,36.77Zm3.46-2.47a.69.69,0,0,0,0-1.37.69.69,0,0,0,0,1.37Z" transform="translate(-1559.72 -9.76)"/><path class="cls-11" d="M1652.36,69.66a43.17,43.17,0,0,1,3.23,7.56c.54,1.42.71,2.24.33,3.23a2.22,2.22,0,0,0,.16,2.68c.82,1.26,1,1.21,1.53,2a13.14,13.14,0,0,0,1.54,2.24,8.61,8.61,0,0,1,1.8,2.47c.5,1.09.61,1.47.17,2.13s-1.15.6-2.25.82a2.67,2.67,0,0,0-2.19,1.86,2.24,2.24,0,0,0,.06,2.08c.27.72,0,1.21-.28,1.32s-1.2.27-1,.49.71.44.71,1.21-.38.76-.6,1.15-.82,1.26-.66,1.64a4.79,4.79,0,0,1,1.37,2.9,3.84,3.84,0,0,1-2,3.78c-1.43.6-2.36.27-4.22.55s-4.76.6-6,1.37a5.68,5.68,0,0,0-2.79,3.23c-.72,1.8-1.1,2.84-1.87,3.55a12.05,12.05,0,0,0-3,3.67c-.71,1.65-2.08,3.78-2.13,6.36s.11,2.62.44,3.12a9.59,9.59,0,0,0,1.6,2.6c1.52,1.26,2.39,2.06,2.17,4.11-.16,1.08-.7,1.85-.31,2.24a1.68,1.68,0,0,1,.54,1.63c-.17,3.66,4.07,7.38,6,10.3.54,1.08,1.94,1.93,1.78,4.49l-.15,2.47c-.16,2.41.38,3.8,0,6.43s-11.61-1.58-21.45-8.28c-13.2-9-22.56-28-21.14-30.9,1.34-2.78.94-2.38,1-2.85-.28-.81.77-.87.89-1.49,0-.31-.09-.83.2-1,.87-.27,1-1,1.51-1.73-.4-.76.18-1.87,1.24-2.65a20,20,0,0,1-2-3.56c-.23-1-.54-2.79-.54-2.79s-.23-2.09-1.24-2.55-.23-1.55-.23-1.55.08-1-1.63-2-.85-2.24-.85-4.26,4.43-20.76,5.3-25.14,6.13-11.6,11.39-14.45,11-2.19,15.33-1.75,10.08,1.31,13.8,3.5,4.82,3.29,7,6.79a16.91,16.91,0,0,1,2.41,8.76c-.22-2.4-2-6.49-4.87-7.83Z" transform="translate(-1559.72 -9.76)"/><path class="cls-12" d="M1579.46,40.44c-1.54-3.86-.45-8.75,2.68-10.4s7,.13,8.67,4a10.48,10.48,0,0,1,.83,3.49,10.76,10.76,0,0,1,.85-3.49c1.65-3.83,5.53-5.6,8.67-4s4,6.47,2.68,10.4c-2.29,6.8-9.15,10.75-12.2,18.6-2.51-7.82-9.51-11.9-12.18-18.6Z" transform="translate(-1559.72 -9.76)"/><path class="cls-13" d="M1681.92,23.07c0-1.66.25-1.91,2.09-2v-.44h-6.52V21c1.86.13,2.11.38,2.11,2V33.59c0,1-.27,1.5-.86,1.5-.32,0-.46-.18-.62-.75-.22-.79-.59-1.16-1.18-1.16a1.14,1.14,0,0,0-1.11,1.14c0,1,.93,1.64,2.25,1.64,2.45,0,3.84-1.64,3.84-4.48V23.07" transform="translate(-1559.72 -9.76)"/></svg>