<svg id="Capa_1" data-name="Capa 1" xmlns="http://www.w3.org/2000/svg" xmlns:xlink="http://www.w3.org/1999/xlink" viewBox="0 0 144.28 204.53"><defs><style>.cls-1{filter:url(#h);}.cls-11,.cls-2,.cls-3,.cls-4{fill-rule:evenodd;}.cls-3{stroke:#000;fill:url(#Degradado_sin_nombre_114);}.cls-3,.cls-7{stroke-miterlimit:1.85;stroke-width:0.46px;}.cls-4{fill:url(#Degradado_sin_nombre_115);}.cls-5,.cls-6,.cls-8{isolation:isolate;}.cls-5{opacity:0.31;fill:url(#Degradado_sin_nombre_116);}.cls-6{opacity:0.32;fill:url(#Degradado_sin_nombre_117);}.cls-7{fill:none;}.cls-12,.cls-7{stroke:#fff;}.cls-8{opacity:0.32;fill:url(#Degradado_sin_nombre_118);}.cls-11,.cls-13,.cls-9{stroke:#c8c8c8;}.cls-13,.cls-9{stroke-linejoin:round;}.cls-9{stroke-width:0.36px;fill:url(#Degradado_sin_nombre_119);}.cls-10{fill:url(#Degradado_sin_nombre_120);}.cls-11,.cls-12{stroke-miterlimit:8.2;}.cls-11{stroke-width:0.79px;fill:url(#Degradado_sin_nombre_121);}.cls-12{fill:url(#Degradado_sin_nombre_122);}.cls-13{stroke-width:0.75px;fill:url(#Degradado_sin_nombre_123);}</style><filter id="h" name="h"><feGaussianBlur stdDeviation="3.76"/></filter><linearGradient id="Degradado_sin_nombre_114" x1="115.22" y1="785" x2="124.7" y2="1299.42" gradientTransform="matrix(0.46, 0, 0, -0.46, 1579.38, 640.87)" gradientUnits="userSpaceOnUse"><stop offset="0" stop-color="#f3f3f3"/><stop offset="1" stop-color="#8f8f8f"/></linearGradient><linearGradient id="Degradado_sin_nombre_115" x1="-261.92" y1="1152.18" x2="-129.66" y2="714.54" gradientTransform="matrix(0.49, 0, 0, -0.48, 1733.58, 798.97)" gradientUnits="userSpaceOnUse"><stop offset="0"/><stop offset="1" stop-color="#555753"/></linearGradient><radialGradient id="Degradado_sin_nombre_116" cx="124.5" cy="1837.59" r="58.67" gradientTransform="matrix(-0.46, 0, 0, 0.42, 1635.4, -368.41)" gradientUnits="userSpaceOnUse"><stop offset="0" stop-color="#fff"/><stop offset="1" stop-color="#fff" stop-opacity="0"/></radialGradient><radialGradient id="Degradado_sin_nombre_117" cx="219.28" cy="733.49" r="63.15" gradientTransform="matrix(0.46, 0, 0, -0.73, 1582.71, 787.61)" xlink:href="#Degradado_sin_nombre_116"/><radialGradient id="Degradado_sin_nombre_118" cx="460.9" cy="966.94" r="26.74" gradientTransform="matrix(1.72, 0, 0, -3.04, 841.15, 3264.24)" xlink:href="#Degradado_sin_nombre_116"/><linearGradient id="Degradado_sin_nombre_119" x1="831.55" y1="850.53" x2="831.55" y2="853.72" gradientTransform="matrix(2.05, 0, 0, -2.05, -123.58, 2152.48)" xlink:href="#Degradado_sin_nombre_114"/><radialGradient id="Degradado_sin_nombre_120" cx="192.28" cy="1160.5" r="25.37" gradientTransform="matrix(1.7, 1.15, 4.4, -6.48, -3842.17, 7676.96)" xlink:href="#Degradado_sin_nombre_116"/><linearGradient id="Degradado_sin_nombre_121" x1="856.43" y1="872.7" x2="856.43" y2="910.47" gradientTransform="matrix(2.05, 0, 0, -2.05, -123.58, 2152.48)" xlink:href="#Degradado_sin_nombre_114"/><linearGradient id="Degradado_sin_nombre_122" x1="882.29" y1="925.56" x2="882.29" y2="936.13" gradientTransform="matrix(2.05, 0, 0, -2.05, -123.58, 2152.48)" xlink:href="#Degradado_sin_nombre_114"/><linearGradient id="Degradado_sin_nombre_123" x1="836.89" y1="920.97" x2="836.89" y2="927.57" gradientTransform="matrix(2.05, 0, 0, -2.05, -123.58, 2152.48)" xlink:href="#Degradado_sin_nombre_114"/></defs><g class="cls-1"><path class="cls-2" d="M1567,226h129.27a7.25,7.25,0,0,1,7.25,7.24V422.06a7.26,7.26,0,0,1-7.25,7.25H1567a7.25,7.25,0,0,1-7.25-7.25h0V233.28A7.24,7.24,0,0,1,1567,226" transform="translate(-1559.73 -224.78)"/></g><path class="cls-3" d="M1568.32,225h127.15a8.31,8.31,0,0,1,8.31,8.31V420a8.31,8.31,0,0,1-8.31,8.31H1568.32A8.31,8.31,0,0,1,1560,420V233.32a8.31,8.31,0,0,1,8.31-8.31" transform="translate(-1559.73 -224.78)"/><path class="cls-4" d="M1569.74,232.11H1694a2.65,2.65,0,0,1,2.65,2.65V418.53a2.65,2.65,0,0,1-2.65,2.65h-124.3a2.65,2.65,0,0,1-2.65-2.65V234.76a2.65,2.65,0,0,1,2.65-2.65" transform="translate(-1559.73 -224.78)"/><path class="cls-5" d="M1619.74,421.18h-50.9a1.75,1.75,0,0,1-1.75-1.75V373.17a1.75,1.75,0,0,1,1.75-1.75h50.9a1.75,1.75,0,0,1,1.75,1.75v46.26a1.75,1.75,0,0,1-1.75,1.75" transform="translate(-1559.73 -224.78)"/><path class="cls-6" d="M1640.26,232.11h54.31a2.12,2.12,0,0,1,2.12,2.12h0v88.53a2.12,2.12,0,0,1-2.12,2.13h-54.31a2.12,2.12,0,0,1-2.12-2.13h0V234.23a2.12,2.12,0,0,1,2.12-2.12h0" transform="translate(-1559.73 -224.78)"/><path class="cls-7" d="M1597.77,412.93h91.64V262.09m-23.72-21.74h-91.31v150" transform="translate(-1559.73 -224.78)"/><path class="cls-8" d="M1677.74,326.65c0,44.86-20.53,81.22-45.87,81.22S1586,371.51,1586,326.65s20.54-81.23,45.87-81.23,45.87,36.36,45.87,81.23Z" transform="translate(-1559.73 -224.78)"/><path class="cls-9" d="M1580.61,399c-1.14,3.07-4.32,4.87-5.53,7.49a2.85,2.85,0,0,0,1.21,3.89,3,3,0,0,0,3.7-1.15c0,.14,0,.27,0,.41a5.54,5.54,0,0,1-1.37,3.7h3.92a5.49,5.49,0,0,1-1.45-3.78,4.26,4.26,0,0,1,0-.51,3.07,3.07,0,0,0,3.81,1.33,2.93,2.93,0,0,0,1.22-3.89c-1-2.66-4.16-4.41-5.54-7.49Z" transform="translate(-1559.73 -224.78)"/><path class="cls-10" d="M1593.21,406.29c1.08-1.85-3.22-8.39-3.77-10.87a4.52,4.52,0,0,1-.12-.62,9.86,9.86,0,0,1-.09-1.07,10.55,10.55,0,0,1,.26-1.86.68.68,0,0,0,.63-.68.69.69,0,0,0-.29-.57c.14-.46.29-.93.43-1.4a19.65,19.65,0,0,1,1.23-3,39.13,39.13,0,0,1,2.24-3.59c.24-.37.5-.74.76-1.1h.22a1.23,1.23,0,0,0,1.25-1.23,1.27,1.27,0,0,0-.12-.51l.93-1.1a59.45,59.45,0,0,1,4.37-4.18c1.66-1.53,3.42-2.93,5.19-4.31,2.11-1.64,4.35-3.09,6.58-4.55s4.26-2.68,6.42-4a1.45,1.45,0,0,0,.3,0,1.24,1.24,0,0,0,0-2.48,1.25,1.25,0,0,0-1.24,1.25,1.22,1.22,0,0,0,.9,1.18l-.61.35c-2.63,1.57-5.24,3.16-7.81,4.83-2.24,1.46-4.49,2.92-6.61,4.56-1.77,1.38-3.53,2.79-5.19,4.32-1.27,1.14-2.55,2.29-3.74,3.52a1.18,1.18,0,0,0-.62-.17,1.25,1.25,0,0,0-1,2,29.57,29.57,0,0,0-2.08,2.78,40.85,40.85,0,0,0-2.24,3.61l-.29.62c.06-1.25.22-2.49.38-3.73a32.62,32.62,0,0,1,1.07-5.18,31.28,31.28,0,0,1,1.7-4.5,26,26,0,0,0,1.78-3.34c.11-.24.2-.51.29-.76l.07-.19c.89-1.61,1.81-3.19,2.74-4.77.06-.1.12-.19.17-.29l1.06-1.43c1-1.31,2.09-2.57,3.16-3.83,1.38-1.6,2.87-3.11,4.35-4.62,1.66-1.72,3.43-3.32,5.2-4.93q2.88-2.53,5.74-5.1c2-1.82,4.07-3.6,6.11-5.4,2.3-2,4.53-4.08,6.74-6.17,1.17-1.12,2.33-2.24,3.48-3.38-.24.29,1.11-.73,3.45-2.72s4.56-3.82,6.94-5.63a33.27,33.27,0,0,1,4.65-3.18l1-.45a1.05,1.05,0,0,0-.08.36,1.25,1.25,0,0,0,1.25,1.24,1.24,1.24,0,0,0,1.23-1.24,1.25,1.25,0,0,0-.3-.8c4.58-.33,5.52-1,.56-.68a3.92,3.92,0,0,0-1.17.28,1.12,1.12,0,0,0-.32,0,1.22,1.22,0,0,0-1.1.68,44.39,44.39,0,0,0-7,4.52c-2.36,1.8-4.65,3.69-6.91,5.62-.93.8-1.55,1.36-1.91,1.7,1.18-1.18,2.36-2.35,3.52-3.54,2.56-2.58,5-5.29,7.33-8.06,1.46-1.74,2.86-3.53,4.23-5.34a1.27,1.27,0,0,0,1,.45,1.24,1.24,0,0,0,.49-2.38c.62-.83,1.22-1.67,1.83-2.51a111.88,111.88,0,0,0,7.08-11.17,73.85,73.85,0,0,0,5.71-12.78,113.26,113.26,0,0,0,2.31-11.88c.76-4.78-.43-4.08-1.19.7a110.87,110.87,0,0,1-2.31,11.86,73.89,73.89,0,0,1-5.72,12.78c-.17.31-.36.61-.54.92a.68.68,0,0,0-.66-.55.69.69,0,0,0-.68.69.67.67,0,0,0,.68.68.59.59,0,0,0,.23,0,109.47,109.47,0,0,1-6.11,9.49l-1.25,1.72a1.24,1.24,0,0,0-1.12,1.22,1.9,1.9,0,0,0,0,.25c-1.67,2.24-3.38,4.45-5.17,6.59-2.35,2.77-4.77,5.48-7.33,8.06-2.41,2.45-4.85,4.88-7.35,7.26-2.21,2.1-4.44,4.17-6.75,6.17-2,1.8-4.09,3.58-6.11,5.4l-5.76,5.1c-1.64,1.49-3.29,3-4.85,4.58a.68.68,0,0,0-.32-.42c.61-.63,1.23-1.24,1.86-1.85,2-1.94,4.17-3.81,6.23-5.74,2.42-2.28,4.79-4.62,7.12-7a80.81,80.81,0,0,0,7.41-8.59,97.56,97.56,0,0,0,6.74-11.07,73.22,73.22,0,0,0,5.43-12.53,84.91,84.91,0,0,0,2.8-14.32,117.93,117.93,0,0,0,.16-12.33,1.22,1.22,0,0,0-.08-1.91c0-.51,0-1,0-1.52l-.09-2.57c-.17-4.8-1.35-4.12-1.17.69,0,.85,0,1.7.09,2.56,0,.22,0,.44,0,.67a1.23,1.23,0,0,0-.8,1.16,1.19,1.19,0,0,0,.87,1.15c.06,2.13.11,4.25.1,6.38a1.29,1.29,0,0,0-.48-.1,1.24,1.24,0,0,0-1.24,1.23,1.25,1.25,0,0,0,1.24,1.25,1.28,1.28,0,0,0,.44-.09c0,1.37-.1,2.75-.21,4.11-.38,3.1-.86,6.2-1.52,9.25,0-1.46,0-2.92,0-4.38-.11-3.45-.32-6.9-.77-10.33a55.09,55.09,0,0,0-1.39-7,23.9,23.9,0,0,0-1.16-3.4,3.74,3.74,0,0,0-.55-.92c-3.91-3.5-5.22-2.7-1.28.76a3.51,3.51,0,0,1,.55.88,24.11,24.11,0,0,1,1.18,3.41,56.69,56.69,0,0,1,1.42,6.95,102.14,102.14,0,0,1,.79,10.33c.06,1.93,0,3.85,0,5.77a15.36,15.36,0,0,0,.09,2.49l-.15.48q-1.18,3.54-2.68,6.95a1.23,1.23,0,0,0-2.3.61,1.24,1.24,0,0,0,1.23,1.25l.25,0c-.61,1.27-1.24,2.52-1.93,3.75a97,97,0,0,1-6.75,11.09,80.91,80.91,0,0,1-7.42,8.59c-2.34,2.37-4.7,4.72-7.13,7-2.06,1.93-4.19,3.8-6.25,5.74l-1,1.05a.69.69,0,0,0-.57.58A37.33,37.33,0,0,0,1600,360a70.22,70.22,0,0,0-3.91,5.91c-.45.62-.87,1.23-1.26,1.89s-.85,1.34-1.19,2.06a15.48,15.48,0,0,0-.65,1.44.09.09,0,0,0,0,.05c-.34.62-.68,1.25-1,1.88-.41.86-.81,1.72-1.19,2.6,0-.15.05-.3.09-.44a36.2,36.2,0,0,1,1-3.56c.49-1.41,1.07-2.77,1.66-4.13.71-1.67,1.46-3.33,2.18-5,1-2.24,2.12-4.43,3.22-6.62,1.41-2.68,2.65-5.43,3.84-8.21,1.43-3.39,2.82-6.8,4.23-10.19s2.9-7,4.23-10.56a.7.7,0,0,0,.52-.67.67.67,0,0,0-.13-.41c1.35-3.72,2.54-7.5,3.7-11.28,1.33-4.4,2.48-8.85,3.37-13.36a86.89,86.89,0,0,0,1.06-15.87c-.16-5.4-.79-10.77-1.45-16.12-.4-3.23-.89-6.44-1.39-9.65a11,11,0,0,0-.72-2.86,1.23,1.23,0,0,0,.39.07,1.25,1.25,0,0,0,1.25-1.24,1.24,1.24,0,0,0-1.25-1.23,1.24,1.24,0,0,0-.9,2.08c-.24.34-.3,1.66,0,3.86.23,1.42.45,2.85.66,4.27a.74.74,0,0,0-.48-.17.68.68,0,0,0,0,1.36.71.71,0,0,0,.61-.36c.22,1.51.43,3,.62,4.55l.14,1.16a1.2,1.2,0,0,0-.56-.15,1.24,1.24,0,1,0,0,2.48,1.21,1.21,0,0,0,.8-.31c.51,4.3,1,8.62,1.08,12.94a86.91,86.91,0,0,1-1.08,15.87c-.9,4.51-2,9-3.38,13.37-1.07,3.49-2.18,7-3.4,10.41a.66.66,0,0,0-.34.59.74.74,0,0,0,0,.25l-.27.71c-1.38,3.68-2.83,7.35-4.37,11q-2.11,5.08-4.25,10.18c-1.19,2.79-2.44,5.55-3.85,8.23-1.11,2.19-2.23,4.38-3.23,6.62-.73,1.67-1.47,3.33-2.19,5-.58,1.37-1.18,2.73-1.67,4.13a36.39,36.39,0,0,0-1,3.57c-.22,1-.45,2-.63,3.05-.09.45-.17.89-.27,1.34-.53,2.17-.58,3.28-.38,3.44-.06.37-.11.75-.14,1.12a35.67,35.67,0,0,0-.42,4.38c0,.67,0,1.35,0,2-.16.51-.31,1-.42,1.53l-.12.6h-6.09c4.09,1.19,7.29.84,12,12.67Zm1.2-9.58a.68.68,0,1,0-.68-.68A.68.68,0,0,0,1594.41,396.71Zm-9.49-3.46a1.25,1.25,0,1,0-1.24-1.25A1.25,1.25,0,0,0,1584.92,393.25Zm6.69-1.5a1.25,1.25,0,0,0,1.25-1.24,1.24,1.24,0,0,0-1.25-1.23,1.22,1.22,0,0,0-1.23,1.23A1.24,1.24,0,0,0,1591.61,391.75Zm-8.74-3.47a.68.68,0,1,0-.68-.68A.68.68,0,0,0,1582.87,388.28Zm3.1-1.12a.68.68,0,1,0-.68-.68A.67.67,0,0,0,1586,387.16Zm11.71-1.48a1.25,1.25,0,0,0,1.25-1.24,1.24,1.24,0,1,0-1.25,1.24Zm2.91-2.11a.68.68,0,1,0-.68-.68A.68.68,0,0,0,1600.59,383.57Zm-17-1.36a1.24,1.24,0,1,0-1.24-1.24A1.24,1.24,0,0,0,1583.55,382.21Zm2.86-3.6a1.24,1.24,0,0,0,1.23-1.24,1.24,1.24,0,0,0-2.48,0A1.25,1.25,0,0,0,1586.41,378.61Zm16-.49a.68.68,0,1,0-.68-.68A.67.67,0,0,0,1602.46,378.12Zm9-1.12a1.25,1.25,0,0,0,1.24-1.24,1.25,1.25,0,0,0-2.49,0A1.25,1.25,0,0,0,1611.45,377Zm-13.26-1.49a1.23,1.23,0,0,0,1.23-1.23,1.24,1.24,0,1,0-1.23,1.23Zm4.85-.3c.06,0,1.46-.95,3.74-2.62,1-.72,1.92-1.47,3-2.11a44.09,44.09,0,0,1,4.52-2.4l1-.42a1.19,1.19,0,0,0-.29.78,1.24,1.24,0,1,0,2.48,0,1.23,1.23,0,0,0-1.17-1.22c1.08-.47,2.17-1,3.27-1.37s2.48-1,3.73-1.48l1.59-.59c4.89-1.87,6.16-2.62,1.27-.74l-1.6.61c-1.26.48-2.48,1-3.73,1.47-1.78.68-3.52,1.47-5.26,2.25a69.92,69.92,0,0,0-7,3.82c-1,.63-2,1.39-3,2.11a30.22,30.22,0,0,0-2.49,1.91Zm-17.25-1.31a1.25,1.25,0,0,0,1.24-1.24,1.25,1.25,0,0,0-2.49,0A1.25,1.25,0,0,0,1585.79,373.9Zm27.08-1.36a.68.68,0,1,0-.68-.68A.68.68,0,0,0,1612.87,372.54Zm-22.49-1.74a1.24,1.24,0,0,0,1.23-1.24,1.24,1.24,0,0,0-2.48,0A1.25,1.25,0,0,0,1590.38,370.8Zm6.69-.37a1.24,1.24,0,0,0,0-2.48,1.24,1.24,0,1,0,0,2.48Zm-16.8-1a.68.68,0,1,0-.69-.68A.68.68,0,0,0,1580.27,369.44Zm43.26-2.36a.68.68,0,1,0-.68-.68A.68.68,0,0,0,1623.53,367.08Zm-14.81-.12a1.23,1.23,0,0,0,1.23-1.24,1.22,1.22,0,0,0-1.23-1.23,1.23,1.23,0,0,0-1.24,1.23A1.25,1.25,0,0,0,1608.72,367Zm21.88-1.11a.68.68,0,1,0,0-1.36h-.06a1.22,1.22,0,0,0,.37-.87,1.24,1.24,0,1,0-1.24,1.23,1,1,0,0,0,.35-.05.79.79,0,0,0-.1.37.69.69,0,0,0,.68.68Zm4.28-2.86a1.25,1.25,0,0,0,1.24-1.24,1.25,1.25,0,0,0-2.49,0A1.25,1.25,0,0,0,1634.88,363Zm-42.27,0a1.24,1.24,0,0,0,1.23-1.24,1.22,1.22,0,0,0-1.23-1.23,1.24,1.24,0,0,0-1.25,1.23A1.25,1.25,0,0,0,1592.61,363Zm9.78-.13a1.23,1.23,0,0,0,1.25-1.23,1.25,1.25,0,0,0-1.25-1.24,1.24,1.24,0,0,0-1.23,1.24A1.22,1.22,0,0,0,1602.39,362.86Zm35.64-.11a.69.69,0,1,0-.68-.68A.69.69,0,0,0,1638,362.75Zm-26.64-.87a.68.68,0,0,0,0-1.36.68.68,0,0,0,0,1.36Zm-11.35-.81c.41-.59.82-1.18,1.24-1.76a33.12,33.12,0,0,1,2.46-3,.7.7,0,0,0,.42.31c-1.33,1.35-2.66,2.71-3.9,4.16l-.22.26Zm23.58-1.87,4-2.26,3.06-1.68a1.29,1.29,0,0,0,.35,0,1.22,1.22,0,0,0,1.18-.91q2.15-1.22,4.26-2.44l-4.24,2.39a1.18,1.18,0,0,0,0-.27,1.24,1.24,0,1,0-2.48,0,1.26,1.26,0,0,0,.84,1.17l-1,.54q-3,1.7-6,3.42Zm15.91-.18a.68.68,0,1,0-.68-.68A.68.68,0,0,0,1639.53,359Zm-47.43-1.85a1.25,1.25,0,0,0,1.25-1.25,1.16,1.16,0,0,0-.07-.37h.13a.68.68,0,0,0,.68-.68.7.7,0,0,0-.68-.7.69.69,0,0,0-.68.67,1.24,1.24,0,1,0-.63,2.32Zm-4-.13a.68.68,0,1,0-.69-.68A.69.69,0,0,0,1588.08,357Zm8.62-4.71a1.24,1.24,0,0,0,0-2.48,1.24,1.24,0,1,0,0,2.48Zm52.38-.25a.68.68,0,1,0,0-1.36.68.68,0,1,0,0,1.36Zm-12.1-.42,1.85-1.07a87.94,87.94,0,0,0,8.91-6q2.17-1.66,4.2-3.48a1.25,1.25,0,0,0,1.16.81,1.23,1.23,0,0,0,1.24-1.23,1.25,1.25,0,0,0-.71-1.13c1-.92,1.93-1.85,2.88-2.81.69-.7,1.35-1.42,2-2.16l.1-.09c2-1.8,4-3.58,5.94-5.43l.09-.1a1.24,1.24,0,0,0,2.47-.18,1.25,1.25,0,0,0-1.1-1.23,25.57,25.57,0,0,0,3.09-3.79c1.17-1.72,2.33-3.45,3.45-5.21s2.22-3.5,3.29-5.27c.62-1,1.24-2,1.84-3.1a1,1,0,0,0,0,.25,1.24,1.24,0,0,0,1.23,1.24,1.24,1.24,0,1,0,0-2.48,1.22,1.22,0,0,0-.85.35l.49-.91a24.59,24.59,0,0,0,1.27-2.94,11.36,11.36,0,0,1,.44-1.15c.29-.56.52-1,.71-1.45a1.22,1.22,0,0,0,1-1.21,1.25,1.25,0,0,0-.75-1.15.66.66,0,0,0,.5-.65.68.68,0,1,0-1.36,0,.71.71,0,0,0,.31.57,1.23,1.23,0,0,0-.48,2.34c-.37.61-.78,1.35-1.25,2.29a11.31,11.31,0,0,0-.43,1.15,24.25,24.25,0,0,1-1.26,2.92c-.82,1.59-1.75,3.12-2.67,4.66-1.07,1.77-2.18,3.52-3.29,5.27s-2.28,3.48-3.45,5.2a23.12,23.12,0,0,1-2.53,3.2,1.22,1.22,0,0,0-.61.67l-1.39,1.42q-1.68,1.59-3.39,3.13c1.59-1.95,3.07-4,4.49-6.07a51.17,51.17,0,0,0,6-11.8c.08-.21.14-.42.21-.63a1.24,1.24,0,1,0,1.21-1.5,1.22,1.22,0,0,0-.84.34,62,62,0,0,0,1.54-24.95c-1-7.9-3-6.79-2,1.11a56.57,56.57,0,0,1,.48,12.74,52.85,52.85,0,0,1-2.62,14,51.07,51.07,0,0,1-6,11.81,76,76,0,0,1-7,9c-1.47,1.3-3,2.6-4.44,3.88-1.07,1-2.21,1.82-3.33,2.71-3.91,3.12-2.68,2.41,1.23-.71,1-.81,2.05-1.6,3-2.45a.17.17,0,0,0,0,.07c-2,1.86-4,3.64-6.16,5.29a88.82,88.82,0,0,1-8.75,5.91Zm-6.87-.32a.68.68,0,1,0-.68-.68A.67.67,0,0,0,1630.11,351.34Zm12.4-.5a.71.71,0,0,0,.55-.68.68.68,0,1,0-1.36,0,.69.69,0,0,0,.68.68Zm-27.47-.37a1.25,1.25,0,0,0,1.25-1.24A1.24,1.24,0,0,0,1615,348a1.22,1.22,0,0,0-1.23,1.23A1.24,1.24,0,0,0,1615,350.47Zm3.78-.37a.68.68,0,1,0-.68-.68A.68.68,0,0,0,1618.82,350.1Zm18-3.1a.68.68,0,1,0-.68-.68A.68.68,0,0,0,1636.8,347Zm6.13-.36a1.25,1.25,0,0,0,0-2.5,1.25,1.25,0,0,0,0,2.5Zm-43.76-.51a1.24,1.24,0,1,0-1.24-1.23A1.24,1.24,0,0,0,1599.17,346.13Zm58.7-1.23a.69.69,0,1,0-.68-.68A.68.68,0,0,0,1657.87,344.9Zm-43.7-.25a1.24,1.24,0,1,0,0-2.48,1.24,1.24,0,0,0,0,2.48Zm-18.53-2.12a.68.68,0,1,0-.68-.68A.67.67,0,0,0,1595.64,342.53Zm50-.11a1.24,1.24,0,1,0,0-2.48,1.24,1.24,0,1,0,0,2.48Zm-44.5-1.25a1.24,1.24,0,0,0,.69-2.26.62.62,0,0,0,.05-.27.68.68,0,1,0-1.36,0,.49.49,0,0,0,0,.21,1.25,1.25,0,0,0-.67,1.09,1.23,1.23,0,0,0,1.25,1.23Zm26.78-1.11a1.24,1.24,0,0,0,0-2.48,1.24,1.24,0,1,0,0,2.48Zm-22.84-.45c.29,0,.85-1.43,1.33-4s1-5.19,1.25-7.82a72.17,72.17,0,0,0,.43-9.75,61.2,61.2,0,0,0-.69-7.28c-.26-1.62-.5-3.24-.91-4.84a17.8,17.8,0,0,0-.58-1.84c-2.15-4.78-3.5-4-1.28.74a13,13,0,0,1,.58,1.83c.42,1.59.68,3.22.94,4.84a60.89,60.89,0,0,1,.71,7.26,73.52,73.52,0,0,1-.4,9.73c-.29,2.63-.76,5.23-1.25,7.83-.42,2.26-.38,3.31-.13,3.29Zm26.49-.05a.68.68,0,1,0-.68-.68A.68.68,0,0,0,1631.59,339.56Zm-20.33-.49a.68.68,0,1,0-.68-.68A.68.68,0,0,0,1611.26,339.07Zm8.13-2.23a1.24,1.24,0,1,0-1.25-1.25A1.24,1.24,0,0,0,1619.39,336.84Zm34.58-1a1.24,1.24,0,0,0,0-2.48,1.24,1.24,0,1,0,0,2.48Zm13.94-2.85a.69.69,0,1,0-.68-.69A.68.68,0,0,0,1667.91,333Zm-23.62-5.83a1.24,1.24,0,0,0,1.25-1.23,1.24,1.24,0,1,0-2.48,0A1.23,1.23,0,0,0,1644.29,327.16Zm13.2-2a.69.69,0,1,0,0-1.37.69.69,0,0,0,0,1.37Zm-60.3-.86a1.25,1.25,0,0,0,0-2.49,1.25,1.25,0,0,0,0,2.49Zm31.37-.51a1.22,1.22,0,0,0,1.23-1.23,1.24,1.24,0,1,0-1.23,1.23Zm47.78-1.47a.69.69,0,1,0-.68-.68A.69.69,0,0,0,1676.34,322.34Zm-1.55-1a1.24,1.24,0,1,0-1.24-1.24A1.24,1.24,0,0,0,1674.79,321.34Zm-38.55-.37a1.25,1.25,0,0,0,0-2.49,1.25,1.25,0,0,0,0,2.49Zm-20.46-1.37a1.24,1.24,0,1,0-1.23-1.23A1.22,1.22,0,0,0,1615.78,319.6Zm-13-5.32a.7.7,0,0,0,.68-.7.69.69,0,0,0-1.37,0A.7.7,0,0,0,1602.83,314.28ZM1610,314a1.24,1.24,0,1,0-1.23-1.23A1.24,1.24,0,0,0,1610,314Zm54.67-.36a1.24,1.24,0,1,0,0-2.48,1.24,1.24,0,0,0,0,2.48Zm-47-1.25a.68.68,0,1,0,0-1.36.68.68,0,1,0,0,1.36Zm17.17-5.2a1.24,1.24,0,1,0-1.25-1.25A1.26,1.26,0,0,0,1634.76,307.21Zm14.62-.13a1.24,1.24,0,1,0-1.23-1.23A1.23,1.23,0,0,0,1649.38,307.08Zm25.79-1.36a1.24,1.24,0,0,0,0-2.48,1.24,1.24,0,1,0,0,2.48Zm-62-1a1.24,1.24,0,1,0-1.25-1.24A1.24,1.24,0,0,0,1613.19,304.73Zm31.48-.13a1.24,1.24,0,0,0,1.25-1.23,1.25,1.25,0,1,0-1.25,1.23Zm-24.85-2.72a.68.68,0,1,0,0-1.36.68.68,0,1,0,0,1.36Zm-17.86-2a.68.68,0,1,0,0-1.36.68.68,0,0,0,0,1.36Zm45-.24a.69.69,0,1,0-.68-.69A.68.68,0,0,0,1647,299.65Zm19.89-1.12a1.24,1.24,0,1,0,0-2.48,1.24,1.24,0,0,0,0,2.48ZM1634,298a.68.68,0,1,0-.68-.68A.68.68,0,0,0,1634,298Zm48.71-1.12a.68.68,0,1,0-.68-.68A.67.67,0,0,0,1682.66,296.92Zm-47.16-.24a1.25,1.25,0,1,0-1.25-1.25A1.25,1.25,0,0,0,1635.5,296.68Zm19.84-.38a1.24,1.24,0,1,0-1.25-1.25A1.24,1.24,0,0,0,1655.34,296.3Zm8.49-1.74a.68.68,0,1,0-.68-.68A.68.68,0,0,0,1663.83,294.56Zm18.53-.38a1.22,1.22,0,0,0,1.23-1.23,1.24,1.24,0,1,0-1.23,1.23Zm-65.62,0a.76.76,0,1,0-.15,0Zm57-2a.68.68,0,0,0,.68-.68.68.68,0,1,0-1.36,0A.67.67,0,0,0,1673.74,292.21ZM1624.1,291a1.24,1.24,0,1,0-1.25-1.25A1.24,1.24,0,0,0,1624.1,291Zm42-1a.68.68,0,0,0,.68-.68.68.68,0,1,0-1.36,0A.67.67,0,0,0,1666.06,290Zm-20.4-1.74a1.25,1.25,0,0,0,1.24-1.24s0-.05,0-.08a.57.57,0,0,0,.32.08.69.69,0,1,0-.66-.86,1.24,1.24,0,1,0-.89,2.1Zm13.33-1.49a.68.68,0,1,0-.68-.68A.68.68,0,0,0,1659,286.75Zm21.08-.25a.68.68,0,1,0-.68-.68A.67.67,0,0,0,1680.07,286.5Zm-5.28-.13a1.23,1.23,0,0,0,1.25-1.23,1.25,1.25,0,0,0-2.49,0A1.23,1.23,0,0,0,1674.79,286.37ZM1623,286a1.24,1.24,0,1,0-1.25-1.24A1.25,1.25,0,0,0,1623,286Zm10.53-1.36a1.24,1.24,0,1,0,0-2.48,1.23,1.23,0,0,0-1.15.81.67.67,0,0,0-.21.48.71.71,0,0,0,.31.57,1.23,1.23,0,0,0,1,.62Zm27.77-1.12a1.25,1.25,0,0,0,1.24-1.24,1.24,1.24,0,1,0-1.24,1.24Zm-45.75-1.24a1.24,1.24,0,1,0-1.23-1.23A1.24,1.24,0,0,0,1615.53,282.29Zm20.9-3.84a.68.68,0,0,0,0-1.36.68.68,0,0,0,0,1.36Zm41.77-.25a.68.68,0,1,0-.68-.68A.67.67,0,0,0,1678.2,278.2Zm-56.65-.13a.68.68,0,1,0-.68-.68A.68.68,0,0,0,1621.55,278.07Zm48-2.85a.69.69,0,1,0-.68-.68A.68.68,0,0,0,1669.52,275.22Zm2.67-1a1.24,1.24,0,0,0,0-2.48,1.24,1.24,0,0,0,0,2.48Zm-44.56-1.49a.68.68,0,0,0,0-1.36.68.68,0,1,0,0,1.36Zm5.64-.49a1.24,1.24,0,0,0,0-2.48,1.24,1.24,0,1,0,0,2.48Zm-10.67-2a1.24,1.24,0,0,0,1.25-1.23,1.25,1.25,0,1,0-2.49,0A1.24,1.24,0,0,0,1622.6,270.26Zm35.76-.36a.7.7,0,0,0,.69-.7.69.69,0,0,0-1.37,0A.7.7,0,0,0,1658.36,269.9Zm-16-.13a1.24,1.24,0,1,0,0-2.48,1.24,1.24,0,0,0,0,2.48Zm21.39-1.25a.68.68,0,1,0-.68-.68A.68.68,0,0,0,1663.7,268.52Zm-23.93-2.84a.68.68,0,1,0-.68-.68A.68.68,0,0,0,1639.77,265.68Zm-26.58-.37a1.25,1.25,0,0,0,1.23-1.25,1.24,1.24,0,0,0-2.48,0A1.26,1.26,0,0,0,1613.19,265.31Zm46.67-3a.69.69,0,0,0,0-1.37.69.69,0,0,0,0,1.37Zm4.4-.87a1.24,1.24,0,0,0,1.23-1.25,1.22,1.22,0,0,0-1.23-1.23,1.24,1.24,0,0,0-1.24,1.23A1.25,1.25,0,0,0,1664.26,261.47Zm-52.75-1.87a.68.68,0,1,0-.69-.68A.69.69,0,0,0,1611.51,259.6Zm52.81-2.6a.68.68,0,1,0-.68-.68A.67.67,0,0,0,1664.32,257Zm-34.09-1.87a.68.68,0,0,0,0-1.36.68.68,0,1,0,0,1.36Zm-17.48-3.34a.68.68,0,1,0-.68-.68A.68.68,0,0,0,1612.75,251.79Zm3.46-2.48a.68.68,0,1,0-.68-.68A.68.68,0,0,0,1616.21,249.31Z" transform="translate(-1559.73 -224.78)"/><path class="cls-11" d="M1652.36,284.67a43.5,43.5,0,0,1,3.23,7.56c.55,1.42.71,2.25.33,3.23a2.22,2.22,0,0,0,.16,2.68c.82,1.26,1,1.21,1.53,2a13.67,13.67,0,0,0,1.54,2.25,8.54,8.54,0,0,1,1.8,2.46c.5,1.09.61,1.48.17,2.13s-1.15.61-2.25.83a2.64,2.64,0,0,0-2.19,1.86,2.25,2.25,0,0,0,.06,2.08c.27.71,0,1.2-.28,1.31s-1.2.28-1,.5.72.43.72,1.2-.39.77-.61,1.15-.82,1.26-.65,1.64,1.36,1.26,1.36,2.9-.6,3.18-2,3.78-2.36.28-4.22.55-4.76.6-6,1.37a5.72,5.72,0,0,0-2.79,3.23c-.72,1.81-1.1,2.85-1.87,3.56a12,12,0,0,0-3,3.67c-.71,1.64-2.08,3.78-2.13,6.35s.11,2.63.44,3.12a9.69,9.69,0,0,0,1.6,2.6c1.52,1.26,2.39,2.06,2.17,4.11-.16,1.08-.7,1.86-.31,2.24a1.66,1.66,0,0,1,.54,1.63c-.17,3.66,4.07,7.39,6,10.3.54,1.08,1.94,1.94,1.78,4.49l-.15,2.48c-.15,2.4.38,3.79,0,6.43s-11.61-1.59-21.45-8.29c-13.2-9-22.56-28-21.14-30.9,1.34-2.78,1-2.38,1-2.84-.28-.82.77-.87.9-1.49,0-.31-.1-.84.19-1,.87-.27,1-1,1.51-1.72-.4-.77.18-1.88,1.24-2.66a20,20,0,0,1-2-3.56c-.23-1-.54-2.79-.54-2.79s-.23-2.09-1.24-2.55-.23-1.55-.23-1.55.08-1-1.63-2-.85-2.25-.85-4.26,4.43-20.76,5.3-25.14,6.14-11.61,11.39-14.46,11-2.19,15.33-1.75,10.08,1.31,13.8,3.5,4.82,3.29,7,6.79a16.94,16.94,0,0,1,2.41,8.76c-.22-2.39-2-6.49-4.87-7.83Z" transform="translate(-1559.73 -224.78)"/><path class="cls-12" d="M1686.58,243.27c0-1.66.25-1.91,2.09-2v-.43h-6.52v.43c1.86.13,2.11.38,2.11,2v10.52c0,1-.27,1.5-.86,1.5-.32,0-.45-.18-.61-.75-.23-.79-.59-1.15-1.18-1.15a1.13,1.13,0,0,0-1.12,1.13c0,1,.93,1.64,2.25,1.64,2.46,0,3.84-1.64,3.84-4.48v-8.41" transform="translate(-1559.73 -224.78)"/><path class="cls-13" d="M1591.59,243.41c-2.37,6.36-9,10.09-11.49,15.55-1.45,3.14-.43,6.73,2.52,8.06a6.31,6.31,0,0,0,7.67-2.37q0,.42,0,.84a11.5,11.5,0,0,1-2.84,7.67h8.12a11.44,11.44,0,0,1-3-7.85c0-.35,0-.7,0-1a6.36,6.36,0,0,0,7.92,2.75c3-1.33,3.77-4.86,2.53-8.06C1600.93,253.42,1594.45,249.8,1591.59,243.41Z" transform="translate(-1559.73 -224.78)"/></svg>