<svg id="Capa_1" data-name="Capa 1" xmlns="http://www.w3.org/2000/svg" xmlns:xlink="http://www.w3.org/1999/xlink" viewBox="0 0 144.28 204.53"><defs><style>.cls-1{filter:url(#h);}.cls-11,.cls-2,.cls-3,.cls-4{fill-rule:evenodd;}.cls-3{stroke:#000;fill:url(#Degradado_sin_nombre_84);}.cls-3,.cls-7{stroke-miterlimit:1.85;stroke-width:0.46px;}.cls-4{fill:url(#Degradado_sin_nombre_85);}.cls-5,.cls-6,.cls-8{isolation:isolate;}.cls-5{opacity:0.31;fill:url(#Degradado_sin_nombre_86);}.cls-6{opacity:0.32;fill:url(#Degradado_sin_nombre_87);}.cls-7{fill:none;}.cls-13,.cls-7{stroke:#fff;}.cls-8{opacity:0.32;fill:url(#Degradado_sin_nombre_88);}.cls-11,.cls-12,.cls-9{stroke:#c8c8c8;}.cls-12,.cls-9{stroke-linejoin:round;}.cls-9{fill:url(#Degradado_sin_nombre_89);}.cls-10{fill:url(#Degradado_sin_nombre_90);}.cls-11,.cls-13{stroke-miterlimit:8.2;}.cls-11{fill:url(#Degradado_sin_nombre_91);}.cls-12{fill:url(#Degradado_sin_nombre_92);}.cls-13{fill:url(#Degradado_sin_nombre_93);}</style><filter id="h" name="h"><feGaussianBlur stdDeviation="3.76"/></filter><linearGradient id="Degradado_sin_nombre_84" x1="115.22" y1="785" x2="124.7" y2="1299.42" gradientTransform="matrix(0.46, 0, 0, -0.46, 1889.37, 1070.86)" gradientUnits="userSpaceOnUse"><stop offset="0" stop-color="#f3f3f3"/><stop offset="1" stop-color="#8f8f8f"/></linearGradient><linearGradient id="Degradado_sin_nombre_85" x1="-261.92" y1="1152.18" x2="-129.66" y2="714.54" gradientTransform="matrix(0.49, 0, 0, -0.48, 2043.57, 1228.96)" gradientUnits="userSpaceOnUse"><stop offset="0"/><stop offset="1" stop-color="#555753"/></linearGradient><radialGradient id="Degradado_sin_nombre_86" cx="124.5" cy="1837.59" r="58.67" gradientTransform="matrix(-0.46, 0, 0, 0.42, 1945.39, 61.57)" gradientUnits="userSpaceOnUse"><stop offset="0" stop-color="#fff"/><stop offset="1" stop-color="#fff" stop-opacity="0"/></radialGradient><radialGradient id="Degradado_sin_nombre_87" cx="219.28" cy="733.49" r="63.15" gradientTransform="matrix(0.46, 0, 0, -0.73, 1892.7, 1217.59)" xlink:href="#Degradado_sin_nombre_86"/><radialGradient id="Degradado_sin_nombre_88" cx="460.9" cy="966.94" r="26.74" gradientTransform="matrix(1.72, 0, 0, -3.04, 1151.13, 3694.23)" xlink:href="#Degradado_sin_nombre_86"/><linearGradient id="Degradado_sin_nombre_89" x1="310.97" y1="1223.37" x2="310.97" y2="1243.82" gradientTransform="matrix(0.33, 0, 0, -0.35, 1788.16, 1265.31)" xlink:href="#Degradado_sin_nombre_84"/><radialGradient id="Degradado_sin_nombre_90" cx="192.28" cy="1160.5" r="25.37" gradientTransform="matrix(1.7, 1.15, 4.4, -6.48, -3532.19, 8106.96)" xlink:href="#Degradado_sin_nombre_86"/><linearGradient id="Degradado_sin_nombre_91" x1="1012.91" y1="1189.82" x2="1012.91" y2="1246.76" gradientTransform="matrix(2.05, 0, 0, -2.05, -134.26, 3251.95)" xlink:href="#Degradado_sin_nombre_84"/><linearGradient id="Degradado_sin_nombre_92" x1="410.34" y1="1074.56" x2="410.34" y2="1095.01" gradientTransform="matrix(0.69, 0, 0, -0.72, 1616.92, 1472.27)" xlink:href="#Degradado_sin_nombre_84"/><linearGradient id="Degradado_sin_nombre_93" x1="1037.95" y1="1256.27" x2="1037.95" y2="1259.28" gradientTransform="matrix(2.05, 0, 0, -2.05, -134.26, 3251.95)" xlink:href="#Degradado_sin_nombre_84"/></defs><g class="cls-1"><path class="cls-2" d="M1877,656h129.28a7.24,7.24,0,0,1,7.24,7.25V852a7.24,7.24,0,0,1-7.24,7.25H1877a7.24,7.24,0,0,1-7.24-7.25h0V663.27A7.24,7.24,0,0,1,1877,656" transform="translate(-1869.72 -654.76)"/></g><path class="cls-3" d="M1878.3,655h127.15a8.31,8.31,0,0,1,8.31,8.31V850a8.31,8.31,0,0,1-8.31,8.3H1878.3a8.3,8.3,0,0,1-8.3-8.3V663.3a8.3,8.3,0,0,1,8.3-8.31" transform="translate(-1869.72 -654.76)"/><path class="cls-4" d="M1879.73,662.09H2004a2.65,2.65,0,0,1,2.65,2.65V848.51a2.66,2.66,0,0,1-2.65,2.66h-124.3a2.66,2.66,0,0,1-2.65-2.66V664.74a2.65,2.65,0,0,1,2.65-2.65" transform="translate(-1869.72 -654.76)"/><path class="cls-5" d="M1929.73,851.16h-50.9a1.75,1.75,0,0,1-1.75-1.75V803.16a1.75,1.75,0,0,1,1.75-1.75h50.9a1.75,1.75,0,0,1,1.75,1.75v46.25a1.75,1.75,0,0,1-1.75,1.75" transform="translate(-1869.72 -654.76)"/><path class="cls-6" d="M1950.25,662.09h54.3a2.12,2.12,0,0,1,2.13,2.12h0v88.53a2.13,2.13,0,0,1-2.13,2.13h-54.3a2.13,2.13,0,0,1-2.13-2.13h0V664.21a2.12,2.12,0,0,1,2.13-2.12h0" transform="translate(-1869.72 -654.76)"/><path class="cls-7" d="M1907.75,842.91h91.65V692.07m-23.72-21.73h-91.31v150" transform="translate(-1869.72 -654.76)"/><path class="cls-8" d="M1987.73,756.63c0,44.86-20.54,81.23-45.87,81.23S1896,801.49,1896,756.63s20.53-81.23,45.87-81.23,45.87,36.37,45.87,81.23Z" transform="translate(-1869.72 -654.76)"/><path class="cls-9" d="M1892,829.12a2.77,2.77,0,0,0-2.49,3A4,4,0,0,0,1890,834a3.35,3.35,0,0,0-1.94-.63,2.69,2.69,0,1,0,0,5.38,3.18,3.18,0,0,0,3-2.36,8.08,8.08,0,0,1,.3,2.18,7.36,7.36,0,0,1-1.48,4.53h4.22a7.3,7.3,0,0,1-1.56-4.64,7.87,7.87,0,0,1,.28-2.09,3,3,0,0,0,3.06,2.38,2.69,2.69,0,1,0,0-5.38,3.3,3.3,0,0,0-2,.73,4.14,4.14,0,0,0,.54-2,2.77,2.77,0,0,0-2.48-3Z" transform="translate(-1869.72 -654.76)"/><path class="cls-10" d="M1903.21,836.28c1.08-1.85-3.22-8.39-3.77-10.87a4.25,4.25,0,0,1-.12-.62,9.65,9.65,0,0,1-.09-1.07,10.68,10.68,0,0,1,.26-1.86.68.68,0,0,0,.63-.68.67.67,0,0,0-.29-.56c.14-.47.29-.94.43-1.41a19.53,19.53,0,0,1,1.23-3,39.29,39.29,0,0,1,2.24-3.6c.24-.37.5-.74.76-1.1l.22,0a1.24,1.24,0,0,0,1.25-1.24,1.23,1.23,0,0,0-.12-.5l.93-1.1a59.59,59.59,0,0,1,4.37-4.19c1.66-1.52,3.42-2.92,5.19-4.3,2.11-1.64,4.35-3.1,6.58-4.55s4.26-2.69,6.42-4a1.45,1.45,0,0,0,.3,0,1.24,1.24,0,0,0,0-2.48,1.24,1.24,0,0,0-.34,2.44l-.61.34c-2.63,1.57-5.24,3.17-7.81,4.83-2.24,1.46-4.49,2.92-6.61,4.56-1.77,1.39-3.53,2.8-5.19,4.32-1.27,1.15-2.55,2.29-3.74,3.52a1.28,1.28,0,0,0-.62-.17,1.25,1.25,0,0,0-1,2,29.71,29.71,0,0,0-2.08,2.79,39.29,39.29,0,0,0-2.24,3.6l-.29.63c.06-1.26.22-2.5.38-3.74a32.5,32.5,0,0,1,1.07-5.17,31,31,0,0,1,1.7-4.51,26.38,26.38,0,0,0,1.78-3.33c.11-.25.2-.52.29-.77l.07-.19c.89-1.61,1.81-3.18,2.74-4.77a2.75,2.75,0,0,0,.17-.29l1.06-1.43c1-1.31,2.09-2.57,3.16-3.83,1.38-1.6,2.87-3.11,4.35-4.62,1.66-1.72,3.43-3.32,5.2-4.92l5.74-5.1c2-1.83,4.07-3.61,6.11-5.41,2.3-2,4.53-4.07,6.74-6.17,1.17-1.12,2.33-2.24,3.48-3.38-.24.3,1.11-.73,3.45-2.72s4.56-3.82,6.94-5.62a32.65,32.65,0,0,1,4.65-3.19l1-.45a1.11,1.11,0,0,0-.08.36,1.26,1.26,0,0,0,1.25,1.25,1.24,1.24,0,0,0,1.23-1.25,1.25,1.25,0,0,0-.3-.8c4.58-.33,5.52-1,.56-.68a3.92,3.92,0,0,0-1.17.28,1.12,1.12,0,0,0-.32,0,1.23,1.23,0,0,0-1.1.68,45.11,45.11,0,0,0-7,4.52c-2.36,1.8-4.65,3.7-6.91,5.62-.93.8-1.55,1.37-1.91,1.7,1.18-1.17,2.36-2.35,3.52-3.54,2.56-2.57,5-5.29,7.33-8.05,1.46-1.75,2.86-3.54,4.23-5.35a1.27,1.27,0,0,0,1,.45,1.24,1.24,0,0,0,.49-2.38c.62-.83,1.22-1.66,1.83-2.5a113,113,0,0,0,7.08-11.17,74.53,74.53,0,0,0,5.71-12.78,114,114,0,0,0,2.31-11.89c.76-4.78-.43-4.08-1.19.7a111.53,111.53,0,0,1-2.31,11.87,74.57,74.57,0,0,1-5.72,12.78c-.17.3-.36.6-.54.91a.68.68,0,0,0-.66-.55.69.69,0,0,0,0,1.38.59.59,0,0,0,.23,0,109.47,109.47,0,0,1-6.11,9.49l-1.25,1.73a1.22,1.22,0,0,0-1.12,1.21,1.9,1.9,0,0,0,0,.25c-1.67,2.24-3.38,4.45-5.17,6.59-2.35,2.77-4.77,5.48-7.33,8.06-2.41,2.45-4.85,4.89-7.35,7.26-2.21,2.1-4.44,4.17-6.75,6.17-2,1.8-4.09,3.58-6.11,5.4l-5.76,5.11c-1.64,1.49-3.29,3-4.85,4.57a.68.68,0,0,0-.32-.42c.61-.62,1.23-1.24,1.86-1.85,2-1.93,4.17-3.81,6.23-5.74,2.42-2.28,4.79-4.62,7.12-7a80.92,80.92,0,0,0,7.41-8.6,97.43,97.43,0,0,0,6.74-11.06,73.66,73.66,0,0,0,5.43-12.54,85,85,0,0,0,2.8-14.31,118,118,0,0,0,.16-12.33,1.27,1.27,0,0,0,.42-.93,1.25,1.25,0,0,0-.5-1c0-.5,0-1,0-1.52l-.09-2.56c-.17-4.8-1.35-4.12-1.17.68,0,.85,0,1.71.09,2.56,0,.23,0,.45,0,.67a1.24,1.24,0,0,0-.8,1.16,1.21,1.21,0,0,0,.87,1.16c.06,2.12.11,4.25.1,6.37a1.29,1.29,0,0,0-.48-.1,1.24,1.24,0,1,0,0,2.48,1.28,1.28,0,0,0,.44-.09c0,1.37-.1,2.75-.21,4.12-.38,3.09-.86,6.19-1.52,9.24,0-1.45,0-2.92,0-4.37-.11-3.46-.32-6.91-.77-10.34a54.94,54.94,0,0,0-1.39-7,23.6,23.6,0,0,0-1.16-3.41,3.51,3.51,0,0,0-.55-.91c-3.91-3.51-5.22-2.71-1.28.75a3.51,3.51,0,0,1,.55.88,24.11,24.11,0,0,1,1.18,3.41,56.69,56.69,0,0,1,1.42,7,102.11,102.11,0,0,1,.79,10.34c.06,1.92,0,3.84,0,5.76a15.36,15.36,0,0,0,.09,2.49l-.15.48q-1.18,3.54-2.68,7a1.22,1.22,0,0,0-1.07-.63,1.24,1.24,0,0,0,0,2.48l.25,0c-.61,1.27-1.24,2.52-1.93,3.76a97.77,97.77,0,0,1-6.75,11.08,80.91,80.91,0,0,1-7.42,8.59c-2.34,2.37-4.7,4.72-7.13,7-2.06,1.93-4.19,3.8-6.25,5.74l-1,1.06a.67.67,0,0,0-.57.58A36.44,36.44,0,0,0,1910,790a68.63,68.63,0,0,0-3.91,5.91c-.45.61-.87,1.23-1.26,1.88s-.85,1.34-1.19,2.06a14.55,14.55,0,0,0-.65,1.45.06.06,0,0,0,0,0c-.34.62-.68,1.25-1,1.88-.41.86-.81,1.73-1.19,2.6l.09-.44a36.2,36.2,0,0,1,1-3.56c.49-1.41,1.07-2.76,1.66-4.13.71-1.67,1.46-3.32,2.18-5,1-2.24,2.12-4.43,3.22-6.62,1.41-2.68,2.65-5.43,3.84-8.21,1.43-3.39,2.82-6.79,4.23-10.19s2.9-7,4.23-10.56a.69.69,0,0,0,.52-.67.62.62,0,0,0-.13-.4c1.35-3.73,2.54-7.5,3.7-11.29,1.33-4.4,2.48-8.85,3.37-13.36a86.89,86.89,0,0,0,1.06-15.87c-.16-5.4-.79-10.76-1.45-16.12-.4-3.23-.89-6.44-1.39-9.65a11,11,0,0,0-.72-2.86,1,1,0,0,0,.39.08,1.26,1.26,0,0,0,1.25-1.25,1.25,1.25,0,0,0-1.25-1.23,1.24,1.24,0,0,0-.9,2.08c-.24.34-.3,1.66,0,3.86.23,1.42.45,2.85.66,4.27a.74.74,0,0,0-.48-.17.68.68,0,0,0,0,1.36.71.71,0,0,0,.61-.36c.22,1.51.43,3,.62,4.55l.14,1.16a1.2,1.2,0,0,0-.56-.15,1.26,1.26,0,0,0-1.25,1.25,1.24,1.24,0,0,0,2,.93c.51,4.29,1,8.61,1.08,12.94a86.86,86.86,0,0,1-1.08,15.86c-.9,4.51-2,9-3.38,13.38-1.07,3.49-2.18,7-3.4,10.4a.67.67,0,0,0-.34.59.7.7,0,0,0,0,.25l-.27.71c-1.38,3.68-2.83,7.35-4.37,11q-2.11,5.1-4.25,10.18c-1.19,2.79-2.44,5.55-3.85,8.23-1.11,2.2-2.23,4.38-3.23,6.62-.73,1.67-1.47,3.33-2.19,5-.58,1.37-1.18,2.73-1.67,4.13-.37,1.18-.77,2.36-1,3.57-.22,1-.45,2-.63,3-.09.45-.17.9-.27,1.34-.53,2.18-.58,3.28-.38,3.45-.06.36-.11.74-.14,1.11a35.86,35.86,0,0,0-.42,4.38c0,.67,0,1.35,0,2a15.5,15.5,0,0,0-.42,1.52l-.12.61h-6.09c4.09,1.18,7.29.83,12,12.66Zm1.2-9.58a.68.68,0,1,0-.68-.68A.68.68,0,0,0,1904.41,826.7Zm-9.49-3.46a1.25,1.25,0,1,0-1.24-1.25A1.25,1.25,0,0,0,1894.92,823.24Zm6.69-1.49a1.24,1.24,0,1,0,0-2.48,1.24,1.24,0,0,0,0,2.48Zm-8.74-3.48a.68.68,0,1,0-.68-.68A.67.67,0,0,0,1892.87,818.27Zm3.1-1.12a.68.68,0,0,0,0-1.36.68.68,0,0,0,0,1.36Zm11.71-1.47a1.26,1.26,0,0,0,1.25-1.25,1.24,1.24,0,1,0-1.25,1.25Zm2.91-2.12a.68.68,0,1,0-.68-.68A.67.67,0,0,0,1910.59,813.56Zm-17-1.36a1.24,1.24,0,1,0-1.24-1.23A1.24,1.24,0,0,0,1893.55,812.2Zm2.86-3.59a1.25,1.25,0,0,0,1.23-1.25,1.24,1.24,0,0,0-2.48,0A1.26,1.26,0,0,0,1896.41,808.61Zm16-.5a.68.68,0,1,0,0-1.36.68.68,0,1,0,0,1.36Zm9-1.11a1.24,1.24,0,1,0-1.25-1.25A1.25,1.25,0,0,0,1921.45,807Zm-13.26-1.5a1.22,1.22,0,0,0,1.23-1.23,1.24,1.24,0,1,0-1.23,1.23Zm4.85-.3c.06,0,1.46-.94,3.74-2.62,1-.72,1.92-1.47,3-2.1a43.79,43.79,0,0,1,4.52-2.41l1-.42a1.21,1.21,0,0,0-.29.78,1.24,1.24,0,1,0,2.48,0,1.23,1.23,0,0,0-1.17-1.21c1.08-.48,2.17-1,3.27-1.38s2.48-1,3.73-1.48l1.59-.59c4.89-1.87,6.16-2.61,1.27-.74l-1.6.61c-1.26.48-2.48,1-3.73,1.48-1.78.68-3.52,1.46-5.26,2.24a68,68,0,0,0-7,3.83c-1,.63-2,1.38-3,2.1a30.22,30.22,0,0,0-2.49,1.91Zm-17.25-1.3a1.25,1.25,0,0,0,1.24-1.25,1.25,1.25,0,0,0-2.49,0A1.26,1.26,0,0,0,1895.79,803.9Zm27.08-1.37a.68.68,0,1,0-.68-.68A.68.68,0,0,0,1922.87,802.53Zm-22.49-1.73a1.25,1.25,0,0,0,1.23-1.25,1.24,1.24,0,0,0-2.48,0A1.26,1.26,0,0,0,1900.38,800.8Zm6.69-.38a1.24,1.24,0,0,0,0-2.48,1.24,1.24,0,1,0,0,2.48Zm-16.8-1a.68.68,0,1,0,0-1.36.68.68,0,1,0,0,1.36Zm43.26-2.36a.68.68,0,1,0-.68-.68A.67.67,0,0,0,1933.53,797.07Zm-14.81-.11a1.24,1.24,0,0,0,1.23-1.25,1.22,1.22,0,0,0-1.23-1.23,1.24,1.24,0,0,0-1.24,1.23A1.25,1.25,0,0,0,1918.72,797Zm21.88-1.12a.68.68,0,1,0,0-1.36h-.06a1.22,1.22,0,0,0,.37-.87,1.24,1.24,0,1,0-1.24,1.23,1.29,1.29,0,0,0,.35,0,.72.72,0,0,0-.1.36.68.68,0,0,0,.68.68Zm4.28-2.85a1.25,1.25,0,0,0,1.24-1.25,1.25,1.25,0,0,0-2.49,0A1.26,1.26,0,0,0,1944.88,793Zm-42.27,0a1.25,1.25,0,0,0,1.23-1.25,1.23,1.23,0,0,0-1.23-1.23,1.25,1.25,0,0,0-1.25,1.23A1.26,1.26,0,0,0,1902.61,793Zm9.78-.13a1.24,1.24,0,0,0,1.25-1.24,1.25,1.25,0,0,0-1.25-1.24,1.24,1.24,0,0,0,0,2.48Zm35.64-.12a.68.68,0,1,0-.68-.68A.68.68,0,0,0,1948,792.74Zm-26.64-.87a.68.68,0,1,0-.68-.68A.68.68,0,0,0,1921.39,791.87Zm-11.35-.81c.41-.59.82-1.17,1.24-1.75a30.52,30.52,0,0,1,2.46-3,.65.65,0,0,0,.42.3c-1.33,1.36-2.66,2.72-3.9,4.16l-.22.26Zm23.58-1.87,4-2.26c1-.56,2-1.11,3.06-1.68a1.29,1.29,0,0,0,.35,0,1.21,1.21,0,0,0,1.18-.91l4.26-2.43-4.24,2.39a1.27,1.27,0,0,0,0-.28,1.24,1.24,0,1,0-1.64,1.17l-1,.54q-3,1.69-6,3.42Zm15.91-.17a.69.69,0,1,0-.68-.68A.69.69,0,0,0,1949.53,789Zm-47.43-1.86a1.25,1.25,0,0,0,1.25-1.24,1.17,1.17,0,0,0-.07-.38h.13a.68.68,0,0,0,.68-.68.7.7,0,0,0-.68-.69.68.68,0,0,0-.68.66,1.34,1.34,0,0,0-.63-.16,1.24,1.24,0,0,0,0,2.48Zm-4-.13a.68.68,0,1,0-.69-.68A.68.68,0,0,0,1898.08,787Zm8.62-4.71a1.23,1.23,0,0,0,1.23-1.23,1.24,1.24,0,1,0-1.23,1.23Zm52.38-.24a.69.69,0,1,0-.69-.69A.69.69,0,0,0,1959.08,782.08Zm-12.1-.42,1.85-1.08a87.94,87.94,0,0,0,8.91-6q2.17-1.67,4.2-3.48a1.24,1.24,0,0,0,2.4-.42,1.25,1.25,0,0,0-.71-1.13c1-.92,1.93-1.85,2.88-2.81.69-.7,1.35-1.42,2-2.16l.1-.08c2-1.81,4-3.59,5.94-5.44l.09-.1a1.24,1.24,0,1,0,1.37-1.4,26.18,26.18,0,0,0,3.09-3.8c1.17-1.72,2.33-3.45,3.45-5.2s2.22-3.5,3.29-5.28c.62-1,1.24-2,1.84-3.1a1,1,0,0,0,0,.25,1.24,1.24,0,0,0,1.23,1.24,1.25,1.25,0,0,0,1.25-1.24,1.25,1.25,0,0,0-2.1-.89l.49-.91a23.91,23.91,0,0,0,1.27-2.94,10.35,10.35,0,0,1,.44-1.14c.29-.57.52-1,.71-1.45a1.24,1.24,0,0,0,.29-2.36.68.68,0,0,0-.18-1.34.68.68,0,0,0-.37,1.25,1.25,1.25,0,0,0-1.18,1.23,1.27,1.27,0,0,0,.7,1.12c-.37.61-.78,1.34-1.25,2.28a12.27,12.27,0,0,0-.43,1.15,24.39,24.39,0,0,1-1.26,2.93c-.82,1.58-1.75,3.12-2.67,4.65-1.07,1.77-2.18,3.52-3.29,5.27s-2.28,3.48-3.45,5.2a23.82,23.82,0,0,1-2.53,3.21,1.23,1.23,0,0,0-.61.66l-1.39,1.42q-1.68,1.59-3.39,3.13c1.59-1.95,3.06-4,4.49-6.07a51.1,51.1,0,0,0,6-11.79c.08-.21.14-.43.21-.64a1.24,1.24,0,1,0,.37-1.16,62,62,0,0,0,1.54-25c-1-7.9-3-6.79-2,1.11a56.61,56.61,0,0,1,.48,12.74,52.78,52.78,0,0,1-2.62,14,50.88,50.88,0,0,1-6,11.81,76,76,0,0,1-7,9c-1.47,1.3-3,2.6-4.44,3.88-1.07.95-2.21,1.82-3.33,2.71-3.91,3.13-2.68,2.42,1.23-.71,1-.81,2.05-1.6,3-2.45a.22.22,0,0,0,0,.08c-2,1.85-4,3.64-6.16,5.28a88.92,88.92,0,0,1-8.75,5.92Zm-6.87-.32a.69.69,0,1,0-.68-.68A.68.68,0,0,0,1940.11,781.34Zm12.4-.51a.7.7,0,0,0,.55-.68.68.68,0,1,0-.68.68Zm-27.47-.36a1.24,1.24,0,1,0,0-2.48,1.24,1.24,0,0,0,0,2.48Zm3.78-.38a.68.68,0,1,0-.68-.68A.67.67,0,0,0,1928.82,780.09Zm18-3.1a.68.68,0,1,0-.68-.68A.67.67,0,0,0,1946.8,777Zm6.13-.36a1.25,1.25,0,1,0,0-2.49,1.25,1.25,0,0,0,0,2.49Zm-43.76-.51a1.24,1.24,0,1,0-1.24-1.23A1.24,1.24,0,0,0,1909.17,776.12Zm58.7-1.23a.68.68,0,1,0-.68-.68A.68.68,0,0,0,1967.87,774.89Zm-43.7-.25a1.24,1.24,0,1,0,0-2.48,1.24,1.24,0,0,0,0,2.48Zm-18.53-2.11a.68.68,0,1,0-.68-.68A.68.68,0,0,0,1905.64,772.53Zm50-.12a1.24,1.24,0,0,0,0-2.48,1.24,1.24,0,1,0,0,2.48Zm-44.5-1.24a1.23,1.23,0,0,0,1.23-1.24,1.26,1.26,0,0,0-.54-1,.59.59,0,0,0,.05-.27.68.68,0,0,0-1.36,0,.54.54,0,0,0,0,.22,1.23,1.23,0,0,0,.58,2.32Zm26.78-1.12a1.24,1.24,0,0,0,0-2.48,1.24,1.24,0,1,0,0,2.48Zm-22.84-.45c.29,0,.85-1.43,1.33-4s1-5.2,1.25-7.83a72.17,72.17,0,0,0,.43-9.75,61,61,0,0,0-.69-7.27c-.26-1.63-.5-3.25-.91-4.84a16.39,16.39,0,0,0-.58-1.84c-2.15-4.78-3.5-4-1.28.74a12.84,12.84,0,0,1,.58,1.82c.42,1.59.68,3.22.94,4.84a60.89,60.89,0,0,1,.71,7.26,73.74,73.74,0,0,1-.4,9.74c-.29,2.62-.76,5.23-1.25,7.82-.42,2.26-.38,3.31-.13,3.29Zm26.49,0a.69.69,0,1,0-.68-.68A.69.69,0,0,0,1941.59,769.56Zm-20.33-.5a.68.68,0,1,0-.68-.68A.68.68,0,0,0,1921.26,769.06Zm8.13-2.23a1.24,1.24,0,0,0,1.23-1.24,1.22,1.22,0,0,0-1.23-1.23,1.23,1.23,0,0,0-1.25,1.23A1.25,1.25,0,0,0,1929.39,766.83Zm34.58-1a1.22,1.22,0,0,0,1.23-1.23,1.23,1.23,0,0,0-1.23-1.24,1.25,1.25,0,0,0-1.24,1.24A1.23,1.23,0,0,0,1964,765.83Zm13.94-2.85a.68.68,0,1,0-.68-.68A.68.68,0,0,0,1977.91,763Zm-23.62-5.83a1.23,1.23,0,0,0,1.25-1.23,1.24,1.24,0,1,0-2.48,0A1.22,1.22,0,0,0,1954.29,757.15Zm13.2-2a.68.68,0,1,0,0-1.36.68.68,0,0,0,0,1.36Zm-60.3-.86a1.25,1.25,0,0,0,0-2.49,1.25,1.25,0,0,0,0,2.49Zm31.37-.5a1.24,1.24,0,0,0,0-2.48,1.24,1.24,0,1,0,0,2.48Zm47.78-1.48a.68.68,0,1,0,0-1.36.68.68,0,0,0,0,1.36Zm-1.55-1a1.24,1.24,0,1,0-1.24-1.23A1.24,1.24,0,0,0,1984.79,751.33Zm-38.55-.36a1.25,1.25,0,1,0-1.23-1.25A1.23,1.23,0,0,0,1946.24,751Zm-20.46-1.38a1.24,1.24,0,1,0-1.23-1.23A1.22,1.22,0,0,0,1925.78,749.59Zm-13-5.32a.7.7,0,0,0,.68-.69.69.69,0,0,0-1.37,0A.7.7,0,0,0,1912.83,744.27ZM1920,744a1.24,1.24,0,0,0,1.25-1.23,1.24,1.24,0,1,0-2.48,0A1.23,1.23,0,0,0,1920,744Zm54.67-.36a1.24,1.24,0,1,0,0-2.48,1.24,1.24,0,0,0,0,2.48Zm-47-1.25a.68.68,0,0,0,0-1.36.68.68,0,1,0,0,1.36Zm17.17-5.2a1.24,1.24,0,1,0-1.25-1.24A1.25,1.25,0,0,0,1944.76,737.2Zm14.62-.13a1.25,1.25,0,0,0,1.25-1.23,1.26,1.26,0,0,0-1.25-1.25,1.25,1.25,0,0,0-1.23,1.25A1.23,1.23,0,0,0,1959.38,737.07Zm25.79-1.36a1.24,1.24,0,0,0,0-2.48,1.24,1.24,0,1,0,0,2.48Zm-62-1a1.24,1.24,0,0,0,1.24-1.24,1.24,1.24,0,0,0-2.48,0A1.25,1.25,0,0,0,1923.18,734.72Zm31.49-.13a1.24,1.24,0,0,0,1.25-1.23,1.25,1.25,0,0,0-2.5,0A1.24,1.24,0,0,0,1954.67,734.59Zm-24.85-2.72a.68.68,0,0,0,0-1.36.68.68,0,1,0,0,1.36Zm-17.86-2a.68.68,0,1,0-.69-.68A.69.69,0,0,0,1912,729.88Zm45-.24a.68.68,0,1,0-.68-.68A.68.68,0,0,0,1957,729.64Zm19.89-1.12a1.25,1.25,0,0,0,1.25-1.24,1.24,1.24,0,1,0-1.25,1.24ZM1944,728a.68.68,0,1,0-.68-.68A.68.68,0,0,0,1944,728Zm48.71-1.12a.68.68,0,1,0-.68-.68A.67.67,0,0,0,1992.66,726.91Zm-47.16-.24a1.25,1.25,0,1,0-1.25-1.25A1.24,1.24,0,0,0,1945.5,726.67Zm19.83-.38a1.24,1.24,0,1,0-1.24-1.24A1.24,1.24,0,0,0,1965.33,726.29Zm8.5-1.74a.68.68,0,1,0,0-1.36.68.68,0,1,0,0,1.36Zm18.53-.37a1.24,1.24,0,0,0,0-2.48,1.24,1.24,0,1,0,0,2.48Zm-65.63,0a.7.7,0,0,0,.54-.69.68.68,0,1,0-.68.69Zm57-2a.69.69,0,1,0-.68-.69A.69.69,0,0,0,1983.74,722.21ZM1934.1,721a1.24,1.24,0,1,0-1.25-1.25A1.24,1.24,0,0,0,1934.1,721Zm42-1a.68.68,0,0,0,.68-.68.68.68,0,1,0-1.36,0A.67.67,0,0,0,1976.06,720Zm-20.4-1.73a1.25,1.25,0,0,0,1.24-1.25s0,0,0-.07a.66.66,0,0,0,.32.07.68.68,0,1,0-.66-.86,1.24,1.24,0,0,0-2.13.86,1.25,1.25,0,0,0,1.24,1.25Zm13.33-1.5a.68.68,0,1,0-.68-.68A.68.68,0,0,0,1969,716.74Zm21.08-.24a.69.69,0,1,0-.68-.68A.69.69,0,0,0,1990.07,716.5Zm-5.28-.13a1.24,1.24,0,1,0-1.24-1.24A1.24,1.24,0,0,0,1984.79,716.37ZM1933,716a1.24,1.24,0,0,0,1.23-1.24,1.22,1.22,0,0,0-1.23-1.23,1.24,1.24,0,0,0-1.25,1.23A1.25,1.25,0,0,0,1933,716Zm10.53-1.36a1.24,1.24,0,1,0-1.16-1.66.67.67,0,0,0-.2.47.67.67,0,0,0,.31.57,1.23,1.23,0,0,0,1,.62Zm27.77-1.11a1.25,1.25,0,0,0,1.24-1.25,1.24,1.24,0,1,0-1.24,1.25Zm-45.75-1.25a1.24,1.24,0,1,0-1.23-1.23A1.24,1.24,0,0,0,1925.53,712.28Zm20.9-3.84a.68.68,0,1,0-.68-.68A.68.68,0,0,0,1946.43,708.44Zm41.77-.25a.68.68,0,1,0-.68-.68A.67.67,0,0,0,1988.2,708.19Zm-56.65-.13a.68.68,0,1,0,0-1.36.68.68,0,1,0,0,1.36Zm48-2.85a.68.68,0,1,0-.68-.68A.68.68,0,0,0,1979.52,705.21Zm2.67-1a1.25,1.25,0,0,0,1.24-1.24,1.24,1.24,0,1,0-1.24,1.24Zm-44.56-1.49a.68.68,0,0,0,0-1.36.68.68,0,1,0,0,1.36Zm5.64-.49a1.24,1.24,0,0,0,0-2.48,1.24,1.24,0,1,0,0,2.48Zm-10.67-2a1.23,1.23,0,0,0,1.25-1.23,1.25,1.25,0,0,0-2.49,0A1.23,1.23,0,0,0,1932.6,700.25Zm35.76-.36a.69.69,0,0,0,.68-.69.68.68,0,0,0-1.36,0A.7.7,0,0,0,1968.36,699.89Zm-16-.13a1.24,1.24,0,0,0,0-2.48,1.24,1.24,0,0,0,0,2.48Zm21.39-1.24a.69.69,0,1,0-.69-.69A.69.69,0,0,0,1973.7,698.52Zm-23.93-2.84a.69.69,0,1,0-.68-.69A.68.68,0,0,0,1949.77,695.68Zm-26.58-.38a1.24,1.24,0,1,0-1.25-1.25A1.24,1.24,0,0,0,1923.19,695.3Zm46.67-3a.68.68,0,1,0-.69-.68A.69.69,0,0,0,1969.86,692.33Zm4.4-.87a1.24,1.24,0,1,0-1.25-1.25A1.26,1.26,0,0,0,1974.26,691.46Zm-52.76-1.87a.68.68,0,1,0-.68-.68A.68.68,0,0,0,1921.5,689.59Zm52.82-2.59a.69.69,0,1,0-.68-.68A.69.69,0,0,0,1974.32,687Zm-34.1-1.87a.68.68,0,1,0,0-1.36.68.68,0,0,0,0,1.36Zm-17.47-3.35a.68.68,0,1,0-.68-.68A.67.67,0,0,0,1922.75,681.78Zm3.46-2.48a.68.68,0,1,0,0-1.36.68.68,0,0,0,0,1.36Z" transform="translate(-1869.72 -654.76)"/><path class="cls-11" d="M1925.47,689.37c-3,0-5.44.87-6.11,3.13-1.91,6.43,3.3,9.34,8.83,12.51h-.8a1.58,1.58,0,0,0-1.58,1.58v3.09a1.58,1.58,0,0,0,1.51,1.58,18.56,18.56,0,0,0-4.57,4.83c-5.87,9-7.1,17.37-3.92,25.69s5.63,16.63,5.88,17.86a2.77,2.77,0,0,1-2.45,3.42c-2.2.25-2.2,2.69-2.69,3.92s-2.69,2.69-2.45,3.91-2.2,1-4.4,2-4.9,4.4-6.12,6.36-2.2,4.65,8.08,7.09,27.4,34.5,31.8,37.43,15.9-.24,14.19-5.38-6.87-17.39-7.48-18.6.26-3,2.25-8.13,1.12-4.84,1-5.62,1-1.56,1-2-1.73-2.16-2.25-2.85-2.68-3-3.11-3.55.43-1.21,1-1.56a14.27,14.27,0,0,0,2.68-3.63c.69-1.38,1.55-1.73,3.46-2.42a43.71,43.71,0,0,1,7.18-2c1.9-.26,4.15-.69,5.1-2.94s-.6-5.11-1-5.71-.18-.69-.18-1a2.12,2.12,0,0,1,.78-1.21c.35-.26.44-.86.26-1.64a1.79,1.79,0,0,0-.95-1.13,2.49,2.49,0,0,0,1-1.64c.35-1.3-.08-2,.17-2.68s1.73-.35,2.51-.43a5.67,5.67,0,0,0,2.6-1.21,2.27,2.27,0,0,0,.51-2.08,27.59,27.59,0,0,0-1.72-4.07,29.42,29.42,0,0,0-3-5.18c-1.3-1.65-.69-2-.69-3.55a13.59,13.59,0,0,0-1.39-5.36,17.83,17.83,0,0,1-1.3-4.33,22.91,22.91,0,0,0-2.16-5.36c.58.33,1.07-.4,1.31-2.12.21-1.42-1.63-3.36-5.07-5.09a1.58,1.58,0,0,0,1.33-1.56v-3.09a1.59,1.59,0,0,0-1.59-1.58h-.43c5.52-3.17,10.74-6.08,8.83-12.51-.71-2.37-3.31-3.19-6.58-3.13a28.61,28.61,0,0,0-4.92.59,8.5,8.5,0,0,0-3.27-.59,13.23,13.23,0,0,0-5.36,1.69c-.44-1.27-1.28-1.74-1.8-1.69-.87.07-2,1.55-2.75,3a1.94,1.94,0,0,0-2.6,0c-.83-1.55-2-3.08-2.85-3-.48,0-1.27.5-1.7,1.69a12.8,12.8,0,0,0-5.63-1.69,8.79,8.79,0,0,0-3,.6,26.68,26.68,0,0,0-5.43-.6Zm3.38,2a2.49,2.49,0,0,0-.47,1.09c-1,6,2.64,9.37,6.08,12.51h-4.91c-3.42-3.66-9.69-11.33-3.94-13.1a12.68,12.68,0,0,1,3.24-.5Zm7.49,0a9,9,0,0,1,2.9.71l0,.33c-.89-.35-1.85-.71-2.87-1Zm18,0c-1,.33-2,.69-2.88,1a1.69,1.69,0,0,0,0-.33,8.86,8.86,0,0,1,2.91-.71Zm7.51,0a12.45,12.45,0,0,1,3.21.5c5.76,1.77-.52,9.44-3.94,13.1h-4.9c3.44-3.14,7.1-6.56,6.08-12.51a2.71,2.71,0,0,0-.45-1.09Zm-5.09.52c3.1,1.69.06,9-2,13.08h-5.36a27.81,27.81,0,0,0,2.06-11.59,40,40,0,0,1,5.25-1.49Zm-22.84,0a44.46,44.46,0,0,1,5.25,1.48,27.82,27.82,0,0,0,2.06,11.6h-5.36c-2-4.07-5-11.38-1.95-13.08Zm14.88,1.55.12.06c-.43.21-.81.41-1.15.59Zm-6.4.33.49.31-.53-.27,0,0Zm7.11.34c1,1.66.12,7.21-.58,10.86h-7c-.46-3.53-1-8.83,0-10.58.89.35,1.59.63,2,.77a2,2,0,0,0,1.43.62,1.93,1.93,0,0,0,1.42-.62c.53-.17,1.5-.57,2.75-1.05Z" transform="translate(-1869.72 -654.76)"/><path class="cls-12" d="M1901.27,674.25c-2.85,0-5.17,2.77-5.17,6.19a8.08,8.08,0,0,0,1.11,4,7.07,7.07,0,0,0-4-1.3,5.58,5.58,0,1,0,0,11.16,6.59,6.59,0,0,0,6.3-4.89,16.62,16.62,0,0,1,.62,4.52,15.25,15.25,0,0,1-3.07,9.42h8.77a15.17,15.17,0,0,1-3.25-9.64,16.54,16.54,0,0,1,.58-4.34c.32,2.83,3.36,4.93,6.35,4.93a5.58,5.58,0,1,0,0-11.16,6.79,6.79,0,0,0-4.16,1.52,8.56,8.56,0,0,0,1.12-4.23c0-3.42-2.31-6.19-5.16-6.19Z" transform="translate(-1869.72 -654.76)"/><path class="cls-13" d="M1993.68,665.86l.6,0c.68,0,1,.22,1,.68s-.52,1.18-1.77,2.34l-4,3.66v-4.66c0-1.66.25-1.91,2.09-2v-.43h-6.46v.43c1.77.14,2,.44,2,2v9.84c0,1.89-.25,2.18-2,2.3v.43h6.41v-.43c-1.77-.12-2-.39-2-2v-4.25l.59-.48,2.41,2.39c1.72,1.7,3,3.32,3,3.86,0,.32-.32.48-1,.5a5.78,5.78,0,0,0-.64,0v.43h6.93v-.43c-1.18,0-1.5-.25-3.57-2.46l-5.29-5.68,4.31-4.27c1.55-1.48,1.91-1.66,3.46-1.78v-.43h-6v.43" transform="translate(-1869.72 -654.76)"/></svg>