<svg id="Capa_1" data-name="Capa 1" xmlns="http://www.w3.org/2000/svg" xmlns:xlink="http://www.w3.org/1999/xlink" viewBox="0 0 144.28 204.53"><defs><style>.cls-1{filter:url(#h);}.cls-11,.cls-2,.cls-3,.cls-4{fill-rule:evenodd;}.cls-3{stroke:#000;fill:url(#Degradado_sin_nombre_14);}.cls-3,.cls-7{stroke-miterlimit:1.85;stroke-width:0.46px;}.cls-4{fill:url(#Degradado_sin_nombre_15);}.cls-5,.cls-6,.cls-8{isolation:isolate;}.cls-5{opacity:0.47;fill:url(#Degradado_sin_nombre_16);}.cls-6{opacity:0.4;fill:url(#Degradado_sin_nombre_17);}.cls-7{fill:none;}.cls-12,.cls-7{stroke:#fff;}.cls-8{opacity:0.45;fill:url(#Degradado_sin_nombre_18);}.cls-11,.cls-13,.cls-9{stroke:#c8c8c8;}.cls-13,.cls-9{stroke-linejoin:round;}.cls-9{stroke-width:0.35px;fill:url(#Degradado_sin_nombre_19);}.cls-10{fill:url(#Degradado_sin_nombre_20);}.cls-11,.cls-12{stroke-miterlimit:8.2;}.cls-11{fill:url(#Degradado_sin_nombre_21);}.cls-12{fill:url(#Degradado_sin_nombre_22);}.cls-13{stroke-width:0.72px;fill:url(#Degradado_sin_nombre_23);}</style><filter id="h" name="h"><feGaussianBlur stdDeviation="3.76"/></filter><linearGradient id="Degradado_sin_nombre_14" x1="115.23" y1="785" x2="124.71" y2="1299.42" gradientTransform="matrix(0.46, 0, 0, -0.46, 1889.37, 855.86)" gradientUnits="userSpaceOnUse"><stop offset="0" stop-color="#f3f3f3"/><stop offset="1" stop-color="#8f8f8f"/></linearGradient><linearGradient id="Degradado_sin_nombre_15" x1="-261.92" y1="1152.18" x2="-129.66" y2="714.54" gradientTransform="matrix(0.49, 0, 0, -0.48, 2043.57, 1013.97)" gradientUnits="userSpaceOnUse"><stop offset="0" stop-color="#590000"/><stop offset="1" stop-color="#bf0303"/></linearGradient><radialGradient id="Degradado_sin_nombre_16" cx="124.5" cy="1837.59" r="58.67" gradientTransform="matrix(-0.46, 0, 0, 0.42, 1945.39, -153.42)" gradientUnits="userSpaceOnUse"><stop offset="0" stop-color="#fff"/><stop offset="1" stop-color="#fff" stop-opacity="0"/></radialGradient><radialGradient id="Degradado_sin_nombre_17" cx="219.28" cy="733.49" r="63.15" gradientTransform="matrix(0.46, 0, 0, -0.73, 1892.7, 1002.6)" xlink:href="#Degradado_sin_nombre_16"/><radialGradient id="Degradado_sin_nombre_18" cx="460.9" cy="966.94" r="26.74" gradientTransform="matrix(1.72, 0, 0, -3.04, 1151.13, 3479.23)" xlink:href="#Degradado_sin_nombre_16"/><linearGradient id="Degradado_sin_nombre_19" x1="988.4" y1="955.53" x2="988.4" y2="958.87" gradientTransform="matrix(2.05, 0, 0, -2.05, -134.26, 2581.77)" xlink:href="#Degradado_sin_nombre_14"/><radialGradient id="Degradado_sin_nombre_20" cx="192.28" cy="1160.5" r="25.37" gradientTransform="matrix(1.7, 1.15, 4.4, -6.48, -3532.19, 7891.96)" xlink:href="#Degradado_sin_nombre_16"/><linearGradient id="Degradado_sin_nombre_21" x1="1012.91" y1="967.72" x2="1012.91" y2="1024.64" gradientTransform="matrix(2.05, 0, 0, -2.05, -134.26, 2581.77)" xlink:href="#Degradado_sin_nombre_14"/><linearGradient id="Degradado_sin_nombre_22" x1="1037.39" y1="1029.56" x2="1037.39" y2="1040.62" gradientTransform="matrix(2.05, 0, 0, -2.05, -134.26, 2581.77)" xlink:href="#Degradado_sin_nombre_14"/><linearGradient id="Degradado_sin_nombre_23" x1="993.27" y1="1024.51" x2="993.27" y2="1031.44" gradientTransform="matrix(2.05, 0, 0, -2.05, -134.26, 2581.77)" xlink:href="#Degradado_sin_nombre_14"/></defs><g class="cls-1"><path class="cls-2" d="M1877,441h129.28a7.24,7.24,0,0,1,7.24,7.25V637.05a7.25,7.25,0,0,1-7.24,7.25H1877a7.26,7.26,0,0,1-7.25-7.25h0V448.28A7.25,7.25,0,0,1,1877,441" transform="translate(-1869.71 -439.77)"/></g><path class="cls-3" d="M1878,440h127.86a8,8,0,0,1,8,7.95V635.32a8,8,0,0,1-8,7.95H1878a8,8,0,0,1-8-7.95V448a8,8,0,0,1,8-7.95" transform="translate(-1869.71 -439.77)"/><path class="cls-4" d="M1879.73,447.1H2004a2.65,2.65,0,0,1,2.65,2.65V633.52a2.66,2.66,0,0,1-2.65,2.66h-124.3a2.66,2.66,0,0,1-2.65-2.66V449.75a2.65,2.65,0,0,1,2.65-2.65" transform="translate(-1869.71 -439.77)"/><path class="cls-5" d="M1929.48,636.17h-50.4a2,2,0,0,1-2-2V588.42a2,2,0,0,1,2-2h50.4a2,2,0,0,1,2,2v45.75a2,2,0,0,1-2,2" transform="translate(-1869.71 -439.77)"/><path class="cls-6" d="M1950.25,447.1h54.3a2.12,2.12,0,0,1,2.13,2.12h0v88.53a2.13,2.13,0,0,1-2.13,2.13h-54.3a2.13,2.13,0,0,1-2.13-2.13h0V449.22a2.12,2.12,0,0,1,2.13-2.12h0" transform="translate(-1869.71 -439.77)"/><path class="cls-7" d="M1907.75,627.92h91.65V477.08m-23.72-21.74h-91.31v150" transform="translate(-1869.71 -439.77)"/><path class="cls-8" d="M1987.73,541.64c0,44.86-20.54,81.22-45.87,81.22S1896,586.5,1896,541.64s20.53-81.23,45.87-81.23,45.87,36.36,45.87,81.23Z" transform="translate(-1869.71 -439.77)"/><path class="cls-9" d="M1891.36,612.94a42,42,0,0,0,3,3.85,38.85,38.85,0,0,0,3.42,3.36,39.07,39.07,0,0,0-3.39,3.34,41.48,41.48,0,0,0-2.93,3.83,41.53,41.53,0,0,0-3-3.86,38.37,38.37,0,0,0-3.44-3.37,39.3,39.3,0,0,0,3.41-3.34,39.91,39.91,0,0,0,2.95-3.81Z" transform="translate(-1869.71 -439.77)"/><path class="cls-10" d="M1903.21,621.28c1.08-1.85-3.22-8.39-3.77-10.86a4.38,4.38,0,0,1-.12-.63,9.45,9.45,0,0,1-.09-1.07,10.43,10.43,0,0,1,.26-1.85.69.69,0,0,0,.63-.69.67.67,0,0,0-.29-.56c.14-.47.29-.94.43-1.41a20,20,0,0,1,1.23-3,40.69,40.69,0,0,1,2.24-3.6c.24-.37.5-.74.76-1.1a.86.86,0,0,0,.22,0,1.21,1.21,0,0,0,1.13-1.74l.93-1.1a59.59,59.59,0,0,1,4.37-4.19c1.66-1.52,3.42-2.92,5.19-4.3,2.11-1.64,4.35-3.09,6.58-4.55s4.26-2.69,6.42-4a1,1,0,0,0,.3,0,1.22,1.22,0,0,0,1.23-1.23,1.24,1.24,0,0,0-1.23-1.25,1.25,1.25,0,0,0-1.24,1.25,1.24,1.24,0,0,0,.9,1.19l-.61.35q-3.95,2.34-7.81,4.82c-2.24,1.46-4.49,2.92-6.61,4.57-1.77,1.38-3.53,2.79-5.19,4.31-1.27,1.15-2.55,2.29-3.74,3.52a1.28,1.28,0,0,0-.62-.17,1.25,1.25,0,0,0-1.24,1.25,1.28,1.28,0,0,0,.24.74,28.33,28.33,0,0,0-2.08,2.78,38.13,38.13,0,0,0-2.24,3.61l-.29.62c.06-1.25.22-2.5.38-3.74a32.5,32.5,0,0,1,1.07-5.17,31.4,31.4,0,0,1,1.7-4.51,26.38,26.38,0,0,0,1.78-3.33c.11-.25.2-.52.29-.77l.07-.19c.89-1.61,1.81-3.18,2.74-4.76l.17-.29,1.06-1.44c1-1.3,2.09-2.57,3.16-3.82,1.38-1.61,2.87-3.11,4.35-4.63,1.66-1.71,3.43-3.32,5.2-4.92,1.92-1.7,3.83-3.39,5.74-5.1s4.07-3.61,6.11-5.41c2.3-2,4.53-4.07,6.74-6.17q1.75-1.67,3.48-3.38c-.24.3,1.11-.73,3.45-2.72s4.56-3.82,6.94-5.62a32.65,32.65,0,0,1,4.65-3.19l1-.45a1.11,1.11,0,0,0-.08.36,1.26,1.26,0,0,0,1.25,1.25,1.24,1.24,0,0,0,1.23-1.25,1.23,1.23,0,0,0-.3-.79c4.58-.34,5.52-1,.56-.68a3.63,3.63,0,0,0-1.17.27,1.12,1.12,0,0,0-.32,0,1.23,1.23,0,0,0-1.1.68,45.11,45.11,0,0,0-7,4.52c-2.36,1.8-4.65,3.7-6.91,5.63-.93.79-1.55,1.36-1.91,1.69,1.18-1.17,2.36-2.35,3.52-3.53,2.56-2.58,5-5.29,7.33-8.06,1.46-1.74,2.86-3.54,4.23-5.35a1.24,1.24,0,0,0,2.19-.79,1.22,1.22,0,0,0-.74-1.13c.62-.84,1.22-1.67,1.83-2.51a111.88,111.88,0,0,0,7.08-11.17,74.53,74.53,0,0,0,5.71-12.78,114.27,114.27,0,0,0,2.31-11.88c.76-4.78-.43-4.09-1.19.69a111,111,0,0,1-2.31,11.87,74.57,74.57,0,0,1-5.72,12.78c-.17.31-.36.61-.54.91a.68.68,0,0,0-.66-.55.69.69,0,0,0-.68.7.68.68,0,0,0,.68.68.59.59,0,0,0,.23,0,109.47,109.47,0,0,1-6.11,9.49l-1.25,1.73a1.23,1.23,0,0,0-1.12,1.22,2,2,0,0,0,0,.24c-1.67,2.24-3.38,4.45-5.17,6.59-2.35,2.77-4.77,5.48-7.33,8.06-2.41,2.46-4.85,4.89-7.35,7.26-2.21,2.1-4.44,4.17-6.75,6.17-2,1.8-4.09,3.59-6.11,5.41l-5.76,5.1c-1.64,1.49-3.29,3-4.85,4.58a.68.68,0,0,0-.32-.42c.61-.63,1.23-1.24,1.86-1.86,2-1.93,4.17-3.81,6.23-5.74,2.42-2.27,4.79-4.61,7.12-7a80.81,80.81,0,0,0,7.41-8.59,97.56,97.56,0,0,0,6.74-11.07,73.31,73.31,0,0,0,5.43-12.54,84.79,84.79,0,0,0,2.8-14.31,117.93,117.93,0,0,0,.16-12.33,1.27,1.27,0,0,0,.42-.93,1.22,1.22,0,0,0-.5-1c0-.51,0-1,0-1.53l-.09-2.56c-.17-4.8-1.35-4.12-1.17.68,0,.86,0,1.71.09,2.57,0,.22,0,.44,0,.66a1.24,1.24,0,0,0-.8,1.16,1.2,1.2,0,0,0,.87,1.16c.06,2.13.11,4.25.1,6.38a1.13,1.13,0,0,0-.48-.11,1.24,1.24,0,0,0,0,2.48,1.08,1.08,0,0,0,.44-.09c0,1.38-.1,2.75-.21,4.12-.38,3.1-.86,6.19-1.52,9.24,0-1.45,0-2.92,0-4.37-.11-3.46-.32-6.9-.77-10.33a55.09,55.09,0,0,0-1.39-7,24,24,0,0,0-1.16-3.41,3.68,3.68,0,0,0-.55-.91c-3.91-3.5-5.22-2.71-1.28.75a3.4,3.4,0,0,1,.55.89,24,24,0,0,1,1.18,3.4,56.85,56.85,0,0,1,1.42,7,101.92,101.92,0,0,1,.79,10.33c.06,1.92,0,3.84,0,5.76a15.56,15.56,0,0,0,.09,2.5l-.15.48c-.79,2.36-1.68,4.67-2.68,7a1.23,1.23,0,1,0-1.07,1.85l.25,0c-.61,1.27-1.24,2.52-1.93,3.75a97.77,97.77,0,0,1-6.75,11.08,80.91,80.91,0,0,1-7.42,8.59c-2.34,2.37-4.7,4.72-7.13,7-2.06,1.93-4.19,3.81-6.25,5.74l-1,1.06a.68.68,0,0,0-.57.58A37.33,37.33,0,0,0,1910,575a70.22,70.22,0,0,0-3.91,5.91c-.45.61-.87,1.23-1.26,1.88s-.85,1.35-1.19,2.06a14.55,14.55,0,0,0-.65,1.45v0c-.34.63-.68,1.25-1,1.89-.41.86-.81,1.72-1.19,2.59l.09-.43a36.39,36.39,0,0,1,1-3.57c.49-1.4,1.08-2.76,1.66-4.13.71-1.66,1.46-3.32,2.18-5,1-2.25,2.12-4.43,3.22-6.62,1.41-2.69,2.65-5.44,3.84-8.22,1.43-3.39,2.82-6.79,4.23-10.19s2.9-7,4.23-10.56a.68.68,0,0,0,.52-.66.63.63,0,0,0-.13-.41c1.35-3.72,2.54-7.5,3.7-11.29,1.33-4.4,2.48-8.85,3.38-13.36a87.67,87.67,0,0,0,1-15.86c-.16-5.4-.79-10.77-1.45-16.13-.4-3.22-.89-6.44-1.39-9.65a10.85,10.85,0,0,0-.72-2.85,1.23,1.23,0,0,0,.39.07,1.24,1.24,0,1,0,0-2.48,1.23,1.23,0,0,0-1.23,1.23,1.24,1.24,0,0,0,.33.86c-.24.34-.3,1.66,0,3.85.23,1.42.45,2.85.66,4.28a.7.7,0,0,0-.48-.18.68.68,0,0,0,0,1.36.69.69,0,0,0,.61-.36c.22,1.52.43,3,.62,4.55l.15,1.16a1.25,1.25,0,0,0-1.82,1.1,1.24,1.24,0,0,0,1.25,1.23,1.2,1.2,0,0,0,.8-.3c.51,4.3,1,8.61,1.08,12.94a86.74,86.74,0,0,1-1.08,15.86c-.9,4.52-2,9-3.38,13.38-1.07,3.49-2.18,7-3.4,10.4a.68.68,0,0,0-.34.6.64.64,0,0,0,0,.24c-.09.24-.18.47-.26.71-1.39,3.68-2.84,7.35-4.38,11q-2.11,5.1-4.25,10.19c-1.19,2.78-2.44,5.54-3.85,8.23-1.11,2.19-2.23,4.37-3.23,6.62-.73,1.66-1.47,3.33-2.19,5-.58,1.36-1.18,2.72-1.67,4.13a36.2,36.2,0,0,0-1,3.56c-.22,1-.45,2-.63,3.06-.09.44-.17.89-.27,1.33-.53,2.18-.58,3.28-.38,3.45-.06.37-.11.74-.14,1.11a35.86,35.86,0,0,0-.42,4.38c0,.68,0,1.35,0,2-.16.5-.31,1-.42,1.52l-.12.61h-6.09c4.09,1.18,7.29.84,12,12.66Zm1.2-9.57a.69.69,0,0,0,0-1.37.69.69,0,0,0,0,1.37Zm-9.49-3.47a1.25,1.25,0,1,0-1.24-1.24A1.25,1.25,0,0,0,1894.92,608.24Zm6.69-1.49a1.24,1.24,0,1,0,0-2.48,1.24,1.24,0,0,0,0,2.48Zm-8.74-3.48a.68.68,0,1,0-.68-.68A.67.67,0,0,0,1892.87,603.27Zm3.1-1.11a.69.69,0,0,0,0-1.37.69.69,0,0,0,0,1.37Zm11.71-1.48a1.24,1.24,0,1,0,0-2.48,1.24,1.24,0,0,0,0,2.48Zm2.91-2.12a.68.68,0,1,0,0-1.36.68.68,0,1,0,0,1.36Zm-17-1.36a1.24,1.24,0,0,0,1.25-1.23,1.25,1.25,0,1,0-2.49,0A1.24,1.24,0,0,0,1893.55,597.2Zm2.86-3.59a1.24,1.24,0,1,0-1.25-1.25A1.24,1.24,0,0,0,1896.41,593.61Zm16-.49a.69.69,0,1,0-.68-.69A.68.68,0,0,0,1912.46,593.12Zm9-1.12a1.24,1.24,0,1,0-1.25-1.25A1.25,1.25,0,0,0,1921.45,592Zm-13.26-1.49a1.24,1.24,0,0,0,0-2.48,1.24,1.24,0,1,0,0,2.48Zm4.85-.31c.06,0,1.46-.94,3.74-2.62,1-.72,1.92-1.47,3-2.1a43.79,43.79,0,0,1,4.52-2.41l1-.42a1.22,1.22,0,0,0-.29.79,1.24,1.24,0,1,0,1.31-1.22c1.08-.48,2.17-1,3.27-1.38s2.48-1,3.73-1.47l1.59-.6c4.89-1.87,6.16-2.61,1.27-.74l-1.6.61c-1.26.48-2.48,1-3.73,1.48-1.78.68-3.52,1.46-5.26,2.24a70,70,0,0,0-7,3.83c-1,.63-2,1.39-3,2.1-1.77,1.31-2.53,1.9-2.49,1.91Zm-17.25-1.3a1.24,1.24,0,1,0-1.25-1.25A1.25,1.25,0,0,0,1895.79,588.9Zm27.08-1.36a.69.69,0,1,0-.68-.68A.69.69,0,0,0,1922.87,587.54Zm-22.49-1.74a1.24,1.24,0,1,0-1.25-1.25A1.24,1.24,0,0,0,1900.38,585.8Zm6.69-.38a1.22,1.22,0,0,0,1.23-1.23,1.24,1.24,0,0,0-1.23-1.25,1.25,1.25,0,0,0-1.24,1.25A1.24,1.24,0,0,0,1907.07,585.42Zm-16.8-1a.69.69,0,1,0-.69-.68A.69.69,0,0,0,1890.27,584.44Zm43.26-2.37a.68.68,0,1,0-.68-.68A.67.67,0,0,0,1933.53,582.07Zm-14.81-.11a1.24,1.24,0,1,0-1.24-1.25A1.25,1.25,0,0,0,1918.72,582Zm21.88-1.12a.68.68,0,1,0,0-1.36h-.06a1.2,1.2,0,0,0,.37-.87,1.24,1.24,0,1,0-1.24,1.23,1.29,1.29,0,0,0,.35,0,.72.72,0,0,0-.1.36.68.68,0,0,0,.68.68Zm4.28-2.85a1.24,1.24,0,1,0-1.25-1.25A1.25,1.25,0,0,0,1944.88,578Zm-42.27,0a1.24,1.24,0,1,0-1.25-1.25A1.26,1.26,0,0,0,1902.61,578Zm9.78-.13a1.24,1.24,0,0,0,1.25-1.23,1.26,1.26,0,0,0-1.25-1.25,1.24,1.24,0,0,0,0,2.48Zm35.64-.12a.68.68,0,1,0-.68-.68A.68.68,0,0,0,1948,577.74Zm-26.64-.87a.68.68,0,1,0-.68-.68A.68.68,0,0,0,1921.39,576.87Zm-11.35-.81c.41-.59.82-1.17,1.24-1.75a30.52,30.52,0,0,1,2.46-3,.65.65,0,0,0,.42.3c-1.33,1.36-2.66,2.72-3.9,4.16l-.22.26Zm23.58-1.87,4-2.26c1-.55,2-1.11,3.06-1.68a1.29,1.29,0,0,0,.35,0,1.21,1.21,0,0,0,1.18-.91q2.15-1.2,4.26-2.43l-4.24,2.39a1.27,1.27,0,0,0,0-.28,1.24,1.24,0,1,0-2.48,0,1.27,1.27,0,0,0,.84,1.18l-1,.53q-3,1.69-6,3.42Zm15.91-.17a.68.68,0,0,0,0-1.36.68.68,0,0,0,0,1.36Zm-47.43-1.86a1.25,1.25,0,0,0,1.25-1.24,1.17,1.17,0,0,0-.07-.38l.13,0a.69.69,0,0,0,0-1.38.68.68,0,0,0-.68.67,1.24,1.24,0,1,0-.63,2.31Zm-4-.13a.68.68,0,0,0,0-1.36.68.68,0,1,0,0,1.36Zm8.62-4.71a1.22,1.22,0,0,0,1.23-1.23,1.24,1.24,0,1,0-1.23,1.23Zm52.38-.24a.68.68,0,1,0-.69-.68A.69.69,0,0,0,1959.08,567.08Zm-12.1-.42,1.85-1.07a88,88,0,0,0,8.91-6q2.17-1.67,4.2-3.47a1.25,1.25,0,0,0,1.16.81,1.23,1.23,0,0,0,1.24-1.24,1.26,1.26,0,0,0-.71-1.13c1-.92,1.93-1.85,2.88-2.81.69-.69,1.35-1.42,2-2.16l.1-.08c2-1.8,4-3.59,5.94-5.44l.09-.1a1.23,1.23,0,0,0,1.23,1.06,1.23,1.23,0,0,0,.14-2.46,26.18,26.18,0,0,0,3.09-3.8c1.17-1.72,2.33-3.45,3.45-5.2s2.22-3.5,3.29-5.27c.62-1,1.24-2.06,1.84-3.11a1.13,1.13,0,0,0,0,.25,1.24,1.24,0,1,0,1.23-1.23,1.19,1.19,0,0,0-.85.35l.49-.92a23.91,23.91,0,0,0,1.27-2.94,12.17,12.17,0,0,1,.44-1.14c.29-.56.52-1,.71-1.45a1.23,1.23,0,0,0,1-1.22,1.24,1.24,0,0,0-.75-1.14.68.68,0,0,0,.51-.65.69.69,0,1,0-1.06.56,1.24,1.24,0,0,0-.48,2.35c-.37.61-.78,1.35-1.25,2.29a11.13,11.13,0,0,0-.43,1.14,23.72,23.72,0,0,1-1.26,2.93c-.82,1.59-1.75,3.12-2.67,4.65-1.07,1.77-2.18,3.53-3.29,5.27s-2.28,3.49-3.45,5.21a24.37,24.37,0,0,1-2.53,3.2,1.23,1.23,0,0,0-.61.66l-1.39,1.42q-1.68,1.59-3.39,3.13c1.59-1.95,3.07-4,4.49-6.07a51.1,51.1,0,0,0,6-11.79c.08-.21.14-.43.21-.64a1.24,1.24,0,1,0,1.21-1.49,1.26,1.26,0,0,0-.84.33,62,62,0,0,0,1.54-25c-1-7.9-3-6.78-2,1.12a56.5,56.5,0,0,1,.48,12.73,52.78,52.78,0,0,1-2.62,14,51,51,0,0,1-6,11.81,76.28,76.28,0,0,1-7,9c-1.47,1.3-3,2.6-4.44,3.88-1.07.95-2.21,1.82-3.33,2.71-3.91,3.13-2.68,2.42,1.23-.71,1-.81,2.05-1.6,3-2.44,0,0,0,0,0,.07-2,1.85-4,3.64-6.16,5.29a90.61,90.61,0,0,1-8.75,5.91Zm-6.87-.32a.68.68,0,1,0-.68-.68A.68.68,0,0,0,1940.11,566.34Zm12.4-.51a.7.7,0,0,0,.55-.68.68.68,0,1,0-.68.68Zm-27.47-.36a1.24,1.24,0,1,0,0-2.48,1.24,1.24,0,0,0,0,2.48Zm3.78-.38a.68.68,0,1,0,0-1.36.68.68,0,0,0,0,1.36Zm18-3.1a.68.68,0,1,0-.68-.68A.67.67,0,0,0,1946.8,562Zm6.13-.36a1.25,1.25,0,1,0,0-2.49,1.25,1.25,0,0,0,0,2.49Zm-43.76-.51a1.23,1.23,0,0,0,1.25-1.23,1.25,1.25,0,0,0-2.49,0A1.23,1.23,0,0,0,1909.17,561.12Zm58.7-1.23a.68.68,0,1,0-.68-.68A.67.67,0,0,0,1967.87,559.89Zm-43.7-.25a1.25,1.25,0,0,0,1.25-1.24,1.24,1.24,0,0,0-1.25-1.23,1.22,1.22,0,0,0-1.23,1.23A1.24,1.24,0,0,0,1924.17,559.64Zm-18.53-2.11a.68.68,0,1,0-.68-.68A.68.68,0,0,0,1905.64,557.53Zm50-.12a1.25,1.25,0,0,0,1.24-1.24,1.24,1.24,0,1,0-1.24,1.24Zm-44.5-1.24a1.24,1.24,0,0,0,.69-2.26.66.66,0,0,0,.05-.28.68.68,0,0,0-1.36,0,.54.54,0,0,0,0,.22,1.23,1.23,0,0,0,.58,2.32Zm26.78-1.12a1.23,1.23,0,0,0,1.23-1.23,1.24,1.24,0,1,0-1.23,1.23Zm-22.84-.45c.29,0,.85-1.42,1.33-4s1-5.2,1.25-7.83a72.17,72.17,0,0,0,.43-9.75,61.23,61.23,0,0,0-.69-7.27c-.26-1.62-.5-3.25-.91-4.84a16.39,16.39,0,0,0-.58-1.84c-2.15-4.78-3.5-4-1.28.74a12.84,12.84,0,0,1,.58,1.82c.42,1.59.68,3.22.94,4.84a61.1,61.1,0,0,1,.71,7.26,73.67,73.67,0,0,1-.4,9.74c-.29,2.63-.76,5.23-1.25,7.82-.42,2.26-.38,3.31-.13,3.29Zm26.49,0a.68.68,0,1,0,0-1.36.68.68,0,1,0,0,1.36Zm-20.33-.49a.69.69,0,1,0-.68-.68A.69.69,0,0,0,1921.26,554.07Zm8.13-2.24a1.24,1.24,0,0,0,1.23-1.24,1.24,1.24,0,0,0-2.48,0A1.25,1.25,0,0,0,1929.39,551.83Zm34.58-1a1.24,1.24,0,0,0,0-2.48,1.24,1.24,0,1,0,0,2.48Zm13.94-2.86a.68.68,0,1,0-.68-.68A.67.67,0,0,0,1977.91,548Zm-23.62-5.82a1.24,1.24,0,1,0-1.23-1.24A1.24,1.24,0,0,0,1954.29,542.16Zm13.2-2a.68.68,0,1,0,0-1.36.68.68,0,0,0,0,1.36Zm-60.3-.85a1.25,1.25,0,0,0,0-2.5,1.25,1.25,0,0,0,0,2.5Zm31.37-.51a1.24,1.24,0,0,0,0-2.48,1.24,1.24,0,1,0,0,2.48Zm47.78-1.48a.68.68,0,1,0-.68-.68A.68.68,0,0,0,1986.34,537.33Zm-1.55-1a1.24,1.24,0,0,0,1.25-1.23,1.25,1.25,0,1,0-2.49,0A1.24,1.24,0,0,0,1984.79,536.33Zm-38.55-.36a1.25,1.25,0,0,0,0-2.49,1.25,1.25,0,0,0,0,2.49Zm-20.46-1.38a1.23,1.23,0,0,0,1.24-1.23,1.25,1.25,0,0,0-1.24-1.24,1.23,1.23,0,0,0-1.23,1.24A1.22,1.22,0,0,0,1925.78,534.59Zm-13-5.31a.7.7,0,0,0,.68-.7.69.69,0,0,0-1.37,0A.71.71,0,0,0,1912.83,529.28ZM1920,529a1.23,1.23,0,0,0,1.25-1.23,1.24,1.24,0,1,0-2.48,0A1.22,1.22,0,0,0,1920,529Zm54.67-.36a1.24,1.24,0,1,0,0-2.48,1.24,1.24,0,0,0,0,2.48Zm-47-1.24a.69.69,0,0,0,0-1.37.69.69,0,1,0,0,1.37Zm17.17-5.21A1.24,1.24,0,0,0,1946,521a1.22,1.22,0,0,0-1.23-1.23,1.24,1.24,0,0,0-1.25,1.23A1.25,1.25,0,0,0,1944.76,522.2Zm14.62-.13a1.24,1.24,0,0,0,1.25-1.23,1.25,1.25,0,0,0-1.25-1.24,1.24,1.24,0,0,0-1.23,1.24A1.22,1.22,0,0,0,1959.38,522.07Zm25.79-1.36a1.22,1.22,0,0,0,1.23-1.23,1.25,1.25,0,0,0-1.23-1.25,1.26,1.26,0,0,0-1.25,1.25A1.25,1.25,0,0,0,1985.17,520.71Zm-62-1a1.25,1.25,0,0,0,1.23-1.25,1.24,1.24,0,0,0-2.48,0A1.26,1.26,0,0,0,1923.19,519.73Zm31.48-.13a1.24,1.24,0,1,0-1.25-1.24A1.25,1.25,0,0,0,1954.67,519.6Zm-24.85-2.73a.68.68,0,0,0,0-1.36.68.68,0,1,0,0,1.36Zm-17.86-2a.68.68,0,1,0,0-1.36.68.68,0,1,0,0,1.36Zm45-.25a.68.68,0,1,0-.68-.68A.67.67,0,0,0,1957,514.64Zm19.89-1.11a1.26,1.26,0,0,0,1.25-1.25,1.24,1.24,0,0,0-2.48,0A1.25,1.25,0,0,0,1976.85,513.53ZM1944,513a.68.68,0,1,0-.68-.68A.67.67,0,0,0,1944,513Zm48.71-1.11a.69.69,0,0,0,0-1.37.69.69,0,0,0,0,1.37Zm-47.16-.25a1.25,1.25,0,1,0-1.25-1.25A1.24,1.24,0,0,0,1945.5,511.67Zm19.83-.38a1.24,1.24,0,0,0,1.24-1.24,1.24,1.24,0,0,0-2.48,0A1.25,1.25,0,0,0,1965.33,511.29Zm8.5-1.74a.68.68,0,1,0,0-1.36.68.68,0,1,0,0,1.36Zm18.53-.37a1.24,1.24,0,0,0,0-2.48,1.24,1.24,0,1,0,0,2.48Zm-65.62,0a.69.69,0,0,0,.53-.68.68.68,0,1,0-.68.68Zm57-2a.69.69,0,0,0,.68-.68.68.68,0,1,0-1.36,0A.68.68,0,0,0,1983.74,507.21ZM1934.1,506a1.24,1.24,0,1,0-1.25-1.24A1.24,1.24,0,0,0,1934.1,506Zm42-1a.69.69,0,0,0,.68-.68.68.68,0,1,0-1.36,0A.68.68,0,0,0,1976.06,505Zm-20.4-1.74a1.25,1.25,0,0,0,1.24-1.25s0-.05,0-.07a.66.66,0,0,0,.32.07.68.68,0,1,0-.66-.85,1.2,1.2,0,0,0-.89-.38,1.24,1.24,0,1,0,0,2.48Zm13.33-1.49a.69.69,0,0,0,0-1.37.69.69,0,0,0,0,1.37Zm21.08-.25a.68.68,0,1,0,0-1.36.68.68,0,0,0,0,1.36Zm-5.28-.13a1.24,1.24,0,1,0-1.24-1.23A1.24,1.24,0,0,0,1984.79,501.37ZM1933,501a1.25,1.25,0,0,0,1.23-1.25,1.23,1.23,0,0,0-1.23-1.23,1.25,1.25,0,0,0-1.25,1.23A1.26,1.26,0,0,0,1933,501Zm10.53-1.37a1.25,1.25,0,0,0,1.25-1.24,1.24,1.24,0,0,0-2.41-.42.68.68,0,0,0-.2.48.66.66,0,0,0,.31.56,1.21,1.21,0,0,0,1,.62Zm27.77-1.11a1.24,1.24,0,1,0,0-2.48,1.24,1.24,0,1,0,0,2.48Zm-45.75-1.25a1.23,1.23,0,0,0,1.25-1.23,1.24,1.24,0,1,0-2.48,0A1.22,1.22,0,0,0,1925.53,497.28Zm20.9-3.84a.68.68,0,1,0-.68-.68A.68.68,0,0,0,1946.43,493.44Zm41.77-.24a.69.69,0,1,0-.68-.68A.68.68,0,0,0,1988.2,493.2Zm-56.65-.13a.69.69,0,1,0-.69-.68A.69.69,0,0,0,1931.55,493.07Zm48-2.86a.68.68,0,1,0-.68-.68A.67.67,0,0,0,1979.52,490.21Zm2.67-1a1.25,1.25,0,0,0,1.24-1.25,1.24,1.24,0,1,0-1.24,1.25Zm-44.56-1.5a.68.68,0,1,0,0-1.36.7.7,0,0,0-.69.68A.68.68,0,0,0,1937.63,487.73Zm5.64-.49a1.23,1.23,0,0,0,1.23-1.23,1.24,1.24,0,1,0-1.23,1.23Zm-10.67-2a1.24,1.24,0,1,0-1.24-1.24A1.24,1.24,0,0,0,1932.6,485.26Zm35.76-.37a.69.69,0,0,0,.68-.69.68.68,0,0,0-1.36,0A.7.7,0,0,0,1968.36,484.89Zm-16-.13a1.25,1.25,0,0,0,1.25-1.24,1.24,1.24,0,0,0-1.25-1.23,1.22,1.22,0,0,0-1.23,1.23A1.23,1.23,0,0,0,1952.31,484.76Zm21.39-1.24a.68.68,0,1,0-.69-.68A.69.69,0,0,0,1973.7,483.52Zm-23.93-2.84a.68.68,0,1,0-.68-.68A.68.68,0,0,0,1949.77,480.68Zm-26.58-.38a1.24,1.24,0,1,0-1.25-1.24A1.24,1.24,0,0,0,1923.19,480.3Zm46.67-3a.68.68,0,1,0-.69-.68A.68.68,0,0,0,1969.86,477.33Zm4.4-.87a1.24,1.24,0,1,0-1.25-1.24A1.25,1.25,0,0,0,1974.26,476.46Zm-52.76-1.87a.68.68,0,1,0-.68-.68A.68.68,0,0,0,1921.5,474.59Zm52.82-2.59a.68.68,0,1,0,0-1.36.68.68,0,0,0,0,1.36Zm-34.1-1.87a.68.68,0,1,0,0-1.36.68.68,0,0,0,0,1.36Zm-17.47-3.35a.68.68,0,1,0-.68-.68A.67.67,0,0,0,1922.75,466.78Zm3.46-2.48a.68.68,0,1,0,0-1.36.68.68,0,0,0,0,1.36Z" transform="translate(-1869.71 -439.77)"/><path class="cls-11" d="M1925.47,474.37c-3,0-5.44.87-6.11,3.13-1.91,6.43,3.3,9.34,8.83,12.51h-.8a1.58,1.58,0,0,0-1.58,1.59v3.08a1.58,1.58,0,0,0,1.51,1.58,18.56,18.56,0,0,0-4.57,4.83c-5.87,9.05-7.1,17.37-3.92,25.69s5.63,16.64,5.88,17.86a2.77,2.77,0,0,1-2.45,3.42c-2.2.25-2.2,2.7-2.69,3.92s-2.69,2.69-2.45,3.91-2.2,1-4.4,2-4.9,4.41-6.12,6.36-2.2,4.65,8.08,7.1,27.4,34.49,31.8,37.42,15.9-.24,14.19-5.37-6.87-17.4-7.48-18.61.26-3,2.25-8.13,1.12-4.84,1-5.62,1-1.56,1-2-1.73-2.16-2.25-2.85-2.68-3-3.11-3.55.43-1.21,1-1.56a13.91,13.91,0,0,0,2.68-3.63c.69-1.38,1.55-1.73,3.46-2.42a44.73,44.73,0,0,1,7.18-2c1.9-.26,4.15-.69,5.1-2.94s-.6-5.1-1-5.71-.18-.69-.18-1a2.15,2.15,0,0,1,.78-1.21c.35-.26.44-.86.26-1.64a1.76,1.76,0,0,0-.95-1.12,2.53,2.53,0,0,0,1-1.65c.35-1.3-.08-2,.17-2.68s1.73-.35,2.51-.43a5.67,5.67,0,0,0,2.6-1.21,2.27,2.27,0,0,0,.51-2.08,27.59,27.59,0,0,0-1.72-4.07,29.78,29.78,0,0,0-3-5.18c-1.3-1.65-.69-2-.69-3.55a13.63,13.63,0,0,0-1.39-5.36,17.83,17.83,0,0,1-1.3-4.33,22.91,22.91,0,0,0-2.16-5.36c.58.33,1.07-.4,1.31-2.11.21-1.43-1.63-3.36-5.07-5.1a1.57,1.57,0,0,0,1.33-1.56V491.6a1.59,1.59,0,0,0-1.59-1.59h-.43c5.52-3.17,10.74-6.08,8.83-12.51-.71-2.37-3.31-3.19-6.58-3.13a28.61,28.61,0,0,0-4.92.59,8.7,8.7,0,0,0-3.27-.59,13.38,13.38,0,0,0-5.36,1.69c-.44-1.27-1.28-1.73-1.8-1.69-.87.07-2,1.55-2.75,3a2,2,0,0,0-2.6,0c-.83-1.54-2-3.07-2.85-3-.48,0-1.27.5-1.7,1.69a12.93,12.93,0,0,0-5.63-1.69,8.79,8.79,0,0,0-3,.6,27.4,27.4,0,0,0-5.43-.6Zm3.38,2a2.49,2.49,0,0,0-.47,1.09c-1,5.95,2.64,9.37,6.08,12.51h-4.91c-3.42-3.65-9.69-11.32-3.94-13.1a12.68,12.68,0,0,1,3.24-.5Zm7.49,0a9.26,9.26,0,0,1,2.9.71l0,.33c-.89-.35-1.85-.7-2.87-1Zm18,0c-1,.34-2,.69-2.88,1a1.84,1.84,0,0,0,0-.33,8.84,8.84,0,0,1,2.91-.7Zm7.51,0a12,12,0,0,1,3.21.51c5.76,1.77-.52,9.44-3.94,13.09h-4.9c3.44-3.14,7.1-6.56,6.08-12.51a2.61,2.61,0,0,0-.45-1.08Zm-5.09.52c3.1,1.69.06,9-2,13.08h-5.36a27.81,27.81,0,0,0,2.06-11.59,41.61,41.61,0,0,1,5.25-1.49Zm-22.84,0a42.59,42.59,0,0,1,5.25,1.49,27.81,27.81,0,0,0,2.06,11.59h-5.36c-2-4.07-5-11.38-1.95-13.08Zm14.88,1.55.12.06c-.43.21-.81.41-1.15.59l1-.65Zm-6.4.33.49.32-.53-.28,0,0Zm7.11.34c1,1.66.12,7.22-.58,10.86h-7c-.46-3.53-1-8.83,0-10.58.89.35,1.59.63,2,.77a2,2,0,0,0,1.43.62,1.9,1.9,0,0,0,1.42-.62c.53-.17,1.5-.57,2.75-1.05Z" transform="translate(-1869.71 -439.77)"/><path class="cls-12" d="M1992.57,456.71l.62,0c.71,0,1,.24,1,.72s-.55,1.23-1.86,2.44l-4.21,3.83v-4.87c0-1.74.27-2,2.19-2.14v-.45h-6.75v.45c1.85.14,2.14.45,2.14,2.14v10.29c0,2-.26,2.29-2.14,2.41V472h6.7v-.45c-1.85-.12-2.14-.41-2.14-2.14V465l.62-.5,2.52,2.5c1.81,1.78,3.09,3.47,3.09,4,0,.33-.33.5-1,.52a6.46,6.46,0,0,0-.67,0V472h7.25v-.45c-1.23,0-1.57-.27-3.73-2.57l-5.54-6,4.52-4.47c1.61-1.54,2-1.73,3.61-1.85v-.45h-6.23v.45" transform="translate(-1869.71 -439.77)"/><path class="cls-13" d="M1901.32,460.21a86,86,0,0,0,6.13,8,82.71,82.71,0,0,0,7.09,7,81.54,81.54,0,0,0-7,6.94,84,84,0,0,0-6.08,7.94,86.7,86.7,0,0,0-6.17-8,82,82,0,0,0-7.14-7,81.09,81.09,0,0,0,7.08-6.92,84.68,84.68,0,0,0,6.12-7.91Z" transform="translate(-1869.71 -439.77)"/></svg>