<svg id="Capa_1" data-name="Capa 1" xmlns="http://www.w3.org/2000/svg" xmlns:xlink="http://www.w3.org/1999/xlink" viewBox="0 0 144.28 204.53"><defs><style>.cls-1{filter:url(#h);}.cls-11,.cls-2,.cls-3,.cls-4{fill-rule:evenodd;}.cls-3{stroke:#000;fill:url(#Degradado_sin_nombre_124);}.cls-3,.cls-7{stroke-miterlimit:1.85;stroke-width:0.46px;}.cls-4{fill:url(#Degradado_sin_nombre_125);}.cls-5,.cls-6,.cls-8{isolation:isolate;}.cls-5{opacity:0.47;fill:url(#Degradado_sin_nombre_126);}.cls-6{opacity:0.4;fill:url(#Degradado_sin_nombre_127);}.cls-7{fill:none;}.cls-12,.cls-7{stroke:#fff;}.cls-8{opacity:0.45;fill:url(#Degradado_sin_nombre_128);}.cls-11,.cls-13,.cls-9{stroke:#c8c8c8;}.cls-13,.cls-9{stroke-linejoin:round;}.cls-9{fill:url(#Degradado_sin_nombre_129);}.cls-10{fill:url(#Degradado_sin_nombre_130);}.cls-11,.cls-12{stroke-miterlimit:8.2;}.cls-11{fill:url(#Degradado_sin_nombre_131);}.cls-12{fill:url(#Degradado_sin_nombre_132);}.cls-13{fill:url(#Degradado_sin_nombre_133);}</style><filter id="h" name="h"><feGaussianBlur stdDeviation="3.76"/></filter><linearGradient id="Degradado_sin_nombre_124" x1="115.23" y1="785" x2="124.71" y2="1299.42" gradientTransform="matrix(0.46, 0, 0, -0.46, 1889.37, 425.85)" gradientUnits="userSpaceOnUse"><stop offset="0" stop-color="#f3f3f3"/><stop offset="1" stop-color="#8f8f8f"/></linearGradient><linearGradient id="Degradado_sin_nombre_125" x1="-261.92" y1="1152.18" x2="-129.66" y2="714.54" gradientTransform="matrix(0.49, 0, 0, -0.48, 2043.57, 583.96)" gradientUnits="userSpaceOnUse"><stop offset="0" stop-color="#590000"/><stop offset="1" stop-color="#bf0303"/></linearGradient><radialGradient id="Degradado_sin_nombre_126" cx="124.5" cy="1837.59" r="58.67" gradientTransform="matrix(-0.46, 0, 0, 0.42, 1945.39, -583.43)" gradientUnits="userSpaceOnUse"><stop offset="0" stop-color="#fff"/><stop offset="1" stop-color="#fff" stop-opacity="0"/></radialGradient><radialGradient id="Degradado_sin_nombre_127" cx="219.28" cy="733.49" r="63.15" gradientTransform="matrix(0.46, 0, 0, -0.73, 1892.7, 572.59)" xlink:href="#Degradado_sin_nombre_126"/><radialGradient id="Degradado_sin_nombre_128" cx="460.9" cy="966.94" r="26.74" gradientTransform="matrix(1.72, 0, 0, -3.04, 1151.13, 3049.22)" xlink:href="#Degradado_sin_nombre_126"/><linearGradient id="Degradado_sin_nombre_129" x1="308.36" y1="1226.17" x2="308.36" y2="1247.86" gradientTransform="matrix(0.33, 0, 0, -0.35, 1790.02, 617.98)" xlink:href="#Degradado_sin_nombre_124"/><radialGradient id="Degradado_sin_nombre_130" cx="192.28" cy="1160.5" r="25.37" gradientTransform="matrix(1.7, 1.15, 4.4, -6.48, -3532.19, 7461.95)" xlink:href="#Degradado_sin_nombre_126"/><linearGradient id="Degradado_sin_nombre_131" x1="1012.91" y1="1079.5" x2="1012.91" y2="1136.44" gradientTransform="matrix(2.05, 0, 0, -2.05, -134.26, 2380.86)" xlink:href="#Degradado_sin_nombre_124"/><linearGradient id="Degradado_sin_nombre_132" x1="1037.01" y1="1141.31" x2="1037.01" y2="1152.37" gradientTransform="matrix(2.05, 0, 0, -2.05, -134.26, 2380.86)" xlink:href="#Degradado_sin_nombre_124"/><linearGradient id="Degradado_sin_nombre_133" x1="409.47" y1="1077.36" x2="409.47" y2="1099.05" gradientTransform="matrix(0.68, 0, 0, -0.72, 1621.94, 828.08)" xlink:href="#Degradado_sin_nombre_124"/></defs><g class="cls-1"><path class="cls-2" d="M1877,11h129.28a7.24,7.24,0,0,1,7.24,7.25V207a7.25,7.25,0,0,1-7.24,7.25H1877a7.26,7.26,0,0,1-7.25-7.25h0V18.27A7.25,7.25,0,0,1,1877,11" transform="translate(-1869.71 -9.76)"/></g><path class="cls-3" d="M1878,10h127.86a8,8,0,0,1,8,8V205.31a8,8,0,0,1-8,7.95H1878a8,8,0,0,1-8-7.95V17.94a8,8,0,0,1,8-8" transform="translate(-1869.71 -9.76)"/><path class="cls-4" d="M1879.73,17.09H2004a2.65,2.65,0,0,1,2.65,2.65V203.51a2.66,2.66,0,0,1-2.65,2.66h-124.3a2.66,2.66,0,0,1-2.65-2.66V19.74a2.65,2.65,0,0,1,2.65-2.65" transform="translate(-1869.71 -9.76)"/><path class="cls-5" d="M1929.48,206.16h-50.4a2,2,0,0,1-2-2V158.41a2,2,0,0,1,2-2h50.4a2,2,0,0,1,2,2v45.75a2,2,0,0,1-2,2" transform="translate(-1869.71 -9.76)"/><path class="cls-6" d="M1950.25,17.09h54.3a2.12,2.12,0,0,1,2.13,2.12h0v88.53a2.13,2.13,0,0,1-2.13,2.13h-54.3a2.13,2.13,0,0,1-2.13-2.13h0V19.21a2.12,2.12,0,0,1,2.13-2.12h0" transform="translate(-1869.71 -9.76)"/><path class="cls-7" d="M1907.75,197.91h91.65V47.07m-23.72-21.74h-91.31v150" transform="translate(-1869.71 -9.76)"/><path class="cls-8" d="M1987.73,111.63c0,44.86-20.54,81.23-45.87,81.23S1896,156.49,1896,111.63s20.53-81.23,45.87-81.23,45.87,36.36,45.87,81.23Z" transform="translate(-1869.71 -9.76)"/><path class="cls-9" d="M1885.35,186.69c-.74-1.86-.22-4.22,1.29-5s3.38.06,4.18,1.91a5,5,0,0,1,.4,1.68,5.3,5.3,0,0,1,.4-1.68c.8-1.85,2.67-2.7,4.18-1.91s1.93,3.12,1.29,5c-1.1,3.27-4.4,5.18-5.87,9-1.21-3.77-4.58-5.73-5.87-9Z" transform="translate(-1869.71 -9.76)"/><path class="cls-10" d="M1903.21,191.27c1.08-1.85-3.22-8.39-3.77-10.86a4.38,4.38,0,0,1-.12-.63,9.45,9.45,0,0,1-.09-1.07,10.43,10.43,0,0,1,.26-1.85.69.69,0,0,0,.63-.68.67.67,0,0,0-.29-.57c.14-.47.29-.94.43-1.4a19.65,19.65,0,0,1,1.23-3,39.13,39.13,0,0,1,2.24-3.59c.24-.38.5-.75.76-1.1h.22a1.21,1.21,0,0,0,1.13-1.74l.93-1.1a59.59,59.59,0,0,1,4.37-4.19c1.66-1.52,3.42-2.92,5.19-4.3,2.11-1.64,4.35-3.09,6.58-4.55s4.26-2.69,6.42-4a1,1,0,0,0,.3,0,1.22,1.22,0,0,0,1.23-1.23,1.23,1.23,0,0,0-1.23-1.24,1.24,1.24,0,0,0-.34,2.43l-.61.35c-2.63,1.57-5.24,3.16-7.81,4.82-2.24,1.47-4.49,2.92-6.61,4.57-1.77,1.38-3.53,2.79-5.19,4.31-1.27,1.15-2.55,2.29-3.74,3.53a1.18,1.18,0,0,0-.62-.18,1.25,1.25,0,0,0-1.24,1.25,1.28,1.28,0,0,0,.24.74,29.57,29.57,0,0,0-2.08,2.78,38.13,38.13,0,0,0-2.24,3.61l-.29.62c.06-1.25.22-2.5.38-3.74a32.5,32.5,0,0,1,1.07-5.17,31.4,31.4,0,0,1,1.7-4.51,26.38,26.38,0,0,0,1.78-3.33c.11-.24.2-.51.29-.77l.07-.19c.89-1.6,1.81-3.18,2.74-4.76l.17-.29,1.06-1.44c1-1.3,2.09-2.57,3.16-3.82,1.38-1.61,2.87-3.11,4.35-4.62,1.66-1.72,3.43-3.33,5.2-4.93q2.88-2.53,5.74-5.1c2-1.82,4.07-3.61,6.11-5.41,2.3-2,4.53-4.07,6.74-6.17,1.17-1.11,2.33-2.24,3.48-3.37-.24.29,1.11-.74,3.45-2.73s4.56-3.82,6.94-5.62a34.46,34.46,0,0,1,4.65-3.19l1-.45a1.17,1.17,0,0,0-.08.37,1.25,1.25,0,0,0,1.25,1.24,1.23,1.23,0,0,0,.93-2c4.58-.34,5.52-1,.56-.68a3.63,3.63,0,0,0-1.17.27,1.12,1.12,0,0,0-.32,0,1.23,1.23,0,0,0-1.1.68,44.44,44.44,0,0,0-7,4.53c-2.36,1.79-4.65,3.69-6.91,5.62-.93.79-1.55,1.36-1.91,1.69,1.18-1.17,2.36-2.34,3.52-3.53,2.56-2.58,5-5.29,7.33-8.06,1.46-1.74,2.86-3.53,4.23-5.35a1.24,1.24,0,0,0,2.19-.79,1.22,1.22,0,0,0-.74-1.13c.62-.83,1.22-1.67,1.83-2.51a111.88,111.88,0,0,0,7.08-11.17,74.53,74.53,0,0,0,5.71-12.78,114.27,114.27,0,0,0,2.31-11.88c.76-4.78-.43-4.09-1.19.69a111,111,0,0,1-2.31,11.87,74.57,74.57,0,0,1-5.72,12.78c-.17.31-.36.61-.54.91a.68.68,0,0,0-.66-.55.69.69,0,0,0-.68.7.68.68,0,0,0,.68.68.85.85,0,0,0,.23,0,112.61,112.61,0,0,1-6.11,9.49l-1.25,1.72a1.23,1.23,0,0,0-1.12,1.22,2,2,0,0,0,0,.24c-1.67,2.24-3.38,4.45-5.17,6.6-2.35,2.76-4.77,5.47-7.33,8.05-2.41,2.46-4.85,4.89-7.35,7.26-2.21,2.1-4.44,4.18-6.75,6.17-2,1.8-4.09,3.59-6.11,5.41l-5.76,5.1c-1.64,1.49-3.29,3-4.85,4.58a.68.68,0,0,0-.32-.42c.61-.63,1.23-1.24,1.86-1.86,2-1.93,4.17-3.81,6.23-5.74,2.42-2.27,4.79-4.61,7.12-7a80.81,80.81,0,0,0,7.41-8.59,97.56,97.56,0,0,0,6.74-11.07,73.22,73.22,0,0,0,5.43-12.53,85.1,85.1,0,0,0,2.8-14.32A117.93,117.93,0,0,0,1952.4,67a1.27,1.27,0,0,0,.42-.93,1.22,1.22,0,0,0-.5-1c0-.51,0-1,0-1.52l-.09-2.57c-.17-4.8-1.35-4.12-1.17.68,0,.86,0,1.71.09,2.57,0,.22,0,.44,0,.66a1.24,1.24,0,0,0-.8,1.16,1.2,1.2,0,0,0,.87,1.16c.06,2.13.11,4.25.1,6.38a1.12,1.12,0,0,0-.48-.1,1.23,1.23,0,0,0-1.24,1.23,1.25,1.25,0,0,0,1.24,1.24,1.27,1.27,0,0,0,.44-.08c0,1.37-.1,2.74-.21,4.11-.38,3.1-.86,6.19-1.52,9.24,0-1.45,0-2.92,0-4.37-.11-3.46-.32-6.9-.77-10.33a55.09,55.09,0,0,0-1.39-7,24,24,0,0,0-1.16-3.41,3.68,3.68,0,0,0-.55-.91c-3.91-3.5-5.22-2.71-1.28.75a3.4,3.4,0,0,1,.55.89,24,24,0,0,1,1.18,3.4,56.85,56.85,0,0,1,1.42,7,101.92,101.92,0,0,1,.79,10.33c.06,1.92,0,3.84,0,5.77a15.48,15.48,0,0,0,.09,2.49l-.15.48c-.79,2.36-1.68,4.67-2.68,7a1.23,1.23,0,0,0-2.3.61,1.25,1.25,0,0,0,1.23,1.25l.25,0c-.61,1.27-1.24,2.52-1.93,3.75a97.77,97.77,0,0,1-6.75,11.08,82,82,0,0,1-7.42,8.6c-2.34,2.36-4.7,4.71-7.13,7-2.06,1.93-4.19,3.81-6.25,5.74l-1,1.06a.68.68,0,0,0-.57.58A37.33,37.33,0,0,0,1910,145a70.22,70.22,0,0,0-3.91,5.91c-.45.61-.87,1.23-1.26,1.88s-.85,1.35-1.19,2.06a14.55,14.55,0,0,0-.65,1.45.08.08,0,0,0,0,0c-.34.63-.68,1.25-1,1.89-.41.86-.81,1.72-1.19,2.59l.09-.43c.25-1.21.65-2.39,1-3.57.49-1.4,1.07-2.76,1.66-4.13.71-1.66,1.46-3.32,2.18-5,1-2.24,2.12-4.43,3.22-6.62,1.41-2.68,2.65-5.44,3.84-8.22,1.43-3.39,2.82-6.79,4.23-10.18s2.9-7,4.23-10.57a.68.68,0,0,0,.52-.66.63.63,0,0,0-.13-.41c1.35-3.72,2.54-7.5,3.7-11.29,1.33-4.4,2.48-8.85,3.37-13.36a86.78,86.78,0,0,0,1.06-15.86c-.16-5.4-.79-10.77-1.45-16.13-.4-3.22-.89-6.44-1.39-9.65a11,11,0,0,0-.72-2.85,1.23,1.23,0,0,0,.39.07,1.24,1.24,0,1,0,0-2.48,1.23,1.23,0,0,0-1.23,1.23,1.24,1.24,0,0,0,.33.86c-.24.34-.3,1.66,0,3.85.23,1.42.45,2.85.66,4.28a.7.7,0,0,0-.48-.18.69.69,0,0,0,0,1.37.7.7,0,0,0,.61-.37c.22,1.52.43,3,.62,4.55l.14,1.16a1.19,1.19,0,0,0-.56-.14,1.25,1.25,0,0,0-1.25,1.24,1.24,1.24,0,0,0,1.25,1.23,1.2,1.2,0,0,0,.8-.3c.51,4.3,1,8.61,1.08,12.94a86.91,86.91,0,0,1-1.08,15.87c-.9,4.51-2,9-3.38,13.37-1.07,3.49-2.18,7-3.4,10.4a.68.68,0,0,0-.34.6.64.64,0,0,0,0,.24l-.27.71q-2.07,5.53-4.37,11-2.11,5.1-4.25,10.19c-1.19,2.78-2.44,5.54-3.85,8.23-1.11,2.19-2.23,4.37-3.23,6.62-.73,1.66-1.47,3.33-2.19,5-.58,1.37-1.18,2.72-1.67,4.13a36.2,36.2,0,0,0-1,3.56c-.22,1-.45,2-.63,3.06-.09.44-.17.89-.27,1.33-.53,2.18-.58,3.29-.38,3.45-.06.37-.11.74-.14,1.12a35.51,35.51,0,0,0-.42,4.37c0,.68,0,1.36,0,2-.16.5-.31,1-.42,1.52l-.12.61h-6.09c4.09,1.18,7.29.84,12,12.66Zm1.2-9.57a.69.69,0,1,0-.68-.68A.69.69,0,0,0,1904.41,181.7Zm-9.49-3.47a1.25,1.25,0,1,0-1.24-1.24A1.25,1.25,0,0,0,1894.92,178.23Zm6.69-1.49a1.24,1.24,0,1,0,0-2.48,1.24,1.24,0,0,0,0,2.48Zm-8.74-3.48a.68.68,0,0,0,0-1.36.68.68,0,1,0,0,1.36Zm3.1-1.11a.68.68,0,1,0-.68-.68A.68.68,0,0,0,1896,172.15Zm11.71-1.48a1.24,1.24,0,1,0,0-2.48,1.24,1.24,0,0,0,0,2.48Zm2.91-2.11a.69.69,0,1,0-.68-.69A.68.68,0,0,0,1910.59,168.56Zm-17-1.37a1.23,1.23,0,0,0,1.25-1.23,1.25,1.25,0,0,0-2.49,0A1.23,1.23,0,0,0,1893.55,167.19Zm2.86-3.59a1.24,1.24,0,1,0-1.25-1.25A1.24,1.24,0,0,0,1896.41,163.6Zm16-.49a.69.69,0,0,0,0-1.37.69.69,0,0,0,0,1.37Zm9-1.12a1.24,1.24,0,1,0-1.25-1.24A1.25,1.25,0,0,0,1921.45,162Zm-13.26-1.49a1.24,1.24,0,0,0,0-2.48,1.24,1.24,0,1,0,0,2.48Zm4.85-.31c.06,0,1.46-.94,3.74-2.62,1-.71,1.92-1.47,3-2.1a42.18,42.18,0,0,1,4.52-2.4l1-.42a1.19,1.19,0,0,0-.29.78,1.24,1.24,0,1,0,1.31-1.22c1.08-.47,2.17-1,3.27-1.38s2.48-1,3.73-1.47l1.59-.6c4.89-1.86,6.16-2.61,1.27-.74l-1.6.61c-1.26.48-2.48,1-3.73,1.48-1.78.68-3.52,1.47-5.26,2.25a69.92,69.92,0,0,0-7,3.82c-1,.63-2,1.39-3,2.1-1.77,1.31-2.53,1.9-2.49,1.91Zm-17.25-1.3a1.24,1.24,0,1,0-1.25-1.25A1.25,1.25,0,0,0,1895.79,158.89Zm27.08-1.36a.68.68,0,1,0,0-1.36.68.68,0,0,0,0,1.36Zm-22.49-1.74a1.24,1.24,0,1,0-1.25-1.25A1.24,1.24,0,0,0,1900.38,155.79Zm6.69-.38a1.22,1.22,0,0,0,1.23-1.23,1.23,1.23,0,0,0-1.23-1.24,1.25,1.25,0,0,0-1.24,1.24A1.23,1.23,0,0,0,1907.07,155.41Zm-16.8-1a.68.68,0,1,0-.69-.68A.69.69,0,0,0,1890.27,154.43Zm43.26-2.36a.69.69,0,1,0-.68-.69A.68.68,0,0,0,1933.53,152.07Zm-14.81-.12a1.24,1.24,0,1,0-1.24-1.25A1.25,1.25,0,0,0,1918.72,152Zm21.88-1.12a.68.68,0,1,0,0-1.36h-.06a1.2,1.2,0,0,0,.37-.87,1.24,1.24,0,1,0-1.24,1.23,1.29,1.29,0,0,0,.35,0,.72.72,0,0,0-.1.36.68.68,0,0,0,.68.68Zm4.28-2.85a1.24,1.24,0,1,0-1.25-1.25A1.25,1.25,0,0,0,1944.88,148Zm-42.27,0a1.24,1.24,0,1,0-1.25-1.25A1.26,1.26,0,0,0,1902.61,148Zm9.78-.13a1.24,1.24,0,0,0,1.25-1.23,1.26,1.26,0,0,0-1.25-1.25,1.24,1.24,0,0,0,0,2.48Zm35.64-.12a.68.68,0,1,0-.68-.68A.68.68,0,0,0,1948,147.73Zm-26.64-.87a.68.68,0,1,0-.68-.68A.68.68,0,0,0,1921.39,146.86Zm-11.35-.81c.41-.58.82-1.17,1.24-1.75a30.52,30.52,0,0,1,2.46-3,.65.65,0,0,0,.42.3c-1.33,1.36-2.66,2.72-3.9,4.16a2.75,2.75,0,0,1-.22.26Zm23.58-1.87,4-2.26c1-.55,2-1.11,3.06-1.68a1,1,0,0,0,.35,0,1.22,1.22,0,0,0,1.18-.92q2.15-1.2,4.26-2.43l-4.24,2.39a1.27,1.27,0,0,0,0-.28,1.24,1.24,0,1,0-2.48,0,1.26,1.26,0,0,0,.84,1.18l-1,.53q-3,1.69-6,3.42Zm15.91-.17a.68.68,0,1,0-.68-.68A.68.68,0,0,0,1949.53,144Zm-47.43-1.85a1.26,1.26,0,0,0,1.25-1.25,1.22,1.22,0,0,0-.07-.38l.13,0a.69.69,0,0,0,.68-.68.7.7,0,0,0-.68-.7.68.68,0,0,0-.68.67,1.25,1.25,0,0,0-1.86,1.07,1.25,1.25,0,0,0,1.23,1.25Zm-4-.13a.69.69,0,1,0-.69-.69A.69.69,0,0,0,1898.08,142Zm8.62-4.71a1.24,1.24,0,0,0,0-2.48,1.24,1.24,0,1,0,0,2.48Zm52.38-.25a.68.68,0,1,0-.69-.68A.68.68,0,0,0,1959.08,137.07Zm-12.1-.42,1.85-1.07a86.4,86.4,0,0,0,8.91-6c1.45-1.11,2.85-2.26,4.2-3.47a1.25,1.25,0,0,0,1.16.81,1.24,1.24,0,0,0,.53-2.36c1-.92,1.93-1.86,2.88-2.81.69-.7,1.35-1.43,2-2.16l.1-.09c2-1.8,4-3.58,5.94-5.43l.09-.11a1.22,1.22,0,0,0,1.23,1.06,1.23,1.23,0,0,0,.14-2.46,25.66,25.66,0,0,0,3.09-3.8c1.17-1.72,2.33-3.45,3.45-5.2s2.22-3.5,3.29-5.27c.62-1,1.24-2.06,1.84-3.1a1,1,0,0,0,0,.24,1.24,1.24,0,0,0,1.23,1.25,1.24,1.24,0,1,0,0-2.48,1.19,1.19,0,0,0-.85.35l.49-.91a24.73,24.73,0,0,0,1.27-3,12.17,12.17,0,0,1,.44-1.14c.29-.56.52-1,.71-1.45a1.23,1.23,0,0,0,1-1.22,1.24,1.24,0,0,0-.75-1.14.68.68,0,1,0-.86-.65.69.69,0,0,0,.31.56,1.24,1.24,0,0,0-.48,2.35c-.37.61-.78,1.35-1.25,2.29a12.09,12.09,0,0,0-.43,1.14,23.72,23.72,0,0,1-1.26,2.93c-.82,1.59-1.75,3.12-2.67,4.65-1.07,1.78-2.18,3.53-3.29,5.28s-2.28,3.48-3.45,5.2a24.37,24.37,0,0,1-2.53,3.2,1.22,1.22,0,0,0-.61.67l-1.39,1.42c-1.12,1.06-2.25,2.09-3.39,3.13,1.59-2,3.06-4,4.49-6.07a51.37,51.37,0,0,0,6-11.8c.08-.21.14-.43.21-.64a1.24,1.24,0,1,0,1.21-1.49,1.26,1.26,0,0,0-.84.33A56.12,56.12,0,0,0,1983,86a55.84,55.84,0,0,0-.49-12.72c-1-7.89-3-6.78-2,1.12a56.57,56.57,0,0,1,.48,12.74,52.93,52.93,0,0,1-2.62,14,50.81,50.81,0,0,1-6,11.8,75.16,75.16,0,0,1-7,9q-2.21,1.95-4.44,3.89c-1.07,1-2.21,1.81-3.33,2.71-3.91,3.12-2.68,2.41,1.23-.71,1-.81,2.05-1.61,3-2.45a.17.17,0,0,0,0,.07c-2,1.86-4,3.64-6.16,5.29a90.61,90.61,0,0,1-8.75,5.91Zm-6.87-.32a.68.68,0,1,0-.68-.68A.67.67,0,0,0,1940.11,136.33Zm12.4-.51a.7.7,0,0,0,.55-.68.68.68,0,1,0-.68.68Zm-27.47-.36a1.24,1.24,0,1,0,0-2.48,1.24,1.24,0,0,0,0,2.48Zm3.78-.38a.68.68,0,1,0,0-1.36.68.68,0,0,0,0,1.36Zm18-3.1a.68.68,0,0,0,0-1.36.68.68,0,0,0,0,1.36Zm6.13-.36a1.25,1.25,0,1,0-1.23-1.24A1.25,1.25,0,0,0,1952.93,131.62Zm-43.76-.51a1.23,1.23,0,0,0,1.25-1.23,1.25,1.25,0,0,0-2.49,0A1.23,1.23,0,0,0,1909.17,131.11Zm58.7-1.23a.68.68,0,1,0-.68-.68A.67.67,0,0,0,1967.87,129.88Zm-43.7-.24a1.26,1.26,0,0,0,1.25-1.25,1.25,1.25,0,0,0-1.25-1.23,1.23,1.23,0,0,0-1.23,1.23A1.25,1.25,0,0,0,1924.17,129.64Zm-18.53-2.12a.68.68,0,1,0-.68-.68A.67.67,0,0,0,1905.64,127.52Zm50-.11a1.25,1.25,0,0,0,1.24-1.25,1.24,1.24,0,0,0-2.48,0A1.25,1.25,0,0,0,1955.66,127.41Zm-44.5-1.25a1.24,1.24,0,0,0,.69-2.26.66.66,0,0,0,.05-.28.68.68,0,1,0-1.36,0,.54.54,0,0,0,0,.22,1.23,1.23,0,0,0,.58,2.32Zm26.78-1.12a1.22,1.22,0,0,0,1.23-1.23,1.24,1.24,0,1,0-1.23,1.23Zm-22.84-.45c.29,0,.85-1.42,1.33-4s1-5.2,1.25-7.82a72.31,72.31,0,0,0,.43-9.76,61.23,61.23,0,0,0-.69-7.27c-.26-1.62-.5-3.25-.91-4.84a16.39,16.39,0,0,0-.58-1.84c-2.15-4.78-3.5-4-1.28.74a13,13,0,0,1,.58,1.83c.42,1.58.68,3.22.94,4.83a61.1,61.1,0,0,1,.71,7.26,73.67,73.67,0,0,1-.4,9.74c-.29,2.63-.76,5.23-1.25,7.82-.42,2.26-.38,3.31-.13,3.29Zm26.49,0a.68.68,0,1,0-.68-.68A.68.68,0,0,0,1941.59,124.55Zm-20.33-.49a.68.68,0,1,0,0-1.36.68.68,0,0,0,0,1.36Zm8.13-2.23a1.25,1.25,0,0,0,1.23-1.25,1.24,1.24,0,0,0-2.48,0A1.26,1.26,0,0,0,1929.39,121.83Zm34.58-1a1.24,1.24,0,0,0,0-2.48,1.24,1.24,0,1,0,0,2.48Zm13.94-2.86a.68.68,0,1,0,0-1.36.68.68,0,0,0,0,1.36Zm-23.62-5.82a1.24,1.24,0,1,0-1.23-1.23A1.24,1.24,0,0,0,1954.29,112.15Zm13.2-2a.68.68,0,1,0-.68-.68A.68.68,0,0,0,1967.49,110.16Zm-60.3-.85a1.25,1.25,0,0,0,0-2.49,1.25,1.25,0,0,0,0,2.49Zm31.37-.51a1.24,1.24,0,0,0,0-2.48,1.24,1.24,0,1,0,0,2.48Zm47.78-1.48a.68.68,0,1,0-.68-.68A.68.68,0,0,0,1986.34,107.32Zm-1.55-1a1.23,1.23,0,0,0,1.25-1.23,1.25,1.25,0,0,0-2.49,0A1.23,1.23,0,0,0,1984.79,106.32Zm-38.55-.36a1.25,1.25,0,0,0,0-2.49,1.25,1.25,0,0,0,0,2.49Zm-20.46-1.38a1.23,1.23,0,0,0,1.24-1.23,1.25,1.25,0,0,0-1.24-1.24,1.23,1.23,0,0,0-1.23,1.24A1.22,1.22,0,0,0,1925.78,104.58Zm-13-5.31a.7.7,0,0,0,.68-.7.69.69,0,0,0-1.37,0A.7.7,0,0,0,1912.83,99.27ZM1920,99a1.24,1.24,0,1,0-1.23-1.24A1.24,1.24,0,0,0,1920,99Zm54.67-.37a1.25,1.25,0,0,0,1.25-1.24,1.24,1.24,0,1,0-1.25,1.24Zm-47-1.24a.68.68,0,1,0,0-1.36.68.68,0,1,0,0,1.36Zm17.17-5.2A1.25,1.25,0,0,0,1946,91a1.23,1.23,0,0,0-1.23-1.23,1.25,1.25,0,0,0-1.25,1.23A1.26,1.26,0,0,0,1944.76,92.2Zm14.62-.13a1.24,1.24,0,1,0-1.23-1.24A1.23,1.23,0,0,0,1959.38,92.07Zm25.79-1.37a1.22,1.22,0,0,0,1.23-1.23,1.23,1.23,0,0,0-1.23-1.24,1.25,1.25,0,0,0-1.25,1.24A1.24,1.24,0,0,0,1985.17,90.7Zm-62-1a1.24,1.24,0,1,0-1.25-1.25A1.24,1.24,0,0,0,1923.19,89.72Zm31.48-.13a1.24,1.24,0,1,0-1.25-1.23A1.25,1.25,0,0,0,1954.67,89.59Zm-24.85-2.73a.68.68,0,1,0,0-1.36.68.68,0,1,0,0,1.36Zm-17.86-2a.68.68,0,1,0,0-1.36.68.68,0,1,0,0,1.36Zm45-.25a.68.68,0,1,0-.68-.68A.67.67,0,0,0,1957,84.63Zm19.89-1.11a1.24,1.24,0,1,0,0-2.48,1.24,1.24,0,0,0,0,2.48ZM1944,83a.68.68,0,1,0-.68-.68A.68.68,0,0,0,1944,83Zm48.71-1.11a.68.68,0,1,0-.68-.68A.68.68,0,0,0,1992.66,81.91Zm-47.16-.25a1.25,1.25,0,0,0,0-2.49,1.25,1.25,0,1,0,0,2.49Zm19.83-.37a1.25,1.25,0,0,0,1.24-1.25,1.24,1.24,0,0,0-2.48,0A1.25,1.25,0,0,0,1965.33,81.29Zm8.5-1.74a.69.69,0,1,0-.69-.68A.69.69,0,0,0,1973.83,79.55Zm18.53-.38a1.24,1.24,0,0,0,0-2.48,1.24,1.24,0,1,0,0,2.48Zm-65.62,0a.76.76,0,1,0-.15,0Zm57-2a.69.69,0,0,0,.68-.68.68.68,0,1,0-1.36,0A.68.68,0,0,0,1983.74,77.2ZM1934.1,76a1.24,1.24,0,0,0,1.23-1.24,1.24,1.24,0,0,0-2.48,0A1.25,1.25,0,0,0,1934.1,76Zm42-1a.69.69,0,0,0,.68-.68.68.68,0,1,0-1.36,0A.68.68,0,0,0,1976.06,75Zm-20.4-1.74A1.25,1.25,0,0,0,1956.9,72s0,0,0-.07a.66.66,0,0,0,.32.07.68.68,0,1,0-.66-.85,1.24,1.24,0,1,0-.89,2.1ZM1969,71.74a.69.69,0,1,0-.68-.68A.69.69,0,0,0,1969,71.74Zm21.08-.25a.68.68,0,1,0-.68-.68A.68.68,0,0,0,1990.07,71.49Zm-5.28-.13a1.24,1.24,0,1,0-1.24-1.23A1.24,1.24,0,0,0,1984.79,71.36ZM1933,71a1.24,1.24,0,1,0-1.25-1.25A1.26,1.26,0,0,0,1933,71Zm10.53-1.36a1.26,1.26,0,0,0,1.25-1.25,1.24,1.24,0,0,0-2.41-.42.68.68,0,0,0-.2.48.66.66,0,0,0,.31.56,1.22,1.22,0,0,0,1,.63Zm27.77-1.12a1.24,1.24,0,1,0,0-2.48,1.24,1.24,0,1,0,0,2.48Zm-45.75-1.25a1.23,1.23,0,0,0,1.25-1.23,1.24,1.24,0,1,0-2.48,0A1.22,1.22,0,0,0,1925.53,67.27Zm20.9-3.84a.68.68,0,1,0-.68-.68A.68.68,0,0,0,1946.43,63.43Zm41.77-.24a.68.68,0,1,0-.68-.68A.68.68,0,0,0,1988.2,63.19Zm-56.65-.13a.68.68,0,1,0-.69-.68A.69.69,0,0,0,1931.55,63.06Zm48-2.86a.68.68,0,1,0-.68-.68A.67.67,0,0,0,1979.52,60.2Zm2.67-1a1.24,1.24,0,1,0,0-2.48,1.24,1.24,0,1,0,0,2.48Zm-44.56-1.49a.69.69,0,1,0-.69-.69A.69.69,0,0,0,1937.63,57.73Zm5.64-.5A1.22,1.22,0,0,0,1944.5,56a1.24,1.24,0,1,0-1.23,1.23Zm-10.67-2a1.24,1.24,0,1,0-1.24-1.23A1.24,1.24,0,0,0,1932.6,55.25Zm35.76-.36a.69.69,0,0,0,.68-.7.68.68,0,0,0-1.36,0A.7.7,0,0,0,1968.36,54.89Zm-16-.13a1.25,1.25,0,0,0,1.24-1.25,1.23,1.23,0,0,0-1.24-1.23,1.22,1.22,0,0,0-1.23,1.23A1.24,1.24,0,0,0,1952.31,54.76Zm21.39-1.25a.68.68,0,1,0-.69-.68A.69.69,0,0,0,1973.7,53.51Zm-23.93-2.84a.68.68,0,1,0-.68-.68A.68.68,0,0,0,1949.77,50.67Zm-26.58-.38a1.24,1.24,0,1,0-1.25-1.24A1.24,1.24,0,0,0,1923.19,50.29Zm46.67-3a.68.68,0,1,0-.69-.68A.68.68,0,0,0,1969.86,47.32Zm4.4-.87a1.24,1.24,0,0,0,1.23-1.24,1.22,1.22,0,0,0-1.23-1.23,1.24,1.24,0,0,0-1.25,1.23A1.25,1.25,0,0,0,1974.26,46.45Zm-52.76-1.87a.68.68,0,1,0-.68-.68A.68.68,0,0,0,1921.5,44.58ZM1974.32,42a.68.68,0,1,0-.68-.68A.68.68,0,0,0,1974.32,42Zm-34.1-1.87a.68.68,0,1,0-.68-.68A.68.68,0,0,0,1940.22,40.12Zm-17.47-3.35a.68.68,0,1,0-.68-.68A.67.67,0,0,0,1922.75,36.77Zm3.46-2.47a.69.69,0,0,0,0-1.37.69.69,0,0,0,0,1.37Z" transform="translate(-1869.71 -9.76)"/><path class="cls-11" d="M1925.47,44.36c-3,0-5.44.87-6.11,3.13-1.91,6.44,3.3,9.34,8.83,12.51h-.8a1.58,1.58,0,0,0-1.58,1.59v3.08a1.58,1.58,0,0,0,1.51,1.58,18.72,18.72,0,0,0-4.57,4.83c-5.87,9.06-7.1,17.37-3.92,25.69s5.63,16.64,5.88,17.86a2.78,2.78,0,0,1-2.45,3.43c-2.2.24-2.2,2.69-2.69,3.91s-2.69,2.69-2.45,3.91-2.2,1-4.4,2-4.9,4.41-6.12,6.36-2.2,4.65,8.08,7.1,27.4,34.49,31.8,37.43,15.9-.25,14.19-5.38-6.87-17.4-7.48-18.61.26-3,2.25-8.12,1.12-4.85,1-5.63,1-1.56,1-2-1.73-2.16-2.25-2.85-2.68-3-3.11-3.55.43-1.21,1-1.56a13.91,13.91,0,0,0,2.68-3.63c.69-1.38,1.55-1.73,3.46-2.42a44.73,44.73,0,0,1,7.18-2c1.9-.26,4.15-.69,5.1-2.94s-.6-5.1-1-5.71-.18-.69-.18-1a2.15,2.15,0,0,1,.78-1.21c.35-.26.44-.86.26-1.64a1.76,1.76,0,0,0-.95-1.12,2.53,2.53,0,0,0,1-1.65c.35-1.3-.08-2,.17-2.68s1.73-.34,2.51-.43a5.67,5.67,0,0,0,2.6-1.21,2.27,2.27,0,0,0,.51-2.08,27.11,27.11,0,0,0-1.72-4.06,29.48,29.48,0,0,0-3-5.19c-1.3-1.64-.69-2-.69-3.55a13.63,13.63,0,0,0-1.39-5.36,17.83,17.83,0,0,1-1.3-4.33,23.08,23.08,0,0,0-2.16-5.36c.58.34,1.07-.4,1.31-2.11.21-1.43-1.63-3.36-5.07-5.1a1.57,1.57,0,0,0,1.33-1.56V61.59a1.59,1.59,0,0,0-1.59-1.59h-.43c5.52-3.17,10.74-6.07,8.83-12.51-.71-2.37-3.31-3.19-6.58-3.13a28.61,28.61,0,0,0-4.92.59,8.7,8.7,0,0,0-3.27-.59,13.38,13.38,0,0,0-5.36,1.69c-.44-1.27-1.28-1.73-1.8-1.69-.87.08-2,1.55-2.75,3a2,2,0,0,0-2.6,0c-.83-1.54-2-3.07-2.85-3-.48,0-1.27.5-1.7,1.7a12.82,12.82,0,0,0-5.63-1.7,8.79,8.79,0,0,0-3,.6,27.4,27.4,0,0,0-5.43-.6Zm3.38,2a2.45,2.45,0,0,0-.47,1.08c-1,5.95,2.64,9.37,6.08,12.51h-4.91c-3.42-3.65-9.69-11.32-3.94-13.09a11.86,11.86,0,0,1,3.24-.5Zm7.49,0a8.74,8.74,0,0,1,2.9.71l0,.32c-.89-.35-1.85-.7-2.87-1Zm18,0c-1,.33-2,.68-2.88,1a1.84,1.84,0,0,0,0-.33,8.84,8.84,0,0,1,2.91-.7Zm7.51,0a12,12,0,0,1,3.21.5c5.76,1.77-.52,9.44-3.94,13.09h-4.9c3.44-3.14,7.1-6.56,6.08-12.51a2.67,2.67,0,0,0-.45-1.08Zm-5.09.51c3.1,1.69.06,9-2,13.08h-5.36a27.81,27.81,0,0,0,2.06-11.59,41.61,41.61,0,0,1,5.25-1.49Zm-22.84,0a42.59,42.59,0,0,1,5.25,1.49A27.81,27.81,0,0,0,1941.23,60h-5.36c-2-4.07-5-11.38-1.95-13.08Zm14.88,1.56.12.06c-.43.2-.81.4-1.15.59C1948.09,48.92,1948.43,48.7,1948.8,48.48Zm-6.4.32.49.32-.53-.28,0,0Zm7.11.34c1,1.66.12,7.22-.58,10.86h-7c-.46-3.53-1-8.83,0-10.58.89.35,1.59.63,2,.77a2,2,0,0,0,1.43.62,1.9,1.9,0,0,0,1.42-.62c.53-.17,1.5-.57,2.75-1Z" transform="translate(-1869.71 -9.76)"/><path class="cls-12" d="M1991.8,26.8l.62,0c.71.05,1,.24,1,.72s-.55,1.23-1.86,2.45l-4.21,3.82V28.94c0-1.74.27-2,2.19-2.14v-.45h-6.75v.45c1.85.14,2.14.45,2.14,2.14v10.3c0,2-.26,2.28-2.14,2.4v.45h6.7v-.45c-1.85-.12-2.14-.41-2.14-2.14V35.05l.62-.5,2.52,2.5c1.81,1.78,3.09,3.47,3.09,4,0,.33-.33.5-1,.52a6.46,6.46,0,0,0-.67,0v.45h7.25v-.45c-1.23,0-1.57-.26-3.73-2.57l-5.54-5.94,4.52-4.47c1.61-1.55,2-1.74,3.61-1.86v-.45h-6.23v.45" transform="translate(-1869.71 -9.76)"/><path class="cls-13" d="M1888.74,40.23c-1.54-3.86-.46-8.75,2.68-10.39s7,.13,8.67,3.95a11,11,0,0,1,.83,3.49,11,11,0,0,1,.84-3.49c1.66-3.82,5.54-5.6,8.67-3.95s4,6.46,2.68,10.39c-2.28,6.8-9.15,10.75-12.19,18.6-2.51-7.82-9.51-11.9-12.18-18.6Z" transform="translate(-1869.71 -9.76)"/></svg>