<svg id="Capa_1" data-name="Capa 1" xmlns="http://www.w3.org/2000/svg" xmlns:xlink="http://www.w3.org/1999/xlink" viewBox="0 0 144.28 204.53"><defs><style>.cls-1{filter:url(#h);}.cls-11,.cls-2,.cls-3,.cls-4{fill-rule:evenodd;}.cls-3{stroke:#000;fill:url(#Degradado_sin_nombre_24);}.cls-3,.cls-7{stroke-miterlimit:1.85;stroke-width:0.46px;}.cls-4{fill:url(#Degradado_sin_nombre_25);}.cls-5,.cls-6,.cls-8{isolation:isolate;}.cls-5{opacity:0.47;fill:url(#Degradado_sin_nombre_26);}.cls-6{opacity:0.4;fill:url(#Degradado_sin_nombre_27);}.cls-7{fill:none;}.cls-12,.cls-7{stroke:#fff;}.cls-8{opacity:0.45;fill:url(#Degradado_sin_nombre_28);}.cls-11,.cls-13,.cls-9{stroke:#c8c8c8;}.cls-13,.cls-9{stroke-linejoin:round;}.cls-9{stroke-width:0.35px;fill:url(#Degradado_sin_nombre_29);}.cls-10{fill:url(#Degradado_sin_nombre_30);}.cls-11,.cls-12{stroke-miterlimit:8.2;}.cls-11{stroke-width:0.82px;fill:url(#Degradado_sin_nombre_31);}.cls-12{fill:url(#Degradado_sin_nombre_32);}.cls-13{stroke-width:0.72px;fill:url(#Degradado_sin_nombre_33);}</style><filter id="h" name="h"><feGaussianBlur stdDeviation="3.76"/></filter><linearGradient id="Degradado_sin_nombre_24" x1="115.23" y1="785" x2="124.71" y2="1299.42" gradientTransform="matrix(0.46, 0, 0, -0.46, 1734.37, 855.86)" gradientUnits="userSpaceOnUse"><stop offset="0" stop-color="#f3f3f3"/><stop offset="1" stop-color="#8f8f8f"/></linearGradient><linearGradient id="Degradado_sin_nombre_25" x1="-261.92" y1="1152.18" x2="-129.66" y2="714.54" gradientTransform="matrix(0.49, 0, 0, -0.48, 1888.57, 1013.97)" gradientUnits="userSpaceOnUse"><stop offset="0" stop-color="#590000"/><stop offset="1" stop-color="#bf0303"/></linearGradient><radialGradient id="Degradado_sin_nombre_26" cx="124.5" cy="1837.59" r="58.67" gradientTransform="matrix(-0.46, 0, 0, 0.42, 1790.39, -153.42)" gradientUnits="userSpaceOnUse"><stop offset="0" stop-color="#fff"/><stop offset="1" stop-color="#fff" stop-opacity="0"/></radialGradient><radialGradient id="Degradado_sin_nombre_27" cx="219.28" cy="733.49" r="63.15" gradientTransform="matrix(0.46, 0, 0, -0.73, 1737.7, 1002.6)" xlink:href="#Degradado_sin_nombre_26"/><radialGradient id="Degradado_sin_nombre_28" cx="460.9" cy="966.94" r="26.74" gradientTransform="matrix(1.72, 0, 0, -3.04, 996.14, 3479.23)" xlink:href="#Degradado_sin_nombre_26"/><linearGradient id="Degradado_sin_nombre_29" x1="912.53" y1="955.53" x2="912.53" y2="958.87" gradientTransform="matrix(2.05, 0, 0, -2.05, -134.2, 2581.77)" xlink:href="#Degradado_sin_nombre_24"/><radialGradient id="Degradado_sin_nombre_30" cx="192.28" cy="1160.5" r="25.37" gradientTransform="matrix(1.7, 1.15, 4.4, -6.48, -3687.19, 7891.96)" xlink:href="#Degradado_sin_nombre_26"/><linearGradient id="Degradado_sin_nombre_31" x1="937.25" y1="975.46" x2="937.25" y2="1017.3" gradientTransform="matrix(2.05, 0, 0, -2.05, -134.2, 2581.77)" xlink:href="#Degradado_sin_nombre_24"/><linearGradient id="Degradado_sin_nombre_32" x1="960.82" y1="1030.01" x2="960.82" y2="1041.06" gradientTransform="matrix(2.05, 0, 0, -2.05, -134.2, 2581.77)" xlink:href="#Degradado_sin_nombre_24"/><linearGradient id="Degradado_sin_nombre_33" x1="917.64" y1="1025" x2="917.64" y2="1031.93" gradientTransform="matrix(2.05, 0, 0, -2.05, -134.2, 2581.77)" xlink:href="#Degradado_sin_nombre_24"/></defs><g class="cls-1"><path class="cls-2" d="M1722,441h129.28a7.24,7.24,0,0,1,7.24,7.25V637.05a7.25,7.25,0,0,1-7.24,7.25H1722a7.25,7.25,0,0,1-7.24-7.25h0V448.28A7.24,7.24,0,0,1,1722,441" transform="translate(-1714.72 -439.77)"/></g><path class="cls-3" d="M1723,440h127.86a8,8,0,0,1,8,7.95V635.32a8,8,0,0,1-8,7.95H1723a8,8,0,0,1-8-7.95V448a8,8,0,0,1,8-7.95" transform="translate(-1714.72 -439.77)"/><path class="cls-4" d="M1724.73,447.1H1849a2.65,2.65,0,0,1,2.65,2.65V633.52a2.66,2.66,0,0,1-2.65,2.66h-124.3a2.66,2.66,0,0,1-2.65-2.66V449.75a2.65,2.65,0,0,1,2.65-2.65" transform="translate(-1714.72 -439.77)"/><path class="cls-5" d="M1774.49,636.17h-50.41a2,2,0,0,1-2-2V588.42a2,2,0,0,1,2-2h50.41a2,2,0,0,1,2,2v45.75a2,2,0,0,1-2,2" transform="translate(-1714.72 -439.77)"/><path class="cls-6" d="M1795.25,447.1h54.31a2.12,2.12,0,0,1,2.12,2.12h0v88.53a2.12,2.12,0,0,1-2.12,2.13h-54.31a2.13,2.13,0,0,1-2.13-2.13h0V449.22a2.12,2.12,0,0,1,2.13-2.12h0" transform="translate(-1714.72 -439.77)"/><path class="cls-7" d="M1752.75,627.92h91.65V477.08m-23.72-21.74h-91.31v150" transform="translate(-1714.72 -439.77)"/><path class="cls-8" d="M1832.73,541.64c0,44.86-20.54,81.22-45.87,81.22S1741,586.5,1741,541.64s20.53-81.23,45.87-81.23,45.87,36.36,45.87,81.23Z" transform="translate(-1714.72 -439.77)"/><path class="cls-9" d="M1735.92,612.94a42,42,0,0,0,2.95,3.85,39.53,39.53,0,0,0,3.41,3.36,38.16,38.16,0,0,0-3.38,3.34,41.48,41.48,0,0,0-2.93,3.83,41.53,41.53,0,0,0-3-3.86,40,40,0,0,0-3.44-3.37,39.3,39.3,0,0,0,3.41-3.34,39.91,39.91,0,0,0,3-3.81Z" transform="translate(-1714.72 -439.77)"/><path class="cls-10" d="M1748.21,621.28c1.08-1.85-3.22-8.39-3.77-10.86a4.38,4.38,0,0,1-.12-.63,9.45,9.45,0,0,1-.09-1.07,10.43,10.43,0,0,1,.26-1.85.69.69,0,0,0,.63-.69.67.67,0,0,0-.29-.56c.14-.47.29-.94.43-1.41a20,20,0,0,1,1.23-3,40.69,40.69,0,0,1,2.24-3.6c.24-.37.5-.74.76-1.1a.86.86,0,0,0,.22,0,1.21,1.21,0,0,0,1.13-1.74l.93-1.1a59.59,59.59,0,0,1,4.37-4.19c1.66-1.52,3.42-2.92,5.19-4.3,2.11-1.64,4.35-3.09,6.58-4.55s4.26-2.69,6.42-4a1,1,0,0,0,.3,0,1.22,1.22,0,0,0,1.23-1.23,1.24,1.24,0,0,0-1.23-1.25,1.25,1.25,0,0,0-1.24,1.25,1.24,1.24,0,0,0,.89,1.19l-.6.35q-3.95,2.34-7.81,4.82c-2.24,1.46-4.5,2.92-6.61,4.57-1.78,1.38-3.53,2.79-5.19,4.31-1.27,1.15-2.55,2.29-3.74,3.52a1.28,1.28,0,0,0-.62-.17,1.26,1.26,0,0,0-1.25,1.25,1.29,1.29,0,0,0,.25.74,30.11,30.11,0,0,0-2.09,2.78,40.2,40.2,0,0,0-2.23,3.61l-.29.62c.06-1.25.22-2.5.38-3.74a32.5,32.5,0,0,1,1.07-5.17,31.4,31.4,0,0,1,1.7-4.51,26.38,26.38,0,0,0,1.78-3.33c.11-.25.2-.52.29-.77l.07-.19c.89-1.61,1.81-3.18,2.74-4.76l.17-.29,1.06-1.44c1-1.3,2.09-2.57,3.16-3.82,1.38-1.61,2.87-3.11,4.35-4.63,1.66-1.71,3.43-3.32,5.2-4.92,1.92-1.7,3.83-3.39,5.74-5.1s4.07-3.61,6.11-5.41c2.3-2,4.53-4.07,6.74-6.17q1.75-1.67,3.48-3.38c-.24.3,1.11-.73,3.44-2.72s4.57-3.82,7-5.62a32.65,32.65,0,0,1,4.65-3.19l1-.45a1.11,1.11,0,0,0-.08.36,1.24,1.24,0,1,0,2.48,0,1.23,1.23,0,0,0-.3-.79c4.58-.34,5.52-1,.56-.68a3.63,3.63,0,0,0-1.17.27,1.16,1.16,0,0,0-.32,0,1.23,1.23,0,0,0-1.1.68,45.11,45.11,0,0,0-7,4.52c-2.36,1.8-4.65,3.7-6.91,5.63-.93.79-1.56,1.36-1.91,1.69q1.77-1.75,3.52-3.53c2.56-2.58,5-5.29,7.33-8.06,1.46-1.74,2.86-3.54,4.23-5.35a1.24,1.24,0,0,0,2.19-.79,1.22,1.22,0,0,0-.74-1.13c.62-.84,1.22-1.67,1.83-2.51a111.88,111.88,0,0,0,7.08-11.17,74.53,74.53,0,0,0,5.71-12.78,114.27,114.27,0,0,0,2.31-11.88c.76-4.78-.43-4.09-1.19.69a111,111,0,0,1-2.31,11.87,74.57,74.57,0,0,1-5.72,12.78c-.17.31-.36.61-.54.91a.68.68,0,0,0-.66-.55.69.69,0,0,0-.68.7.68.68,0,0,0,.68.68.59.59,0,0,0,.23,0,109.47,109.47,0,0,1-6.11,9.49l-1.25,1.73a1.22,1.22,0,0,0-1.12,1.22,2,2,0,0,0,0,.24c-1.67,2.24-3.38,4.45-5.17,6.59-2.35,2.77-4.77,5.48-7.33,8.06-2.41,2.46-4.85,4.89-7.35,7.26-2.21,2.1-4.44,4.17-6.75,6.17-2,1.8-4.09,3.59-6.11,5.41l-5.76,5.1c-1.64,1.49-3.29,3-4.85,4.58a.68.68,0,0,0-.32-.42c.61-.63,1.23-1.24,1.86-1.86,2-1.93,4.17-3.81,6.23-5.74,2.42-2.27,4.79-4.61,7.12-7a80.81,80.81,0,0,0,7.41-8.59,97.56,97.56,0,0,0,6.74-11.07,73.31,73.31,0,0,0,5.43-12.54,84.79,84.79,0,0,0,2.8-14.31,117.93,117.93,0,0,0,.16-12.33,1.27,1.27,0,0,0,.42-.93,1.22,1.22,0,0,0-.5-1c0-.51,0-1,0-1.53l-.09-2.56c-.17-4.8-1.35-4.12-1.17.68,0,.86,0,1.71.09,2.57,0,.22,0,.44,0,.66a1.25,1.25,0,0,0-.79,1.16,1.2,1.2,0,0,0,.87,1.16c.06,2.13.11,4.25.1,6.38a1.13,1.13,0,0,0-.48-.11,1.24,1.24,0,1,0,0,2.48,1.08,1.08,0,0,0,.44-.09c0,1.38-.1,2.75-.21,4.12-.38,3.1-.86,6.19-1.52,9.24,0-1.45,0-2.92,0-4.37-.11-3.46-.32-6.9-.77-10.33a55.09,55.09,0,0,0-1.39-7,24,24,0,0,0-1.16-3.41,3.51,3.51,0,0,0-.55-.91c-3.91-3.5-5.22-2.71-1.28.75a3.4,3.4,0,0,1,.55.89,23.56,23.56,0,0,1,1.18,3.4,56.85,56.85,0,0,1,1.42,7,101.92,101.92,0,0,1,.79,10.33c.06,1.92,0,3.84,0,5.76a15.56,15.56,0,0,0,.09,2.5l-.15.47c-.79,2.37-1.68,4.68-2.68,7a1.23,1.23,0,1,0-1.07,1.85l.25,0c-.61,1.27-1.24,2.52-1.93,3.75a97.77,97.77,0,0,1-6.75,11.08,80.91,80.91,0,0,1-7.42,8.59c-2.34,2.37-4.7,4.72-7.13,7-2.06,1.93-4.19,3.81-6.25,5.74l-1,1.06a.68.68,0,0,0-.57.58A37.33,37.33,0,0,0,1755,575a68.63,68.63,0,0,0-3.91,5.91c-.45.61-.87,1.23-1.26,1.88s-.85,1.35-1.19,2.06a14.55,14.55,0,0,0-.65,1.45.06.06,0,0,0,0,0c-.34.63-.68,1.25-1,1.89-.41.86-.81,1.72-1.19,2.59,0-.14.05-.29.09-.43a36.39,36.39,0,0,1,1-3.57c.49-1.4,1.07-2.76,1.66-4.13.71-1.66,1.46-3.32,2.18-5,1-2.25,2.12-4.43,3.22-6.62,1.41-2.69,2.65-5.44,3.84-8.22,1.42-3.39,2.82-6.79,4.23-10.19s2.9-7,4.23-10.56a.69.69,0,0,0,.52-.67.62.62,0,0,0-.13-.4c1.35-3.72,2.54-7.5,3.7-11.29,1.33-4.4,2.48-8.85,3.37-13.36a86.78,86.78,0,0,0,1.06-15.86c-.16-5.4-.79-10.77-1.45-16.13-.4-3.22-.89-6.44-1.39-9.65a10.85,10.85,0,0,0-.72-2.85,1.23,1.23,0,0,0,.39.07,1.24,1.24,0,1,0,0-2.48,1.22,1.22,0,0,0-1.23,1.23,1.24,1.24,0,0,0,.33.86c-.24.34-.3,1.66,0,3.85.23,1.42.44,2.85.66,4.28a.7.7,0,0,0-.48-.18.68.68,0,0,0,0,1.36.69.69,0,0,0,.61-.36c.22,1.52.43,3,.62,4.55l.14,1.16a1.19,1.19,0,0,0-.56-.14,1.25,1.25,0,0,0-1.25,1.24,1.24,1.24,0,0,0,1.25,1.23,1.2,1.2,0,0,0,.8-.3c.51,4.3,1,8.61,1.08,12.94a86.8,86.8,0,0,1-1.08,15.86c-.9,4.52-2,9-3.38,13.38-1.07,3.49-2.18,7-3.4,10.4a.68.68,0,0,0-.34.6.64.64,0,0,0,0,.24l-.27.71c-1.38,3.68-2.83,7.35-4.37,11q-2.11,5.1-4.25,10.19c-1.19,2.78-2.44,5.54-3.85,8.23-1.11,2.19-2.23,4.37-3.23,6.62-.73,1.66-1.47,3.33-2.19,5-.58,1.36-1.18,2.72-1.67,4.13a36.2,36.2,0,0,0-1,3.56c-.22,1-.45,2-.63,3.06-.09.44-.17.89-.27,1.33-.53,2.18-.58,3.28-.38,3.45-.06.37-.11.74-.14,1.11a35.86,35.86,0,0,0-.42,4.38c0,.67,0,1.35,0,2-.16.5-.31,1-.43,1.52,0,.21-.07.4-.11.61h-6.09c4.09,1.18,7.29.84,12,12.66Zm1.2-9.57a.69.69,0,0,0,0-1.37.69.69,0,0,0,0,1.37Zm-9.49-3.47a1.25,1.25,0,1,0-1.24-1.24A1.25,1.25,0,0,0,1739.92,608.24Zm6.69-1.49a1.24,1.24,0,1,0,0-2.48,1.24,1.24,0,0,0,0,2.48Zm-8.74-3.48a.68.68,0,1,0-.68-.68A.67.67,0,0,0,1737.87,603.27Zm3.1-1.11a.69.69,0,0,0,0-1.37.69.69,0,0,0,0,1.37Zm11.71-1.48a1.24,1.24,0,1,0,0-2.48,1.24,1.24,0,0,0,0,2.48Zm2.91-2.12a.68.68,0,1,0,0-1.36.68.68,0,1,0,0,1.36Zm-17-1.36a1.24,1.24,0,0,0,1.25-1.23,1.25,1.25,0,1,0-2.49,0A1.24,1.24,0,0,0,1738.55,597.2Zm2.86-3.59a1.24,1.24,0,1,0-1.25-1.25A1.24,1.24,0,0,0,1741.41,593.61Zm16-.49a.69.69,0,1,0-.68-.69A.68.68,0,0,0,1757.46,593.12Zm9-1.12a1.24,1.24,0,1,0-1.25-1.25A1.25,1.25,0,0,0,1766.45,592Zm-13.26-1.49a1.24,1.24,0,0,0,0-2.48,1.24,1.24,0,1,0,0,2.48Zm4.85-.31c.06,0,1.46-.94,3.74-2.62,1-.72,1.92-1.47,3-2.1a43.79,43.79,0,0,1,4.52-2.41l1-.42a1.22,1.22,0,0,0-.29.79,1.24,1.24,0,1,0,1.31-1.22c1.08-.48,2.17-1,3.27-1.38s2.48-1,3.73-1.47l1.59-.6c4.89-1.87,6.16-2.61,1.27-.74l-1.6.61c-1.26.48-2.48,1-3.73,1.48-1.78.68-3.52,1.46-5.26,2.24a70,70,0,0,0-7,3.83c-1,.63-2,1.39-3,2.1-1.77,1.31-2.53,1.9-2.49,1.91Zm-17.25-1.3a1.24,1.24,0,1,0-1.25-1.25A1.25,1.25,0,0,0,1740.79,588.9Zm27.08-1.36a.69.69,0,1,0-.69-.68A.69.69,0,0,0,1767.87,587.54Zm-22.49-1.74a1.24,1.24,0,1,0-1.25-1.25A1.24,1.24,0,0,0,1745.38,585.8Zm6.69-.38a1.22,1.22,0,0,0,1.23-1.23,1.24,1.24,0,0,0-1.23-1.25,1.25,1.25,0,0,0-1.24,1.25A1.24,1.24,0,0,0,1752.07,585.42Zm-16.81-1a.69.69,0,1,0-.68-.68A.69.69,0,0,0,1735.26,584.44Zm43.27-2.37a.68.68,0,1,0-.68-.68A.67.67,0,0,0,1778.53,582.07Zm-14.81-.11a1.24,1.24,0,1,0-1.24-1.25A1.25,1.25,0,0,0,1763.72,582Zm21.88-1.12a.68.68,0,1,0,0-1.36h-.06a1.2,1.2,0,0,0,.37-.87,1.24,1.24,0,1,0-1.24,1.23,1.29,1.29,0,0,0,.35,0,.72.72,0,0,0-.1.36.67.67,0,0,0,.68.68Zm4.28-2.85a1.24,1.24,0,1,0-1.25-1.25A1.25,1.25,0,0,0,1789.88,578Zm-42.27,0a1.24,1.24,0,1,0-1.25-1.25A1.26,1.26,0,0,0,1747.61,578Zm9.78-.13a1.24,1.24,0,1,0-1.23-1.23A1.23,1.23,0,0,0,1757.39,577.86Zm35.64-.12a.68.68,0,1,0-.68-.68A.68.68,0,0,0,1793,577.74Zm-26.64-.87a.68.68,0,1,0-.68-.68A.68.68,0,0,0,1766.39,576.87Zm-11.35-.81,1.23-1.75a30.62,30.62,0,0,1,2.47-3,.65.65,0,0,0,.42.3c-1.33,1.36-2.66,2.72-3.9,4.16l-.22.26Zm23.58-1.87,4-2.26q1.53-.82,3.06-1.68a1.29,1.29,0,0,0,.35,0,1.21,1.21,0,0,0,1.18-.91q2.15-1.2,4.26-2.43l-4.24,2.39a1.27,1.27,0,0,0,0-.28,1.24,1.24,0,1,0-2.48,0,1.27,1.27,0,0,0,.84,1.18l-1,.53q-3,1.69-6,3.42Zm15.91-.17a.68.68,0,0,0,0-1.36.68.68,0,0,0,0,1.36Zm-47.43-1.86a1.25,1.25,0,0,0,1.25-1.24,1.17,1.17,0,0,0-.07-.38l.13,0a.69.69,0,0,0,0-1.38.68.68,0,0,0-.68.67,1.24,1.24,0,1,0-.63,2.31Zm-4-.13a.68.68,0,1,0-.68-.68A.68.68,0,0,0,1743.07,572Zm8.63-4.71a1.22,1.22,0,0,0,1.23-1.23,1.24,1.24,0,1,0-1.23,1.23Zm52.38-.24a.68.68,0,1,0-.69-.68A.69.69,0,0,0,1804.08,567.08Zm-12.1-.42,1.85-1.07a88,88,0,0,0,8.91-6q2.17-1.67,4.2-3.47a1.25,1.25,0,0,0,1.16.81,1.23,1.23,0,0,0,1.23-1.24,1.24,1.24,0,0,0-.71-1.13c1-.92,1.94-1.85,2.89-2.81.69-.69,1.35-1.42,2-2.16l.1-.08c2-1.8,4-3.59,5.94-5.44l.09-.1a1.24,1.24,0,1,0,1.37-1.4,26.18,26.18,0,0,0,3.09-3.8c1.17-1.72,2.33-3.45,3.45-5.2s2.22-3.5,3.29-5.27c.62-1,1.24-2.06,1.84-3.11a1.13,1.13,0,0,0,0,.25,1.24,1.24,0,0,0,1.23,1.25,1.24,1.24,0,1,0,0-2.48,1.22,1.22,0,0,0-.86.35l.5-.92a25.55,25.55,0,0,0,1.27-2.94,12.17,12.17,0,0,1,.44-1.14c.29-.56.52-1,.71-1.45a1.23,1.23,0,0,0,1-1.22,1.24,1.24,0,0,0-.75-1.14.68.68,0,0,0,.5-.65.68.68,0,1,0-1,.56,1.24,1.24,0,0,0-.48,2.35c-.37.61-.78,1.35-1.25,2.29a11.13,11.13,0,0,0-.43,1.14,23.72,23.72,0,0,1-1.26,2.93c-.82,1.59-1.75,3.12-2.67,4.65-1.07,1.77-2.18,3.53-3.29,5.27s-2.28,3.49-3.45,5.21a24.37,24.37,0,0,1-2.53,3.2,1.23,1.23,0,0,0-.61.66l-1.39,1.42q-1.68,1.59-3.39,3.13c1.59-1.95,3.06-4,4.49-6.07a51.1,51.1,0,0,0,6-11.79c.08-.21.14-.43.21-.64a1.24,1.24,0,1,0,1.21-1.49,1.26,1.26,0,0,0-.84.33,62,62,0,0,0,1.54-25c-1-7.9-3-6.78-2,1.12a56.5,56.5,0,0,1,.48,12.73,52.78,52.78,0,0,1-2.62,14,51.07,51.07,0,0,1-6,11.81,75.16,75.16,0,0,1-7,9c-1.47,1.3-3,2.6-4.44,3.88-1.07.95-2.21,1.82-3.33,2.71-3.91,3.13-2.68,2.42,1.23-.71,1-.81,2.05-1.6,3-2.44a.15.15,0,0,0,0,.07c-2,1.85-4,3.64-6.16,5.29a90.61,90.61,0,0,1-8.75,5.91Zm-6.87-.32a.68.68,0,1,0-.68-.68A.68.68,0,0,0,1785.11,566.34Zm12.4-.51a.7.7,0,0,0,.55-.68.68.68,0,1,0-.68.68Zm-27.47-.36a1.24,1.24,0,1,0,0-2.48,1.24,1.24,0,0,0,0,2.48Zm3.78-.38a.68.68,0,1,0-.68-.68A.67.67,0,0,0,1773.82,565.09Zm18-3.1a.68.68,0,1,0-.68-.68A.67.67,0,0,0,1791.8,562Zm6.13-.36a1.25,1.25,0,1,0,0-2.49,1.25,1.25,0,0,0,0,2.49Zm-43.76-.51a1.23,1.23,0,0,0,1.25-1.23,1.25,1.25,0,0,0-2.49,0A1.23,1.23,0,0,0,1754.17,561.12Zm58.7-1.23a.68.68,0,1,0-.68-.68A.67.67,0,0,0,1812.87,559.89Zm-43.7-.25a1.25,1.25,0,0,0,1.25-1.24,1.24,1.24,0,0,0-1.25-1.23,1.22,1.22,0,0,0-1.23,1.23A1.24,1.24,0,0,0,1769.17,559.64Zm-18.53-2.11a.68.68,0,1,0,0-1.36.68.68,0,0,0,0,1.36Zm50-.12a1.25,1.25,0,0,0,1.24-1.24,1.24,1.24,0,1,0-1.24,1.24Zm-44.5-1.24a1.24,1.24,0,0,0,.69-2.26.66.66,0,0,0,.05-.28.68.68,0,0,0-1.36,0,.54.54,0,0,0,0,.22,1.23,1.23,0,0,0,.58,2.32Zm26.78-1.12a1.23,1.23,0,0,0,1.23-1.23,1.24,1.24,0,1,0-1.23,1.23Zm-22.84-.45c.29,0,.85-1.42,1.33-4s1-5.2,1.25-7.83a72.17,72.17,0,0,0,.43-9.75,61,61,0,0,0-.69-7.27c-.26-1.62-.5-3.25-.92-4.84a14.52,14.52,0,0,0-.57-1.84c-2.15-4.78-3.51-4-1.28.74a12.84,12.84,0,0,1,.58,1.82c.42,1.59.68,3.22.94,4.84a61.1,61.1,0,0,1,.71,7.26,73.67,73.67,0,0,1-.4,9.74c-.29,2.63-.76,5.23-1.25,7.82-.42,2.26-.38,3.31-.13,3.29Zm26.49,0a.68.68,0,1,0,0-1.36.68.68,0,1,0,0,1.36Zm-20.33-.49a.69.69,0,1,0-.68-.68A.69.69,0,0,0,1766.26,554.07Zm8.13-2.24a1.24,1.24,0,0,0,1.23-1.24,1.24,1.24,0,0,0-2.48,0A1.25,1.25,0,0,0,1774.39,551.83Zm34.58-1a1.24,1.24,0,0,0,0-2.48,1.24,1.24,0,1,0,0,2.48Zm13.94-2.86a.68.68,0,1,0-.68-.68A.67.67,0,0,0,1822.91,548Zm-23.62-5.82a1.24,1.24,0,1,0-1.23-1.24A1.24,1.24,0,0,0,1799.29,542.16Zm13.2-2a.68.68,0,1,0,0-1.36.68.68,0,0,0,0,1.36Zm-60.3-.85a1.25,1.25,0,0,0,0-2.5,1.25,1.25,0,0,0,0,2.5Zm31.37-.51a1.24,1.24,0,0,0,0-2.48,1.24,1.24,0,1,0,0,2.48Zm47.78-1.48a.68.68,0,1,0-.68-.68A.67.67,0,0,0,1831.34,537.33Zm-1.55-1a1.24,1.24,0,0,0,1.25-1.23,1.25,1.25,0,1,0-2.49,0A1.24,1.24,0,0,0,1829.79,536.33Zm-38.55-.36a1.25,1.25,0,0,0,0-2.49,1.25,1.25,0,0,0,0,2.49Zm-20.46-1.38a1.23,1.23,0,0,0,1.24-1.23,1.25,1.25,0,0,0-1.24-1.24,1.23,1.23,0,0,0-1.23,1.24A1.22,1.22,0,0,0,1770.78,534.59Zm-13-5.31a.7.7,0,0,0,.69-.7.69.69,0,0,0-1.37,0A.7.7,0,0,0,1757.82,529.28ZM1765,529a1.23,1.23,0,0,0,1.25-1.23,1.24,1.24,0,1,0-2.48,0A1.22,1.22,0,0,0,1765,529Zm54.67-.36a1.24,1.24,0,1,0,0-2.48,1.24,1.24,0,0,0,0,2.48Zm-47-1.24a.69.69,0,0,0,0-1.37.69.69,0,1,0,0,1.37Zm17.17-5.21A1.24,1.24,0,0,0,1791,521a1.22,1.22,0,0,0-1.23-1.23,1.24,1.24,0,0,0-1.25,1.23A1.25,1.25,0,0,0,1789.76,522.2Zm14.62-.13a1.24,1.24,0,0,0,1.25-1.23,1.25,1.25,0,0,0-1.25-1.24,1.24,1.24,0,0,0-1.23,1.24A1.22,1.22,0,0,0,1804.38,522.07Zm25.79-1.36a1.23,1.23,0,0,0,1.23-1.23,1.25,1.25,0,0,0-1.23-1.25,1.26,1.26,0,0,0-1.25,1.25A1.25,1.25,0,0,0,1830.17,520.71Zm-62-1a1.25,1.25,0,0,0,1.23-1.25,1.24,1.24,0,0,0-2.48,0A1.26,1.26,0,0,0,1768.19,519.73Zm31.48-.13a1.24,1.24,0,1,0-1.25-1.24A1.25,1.25,0,0,0,1799.67,519.6Zm-24.85-2.73a.68.68,0,0,0,0-1.36.68.68,0,1,0,0,1.36Zm-17.86-2a.68.68,0,1,0,0-1.36.68.68,0,1,0,0,1.36Zm45-.25a.68.68,0,1,0-.68-.68A.67.67,0,0,0,1802,514.64Zm19.89-1.11a1.26,1.26,0,0,0,1.25-1.25,1.24,1.24,0,0,0-2.48,0A1.25,1.25,0,0,0,1821.85,513.53ZM1789,513a.68.68,0,1,0-.68-.68A.68.68,0,0,0,1789,513Zm48.71-1.11a.69.69,0,0,0,0-1.37.69.69,0,0,0,0,1.37Zm-47.16-.25a1.25,1.25,0,1,0-1.25-1.25A1.24,1.24,0,0,0,1790.5,511.67Zm19.83-.38a1.24,1.24,0,0,0,1.24-1.24,1.24,1.24,0,0,0-2.48,0A1.25,1.25,0,0,0,1810.33,511.29Zm8.5-1.74a.68.68,0,1,0,0-1.36.68.68,0,1,0,0,1.36Zm18.53-.37a1.24,1.24,0,0,0,0-2.48,1.24,1.24,0,1,0,0,2.48Zm-65.62,0a.69.69,0,0,0,.53-.68.68.68,0,1,0-.68.68Zm57-2a.69.69,0,0,0,.68-.68.68.68,0,1,0-1.36,0A.68.68,0,0,0,1828.74,507.21ZM1779.1,506a1.24,1.24,0,1,0-1.25-1.24A1.24,1.24,0,0,0,1779.1,506Zm42-1a.69.69,0,0,0,.68-.68.68.68,0,1,0-1.36,0A.68.68,0,0,0,1821.06,505Zm-20.4-1.74a1.25,1.25,0,0,0,1.24-1.25s0-.05,0-.07a.66.66,0,0,0,.32.07.68.68,0,1,0-.66-.85,1.2,1.2,0,0,0-.89-.38,1.24,1.24,0,1,0,0,2.48Zm13.33-1.49a.69.69,0,0,0,0-1.37.69.69,0,0,0,0,1.37Zm21.08-.25a.68.68,0,1,0,0-1.36.68.68,0,0,0,0,1.36Zm-5.28-.13a1.24,1.24,0,1,0-1.24-1.23A1.24,1.24,0,0,0,1829.79,501.37ZM1778,501a1.25,1.25,0,0,0,1.23-1.25,1.23,1.23,0,0,0-1.23-1.23,1.25,1.25,0,0,0-1.25,1.23A1.26,1.26,0,0,0,1778,501Zm10.53-1.37a1.25,1.25,0,0,0,1.25-1.24,1.24,1.24,0,0,0-2.41-.42.68.68,0,0,0-.2.48.66.66,0,0,0,.31.56,1.21,1.21,0,0,0,1,.62Zm27.77-1.11a1.24,1.24,0,1,0,0-2.48,1.24,1.24,0,1,0,0,2.48Zm-45.75-1.25a1.23,1.23,0,0,0,1.25-1.23,1.24,1.24,0,1,0-2.48,0A1.22,1.22,0,0,0,1770.53,497.28Zm20.9-3.84a.68.68,0,1,0-.68-.68A.68.68,0,0,0,1791.43,493.44Zm41.77-.24a.69.69,0,1,0-.68-.68A.68.68,0,0,0,1833.2,493.2Zm-56.65-.13a.69.69,0,1,0-.68-.68A.69.69,0,0,0,1776.55,493.07Zm48-2.86a.68.68,0,1,0-.68-.68A.67.67,0,0,0,1824.52,490.21Zm2.67-1a1.25,1.25,0,0,0,1.24-1.25,1.24,1.24,0,1,0-1.24,1.25Zm-44.56-1.5a.68.68,0,1,0,0-1.36.68.68,0,1,0,0,1.36Zm5.64-.49a1.23,1.23,0,0,0,1.23-1.23,1.24,1.24,0,1,0-1.23,1.23Zm-10.67-2a1.24,1.24,0,1,0-1.24-1.24A1.24,1.24,0,0,0,1777.6,485.26Zm35.76-.37a.69.69,0,0,0,.68-.69.68.68,0,0,0-1.36,0A.7.7,0,0,0,1813.36,484.89Zm-16-.13a1.25,1.25,0,0,0,1.25-1.24,1.24,1.24,0,0,0-1.25-1.23,1.22,1.22,0,0,0-1.23,1.23A1.24,1.24,0,0,0,1797.31,484.76Zm21.39-1.24a.68.68,0,1,0-.69-.68A.69.69,0,0,0,1818.7,483.52Zm-23.93-2.84a.68.68,0,1,0-.68-.68A.68.68,0,0,0,1794.77,480.68Zm-26.58-.38a1.24,1.24,0,1,0-1.25-1.24A1.24,1.24,0,0,0,1768.19,480.3Zm46.67-3a.68.68,0,1,0-.68-.68A.68.68,0,0,0,1814.86,477.33Zm4.4-.87a1.24,1.24,0,0,0,0-2.48,1.24,1.24,0,1,0,0,2.48Zm-52.76-1.87a.68.68,0,1,0-.68-.68A.68.68,0,0,0,1766.5,474.59Zm52.82-2.59a.68.68,0,1,0-.68-.68A.68.68,0,0,0,1819.32,472Zm-34.09-1.87a.68.68,0,1,0-.69-.68A.69.69,0,0,0,1785.23,470.13Zm-17.48-3.35a.68.68,0,1,0-.68-.68A.67.67,0,0,0,1767.75,466.78Zm3.46-2.48a.68.68,0,1,0-.68-.68A.68.68,0,0,0,1771.21,464.3Z" transform="translate(-1714.72 -439.77)"/><path class="cls-11" d="M1798.57,476.93s-.13.1-.21.67,0,5.52-.21,6.57l-5.3.87s-.15-.55-.36-1.24l.43-.06a.47.47,0,0,0,.43-.51.49.49,0,0,0-.52-.44h0l-.59.07c-.32-1-.68-1.9-.89-1.87s-.25,1-.25,2l-.94.12a.48.48,0,0,0-.39.29.49.49,0,0,0,.06.48.47.47,0,0,0,.45.18l.84-.11c0,.75.05,1.35.05,1.35l-6.41,1.05s-.16-.51-.38-1.17l.57-.07a.51.51,0,0,0,.45-.55.52.52,0,0,0-.54-.46h0l-.8.09c-.42-1.09-.91-2.19-1.2-2.14s-.39,1.2-.42,2.34l-.86.11a.51.51,0,0,0-.36.81.5.5,0,0,0,.48.19l.73-.09c0,.74,0,1.31,0,1.31l-6.58,1.08s-.14-.52-.34-1.19l.54-.07a.47.47,0,0,0,.43-.51.49.49,0,0,0-.52-.44h0l-.7.1c-.32-1-.7-2-.92-2s-.26,1.06-.26,2.12l-.8.1a.48.48,0,0,0-.38.29.46.46,0,0,0,.06.48.49.49,0,0,0,.45.18l.69-.09c0,.72,0,1.29,0,1.29l-5,.83c-.53-.91-1.35-2.33-1.66-2.93s-.36-.59-.4-.57,0,.05,0,.05l.7,4.51.81,2.26c.22,1.3,1.16,2.22,1.77,2.12l.35-.06a8.49,8.49,0,0,1-1.73.78c-3.11,1.11-2.66,3.11-4.66,4.44s-4.88,9.1-5.55,17.53,2.89,15.32,7.1,17.1,4.22,4.43,4.66,5.76.89,3.11,2.22,3.56,1.55,0,.67,1.55-2.45,2-5.11,4.66-4.44,8.65-5.55,8.21-2.44,1.11-3.55,2.44-6.21,6.88-7.1,10.65,10.87-2.88,22.86,16.43,39.73,22.41,39.73,18.19-13.49-24.8-15.32-27.85a91.84,91.84,0,0,1-6-11.21c-1.16-3.05-2-3.88-1.94-4.66s4.6-8,6.66-11,4.27-6.16,5.32-6.82,8.1-.89,9.16-1a4.84,4.84,0,0,0,3.61-1.66,4.44,4.44,0,0,0,.49-4.38,6,6,0,0,1-.72-2.94c.06-1.17.56-1.45.83-1.61a2.17,2.17,0,0,0,.51-1.61c-.06-.61-.89-1-1-1.22s.89-.84.89-1.39a19.1,19.1,0,0,0-.28-2.11,3.4,3.4,0,0,1,.5-2.38c.22-.39,1.72-.89,2.67-1.61a2.82,2.82,0,0,0,1.22-2.66c-.17-.95-1.83-2.12-2.72-2.89s-2.72-2.33-3.89-3.16a3.82,3.82,0,0,1-1.37-1.45.76.76,0,0,0,.3,0c.31-.09.87.11.65,0s-.29-.05-.54-.05-.14-.26.06-.32.82-.45.53-.33-.47,0-.35-.22a1.62,1.62,0,0,1,.35-.33,1.25,1.25,0,0,0-.53.37c-.08-.09.15-.42.28-.59a.71.71,0,0,0-.31.37,1.23,1.23,0,0,1-.7.64l-.53-1.15c-.29-1,.08-.93.32-1.56s.47-.7,0-1.33a9.13,9.13,0,0,1-.94-2.43c-.24-.71.78.78.94,1.33s.45-2.17-.21-4.83a16.42,16.42,0,0,0-13.09-11.76l-.64-.11a2.42,2.42,0,0,0,.89-2.54l.06-2.29-1.16-7.89s0,0,0,0ZM1814,510.52a.2.2,0,0,0,.08-.08S1814.06,510.44,1814,510.52Z" transform="translate(-1714.72 -439.77)"/><path class="cls-12" d="M1842.82,474.86c-2.71-.07-4.61-1.12-6.53-3.61a6.57,6.57,0,0,0,3.56-1.66,8.17,8.17,0,0,0,2.66-6.37c0-4.77-3.23-8.19-7.77-8.19s-7.77,3.42-7.77,8.24a8.27,8.27,0,0,0,2.12,5.8,6.92,6.92,0,0,0,3.37,2l1.12,1.3c1.61,1.88,4.49,2.9,8.26,2.9.36,0,.57,0,.83,0h.15v-.43m-8-19a4.59,4.59,0,0,1,3,1.19c1.28,1.14,2,3.42,2,6.11,0,2.35-.69,4.77-1.64,5.86a4.56,4.56,0,0,1-3.42,1.52,4.51,4.51,0,0,1-3-1.16c-1.26-1.12-2-3.49-2-6.27a9.42,9.42,0,0,1,1.66-5.7,4.5,4.5,0,0,1,3.47-1.55" transform="translate(-1714.72 -439.77)"/><path class="cls-13" d="M1746.38,459.2a86,86,0,0,0,6.13,8,83.71,83.71,0,0,0,7.09,7,81.54,81.54,0,0,0-7,6.94,84,84,0,0,0-6.08,7.94,85.56,85.56,0,0,0-6.17-8,84.43,84.43,0,0,0-7.13-7,80.91,80.91,0,0,0,7.07-6.91,84.09,84.09,0,0,0,6.12-7.92Z" transform="translate(-1714.72 -439.77)"/></svg>